G04 #@! TF.GenerationSoftware,KiCad,Pcbnew,(5.1.9-0-10_14)*
G04 #@! TF.CreationDate,2021-04-27T22:18:25+09:00*
G04 #@! TF.ProjectId,BldcDriver,426c6463-4472-4697-9665-722e6b696361,3.2*
G04 #@! TF.SameCoordinates,Original*
G04 #@! TF.FileFunction,Paste,Bot*
G04 #@! TF.FilePolarity,Positive*
%FSLAX46Y46*%
G04 Gerber Fmt 4.6, Leading zero omitted, Abs format (unit mm)*
G04 Created by KiCad (PCBNEW (5.1.9-0-10_14)) date 2021-04-27 22:18:25*
%MOMM*%
%LPD*%
G01*
G04 APERTURE LIST*
%ADD10C,0.100000*%
%ADD11R,1.840000X2.200000*%
%ADD12R,1.500000X1.000000*%
%ADD13R,1.800000X1.000000*%
%ADD14R,0.900000X1.200000*%
G04 APERTURE END LIST*
D10*
G36*
X-30676200Y8400000D02*
G01*
X-29676200Y9100000D01*
X-29676200Y6900000D01*
X-30676200Y7600000D01*
X-30676200Y8400000D01*
G37*
D11*
X-28766500Y8000000D03*
D12*
X-31580000Y9500000D03*
D13*
X-31433500Y8000000D03*
D12*
X-31580000Y6500000D03*
D10*
G36*
X-27008000Y7500000D02*
G01*
X-27858000Y6900000D01*
X-27858000Y9100000D01*
X-27008000Y8500000D01*
X-27008000Y7500000D01*
G37*
G36*
G01*
X-19650000Y-13055000D02*
X-19650000Y-12755000D01*
G75*
G02*
X-19500000Y-12605000I150000J0D01*
G01*
X-17650000Y-12605000D01*
G75*
G02*
X-17500000Y-12755000I0J-150000D01*
G01*
X-17500000Y-13055000D01*
G75*
G02*
X-17650000Y-13205000I-150000J0D01*
G01*
X-19500000Y-13205000D01*
G75*
G02*
X-19650000Y-13055000I0J150000D01*
G01*
G37*
G36*
G01*
X-19650000Y-11785000D02*
X-19650000Y-11485000D01*
G75*
G02*
X-19500000Y-11335000I150000J0D01*
G01*
X-17650000Y-11335000D01*
G75*
G02*
X-17500000Y-11485000I0J-150000D01*
G01*
X-17500000Y-11785000D01*
G75*
G02*
X-17650000Y-11935000I-150000J0D01*
G01*
X-19500000Y-11935000D01*
G75*
G02*
X-19650000Y-11785000I0J150000D01*
G01*
G37*
G36*
G01*
X-19650000Y-10515000D02*
X-19650000Y-10215000D01*
G75*
G02*
X-19500000Y-10065000I150000J0D01*
G01*
X-17650000Y-10065000D01*
G75*
G02*
X-17500000Y-10215000I0J-150000D01*
G01*
X-17500000Y-10515000D01*
G75*
G02*
X-17650000Y-10665000I-150000J0D01*
G01*
X-19500000Y-10665000D01*
G75*
G02*
X-19650000Y-10515000I0J150000D01*
G01*
G37*
G36*
G01*
X-19650000Y-9245000D02*
X-19650000Y-8945000D01*
G75*
G02*
X-19500000Y-8795000I150000J0D01*
G01*
X-17650000Y-8795000D01*
G75*
G02*
X-17500000Y-8945000I0J-150000D01*
G01*
X-17500000Y-9245000D01*
G75*
G02*
X-17650000Y-9395000I-150000J0D01*
G01*
X-19500000Y-9395000D01*
G75*
G02*
X-19650000Y-9245000I0J150000D01*
G01*
G37*
G36*
G01*
X-14500000Y-9245000D02*
X-14500000Y-8945000D01*
G75*
G02*
X-14350000Y-8795000I150000J0D01*
G01*
X-12500000Y-8795000D01*
G75*
G02*
X-12350000Y-8945000I0J-150000D01*
G01*
X-12350000Y-9245000D01*
G75*
G02*
X-12500000Y-9395000I-150000J0D01*
G01*
X-14350000Y-9395000D01*
G75*
G02*
X-14500000Y-9245000I0J150000D01*
G01*
G37*
G36*
G01*
X-14500000Y-10515000D02*
X-14500000Y-10215000D01*
G75*
G02*
X-14350000Y-10065000I150000J0D01*
G01*
X-12500000Y-10065000D01*
G75*
G02*
X-12350000Y-10215000I0J-150000D01*
G01*
X-12350000Y-10515000D01*
G75*
G02*
X-12500000Y-10665000I-150000J0D01*
G01*
X-14350000Y-10665000D01*
G75*
G02*
X-14500000Y-10515000I0J150000D01*
G01*
G37*
G36*
G01*
X-14500000Y-11785000D02*
X-14500000Y-11485000D01*
G75*
G02*
X-14350000Y-11335000I150000J0D01*
G01*
X-12500000Y-11335000D01*
G75*
G02*
X-12350000Y-11485000I0J-150000D01*
G01*
X-12350000Y-11785000D01*
G75*
G02*
X-12500000Y-11935000I-150000J0D01*
G01*
X-14350000Y-11935000D01*
G75*
G02*
X-14500000Y-11785000I0J150000D01*
G01*
G37*
G36*
G01*
X-14500000Y-13055000D02*
X-14500000Y-12755000D01*
G75*
G02*
X-14350000Y-12605000I150000J0D01*
G01*
X-12500000Y-12605000D01*
G75*
G02*
X-12350000Y-12755000I0J-150000D01*
G01*
X-12350000Y-13055000D01*
G75*
G02*
X-12500000Y-13205000I-150000J0D01*
G01*
X-14350000Y-13205000D01*
G75*
G02*
X-14500000Y-13055000I0J150000D01*
G01*
G37*
G36*
G01*
X-14500000Y-2055000D02*
X-14500000Y-1755000D01*
G75*
G02*
X-14350000Y-1605000I150000J0D01*
G01*
X-12500000Y-1605000D01*
G75*
G02*
X-12350000Y-1755000I0J-150000D01*
G01*
X-12350000Y-2055000D01*
G75*
G02*
X-12500000Y-2205000I-150000J0D01*
G01*
X-14350000Y-2205000D01*
G75*
G02*
X-14500000Y-2055000I0J150000D01*
G01*
G37*
G36*
G01*
X-14500000Y-785000D02*
X-14500000Y-485000D01*
G75*
G02*
X-14350000Y-335000I150000J0D01*
G01*
X-12500000Y-335000D01*
G75*
G02*
X-12350000Y-485000I0J-150000D01*
G01*
X-12350000Y-785000D01*
G75*
G02*
X-12500000Y-935000I-150000J0D01*
G01*
X-14350000Y-935000D01*
G75*
G02*
X-14500000Y-785000I0J150000D01*
G01*
G37*
G36*
G01*
X-14500000Y485000D02*
X-14500000Y785000D01*
G75*
G02*
X-14350000Y935000I150000J0D01*
G01*
X-12500000Y935000D01*
G75*
G02*
X-12350000Y785000I0J-150000D01*
G01*
X-12350000Y485000D01*
G75*
G02*
X-12500000Y335000I-150000J0D01*
G01*
X-14350000Y335000D01*
G75*
G02*
X-14500000Y485000I0J150000D01*
G01*
G37*
G36*
G01*
X-14500000Y1755000D02*
X-14500000Y2055000D01*
G75*
G02*
X-14350000Y2205000I150000J0D01*
G01*
X-12500000Y2205000D01*
G75*
G02*
X-12350000Y2055000I0J-150000D01*
G01*
X-12350000Y1755000D01*
G75*
G02*
X-12500000Y1605000I-150000J0D01*
G01*
X-14350000Y1605000D01*
G75*
G02*
X-14500000Y1755000I0J150000D01*
G01*
G37*
G36*
G01*
X-19650000Y1755000D02*
X-19650000Y2055000D01*
G75*
G02*
X-19500000Y2205000I150000J0D01*
G01*
X-17650000Y2205000D01*
G75*
G02*
X-17500000Y2055000I0J-150000D01*
G01*
X-17500000Y1755000D01*
G75*
G02*
X-17650000Y1605000I-150000J0D01*
G01*
X-19500000Y1605000D01*
G75*
G02*
X-19650000Y1755000I0J150000D01*
G01*
G37*
G36*
G01*
X-19650000Y485000D02*
X-19650000Y785000D01*
G75*
G02*
X-19500000Y935000I150000J0D01*
G01*
X-17650000Y935000D01*
G75*
G02*
X-17500000Y785000I0J-150000D01*
G01*
X-17500000Y485000D01*
G75*
G02*
X-17650000Y335000I-150000J0D01*
G01*
X-19500000Y335000D01*
G75*
G02*
X-19650000Y485000I0J150000D01*
G01*
G37*
G36*
G01*
X-19650000Y-785000D02*
X-19650000Y-485000D01*
G75*
G02*
X-19500000Y-335000I150000J0D01*
G01*
X-17650000Y-335000D01*
G75*
G02*
X-17500000Y-485000I0J-150000D01*
G01*
X-17500000Y-785000D01*
G75*
G02*
X-17650000Y-935000I-150000J0D01*
G01*
X-19500000Y-935000D01*
G75*
G02*
X-19650000Y-785000I0J150000D01*
G01*
G37*
G36*
G01*
X-19650000Y-2055000D02*
X-19650000Y-1755000D01*
G75*
G02*
X-19500000Y-1605000I150000J0D01*
G01*
X-17650000Y-1605000D01*
G75*
G02*
X-17500000Y-1755000I0J-150000D01*
G01*
X-17500000Y-2055000D01*
G75*
G02*
X-17650000Y-2205000I-150000J0D01*
G01*
X-19500000Y-2205000D01*
G75*
G02*
X-19650000Y-2055000I0J150000D01*
G01*
G37*
G36*
G01*
X-19650000Y8945000D02*
X-19650000Y9245000D01*
G75*
G02*
X-19500000Y9395000I150000J0D01*
G01*
X-17650000Y9395000D01*
G75*
G02*
X-17500000Y9245000I0J-150000D01*
G01*
X-17500000Y8945000D01*
G75*
G02*
X-17650000Y8795000I-150000J0D01*
G01*
X-19500000Y8795000D01*
G75*
G02*
X-19650000Y8945000I0J150000D01*
G01*
G37*
G36*
G01*
X-19650000Y10215000D02*
X-19650000Y10515000D01*
G75*
G02*
X-19500000Y10665000I150000J0D01*
G01*
X-17650000Y10665000D01*
G75*
G02*
X-17500000Y10515000I0J-150000D01*
G01*
X-17500000Y10215000D01*
G75*
G02*
X-17650000Y10065000I-150000J0D01*
G01*
X-19500000Y10065000D01*
G75*
G02*
X-19650000Y10215000I0J150000D01*
G01*
G37*
G36*
G01*
X-19650000Y11485000D02*
X-19650000Y11785000D01*
G75*
G02*
X-19500000Y11935000I150000J0D01*
G01*
X-17650000Y11935000D01*
G75*
G02*
X-17500000Y11785000I0J-150000D01*
G01*
X-17500000Y11485000D01*
G75*
G02*
X-17650000Y11335000I-150000J0D01*
G01*
X-19500000Y11335000D01*
G75*
G02*
X-19650000Y11485000I0J150000D01*
G01*
G37*
G36*
G01*
X-19650000Y12755000D02*
X-19650000Y13055000D01*
G75*
G02*
X-19500000Y13205000I150000J0D01*
G01*
X-17650000Y13205000D01*
G75*
G02*
X-17500000Y13055000I0J-150000D01*
G01*
X-17500000Y12755000D01*
G75*
G02*
X-17650000Y12605000I-150000J0D01*
G01*
X-19500000Y12605000D01*
G75*
G02*
X-19650000Y12755000I0J150000D01*
G01*
G37*
G36*
G01*
X-14500000Y12755000D02*
X-14500000Y13055000D01*
G75*
G02*
X-14350000Y13205000I150000J0D01*
G01*
X-12500000Y13205000D01*
G75*
G02*
X-12350000Y13055000I0J-150000D01*
G01*
X-12350000Y12755000D01*
G75*
G02*
X-12500000Y12605000I-150000J0D01*
G01*
X-14350000Y12605000D01*
G75*
G02*
X-14500000Y12755000I0J150000D01*
G01*
G37*
G36*
G01*
X-14500000Y11485000D02*
X-14500000Y11785000D01*
G75*
G02*
X-14350000Y11935000I150000J0D01*
G01*
X-12500000Y11935000D01*
G75*
G02*
X-12350000Y11785000I0J-150000D01*
G01*
X-12350000Y11485000D01*
G75*
G02*
X-12500000Y11335000I-150000J0D01*
G01*
X-14350000Y11335000D01*
G75*
G02*
X-14500000Y11485000I0J150000D01*
G01*
G37*
G36*
G01*
X-14500000Y10215000D02*
X-14500000Y10515000D01*
G75*
G02*
X-14350000Y10665000I150000J0D01*
G01*
X-12500000Y10665000D01*
G75*
G02*
X-12350000Y10515000I0J-150000D01*
G01*
X-12350000Y10215000D01*
G75*
G02*
X-12500000Y10065000I-150000J0D01*
G01*
X-14350000Y10065000D01*
G75*
G02*
X-14500000Y10215000I0J150000D01*
G01*
G37*
G36*
G01*
X-14500000Y8945000D02*
X-14500000Y9245000D01*
G75*
G02*
X-14350000Y9395000I150000J0D01*
G01*
X-12500000Y9395000D01*
G75*
G02*
X-12350000Y9245000I0J-150000D01*
G01*
X-12350000Y8945000D01*
G75*
G02*
X-12500000Y8795000I-150000J0D01*
G01*
X-14350000Y8795000D01*
G75*
G02*
X-14500000Y8945000I0J150000D01*
G01*
G37*
G36*
G01*
X-9850000Y-8862500D02*
X-9850000Y-9337500D01*
G75*
G02*
X-10087500Y-9575000I-237500J0D01*
G01*
X-10662500Y-9575000D01*
G75*
G02*
X-10900000Y-9337500I0J237500D01*
G01*
X-10900000Y-8862500D01*
G75*
G02*
X-10662500Y-8625000I237500J0D01*
G01*
X-10087500Y-8625000D01*
G75*
G02*
X-9850000Y-8862500I0J-237500D01*
G01*
G37*
G36*
G01*
X-8100000Y-8862500D02*
X-8100000Y-9337500D01*
G75*
G02*
X-8337500Y-9575000I-237500J0D01*
G01*
X-8912500Y-9575000D01*
G75*
G02*
X-9150000Y-9337500I0J237500D01*
G01*
X-9150000Y-8862500D01*
G75*
G02*
X-8912500Y-8625000I237500J0D01*
G01*
X-8337500Y-8625000D01*
G75*
G02*
X-8100000Y-8862500I0J-237500D01*
G01*
G37*
G36*
G01*
X-9850000Y-10762500D02*
X-9850000Y-11237500D01*
G75*
G02*
X-10087500Y-11475000I-237500J0D01*
G01*
X-10662500Y-11475000D01*
G75*
G02*
X-10900000Y-11237500I0J237500D01*
G01*
X-10900000Y-10762500D01*
G75*
G02*
X-10662500Y-10525000I237500J0D01*
G01*
X-10087500Y-10525000D01*
G75*
G02*
X-9850000Y-10762500I0J-237500D01*
G01*
G37*
G36*
G01*
X-8100000Y-10762500D02*
X-8100000Y-11237500D01*
G75*
G02*
X-8337500Y-11475000I-237500J0D01*
G01*
X-8912500Y-11475000D01*
G75*
G02*
X-9150000Y-11237500I0J237500D01*
G01*
X-9150000Y-10762500D01*
G75*
G02*
X-8912500Y-10525000I237500J0D01*
G01*
X-8337500Y-10525000D01*
G75*
G02*
X-8100000Y-10762500I0J-237500D01*
G01*
G37*
G36*
G01*
X-9850000Y2137500D02*
X-9850000Y1662500D01*
G75*
G02*
X-10087500Y1425000I-237500J0D01*
G01*
X-10662500Y1425000D01*
G75*
G02*
X-10900000Y1662500I0J237500D01*
G01*
X-10900000Y2137500D01*
G75*
G02*
X-10662500Y2375000I237500J0D01*
G01*
X-10087500Y2375000D01*
G75*
G02*
X-9850000Y2137500I0J-237500D01*
G01*
G37*
G36*
G01*
X-8100000Y2137500D02*
X-8100000Y1662500D01*
G75*
G02*
X-8337500Y1425000I-237500J0D01*
G01*
X-8912500Y1425000D01*
G75*
G02*
X-9150000Y1662500I0J237500D01*
G01*
X-9150000Y2137500D01*
G75*
G02*
X-8912500Y2375000I237500J0D01*
G01*
X-8337500Y2375000D01*
G75*
G02*
X-8100000Y2137500I0J-237500D01*
G01*
G37*
G36*
G01*
X-9850000Y237500D02*
X-9850000Y-237500D01*
G75*
G02*
X-10087500Y-475000I-237500J0D01*
G01*
X-10662500Y-475000D01*
G75*
G02*
X-10900000Y-237500I0J237500D01*
G01*
X-10900000Y237500D01*
G75*
G02*
X-10662500Y475000I237500J0D01*
G01*
X-10087500Y475000D01*
G75*
G02*
X-9850000Y237500I0J-237500D01*
G01*
G37*
G36*
G01*
X-8100000Y237500D02*
X-8100000Y-237500D01*
G75*
G02*
X-8337500Y-475000I-237500J0D01*
G01*
X-8912500Y-475000D01*
G75*
G02*
X-9150000Y-237500I0J237500D01*
G01*
X-9150000Y237500D01*
G75*
G02*
X-8912500Y475000I237500J0D01*
G01*
X-8337500Y475000D01*
G75*
G02*
X-8100000Y237500I0J-237500D01*
G01*
G37*
G36*
G01*
X-9850000Y13137500D02*
X-9850000Y12662500D01*
G75*
G02*
X-10087500Y12425000I-237500J0D01*
G01*
X-10662500Y12425000D01*
G75*
G02*
X-10900000Y12662500I0J237500D01*
G01*
X-10900000Y13137500D01*
G75*
G02*
X-10662500Y13375000I237500J0D01*
G01*
X-10087500Y13375000D01*
G75*
G02*
X-9850000Y13137500I0J-237500D01*
G01*
G37*
G36*
G01*
X-8100000Y13137500D02*
X-8100000Y12662500D01*
G75*
G02*
X-8337500Y12425000I-237500J0D01*
G01*
X-8912500Y12425000D01*
G75*
G02*
X-9150000Y12662500I0J237500D01*
G01*
X-9150000Y13137500D01*
G75*
G02*
X-8912500Y13375000I237500J0D01*
G01*
X-8337500Y13375000D01*
G75*
G02*
X-8100000Y13137500I0J-237500D01*
G01*
G37*
G36*
G01*
X-9850000Y11237500D02*
X-9850000Y10762500D01*
G75*
G02*
X-10087500Y10525000I-237500J0D01*
G01*
X-10662500Y10525000D01*
G75*
G02*
X-10900000Y10762500I0J237500D01*
G01*
X-10900000Y11237500D01*
G75*
G02*
X-10662500Y11475000I237500J0D01*
G01*
X-10087500Y11475000D01*
G75*
G02*
X-9850000Y11237500I0J-237500D01*
G01*
G37*
G36*
G01*
X-8100000Y11237500D02*
X-8100000Y10762500D01*
G75*
G02*
X-8337500Y10525000I-237500J0D01*
G01*
X-8912500Y10525000D01*
G75*
G02*
X-9150000Y10762500I0J237500D01*
G01*
X-9150000Y11237500D01*
G75*
G02*
X-8912500Y11475000I237500J0D01*
G01*
X-8337500Y11475000D01*
G75*
G02*
X-8100000Y11237500I0J-237500D01*
G01*
G37*
D14*
X-16700000Y-15000000D03*
X-13400000Y-15000000D03*
X-16700000Y-4000000D03*
X-13400000Y-4000000D03*
X-16700000Y7000000D03*
X-13400000Y7000000D03*
G36*
G01*
X-30375000Y4462500D02*
X-30375000Y4937500D01*
G75*
G02*
X-30137500Y5175000I237500J0D01*
G01*
X-29562500Y5175000D01*
G75*
G02*
X-29325000Y4937500I0J-237500D01*
G01*
X-29325000Y4462500D01*
G75*
G02*
X-29562500Y4225000I-237500J0D01*
G01*
X-30137500Y4225000D01*
G75*
G02*
X-30375000Y4462500I0J237500D01*
G01*
G37*
G36*
G01*
X-32125000Y4462500D02*
X-32125000Y4937500D01*
G75*
G02*
X-31887500Y5175000I237500J0D01*
G01*
X-31312500Y5175000D01*
G75*
G02*
X-31075000Y4937500I0J-237500D01*
G01*
X-31075000Y4462500D01*
G75*
G02*
X-31312500Y4225000I-237500J0D01*
G01*
X-31887500Y4225000D01*
G75*
G02*
X-32125000Y4462500I0J237500D01*
G01*
G37*
G36*
G01*
X-30375000Y11062500D02*
X-30375000Y11537500D01*
G75*
G02*
X-30137500Y11775000I237500J0D01*
G01*
X-29562500Y11775000D01*
G75*
G02*
X-29325000Y11537500I0J-237500D01*
G01*
X-29325000Y11062500D01*
G75*
G02*
X-29562500Y10825000I-237500J0D01*
G01*
X-30137500Y10825000D01*
G75*
G02*
X-30375000Y11062500I0J237500D01*
G01*
G37*
G36*
G01*
X-32125000Y11062500D02*
X-32125000Y11537500D01*
G75*
G02*
X-31887500Y11775000I237500J0D01*
G01*
X-31312500Y11775000D01*
G75*
G02*
X-31075000Y11537500I0J-237500D01*
G01*
X-31075000Y11062500D01*
G75*
G02*
X-31312500Y10825000I-237500J0D01*
G01*
X-31887500Y10825000D01*
G75*
G02*
X-32125000Y11062500I0J237500D01*
G01*
G37*
G36*
G01*
X-9150000Y-13137500D02*
X-9150000Y-12662500D01*
G75*
G02*
X-8912500Y-12425000I237500J0D01*
G01*
X-8337500Y-12425000D01*
G75*
G02*
X-8100000Y-12662500I0J-237500D01*
G01*
X-8100000Y-13137500D01*
G75*
G02*
X-8337500Y-13375000I-237500J0D01*
G01*
X-8912500Y-13375000D01*
G75*
G02*
X-9150000Y-13137500I0J237500D01*
G01*
G37*
G36*
G01*
X-10900000Y-13137500D02*
X-10900000Y-12662500D01*
G75*
G02*
X-10662500Y-12425000I237500J0D01*
G01*
X-10087500Y-12425000D01*
G75*
G02*
X-9850000Y-12662500I0J-237500D01*
G01*
X-9850000Y-13137500D01*
G75*
G02*
X-10087500Y-13375000I-237500J0D01*
G01*
X-10662500Y-13375000D01*
G75*
G02*
X-10900000Y-13137500I0J237500D01*
G01*
G37*
G36*
G01*
X-9150000Y-2137500D02*
X-9150000Y-1662500D01*
G75*
G02*
X-8912500Y-1425000I237500J0D01*
G01*
X-8337500Y-1425000D01*
G75*
G02*
X-8100000Y-1662500I0J-237500D01*
G01*
X-8100000Y-2137500D01*
G75*
G02*
X-8337500Y-2375000I-237500J0D01*
G01*
X-8912500Y-2375000D01*
G75*
G02*
X-9150000Y-2137500I0J237500D01*
G01*
G37*
G36*
G01*
X-10900000Y-2137500D02*
X-10900000Y-1662500D01*
G75*
G02*
X-10662500Y-1425000I237500J0D01*
G01*
X-10087500Y-1425000D01*
G75*
G02*
X-9850000Y-1662500I0J-237500D01*
G01*
X-9850000Y-2137500D01*
G75*
G02*
X-10087500Y-2375000I-237500J0D01*
G01*
X-10662500Y-2375000D01*
G75*
G02*
X-10900000Y-2137500I0J237500D01*
G01*
G37*
G36*
G01*
X-9150000Y8862500D02*
X-9150000Y9337500D01*
G75*
G02*
X-8912500Y9575000I237500J0D01*
G01*
X-8337500Y9575000D01*
G75*
G02*
X-8100000Y9337500I0J-237500D01*
G01*
X-8100000Y8862500D01*
G75*
G02*
X-8337500Y8625000I-237500J0D01*
G01*
X-8912500Y8625000D01*
G75*
G02*
X-9150000Y8862500I0J237500D01*
G01*
G37*
G36*
G01*
X-10900000Y8862500D02*
X-10900000Y9337500D01*
G75*
G02*
X-10662500Y9575000I237500J0D01*
G01*
X-10087500Y9575000D01*
G75*
G02*
X-9850000Y9337500I0J-237500D01*
G01*
X-9850000Y8862500D01*
G75*
G02*
X-10087500Y8625000I-237500J0D01*
G01*
X-10662500Y8625000D01*
G75*
G02*
X-10900000Y8862500I0J237500D01*
G01*
G37*
G36*
G01*
X-19825000Y-14762500D02*
X-19825000Y-15237500D01*
G75*
G02*
X-20062500Y-15475000I-237500J0D01*
G01*
X-20637500Y-15475000D01*
G75*
G02*
X-20875000Y-15237500I0J237500D01*
G01*
X-20875000Y-14762500D01*
G75*
G02*
X-20637500Y-14525000I237500J0D01*
G01*
X-20062500Y-14525000D01*
G75*
G02*
X-19825000Y-14762500I0J-237500D01*
G01*
G37*
G36*
G01*
X-18075000Y-14762500D02*
X-18075000Y-15237500D01*
G75*
G02*
X-18312500Y-15475000I-237500J0D01*
G01*
X-18887500Y-15475000D01*
G75*
G02*
X-19125000Y-15237500I0J237500D01*
G01*
X-19125000Y-14762500D01*
G75*
G02*
X-18887500Y-14525000I237500J0D01*
G01*
X-18312500Y-14525000D01*
G75*
G02*
X-18075000Y-14762500I0J-237500D01*
G01*
G37*
G36*
G01*
X-19825000Y-3762500D02*
X-19825000Y-4237500D01*
G75*
G02*
X-20062500Y-4475000I-237500J0D01*
G01*
X-20637500Y-4475000D01*
G75*
G02*
X-20875000Y-4237500I0J237500D01*
G01*
X-20875000Y-3762500D01*
G75*
G02*
X-20637500Y-3525000I237500J0D01*
G01*
X-20062500Y-3525000D01*
G75*
G02*
X-19825000Y-3762500I0J-237500D01*
G01*
G37*
G36*
G01*
X-18075000Y-3762500D02*
X-18075000Y-4237500D01*
G75*
G02*
X-18312500Y-4475000I-237500J0D01*
G01*
X-18887500Y-4475000D01*
G75*
G02*
X-19125000Y-4237500I0J237500D01*
G01*
X-19125000Y-3762500D01*
G75*
G02*
X-18887500Y-3525000I237500J0D01*
G01*
X-18312500Y-3525000D01*
G75*
G02*
X-18075000Y-3762500I0J-237500D01*
G01*
G37*
G36*
G01*
X-19825000Y7237500D02*
X-19825000Y6762500D01*
G75*
G02*
X-20062500Y6525000I-237500J0D01*
G01*
X-20637500Y6525000D01*
G75*
G02*
X-20875000Y6762500I0J237500D01*
G01*
X-20875000Y7237500D01*
G75*
G02*
X-20637500Y7475000I237500J0D01*
G01*
X-20062500Y7475000D01*
G75*
G02*
X-19825000Y7237500I0J-237500D01*
G01*
G37*
G36*
G01*
X-18075000Y7237500D02*
X-18075000Y6762500D01*
G75*
G02*
X-18312500Y6525000I-237500J0D01*
G01*
X-18887500Y6525000D01*
G75*
G02*
X-19125000Y6762500I0J237500D01*
G01*
X-19125000Y7237500D01*
G75*
G02*
X-18887500Y7475000I237500J0D01*
G01*
X-18312500Y7475000D01*
G75*
G02*
X-18075000Y7237500I0J-237500D01*
G01*
G37*
M02*
