G04 #@! TF.GenerationSoftware,KiCad,Pcbnew,(5.1.9-0-10_14)*
G04 #@! TF.CreationDate,2021-04-27T22:18:25+09:00*
G04 #@! TF.ProjectId,BldcDriver,426c6463-4472-4697-9665-722e6b696361,3.2*
G04 #@! TF.SameCoordinates,Original*
G04 #@! TF.FileFunction,Legend,Top*
G04 #@! TF.FilePolarity,Positive*
%FSLAX46Y46*%
G04 Gerber Fmt 4.6, Leading zero omitted, Abs format (unit mm)*
G04 Created by KiCad (PCBNEW (5.1.9-0-10_14)) date 2021-04-27 22:18:25*
%MOMM*%
%LPD*%
G01*
G04 APERTURE LIST*
%ADD10C,0.150000*%
%ADD11C,0.120000*%
%ADD12C,0.200000*%
G04 APERTURE END LIST*
D10*
X7902500Y-1952380D02*
X8140595Y-2952380D01*
X8331071Y-2238095D01*
X8521547Y-2952380D01*
X8759642Y-1952380D01*
X8140595Y547619D02*
X8473928Y-452380D01*
X8807261Y547619D01*
X8092976Y3047619D02*
X8092976Y2238095D01*
X8140595Y2142857D01*
X8188214Y2095238D01*
X8283452Y2047619D01*
X8473928Y2047619D01*
X8569166Y2095238D01*
X8616785Y2142857D01*
X8664404Y2238095D01*
X8664404Y3047619D01*
X-21473928Y-14252380D02*
X-21283452Y-14252380D01*
X-21188214Y-14300000D01*
X-21092976Y-14395238D01*
X-21045357Y-14585714D01*
X-21045357Y-14919047D01*
X-21092976Y-15109523D01*
X-21188214Y-15204761D01*
X-21283452Y-15252380D01*
X-21473928Y-15252380D01*
X-21569166Y-15204761D01*
X-21664404Y-15109523D01*
X-21712023Y-14919047D01*
X-21712023Y-14585714D01*
X-21664404Y-14395238D01*
X-21569166Y-14300000D01*
X-21473928Y-14252380D01*
X-20616785Y-14252380D02*
X-20616785Y-15061904D01*
X-20569166Y-15157142D01*
X-20521547Y-15204761D01*
X-20426309Y-15252380D01*
X-20235833Y-15252380D01*
X-20140595Y-15204761D01*
X-20092976Y-15157142D01*
X-20045357Y-15061904D01*
X-20045357Y-14252380D01*
X-19712023Y-14252380D02*
X-19140595Y-14252380D01*
X-19426309Y-15252380D02*
X-19426309Y-14252380D01*
X-18807261Y-15252380D02*
X-18807261Y-14252380D01*
X-18426309Y-14252380D01*
X-18331071Y-14300000D01*
X-18283452Y-14347619D01*
X-18235833Y-14442857D01*
X-18235833Y-14585714D01*
X-18283452Y-14680952D01*
X-18331071Y-14728571D01*
X-18426309Y-14776190D01*
X-18807261Y-14776190D01*
X-17807261Y-14252380D02*
X-17807261Y-15061904D01*
X-17759642Y-15157142D01*
X-17712023Y-15204761D01*
X-17616785Y-15252380D01*
X-17426309Y-15252380D01*
X-17331071Y-15204761D01*
X-17283452Y-15157142D01*
X-17235833Y-15061904D01*
X-17235833Y-14252380D01*
X-16902500Y-14252380D02*
X-16331071Y-14252380D01*
X-16616785Y-15252380D02*
X-16616785Y-14252380D01*
X-27164404Y7547619D02*
X-27164404Y8547619D01*
X-26783452Y8547619D01*
X-26688214Y8500000D01*
X-26640595Y8452380D01*
X-26592976Y8357142D01*
X-26592976Y8214285D01*
X-26640595Y8119047D01*
X-26688214Y8071428D01*
X-26783452Y8023809D01*
X-27164404Y8023809D01*
X-25973928Y8547619D02*
X-25783452Y8547619D01*
X-25688214Y8500000D01*
X-25592976Y8404761D01*
X-25545357Y8214285D01*
X-25545357Y7880952D01*
X-25592976Y7690476D01*
X-25688214Y7595238D01*
X-25783452Y7547619D01*
X-25973928Y7547619D01*
X-26069166Y7595238D01*
X-26164404Y7690476D01*
X-26212023Y7880952D01*
X-26212023Y8214285D01*
X-26164404Y8404761D01*
X-26069166Y8500000D01*
X-25973928Y8547619D01*
X-25212023Y8547619D02*
X-24973928Y7547619D01*
X-24783452Y8261904D01*
X-24592976Y7547619D01*
X-24354880Y8547619D01*
X-23973928Y8071428D02*
X-23640595Y8071428D01*
X-23497738Y7547619D02*
X-23973928Y7547619D01*
X-23973928Y8547619D01*
X-23497738Y8547619D01*
X-22497738Y7547619D02*
X-22831071Y8023809D01*
X-23069166Y7547619D02*
X-23069166Y8547619D01*
X-22688214Y8547619D01*
X-22592976Y8500000D01*
X-22545357Y8452380D01*
X-22497738Y8357142D01*
X-22497738Y8214285D01*
X-22545357Y8119047D01*
X-22592976Y8071428D01*
X-22688214Y8023809D01*
X-23069166Y8023809D01*
X-10707619Y11824880D02*
X-9707619Y12062976D01*
X-10421904Y12253452D01*
X-9707619Y12443928D01*
X-10707619Y12682023D01*
X-9707619Y13062976D02*
X-10707619Y13062976D01*
X-9707619Y13634404D01*
X-10707619Y13634404D01*
X-13247619Y11872500D02*
X-12247619Y12110595D01*
X-12961904Y12301071D01*
X-12247619Y12491547D01*
X-13247619Y12729642D01*
X-12247619Y13110595D02*
X-13247619Y13110595D01*
X-13247619Y13491547D01*
X-13200000Y13586785D01*
X-13152380Y13634404D01*
X-13057142Y13682023D01*
X-12914285Y13682023D01*
X-12819047Y13634404D01*
X-12771428Y13586785D01*
X-12723809Y13491547D01*
X-12723809Y13110595D01*
X-15787619Y12062976D02*
X-14787619Y12396309D01*
X-15787619Y12729642D01*
X-14787619Y13062976D02*
X-15787619Y13062976D01*
X-14787619Y13634404D01*
X-15787619Y13634404D01*
X-18327619Y12110595D02*
X-17327619Y12443928D01*
X-18327619Y12777261D01*
X-17327619Y13110595D02*
X-18327619Y13110595D01*
X-18327619Y13491547D01*
X-18280000Y13586785D01*
X-18232380Y13634404D01*
X-18137142Y13682023D01*
X-17994285Y13682023D01*
X-17899047Y13634404D01*
X-17851428Y13586785D01*
X-17803809Y13491547D01*
X-17803809Y13110595D01*
X-20867619Y12015357D02*
X-20058095Y12015357D01*
X-19962857Y12062976D01*
X-19915238Y12110595D01*
X-19867619Y12205833D01*
X-19867619Y12396309D01*
X-19915238Y12491547D01*
X-19962857Y12539166D01*
X-20058095Y12586785D01*
X-20867619Y12586785D01*
X-19867619Y13062976D02*
X-20867619Y13062976D01*
X-19867619Y13634404D01*
X-20867619Y13634404D01*
X-23407619Y12062976D02*
X-22598095Y12062976D01*
X-22502857Y12110595D01*
X-22455238Y12158214D01*
X-22407619Y12253452D01*
X-22407619Y12443928D01*
X-22455238Y12539166D01*
X-22502857Y12586785D01*
X-22598095Y12634404D01*
X-23407619Y12634404D01*
X-22407619Y13110595D02*
X-23407619Y13110595D01*
X-23407619Y13491547D01*
X-23360000Y13586785D01*
X-23312380Y13634404D01*
X-23217142Y13682023D01*
X-23074285Y13682023D01*
X-22979047Y13634404D01*
X-22931428Y13586785D01*
X-22883809Y13491547D01*
X-22883809Y13110595D01*
X-18880952Y896428D02*
X-18738095Y848809D01*
X-18690476Y801190D01*
X-18642857Y705952D01*
X-18642857Y563095D01*
X-18690476Y467857D01*
X-18738095Y420238D01*
X-18833333Y372619D01*
X-19214285Y372619D01*
X-19214285Y1372619D01*
X-18880952Y1372619D01*
X-18785714Y1325000D01*
X-18738095Y1277380D01*
X-18690476Y1182142D01*
X-18690476Y1086904D01*
X-18738095Y991666D01*
X-18785714Y944047D01*
X-18880952Y896428D01*
X-19214285Y896428D01*
X-17738095Y372619D02*
X-18214285Y372619D01*
X-18214285Y1372619D01*
X-17404761Y372619D02*
X-17404761Y1372619D01*
X-17166666Y1372619D01*
X-17023809Y1325000D01*
X-16928571Y1229761D01*
X-16880952Y1134523D01*
X-16833333Y944047D01*
X-16833333Y801190D01*
X-16880952Y610714D01*
X-16928571Y515476D01*
X-17023809Y420238D01*
X-17166666Y372619D01*
X-17404761Y372619D01*
X-15833333Y467857D02*
X-15880952Y420238D01*
X-16023809Y372619D01*
X-16119047Y372619D01*
X-16261904Y420238D01*
X-16357142Y515476D01*
X-16404761Y610714D01*
X-16452380Y801190D01*
X-16452380Y944047D01*
X-16404761Y1134523D01*
X-16357142Y1229761D01*
X-16261904Y1325000D01*
X-16119047Y1372619D01*
X-16023809Y1372619D01*
X-15880952Y1325000D01*
X-15833333Y1277380D01*
X-14642857Y372619D02*
X-14642857Y1372619D01*
X-14404761Y1372619D01*
X-14261904Y1325000D01*
X-14166666Y1229761D01*
X-14119047Y1134523D01*
X-14071428Y944047D01*
X-14071428Y801190D01*
X-14119047Y610714D01*
X-14166666Y515476D01*
X-14261904Y420238D01*
X-14404761Y372619D01*
X-14642857Y372619D01*
X-13642857Y372619D02*
X-13642857Y1039285D01*
X-13642857Y848809D02*
X-13595238Y944047D01*
X-13547619Y991666D01*
X-13452380Y1039285D01*
X-13357142Y1039285D01*
X-13023809Y372619D02*
X-13023809Y1039285D01*
X-13023809Y1372619D02*
X-13071428Y1325000D01*
X-13023809Y1277380D01*
X-12976190Y1325000D01*
X-13023809Y1372619D01*
X-13023809Y1277380D01*
X-12642857Y1039285D02*
X-12404761Y372619D01*
X-12166666Y1039285D01*
X-11404761Y420238D02*
X-11500000Y372619D01*
X-11690476Y372619D01*
X-11785714Y420238D01*
X-11833333Y515476D01*
X-11833333Y896428D01*
X-11785714Y991666D01*
X-11690476Y1039285D01*
X-11500000Y1039285D01*
X-11404761Y991666D01*
X-11357142Y896428D01*
X-11357142Y801190D01*
X-11833333Y705952D01*
X-10928571Y372619D02*
X-10928571Y1039285D01*
X-10928571Y848809D02*
X-10880952Y944047D01*
X-10833333Y991666D01*
X-10738095Y1039285D01*
X-10642857Y1039285D01*
X-16523809Y-277380D02*
X-16190476Y-1277380D01*
X-15857142Y-277380D01*
X-15619047Y-277380D02*
X-15000000Y-277380D01*
X-15333333Y-658333D01*
X-15190476Y-658333D01*
X-15095238Y-705952D01*
X-15047619Y-753571D01*
X-15000000Y-848809D01*
X-15000000Y-1086904D01*
X-15047619Y-1182142D01*
X-15095238Y-1229761D01*
X-15190476Y-1277380D01*
X-15476190Y-1277380D01*
X-15571428Y-1229761D01*
X-15619047Y-1182142D01*
X-14571428Y-1182142D02*
X-14523809Y-1229761D01*
X-14571428Y-1277380D01*
X-14619047Y-1229761D01*
X-14571428Y-1182142D01*
X-14571428Y-1277380D01*
X-14142857Y-372619D02*
X-14095238Y-325000D01*
X-14000000Y-277380D01*
X-13761904Y-277380D01*
X-13666666Y-325000D01*
X-13619047Y-372619D01*
X-13571428Y-467857D01*
X-13571428Y-563095D01*
X-13619047Y-705952D01*
X-14190476Y-1277380D01*
X-13571428Y-1277380D01*
X-34065595Y6850000D02*
X-34160833Y6897619D01*
X-34303690Y6897619D01*
X-34446547Y6850000D01*
X-34541785Y6754761D01*
X-34589404Y6659523D01*
X-34637023Y6469047D01*
X-34637023Y6326190D01*
X-34589404Y6135714D01*
X-34541785Y6040476D01*
X-34446547Y5945238D01*
X-34303690Y5897619D01*
X-34208452Y5897619D01*
X-34065595Y5945238D01*
X-34017976Y5992857D01*
X-34017976Y6326190D01*
X-34208452Y6326190D01*
X-33589404Y5897619D02*
X-33589404Y6897619D01*
X-33017976Y5897619D01*
X-33017976Y6897619D01*
X-32541785Y5897619D02*
X-32541785Y6897619D01*
X-32303690Y6897619D01*
X-32160833Y6850000D01*
X-32065595Y6754761D01*
X-32017976Y6659523D01*
X-31970357Y6469047D01*
X-31970357Y6326190D01*
X-32017976Y6135714D01*
X-32065595Y6040476D01*
X-32160833Y5945238D01*
X-32303690Y5897619D01*
X-32541785Y5897619D01*
X-34065595Y8437619D02*
X-34637023Y8437619D01*
X-34351309Y8437619D02*
X-34351309Y9437619D01*
X-34446547Y9294761D01*
X-34541785Y9199523D01*
X-34637023Y9151904D01*
X-33684642Y9342380D02*
X-33637023Y9390000D01*
X-33541785Y9437619D01*
X-33303690Y9437619D01*
X-33208452Y9390000D01*
X-33160833Y9342380D01*
X-33113214Y9247142D01*
X-33113214Y9151904D01*
X-33160833Y9009047D01*
X-33732261Y8437619D01*
X-33113214Y8437619D01*
X-32827500Y9437619D02*
X-32494166Y8437619D01*
X-32160833Y9437619D01*
X-31027619Y10777261D02*
X-31027619Y11396309D01*
X-30646666Y11062976D01*
X-30646666Y11205833D01*
X-30599047Y11301071D01*
X-30551428Y11348690D01*
X-30456190Y11396309D01*
X-30218095Y11396309D01*
X-30122857Y11348690D01*
X-30075238Y11301071D01*
X-30027619Y11205833D01*
X-30027619Y10920119D01*
X-30075238Y10824880D01*
X-30122857Y10777261D01*
X-30122857Y11824880D02*
X-30075238Y11872500D01*
X-30027619Y11824880D01*
X-30075238Y11777261D01*
X-30122857Y11824880D01*
X-30027619Y11824880D01*
X-31027619Y12205833D02*
X-31027619Y12824880D01*
X-30646666Y12491547D01*
X-30646666Y12634404D01*
X-30599047Y12729642D01*
X-30551428Y12777261D01*
X-30456190Y12824880D01*
X-30218095Y12824880D01*
X-30122857Y12777261D01*
X-30075238Y12729642D01*
X-30027619Y12634404D01*
X-30027619Y12348690D01*
X-30075238Y12253452D01*
X-30122857Y12205833D01*
X-31027619Y13110595D02*
X-30027619Y13443928D01*
X-31027619Y13777261D01*
X-28440000Y11586785D02*
X-28487619Y11491547D01*
X-28487619Y11348690D01*
X-28440000Y11205833D01*
X-28344761Y11110595D01*
X-28249523Y11062976D01*
X-28059047Y11015357D01*
X-27916190Y11015357D01*
X-27725714Y11062976D01*
X-27630476Y11110595D01*
X-27535238Y11205833D01*
X-27487619Y11348690D01*
X-27487619Y11443928D01*
X-27535238Y11586785D01*
X-27582857Y11634404D01*
X-27916190Y11634404D01*
X-27916190Y11443928D01*
X-27487619Y12062976D02*
X-28487619Y12062976D01*
X-27487619Y12634404D01*
X-28487619Y12634404D01*
X-27487619Y13110595D02*
X-28487619Y13110595D01*
X-28487619Y13348690D01*
X-28440000Y13491547D01*
X-28344761Y13586785D01*
X-28249523Y13634404D01*
X-28059047Y13682023D01*
X-27916190Y13682023D01*
X-27725714Y13634404D01*
X-27630476Y13586785D01*
X-27535238Y13491547D01*
X-27487619Y13348690D01*
X-27487619Y13110595D01*
X-32567619Y11872500D02*
X-32567619Y11301071D01*
X-32567619Y11586785D02*
X-33567619Y11586785D01*
X-33424761Y11491547D01*
X-33329523Y11396309D01*
X-33281904Y11301071D01*
X-33472380Y12253452D02*
X-33520000Y12301071D01*
X-33567619Y12396309D01*
X-33567619Y12634404D01*
X-33520000Y12729642D01*
X-33472380Y12777261D01*
X-33377142Y12824880D01*
X-33281904Y12824880D01*
X-33139047Y12777261D01*
X-32567619Y12205833D01*
X-32567619Y12824880D01*
X-33567619Y13110595D02*
X-32567619Y13443928D01*
X-33567619Y13777261D01*
D11*
X-27700000Y-9300000D02*
X-26700000Y-9300000D01*
X-25550000Y-8300000D02*
X-25550000Y-7700000D01*
X-26700000Y-6700000D02*
X-27700000Y-6700000D01*
X-28850000Y-7700000D02*
X-28850000Y-8300000D01*
X-23871267Y-13810000D02*
X-23528733Y-13810000D01*
X-23871267Y-12790000D02*
X-23528733Y-12790000D01*
X-28953733Y10010000D02*
X-29296267Y10010000D01*
X-28953733Y8990000D02*
X-29296267Y8990000D01*
X-22040000Y-14065000D02*
X-24500000Y-14065000D01*
X-22040000Y-15535000D02*
X-22040000Y-14065000D01*
X-24500000Y-15535000D02*
X-22040000Y-15535000D01*
X-30785000Y7265000D02*
X-28325000Y7265000D01*
X-30785000Y8735000D02*
X-30785000Y7265000D01*
X-28325000Y8735000D02*
X-30785000Y8735000D01*
X-7270000Y-9149000D02*
X-5760000Y-9149000D01*
X-7270000Y-12850000D02*
X-5760000Y-12850000D01*
X-5760000Y-16120000D02*
X-5760000Y-5880000D01*
X-7270000Y-5880000D02*
X-2629000Y-5880000D01*
X-7270000Y-16120000D02*
X-2629000Y-16120000D01*
X-2629000Y-16120000D02*
X-2629000Y-5880000D01*
X-7270000Y-16120000D02*
X-7270000Y-5880000D01*
X3270000Y-12851000D02*
X1760000Y-12851000D01*
X3270000Y-9150000D02*
X1760000Y-9150000D01*
X1760000Y-5880000D02*
X1760000Y-16120000D01*
X3270000Y-16120000D02*
X-1371000Y-16120000D01*
X3270000Y-5880000D02*
X-1371000Y-5880000D01*
X-1371000Y-5880000D02*
X-1371000Y-16120000D01*
X3270000Y-5880000D02*
X3270000Y-16120000D01*
X-7270000Y1851000D02*
X-5760000Y1851000D01*
X-7270000Y-1850000D02*
X-5760000Y-1850000D01*
X-5760000Y-5120000D02*
X-5760000Y5120000D01*
X-7270000Y5120000D02*
X-2629000Y5120000D01*
X-7270000Y-5120000D02*
X-2629000Y-5120000D01*
X-2629000Y-5120000D02*
X-2629000Y5120000D01*
X-7270000Y-5120000D02*
X-7270000Y5120000D01*
X3270000Y-1851000D02*
X1760000Y-1851000D01*
X3270000Y1850000D02*
X1760000Y1850000D01*
X1760000Y5120000D02*
X1760000Y-5120000D01*
X3270000Y-5120000D02*
X-1371000Y-5120000D01*
X3270000Y5120000D02*
X-1371000Y5120000D01*
X-1371000Y5120000D02*
X-1371000Y-5120000D01*
X3270000Y5120000D02*
X3270000Y-5120000D01*
X-7270000Y12851000D02*
X-5760000Y12851000D01*
X-7270000Y9150000D02*
X-5760000Y9150000D01*
X-5760000Y5880000D02*
X-5760000Y16120000D01*
X-7270000Y16120000D02*
X-2629000Y16120000D01*
X-7270000Y5880000D02*
X-2629000Y5880000D01*
X-2629000Y5880000D02*
X-2629000Y16120000D01*
X-7270000Y5880000D02*
X-7270000Y16120000D01*
X3270000Y9149000D02*
X1760000Y9149000D01*
X3270000Y12850000D02*
X1760000Y12850000D01*
X1760000Y16120000D02*
X1760000Y5880000D01*
X3270000Y5880000D02*
X-1371000Y5880000D01*
X3270000Y16120000D02*
X-1371000Y16120000D01*
X-1371000Y16120000D02*
X-1371000Y5880000D01*
X3270000Y16120000D02*
X3270000Y5880000D01*
X-24050000Y-7850000D02*
X-24050000Y-8150000D01*
X-24750000Y-7850000D02*
X-24750000Y-8150000D01*
X-30350000Y-8150000D02*
X-30350000Y-7850000D01*
X-29650000Y-8150000D02*
X-29650000Y-7850000D01*
D12*
X-29700000Y-5400000D02*
G75*
G03*
X-29700000Y-5400000I-100000J0D01*
G01*
D11*
X-35003733Y-3790000D02*
X-35346267Y-3790000D01*
X-35003733Y-4810000D02*
X-35346267Y-4810000D01*
X-21296267Y3590000D02*
X-20953733Y3590000D01*
X-21296267Y4610000D02*
X-20953733Y4610000D01*
X-35003733Y-5290000D02*
X-35346267Y-5290000D01*
X-35003733Y-6310000D02*
X-35346267Y-6310000D01*
X7360000Y-11602064D02*
X7360000Y-10397936D01*
X4640000Y-11602064D02*
X4640000Y-10397936D01*
X7360000Y-602064D02*
X7360000Y602064D01*
X4640000Y-602064D02*
X4640000Y602064D01*
X7360000Y10397936D02*
X7360000Y11602064D01*
X4640000Y10397936D02*
X4640000Y11602064D01*
D10*
X9826666Y6262619D02*
X9826666Y5548333D01*
X9779047Y5405476D01*
X9683809Y5310238D01*
X9540952Y5262619D01*
X9445714Y5262619D01*
X10826666Y5262619D02*
X10255238Y5262619D01*
X10540952Y5262619D02*
X10540952Y6262619D01*
X10445714Y6119761D01*
X10350476Y6024523D01*
X10255238Y5976904D01*
X-36528333Y12612619D02*
X-36528333Y11898333D01*
X-36575952Y11755476D01*
X-36671190Y11660238D01*
X-36814047Y11612619D01*
X-36909285Y11612619D01*
X-36099761Y12517380D02*
X-36052142Y12565000D01*
X-35956904Y12612619D01*
X-35718809Y12612619D01*
X-35623571Y12565000D01*
X-35575952Y12517380D01*
X-35528333Y12422142D01*
X-35528333Y12326904D01*
X-35575952Y12184047D01*
X-36147380Y11612619D01*
X-35528333Y11612619D01*
X-28009523Y-10052380D02*
X-27342857Y-11052380D01*
X-27342857Y-10052380D02*
X-28009523Y-11052380D01*
X-26438095Y-11052380D02*
X-27009523Y-11052380D01*
X-26723809Y-11052380D02*
X-26723809Y-10052380D01*
X-26819047Y-10195238D01*
X-26914285Y-10290476D01*
X-27009523Y-10338095D01*
X-21092976Y-13752380D02*
X-21426309Y-13276190D01*
X-21664404Y-13752380D02*
X-21664404Y-12752380D01*
X-21283452Y-12752380D01*
X-21188214Y-12800000D01*
X-21140595Y-12847619D01*
X-21092976Y-12942857D01*
X-21092976Y-13085714D01*
X-21140595Y-13180952D01*
X-21188214Y-13228571D01*
X-21283452Y-13276190D01*
X-21664404Y-13276190D01*
X-20616785Y-13752380D02*
X-20426309Y-13752380D01*
X-20331071Y-13704761D01*
X-20283452Y-13657142D01*
X-20188214Y-13514285D01*
X-20140595Y-13323809D01*
X-20140595Y-12942857D01*
X-20188214Y-12847619D01*
X-20235833Y-12800000D01*
X-20331071Y-12752380D01*
X-20521547Y-12752380D01*
X-20616785Y-12800000D01*
X-20664404Y-12847619D01*
X-20712023Y-12942857D01*
X-20712023Y-13180952D01*
X-20664404Y-13276190D01*
X-20616785Y-13323809D01*
X-20521547Y-13371428D01*
X-20331071Y-13371428D01*
X-20235833Y-13323809D01*
X-20188214Y-13276190D01*
X-20140595Y-13180952D01*
X-26592976Y9047619D02*
X-26926309Y9523809D01*
X-27164404Y9047619D02*
X-27164404Y10047619D01*
X-26783452Y10047619D01*
X-26688214Y10000000D01*
X-26640595Y9952380D01*
X-26592976Y9857142D01*
X-26592976Y9714285D01*
X-26640595Y9619047D01*
X-26688214Y9571428D01*
X-26783452Y9523809D01*
X-27164404Y9523809D01*
X-26021547Y9619047D02*
X-26116785Y9666666D01*
X-26164404Y9714285D01*
X-26212023Y9809523D01*
X-26212023Y9857142D01*
X-26164404Y9952380D01*
X-26116785Y10000000D01*
X-26021547Y10047619D01*
X-25831071Y10047619D01*
X-25735833Y10000000D01*
X-25688214Y9952380D01*
X-25640595Y9857142D01*
X-25640595Y9809523D01*
X-25688214Y9714285D01*
X-25735833Y9666666D01*
X-25831071Y9619047D01*
X-26021547Y9619047D01*
X-26116785Y9571428D01*
X-26164404Y9523809D01*
X-26212023Y9428571D01*
X-26212023Y9238095D01*
X-26164404Y9142857D01*
X-26116785Y9095238D01*
X-26021547Y9047619D01*
X-25831071Y9047619D01*
X-25735833Y9095238D01*
X-25688214Y9142857D01*
X-25640595Y9238095D01*
X-25640595Y9428571D01*
X-25688214Y9523809D01*
X-25735833Y9571428D01*
X-25831071Y9619047D01*
X-9095238Y-15547619D02*
X-9190476Y-15500000D01*
X-9285714Y-15404761D01*
X-9428571Y-15261904D01*
X-9523809Y-15214285D01*
X-9619047Y-15214285D01*
X-9571428Y-15452380D02*
X-9666666Y-15404761D01*
X-9761904Y-15309523D01*
X-9809523Y-15119047D01*
X-9809523Y-14785714D01*
X-9761904Y-14595238D01*
X-9666666Y-14500000D01*
X-9571428Y-14452380D01*
X-9380952Y-14452380D01*
X-9285714Y-14500000D01*
X-9190476Y-14595238D01*
X-9142857Y-14785714D01*
X-9142857Y-15119047D01*
X-9190476Y-15309523D01*
X-9285714Y-15404761D01*
X-9380952Y-15452380D01*
X-9571428Y-15452380D01*
X-8285714Y-14452380D02*
X-8476190Y-14452380D01*
X-8571428Y-14500000D01*
X-8619047Y-14547619D01*
X-8714285Y-14690476D01*
X-8761904Y-14880952D01*
X-8761904Y-15261904D01*
X-8714285Y-15357142D01*
X-8666666Y-15404761D01*
X-8571428Y-15452380D01*
X-8380952Y-15452380D01*
X-8285714Y-15404761D01*
X-8238095Y-15357142D01*
X-8190476Y-15261904D01*
X-8190476Y-15023809D01*
X-8238095Y-14928571D01*
X-8285714Y-14880952D01*
X-8380952Y-14833333D01*
X-8571428Y-14833333D01*
X-8666666Y-14880952D01*
X-8714285Y-14928571D01*
X-8761904Y-15023809D01*
X4904761Y-15547619D02*
X4809523Y-15500000D01*
X4714285Y-15404761D01*
X4571428Y-15261904D01*
X4476190Y-15214285D01*
X4380952Y-15214285D01*
X4428571Y-15452380D02*
X4333333Y-15404761D01*
X4238095Y-15309523D01*
X4190476Y-15119047D01*
X4190476Y-14785714D01*
X4238095Y-14595238D01*
X4333333Y-14500000D01*
X4428571Y-14452380D01*
X4619047Y-14452380D01*
X4714285Y-14500000D01*
X4809523Y-14595238D01*
X4857142Y-14785714D01*
X4857142Y-15119047D01*
X4809523Y-15309523D01*
X4714285Y-15404761D01*
X4619047Y-15452380D01*
X4428571Y-15452380D01*
X5761904Y-14452380D02*
X5285714Y-14452380D01*
X5238095Y-14928571D01*
X5285714Y-14880952D01*
X5380952Y-14833333D01*
X5619047Y-14833333D01*
X5714285Y-14880952D01*
X5761904Y-14928571D01*
X5809523Y-15023809D01*
X5809523Y-15261904D01*
X5761904Y-15357142D01*
X5714285Y-15404761D01*
X5619047Y-15452380D01*
X5380952Y-15452380D01*
X5285714Y-15404761D01*
X5238095Y-15357142D01*
X-9095238Y-4547619D02*
X-9190476Y-4500000D01*
X-9285714Y-4404761D01*
X-9428571Y-4261904D01*
X-9523809Y-4214285D01*
X-9619047Y-4214285D01*
X-9571428Y-4452380D02*
X-9666666Y-4404761D01*
X-9761904Y-4309523D01*
X-9809523Y-4119047D01*
X-9809523Y-3785714D01*
X-9761904Y-3595238D01*
X-9666666Y-3500000D01*
X-9571428Y-3452380D01*
X-9380952Y-3452380D01*
X-9285714Y-3500000D01*
X-9190476Y-3595238D01*
X-9142857Y-3785714D01*
X-9142857Y-4119047D01*
X-9190476Y-4309523D01*
X-9285714Y-4404761D01*
X-9380952Y-4452380D01*
X-9571428Y-4452380D01*
X-8285714Y-3785714D02*
X-8285714Y-4452380D01*
X-8523809Y-3404761D02*
X-8761904Y-4119047D01*
X-8142857Y-4119047D01*
X4904761Y-4547619D02*
X4809523Y-4500000D01*
X4714285Y-4404761D01*
X4571428Y-4261904D01*
X4476190Y-4214285D01*
X4380952Y-4214285D01*
X4428571Y-4452380D02*
X4333333Y-4404761D01*
X4238095Y-4309523D01*
X4190476Y-4119047D01*
X4190476Y-3785714D01*
X4238095Y-3595238D01*
X4333333Y-3500000D01*
X4428571Y-3452380D01*
X4619047Y-3452380D01*
X4714285Y-3500000D01*
X4809523Y-3595238D01*
X4857142Y-3785714D01*
X4857142Y-4119047D01*
X4809523Y-4309523D01*
X4714285Y-4404761D01*
X4619047Y-4452380D01*
X4428571Y-4452380D01*
X5190476Y-3452380D02*
X5809523Y-3452380D01*
X5476190Y-3833333D01*
X5619047Y-3833333D01*
X5714285Y-3880952D01*
X5761904Y-3928571D01*
X5809523Y-4023809D01*
X5809523Y-4261904D01*
X5761904Y-4357142D01*
X5714285Y-4404761D01*
X5619047Y-4452380D01*
X5333333Y-4452380D01*
X5238095Y-4404761D01*
X5190476Y-4357142D01*
X-9095238Y6452380D02*
X-9190476Y6500000D01*
X-9285714Y6595238D01*
X-9428571Y6738095D01*
X-9523809Y6785714D01*
X-9619047Y6785714D01*
X-9571428Y6547619D02*
X-9666666Y6595238D01*
X-9761904Y6690476D01*
X-9809523Y6880952D01*
X-9809523Y7214285D01*
X-9761904Y7404761D01*
X-9666666Y7500000D01*
X-9571428Y7547619D01*
X-9380952Y7547619D01*
X-9285714Y7500000D01*
X-9190476Y7404761D01*
X-9142857Y7214285D01*
X-9142857Y6880952D01*
X-9190476Y6690476D01*
X-9285714Y6595238D01*
X-9380952Y6547619D01*
X-9571428Y6547619D01*
X-8761904Y7452380D02*
X-8714285Y7500000D01*
X-8619047Y7547619D01*
X-8380952Y7547619D01*
X-8285714Y7500000D01*
X-8238095Y7452380D01*
X-8190476Y7357142D01*
X-8190476Y7261904D01*
X-8238095Y7119047D01*
X-8809523Y6547619D01*
X-8190476Y6547619D01*
X4904761Y6452380D02*
X4809523Y6500000D01*
X4714285Y6595238D01*
X4571428Y6738095D01*
X4476190Y6785714D01*
X4380952Y6785714D01*
X4428571Y6547619D02*
X4333333Y6595238D01*
X4238095Y6690476D01*
X4190476Y6880952D01*
X4190476Y7214285D01*
X4238095Y7404761D01*
X4333333Y7500000D01*
X4428571Y7547619D01*
X4619047Y7547619D01*
X4714285Y7500000D01*
X4809523Y7404761D01*
X4857142Y7214285D01*
X4857142Y6880952D01*
X4809523Y6690476D01*
X4714285Y6595238D01*
X4619047Y6547619D01*
X4428571Y6547619D01*
X5809523Y6547619D02*
X5238095Y6547619D01*
X5523809Y6547619D02*
X5523809Y7547619D01*
X5428571Y7404761D01*
X5333333Y7309523D01*
X5238095Y7261904D01*
X-24042857Y-11592738D02*
X-23995238Y-11640357D01*
X-23947619Y-11783214D01*
X-23947619Y-11878452D01*
X-23995238Y-12021309D01*
X-24090476Y-12116547D01*
X-24185714Y-12164166D01*
X-24376190Y-12211785D01*
X-24519047Y-12211785D01*
X-24709523Y-12164166D01*
X-24804761Y-12116547D01*
X-24900000Y-12021309D01*
X-24947619Y-11878452D01*
X-24947619Y-11783214D01*
X-24900000Y-11640357D01*
X-24852380Y-11592738D01*
X-23947619Y-10640357D02*
X-23947619Y-11211785D01*
X-23947619Y-10926071D02*
X-24947619Y-10926071D01*
X-24804761Y-11021309D01*
X-24709523Y-11116547D01*
X-24661904Y-11211785D01*
X-24947619Y-9735595D02*
X-24947619Y-10211785D01*
X-24471428Y-10259404D01*
X-24519047Y-10211785D01*
X-24566666Y-10116547D01*
X-24566666Y-9878452D01*
X-24519047Y-9783214D01*
X-24471428Y-9735595D01*
X-24376190Y-9687976D01*
X-24138095Y-9687976D01*
X-24042857Y-9735595D01*
X-23995238Y-9783214D01*
X-23947619Y-9878452D01*
X-23947619Y-10116547D01*
X-23995238Y-10211785D01*
X-24042857Y-10259404D01*
X-29642857Y-11592738D02*
X-29595238Y-11640357D01*
X-29547619Y-11783214D01*
X-29547619Y-11878452D01*
X-29595238Y-12021309D01*
X-29690476Y-12116547D01*
X-29785714Y-12164166D01*
X-29976190Y-12211785D01*
X-30119047Y-12211785D01*
X-30309523Y-12164166D01*
X-30404761Y-12116547D01*
X-30500000Y-12021309D01*
X-30547619Y-11878452D01*
X-30547619Y-11783214D01*
X-30500000Y-11640357D01*
X-30452380Y-11592738D01*
X-29547619Y-10640357D02*
X-29547619Y-11211785D01*
X-29547619Y-10926071D02*
X-30547619Y-10926071D01*
X-30404761Y-11021309D01*
X-30309523Y-11116547D01*
X-30261904Y-11211785D01*
X-30214285Y-9783214D02*
X-29547619Y-9783214D01*
X-30595238Y-10021309D02*
X-29880952Y-10259404D01*
X-29880952Y-9640357D01*
X-30195238Y-15452380D02*
X-30528571Y-14976190D01*
X-30766666Y-15452380D02*
X-30766666Y-14452380D01*
X-30385714Y-14452380D01*
X-30290476Y-14500000D01*
X-30242857Y-14547619D01*
X-30195238Y-14642857D01*
X-30195238Y-14785714D01*
X-30242857Y-14880952D01*
X-30290476Y-14928571D01*
X-30385714Y-14976190D01*
X-30766666Y-14976190D01*
X-29909523Y-14452380D02*
X-29576190Y-15452380D01*
X-29242857Y-14452380D01*
X-28385714Y-15452380D02*
X-28957142Y-15452380D01*
X-28671428Y-15452380D02*
X-28671428Y-14452380D01*
X-28766666Y-14595238D01*
X-28861904Y-14690476D01*
X-28957142Y-14738095D01*
X-27761904Y6547619D02*
X-27761904Y5738095D01*
X-27714285Y5642857D01*
X-27666666Y5595238D01*
X-27571428Y5547619D01*
X-27380952Y5547619D01*
X-27285714Y5595238D01*
X-27238095Y5642857D01*
X-27190476Y5738095D01*
X-27190476Y6547619D01*
X-26238095Y6547619D02*
X-26714285Y6547619D01*
X-26761904Y6071428D01*
X-26714285Y6119047D01*
X-26619047Y6166666D01*
X-26380952Y6166666D01*
X-26285714Y6119047D01*
X-26238095Y6071428D01*
X-26190476Y5976190D01*
X-26190476Y5738095D01*
X-26238095Y5642857D01*
X-26285714Y5595238D01*
X-26380952Y5547619D01*
X-26619047Y5547619D01*
X-26714285Y5595238D01*
X-26761904Y5642857D01*
X-32592976Y-4752380D02*
X-32926309Y-4276190D01*
X-33164404Y-4752380D02*
X-33164404Y-3752380D01*
X-32783452Y-3752380D01*
X-32688214Y-3800000D01*
X-32640595Y-3847619D01*
X-32592976Y-3942857D01*
X-32592976Y-4085714D01*
X-32640595Y-4180952D01*
X-32688214Y-4228571D01*
X-32783452Y-4276190D01*
X-33164404Y-4276190D01*
X-32259642Y-3752380D02*
X-31592976Y-3752380D01*
X-32021547Y-4752380D01*
X-21767857Y5172857D02*
X-21815476Y5125238D01*
X-21958333Y5077619D01*
X-22053571Y5077619D01*
X-22196428Y5125238D01*
X-22291666Y5220476D01*
X-22339285Y5315714D01*
X-22386904Y5506190D01*
X-22386904Y5649047D01*
X-22339285Y5839523D01*
X-22291666Y5934761D01*
X-22196428Y6030000D01*
X-22053571Y6077619D01*
X-21958333Y6077619D01*
X-21815476Y6030000D01*
X-21767857Y5982380D01*
X-20815476Y5077619D02*
X-21386904Y5077619D01*
X-21101190Y5077619D02*
X-21101190Y6077619D01*
X-21196428Y5934761D01*
X-21291666Y5839523D01*
X-21386904Y5791904D01*
X-20482142Y6077619D02*
X-19863095Y6077619D01*
X-20196428Y5696666D01*
X-20053571Y5696666D01*
X-19958333Y5649047D01*
X-19910714Y5601428D01*
X-19863095Y5506190D01*
X-19863095Y5268095D01*
X-19910714Y5172857D01*
X-19958333Y5125238D01*
X-20053571Y5077619D01*
X-20339285Y5077619D01*
X-20434523Y5125238D01*
X-20482142Y5172857D01*
X-32592976Y-6157142D02*
X-32640595Y-6204761D01*
X-32783452Y-6252380D01*
X-32878690Y-6252380D01*
X-33021547Y-6204761D01*
X-33116785Y-6109523D01*
X-33164404Y-6014285D01*
X-33212023Y-5823809D01*
X-33212023Y-5680952D01*
X-33164404Y-5490476D01*
X-33116785Y-5395238D01*
X-33021547Y-5300000D01*
X-32878690Y-5252380D01*
X-32783452Y-5252380D01*
X-32640595Y-5300000D01*
X-32592976Y-5347619D01*
X-31640595Y-6252380D02*
X-32212023Y-6252380D01*
X-31926309Y-6252380D02*
X-31926309Y-5252380D01*
X-32021547Y-5395238D01*
X-32116785Y-5490476D01*
X-32212023Y-5538095D01*
X-31259642Y-5347619D02*
X-31212023Y-5300000D01*
X-31116785Y-5252380D01*
X-30878690Y-5252380D01*
X-30783452Y-5300000D01*
X-30735833Y-5347619D01*
X-30688214Y-5442857D01*
X-30688214Y-5538095D01*
X-30735833Y-5680952D01*
X-31307261Y-6252380D01*
X-30688214Y-6252380D01*
X5833333Y-8182142D02*
X5785714Y-8229761D01*
X5642857Y-8277380D01*
X5547619Y-8277380D01*
X5404761Y-8229761D01*
X5309523Y-8134523D01*
X5261904Y-8039285D01*
X5214285Y-7848809D01*
X5214285Y-7705952D01*
X5261904Y-7515476D01*
X5309523Y-7420238D01*
X5404761Y-7325000D01*
X5547619Y-7277380D01*
X5642857Y-7277380D01*
X5785714Y-7325000D01*
X5833333Y-7372619D01*
X6309523Y-8277380D02*
X6500000Y-8277380D01*
X6595238Y-8229761D01*
X6642857Y-8182142D01*
X6738095Y-8039285D01*
X6785714Y-7848809D01*
X6785714Y-7467857D01*
X6738095Y-7372619D01*
X6690476Y-7325000D01*
X6595238Y-7277380D01*
X6404761Y-7277380D01*
X6309523Y-7325000D01*
X6261904Y-7372619D01*
X6214285Y-7467857D01*
X6214285Y-7705952D01*
X6261904Y-7801190D01*
X6309523Y-7848809D01*
X6404761Y-7896428D01*
X6595238Y-7896428D01*
X6690476Y-7848809D01*
X6738095Y-7801190D01*
X6785714Y-7705952D01*
X5833333Y2817857D02*
X5785714Y2770238D01*
X5642857Y2722619D01*
X5547619Y2722619D01*
X5404761Y2770238D01*
X5309523Y2865476D01*
X5261904Y2960714D01*
X5214285Y3151190D01*
X5214285Y3294047D01*
X5261904Y3484523D01*
X5309523Y3579761D01*
X5404761Y3675000D01*
X5547619Y3722619D01*
X5642857Y3722619D01*
X5785714Y3675000D01*
X5833333Y3627380D01*
X6404761Y3294047D02*
X6309523Y3341666D01*
X6261904Y3389285D01*
X6214285Y3484523D01*
X6214285Y3532142D01*
X6261904Y3627380D01*
X6309523Y3675000D01*
X6404761Y3722619D01*
X6595238Y3722619D01*
X6690476Y3675000D01*
X6738095Y3627380D01*
X6785714Y3532142D01*
X6785714Y3484523D01*
X6738095Y3389285D01*
X6690476Y3341666D01*
X6595238Y3294047D01*
X6404761Y3294047D01*
X6309523Y3246428D01*
X6261904Y3198809D01*
X6214285Y3103571D01*
X6214285Y2913095D01*
X6261904Y2817857D01*
X6309523Y2770238D01*
X6404761Y2722619D01*
X6595238Y2722619D01*
X6690476Y2770238D01*
X6738095Y2817857D01*
X6785714Y2913095D01*
X6785714Y3103571D01*
X6738095Y3198809D01*
X6690476Y3246428D01*
X6595238Y3294047D01*
X5833333Y13817857D02*
X5785714Y13770238D01*
X5642857Y13722619D01*
X5547619Y13722619D01*
X5404761Y13770238D01*
X5309523Y13865476D01*
X5261904Y13960714D01*
X5214285Y14151190D01*
X5214285Y14294047D01*
X5261904Y14484523D01*
X5309523Y14579761D01*
X5404761Y14675000D01*
X5547619Y14722619D01*
X5642857Y14722619D01*
X5785714Y14675000D01*
X5833333Y14627380D01*
X6166666Y14722619D02*
X6833333Y14722619D01*
X6404761Y13722619D01*
M02*
