G04 #@! TF.GenerationSoftware,KiCad,Pcbnew,(5.1.10-1-10_14)*
G04 #@! TF.CreationDate,2021-08-08T19:50:54+09:00*
G04 #@! TF.ProjectId,BldcDriver,426c6463-4472-4697-9665-722e6b696361,V4.0*
G04 #@! TF.SameCoordinates,Original*
G04 #@! TF.FileFunction,Legend,Bot*
G04 #@! TF.FilePolarity,Positive*
%FSLAX46Y46*%
G04 Gerber Fmt 4.6, Leading zero omitted, Abs format (unit mm)*
G04 Created by KiCad (PCBNEW (5.1.10-1-10_14)) date 2021-08-08 19:50:54*
%MOMM*%
%LPD*%
G01*
G04 APERTURE LIST*
%ADD10C,0.120000*%
%ADD11C,0.200000*%
%ADD12C,0.100000*%
G04 APERTURE END LIST*
D10*
X-15500000Y25300000D02*
X-14500000Y25300000D01*
X-13350000Y24300000D02*
X-13350000Y23700000D01*
X-14500000Y22700000D02*
X-15500000Y22700000D01*
X-16650000Y23700000D02*
X-16650000Y24300000D01*
X-15500000Y-1700000D02*
X-14500000Y-1700000D01*
X-13350000Y-2700000D02*
X-13350000Y-3300000D01*
X-14500000Y-4300000D02*
X-15500000Y-4300000D01*
X-16650000Y-3300000D02*
X-16650000Y-2700000D01*
X15500000Y-25300000D02*
X14500000Y-25300000D01*
X13350000Y-24300000D02*
X13350000Y-23700000D01*
X14500000Y-22700000D02*
X15500000Y-22700000D01*
X16650000Y-23700000D02*
X16650000Y-24300000D01*
D11*
X-17700000Y20400000D02*
G75*
G03*
X-17700000Y20400000I-100000J0D01*
G01*
X-17700000Y-6600000D02*
G75*
G03*
X-17700000Y-6600000I-100000J0D01*
G01*
X17900000Y-20400000D02*
G75*
G03*
X17900000Y-20400000I-100000J0D01*
G01*
D10*
X-24000000Y22900000D02*
X-23800000Y23100000D01*
X-24200000Y23100000D02*
X-24000000Y22900000D01*
X-23800000Y23100000D02*
X-24200000Y23100000D01*
X-24750000Y21350000D02*
X-24750000Y24650000D01*
X-23250000Y21350000D02*
X-23250000Y24650000D01*
X-23250000Y24650000D02*
X-24750000Y24650000D01*
X-23250000Y21350000D02*
X-24750000Y21350000D01*
X-24000000Y15900000D02*
X-23800000Y16100000D01*
X-24200000Y16100000D02*
X-24000000Y15900000D01*
X-23800000Y16100000D02*
X-24200000Y16100000D01*
X-24750000Y14350000D02*
X-24750000Y17650000D01*
X-23250000Y14350000D02*
X-23250000Y17650000D01*
X-23250000Y17650000D02*
X-24750000Y17650000D01*
X-23250000Y14350000D02*
X-24750000Y14350000D01*
X-24000000Y8900000D02*
X-23800000Y9100000D01*
X-24200000Y9100000D02*
X-24000000Y8900000D01*
X-23800000Y9100000D02*
X-24200000Y9100000D01*
X-24750000Y7350000D02*
X-24750000Y10650000D01*
X-23250000Y7350000D02*
X-23250000Y10650000D01*
X-23250000Y10650000D02*
X-24750000Y10650000D01*
X-23250000Y7350000D02*
X-24750000Y7350000D01*
X-21000000Y23900000D02*
X-20800000Y24100000D01*
X-21200000Y24100000D02*
X-21000000Y23900000D01*
X-20800000Y24100000D02*
X-21200000Y24100000D01*
X-21750000Y22350000D02*
X-21750000Y25650000D01*
X-20250000Y22350000D02*
X-20250000Y25650000D01*
X-20250000Y25650000D02*
X-21750000Y25650000D01*
X-20250000Y22350000D02*
X-21750000Y22350000D01*
X-24000000Y-4100000D02*
X-23800000Y-3900000D01*
X-24200000Y-3900000D02*
X-24000000Y-4100000D01*
X-23800000Y-3900000D02*
X-24200000Y-3900000D01*
X-24750000Y-5650000D02*
X-24750000Y-2350000D01*
X-23250000Y-5650000D02*
X-23250000Y-2350000D01*
X-23250000Y-2350000D02*
X-24750000Y-2350000D01*
X-23250000Y-5650000D02*
X-24750000Y-5650000D01*
X-24000000Y-11100000D02*
X-23800000Y-10900000D01*
X-24200000Y-10900000D02*
X-24000000Y-11100000D01*
X-23800000Y-10900000D02*
X-24200000Y-10900000D01*
X-24750000Y-12650000D02*
X-24750000Y-9350000D01*
X-23250000Y-12650000D02*
X-23250000Y-9350000D01*
X-23250000Y-9350000D02*
X-24750000Y-9350000D01*
X-23250000Y-12650000D02*
X-24750000Y-12650000D01*
X-24000000Y-18100000D02*
X-23800000Y-17900000D01*
X-24200000Y-17900000D02*
X-24000000Y-18100000D01*
X-23800000Y-17900000D02*
X-24200000Y-17900000D01*
X-24750000Y-19650000D02*
X-24750000Y-16350000D01*
X-23250000Y-19650000D02*
X-23250000Y-16350000D01*
X-23250000Y-16350000D02*
X-24750000Y-16350000D01*
X-23250000Y-19650000D02*
X-24750000Y-19650000D01*
X-21000000Y-3100000D02*
X-20800000Y-2900000D01*
X-21200000Y-2900000D02*
X-21000000Y-3100000D01*
X-20800000Y-2900000D02*
X-21200000Y-2900000D01*
X-21750000Y-4650000D02*
X-21750000Y-1350000D01*
X-20250000Y-4650000D02*
X-20250000Y-1350000D01*
X-20250000Y-1350000D02*
X-21750000Y-1350000D01*
X-20250000Y-4650000D02*
X-21750000Y-4650000D01*
X24000000Y-22900000D02*
X23800000Y-23100000D01*
X24200000Y-23100000D02*
X24000000Y-22900000D01*
X23800000Y-23100000D02*
X24200000Y-23100000D01*
X24750000Y-21350000D02*
X24750000Y-24650000D01*
X23250000Y-21350000D02*
X23250000Y-24650000D01*
X23250000Y-24650000D02*
X24750000Y-24650000D01*
X23250000Y-21350000D02*
X24750000Y-21350000D01*
X24000000Y-15900000D02*
X23800000Y-16100000D01*
X24200000Y-16100000D02*
X24000000Y-15900000D01*
X23800000Y-16100000D02*
X24200000Y-16100000D01*
X24750000Y-14350000D02*
X24750000Y-17650000D01*
X23250000Y-14350000D02*
X23250000Y-17650000D01*
X23250000Y-17650000D02*
X24750000Y-17650000D01*
X23250000Y-14350000D02*
X24750000Y-14350000D01*
X24000000Y-8900000D02*
X23800000Y-9100000D01*
X24200000Y-9100000D02*
X24000000Y-8900000D01*
X23800000Y-9100000D02*
X24200000Y-9100000D01*
X24750000Y-7350000D02*
X24750000Y-10650000D01*
X23250000Y-7350000D02*
X23250000Y-10650000D01*
X23250000Y-10650000D02*
X24750000Y-10650000D01*
X23250000Y-7350000D02*
X24750000Y-7350000D01*
X21000000Y-23900000D02*
X20800000Y-24100000D01*
X21200000Y-24100000D02*
X21000000Y-23900000D01*
X20800000Y-24100000D02*
X21200000Y-24100000D01*
X21750000Y-22350000D02*
X21750000Y-25650000D01*
X20250000Y-22350000D02*
X20250000Y-25650000D01*
X20250000Y-25650000D02*
X21750000Y-25650000D01*
X20250000Y-22350000D02*
X21750000Y-22350000D01*
X-33100000Y25600000D02*
X-26900000Y25600000D01*
X-33100000Y20400000D02*
X-26900000Y20400000D01*
X-26900000Y25600000D02*
X-26900000Y25400000D01*
X-33100000Y25600000D02*
X-33100000Y25400000D01*
X-26900000Y20400000D02*
X-26900000Y20600000D01*
X-33100000Y20400000D02*
X-33100000Y20600000D01*
X-33100000Y18600000D02*
X-26900000Y18600000D01*
X-33100000Y13400000D02*
X-26900000Y13400000D01*
X-26900000Y18600000D02*
X-26900000Y18400000D01*
X-33100000Y18600000D02*
X-33100000Y18400000D01*
X-26900000Y13400000D02*
X-26900000Y13600000D01*
X-33100000Y13400000D02*
X-33100000Y13600000D01*
X-33100000Y11600000D02*
X-26900000Y11600000D01*
X-33100000Y6400000D02*
X-26900000Y6400000D01*
X-26900000Y11600000D02*
X-26900000Y11400000D01*
X-33100000Y11600000D02*
X-33100000Y11400000D01*
X-26900000Y6400000D02*
X-26900000Y6600000D01*
X-33100000Y6400000D02*
X-33100000Y6600000D01*
X-33100000Y-1400000D02*
X-26900000Y-1400000D01*
X-33100000Y-6600000D02*
X-26900000Y-6600000D01*
X-26900000Y-1400000D02*
X-26900000Y-1600000D01*
X-33100000Y-1400000D02*
X-33100000Y-1600000D01*
X-26900000Y-6600000D02*
X-26900000Y-6400000D01*
X-33100000Y-6600000D02*
X-33100000Y-6400000D01*
X-33100000Y-8400000D02*
X-26900000Y-8400000D01*
X-33100000Y-13600000D02*
X-26900000Y-13600000D01*
X-26900000Y-8400000D02*
X-26900000Y-8600000D01*
X-33100000Y-8400000D02*
X-33100000Y-8600000D01*
X-26900000Y-13600000D02*
X-26900000Y-13400000D01*
X-33100000Y-13600000D02*
X-33100000Y-13400000D01*
X-33100000Y-15400000D02*
X-26900000Y-15400000D01*
X-33100000Y-20600000D02*
X-26900000Y-20600000D01*
X-26900000Y-15400000D02*
X-26900000Y-15600000D01*
X-33100000Y-15400000D02*
X-33100000Y-15600000D01*
X-26900000Y-20600000D02*
X-26900000Y-20400000D01*
X-33100000Y-20600000D02*
X-33100000Y-20400000D01*
X33100000Y-25600000D02*
X26900000Y-25600000D01*
X33100000Y-20400000D02*
X26900000Y-20400000D01*
X26900000Y-25600000D02*
X26900000Y-25400000D01*
X33100000Y-25600000D02*
X33100000Y-25400000D01*
X26900000Y-20400000D02*
X26900000Y-20600000D01*
X33100000Y-20400000D02*
X33100000Y-20600000D01*
X33100000Y-18600000D02*
X26900000Y-18600000D01*
X33100000Y-13400000D02*
X26900000Y-13400000D01*
X26900000Y-18600000D02*
X26900000Y-18400000D01*
X33100000Y-18600000D02*
X33100000Y-18400000D01*
X26900000Y-13400000D02*
X26900000Y-13600000D01*
X33100000Y-13400000D02*
X33100000Y-13600000D01*
X33100000Y-11600000D02*
X26900000Y-11600000D01*
X33100000Y-6400000D02*
X26900000Y-6400000D01*
X26900000Y-11600000D02*
X26900000Y-11400000D01*
X33100000Y-11600000D02*
X33100000Y-11400000D01*
X26900000Y-6400000D02*
X26900000Y-6600000D01*
X33100000Y-6400000D02*
X33100000Y-6600000D01*
X-10000000Y9100000D02*
X-10200000Y8900000D01*
X-9800000Y8900000D02*
X-10000000Y9100000D01*
X-10200000Y8900000D02*
X-9800000Y8900000D01*
X-9250000Y10650000D02*
X-9250000Y7350000D01*
X-10750000Y10650000D02*
X-10750000Y7350000D01*
X-10750000Y7350000D02*
X-9250000Y7350000D01*
X-10750000Y10650000D02*
X-9250000Y10650000D01*
X-12500000Y25000000D02*
X-11500000Y25000000D01*
X-12500000Y23000000D02*
X-11500000Y23000000D01*
X-12500000Y23000000D02*
X-12500000Y25000000D01*
X-11500000Y23000000D02*
X-11500000Y25000000D01*
X-18500000Y25000000D02*
X-17500000Y25000000D01*
X-18500000Y23000000D02*
X-17500000Y23000000D01*
X-18500000Y23000000D02*
X-18500000Y25000000D01*
X-17500000Y23000000D02*
X-17500000Y25000000D01*
X-19500000Y23900000D02*
X-19300000Y24100000D01*
X-19700000Y24100000D02*
X-19500000Y23900000D01*
X-19300000Y24100000D02*
X-19700000Y24100000D01*
X-20250000Y22350000D02*
X-20250000Y25650000D01*
X-18750000Y22350000D02*
X-18750000Y25650000D01*
X-18750000Y25650000D02*
X-20250000Y25650000D01*
X-18750000Y22350000D02*
X-20250000Y22350000D01*
X-10000000Y-17900000D02*
X-10200000Y-18100000D01*
X-9800000Y-18100000D02*
X-10000000Y-17900000D01*
X-10200000Y-18100000D02*
X-9800000Y-18100000D01*
X-9250000Y-16350000D02*
X-9250000Y-19650000D01*
X-10750000Y-16350000D02*
X-10750000Y-19650000D01*
X-10750000Y-19650000D02*
X-9250000Y-19650000D01*
X-10750000Y-16350000D02*
X-9250000Y-16350000D01*
X-12500000Y-2000000D02*
X-11500000Y-2000000D01*
X-12500000Y-4000000D02*
X-11500000Y-4000000D01*
X-12500000Y-4000000D02*
X-12500000Y-2000000D01*
X-11500000Y-4000000D02*
X-11500000Y-2000000D01*
X-18500000Y-2000000D02*
X-17500000Y-2000000D01*
X-18500000Y-4000000D02*
X-17500000Y-4000000D01*
X-18500000Y-4000000D02*
X-18500000Y-2000000D01*
X-17500000Y-4000000D02*
X-17500000Y-2000000D01*
X-19500000Y-3100000D02*
X-19300000Y-2900000D01*
X-19700000Y-2900000D02*
X-19500000Y-3100000D01*
X-19300000Y-2900000D02*
X-19700000Y-2900000D01*
X-20250000Y-4650000D02*
X-20250000Y-1350000D01*
X-18750000Y-4650000D02*
X-18750000Y-1350000D01*
X-18750000Y-1350000D02*
X-20250000Y-1350000D01*
X-18750000Y-4650000D02*
X-20250000Y-4650000D01*
X10000000Y-9100000D02*
X10200000Y-8900000D01*
X9800000Y-8900000D02*
X10000000Y-9100000D01*
X10200000Y-8900000D02*
X9800000Y-8900000D01*
X9250000Y-10650000D02*
X9250000Y-7350000D01*
X10750000Y-10650000D02*
X10750000Y-7350000D01*
X10750000Y-7350000D02*
X9250000Y-7350000D01*
X10750000Y-10650000D02*
X9250000Y-10650000D01*
X12500000Y-25000000D02*
X11500000Y-25000000D01*
X12500000Y-23000000D02*
X11500000Y-23000000D01*
X12500000Y-23000000D02*
X12500000Y-25000000D01*
X11500000Y-23000000D02*
X11500000Y-25000000D01*
X18500000Y-25000000D02*
X17500000Y-25000000D01*
X18500000Y-23000000D02*
X17500000Y-23000000D01*
X18500000Y-23000000D02*
X18500000Y-25000000D01*
X17500000Y-23000000D02*
X17500000Y-25000000D01*
X19500000Y-23900000D02*
X19300000Y-24100000D01*
X19700000Y-24100000D02*
X19500000Y-23900000D01*
X19300000Y-24100000D02*
X19700000Y-24100000D01*
X20250000Y-22350000D02*
X20250000Y-25650000D01*
X18750000Y-22350000D02*
X18750000Y-25650000D01*
X18750000Y-25650000D02*
X20250000Y-25650000D01*
X18750000Y-22350000D02*
X20250000Y-22350000D01*
X10000000Y17900000D02*
X10200000Y18100000D01*
X9800000Y18100000D02*
X10000000Y17900000D01*
X10200000Y18100000D02*
X9800000Y18100000D01*
X9250000Y16350000D02*
X9250000Y19650000D01*
X10750000Y16350000D02*
X10750000Y19650000D01*
X10750000Y19650000D02*
X9250000Y19650000D01*
X10750000Y16350000D02*
X9250000Y16350000D01*
X15500000Y1700000D02*
X14500000Y1700000D01*
X13350000Y2700000D02*
X13350000Y3300000D01*
X14500000Y4300000D02*
X15500000Y4300000D01*
X16650000Y3300000D02*
X16650000Y2700000D01*
D11*
X17900000Y6600000D02*
G75*
G03*
X17900000Y6600000I-100000J0D01*
G01*
D10*
X24000000Y4100000D02*
X23800000Y3900000D01*
X24200000Y3900000D02*
X24000000Y4100000D01*
X23800000Y3900000D02*
X24200000Y3900000D01*
X24750000Y5650000D02*
X24750000Y2350000D01*
X23250000Y5650000D02*
X23250000Y2350000D01*
X23250000Y2350000D02*
X24750000Y2350000D01*
X23250000Y5650000D02*
X24750000Y5650000D01*
X24000000Y11100000D02*
X23800000Y10900000D01*
X24200000Y10900000D02*
X24000000Y11100000D01*
X23800000Y10900000D02*
X24200000Y10900000D01*
X24750000Y12650000D02*
X24750000Y9350000D01*
X23250000Y12650000D02*
X23250000Y9350000D01*
X23250000Y9350000D02*
X24750000Y9350000D01*
X23250000Y12650000D02*
X24750000Y12650000D01*
X24000000Y18100000D02*
X23800000Y17900000D01*
X24200000Y17900000D02*
X24000000Y18100000D01*
X23800000Y17900000D02*
X24200000Y17900000D01*
X24750000Y19650000D02*
X24750000Y16350000D01*
X23250000Y19650000D02*
X23250000Y16350000D01*
X23250000Y16350000D02*
X24750000Y16350000D01*
X23250000Y19650000D02*
X24750000Y19650000D01*
X21000000Y3100000D02*
X20800000Y2900000D01*
X21200000Y2900000D02*
X21000000Y3100000D01*
X20800000Y2900000D02*
X21200000Y2900000D01*
X21750000Y4650000D02*
X21750000Y1350000D01*
X20250000Y4650000D02*
X20250000Y1350000D01*
X20250000Y1350000D02*
X21750000Y1350000D01*
X20250000Y4650000D02*
X21750000Y4650000D01*
X33100000Y1400000D02*
X26900000Y1400000D01*
X33100000Y6600000D02*
X26900000Y6600000D01*
X26900000Y1400000D02*
X26900000Y1600000D01*
X33100000Y1400000D02*
X33100000Y1600000D01*
X26900000Y6600000D02*
X26900000Y6400000D01*
X33100000Y6600000D02*
X33100000Y6400000D01*
X33100000Y8400000D02*
X26900000Y8400000D01*
X33100000Y13600000D02*
X26900000Y13600000D01*
X26900000Y8400000D02*
X26900000Y8600000D01*
X33100000Y8400000D02*
X33100000Y8600000D01*
X26900000Y13600000D02*
X26900000Y13400000D01*
X33100000Y13600000D02*
X33100000Y13400000D01*
X33100000Y15400000D02*
X26900000Y15400000D01*
X33100000Y20600000D02*
X26900000Y20600000D01*
X26900000Y15400000D02*
X26900000Y15600000D01*
X33100000Y15400000D02*
X33100000Y15600000D01*
X26900000Y20600000D02*
X26900000Y20400000D01*
X33100000Y20600000D02*
X33100000Y20400000D01*
X19500000Y3100000D02*
X19300000Y2900000D01*
X19700000Y2900000D02*
X19500000Y3100000D01*
X19300000Y2900000D02*
X19700000Y2900000D01*
X20250000Y4650000D02*
X20250000Y1350000D01*
X18750000Y4650000D02*
X18750000Y1350000D01*
X18750000Y1350000D02*
X20250000Y1350000D01*
X18750000Y4650000D02*
X20250000Y4650000D01*
X12500000Y2000000D02*
X11500000Y2000000D01*
X12500000Y4000000D02*
X11500000Y4000000D01*
X12500000Y4000000D02*
X12500000Y2000000D01*
X11500000Y4000000D02*
X11500000Y2000000D01*
X18500000Y2000000D02*
X17500000Y2000000D01*
X18500000Y4000000D02*
X17500000Y4000000D01*
X18500000Y4000000D02*
X18500000Y2000000D01*
X17500000Y4000000D02*
X17500000Y2000000D01*
D12*
X-14714285Y21914285D02*
X-14714285Y21628571D01*
X-14514285Y22228571D02*
X-14714285Y21914285D01*
X-14914285Y22228571D01*
X-15371428Y22028571D02*
X-15371428Y21628571D01*
X-15228571Y22257142D02*
X-15085714Y21828571D01*
X-15457142Y21828571D01*
X-14714285Y-5085714D02*
X-14714285Y-5371428D01*
X-14514285Y-4771428D02*
X-14714285Y-5085714D01*
X-14914285Y-4771428D01*
X-15057142Y-4771428D02*
X-15428571Y-4771428D01*
X-15228571Y-5000000D01*
X-15314285Y-5000000D01*
X-15371428Y-5028571D01*
X-15400000Y-5057142D01*
X-15428571Y-5114285D01*
X-15428571Y-5257142D01*
X-15400000Y-5314285D01*
X-15371428Y-5342857D01*
X-15314285Y-5371428D01*
X-15142857Y-5371428D01*
X-15085714Y-5342857D01*
X-15057142Y-5314285D01*
X15285714Y-21885714D02*
X15285714Y-22171428D01*
X15485714Y-21571428D02*
X15285714Y-21885714D01*
X15085714Y-21571428D01*
X14914285Y-21628571D02*
X14885714Y-21600000D01*
X14828571Y-21571428D01*
X14685714Y-21571428D01*
X14628571Y-21600000D01*
X14600000Y-21628571D01*
X14571428Y-21685714D01*
X14571428Y-21742857D01*
X14600000Y-21828571D01*
X14942857Y-22171428D01*
X14571428Y-22171428D01*
X-21028571Y15457142D02*
X-20542857Y15457142D01*
X-20485714Y15428571D01*
X-20457142Y15400000D01*
X-20428571Y15342857D01*
X-20428571Y15228571D01*
X-20457142Y15171428D01*
X-20485714Y15142857D01*
X-20542857Y15114285D01*
X-21028571Y15114285D01*
X-20771428Y14742857D02*
X-20800000Y14800000D01*
X-20828571Y14828571D01*
X-20885714Y14857142D01*
X-20914285Y14857142D01*
X-20971428Y14828571D01*
X-21000000Y14800000D01*
X-21028571Y14742857D01*
X-21028571Y14628571D01*
X-21000000Y14571428D01*
X-20971428Y14542857D01*
X-20914285Y14514285D01*
X-20885714Y14514285D01*
X-20828571Y14542857D01*
X-20800000Y14571428D01*
X-20771428Y14628571D01*
X-20771428Y14742857D01*
X-20742857Y14800000D01*
X-20714285Y14828571D01*
X-20657142Y14857142D01*
X-20542857Y14857142D01*
X-20485714Y14828571D01*
X-20457142Y14800000D01*
X-20428571Y14742857D01*
X-20428571Y14628571D01*
X-20457142Y14571428D01*
X-20485714Y14542857D01*
X-20542857Y14514285D01*
X-20657142Y14514285D01*
X-20714285Y14542857D01*
X-20742857Y14571428D01*
X-20771428Y14628571D01*
X-21028571Y-11542857D02*
X-20542857Y-11542857D01*
X-20485714Y-11571428D01*
X-20457142Y-11600000D01*
X-20428571Y-11657142D01*
X-20428571Y-11771428D01*
X-20457142Y-11828571D01*
X-20485714Y-11857142D01*
X-20542857Y-11885714D01*
X-21028571Y-11885714D01*
X-21028571Y-12428571D02*
X-21028571Y-12314285D01*
X-21000000Y-12257142D01*
X-20971428Y-12228571D01*
X-20885714Y-12171428D01*
X-20771428Y-12142857D01*
X-20542857Y-12142857D01*
X-20485714Y-12171428D01*
X-20457142Y-12200000D01*
X-20428571Y-12257142D01*
X-20428571Y-12371428D01*
X-20457142Y-12428571D01*
X-20485714Y-12457142D01*
X-20542857Y-12485714D01*
X-20685714Y-12485714D01*
X-20742857Y-12457142D01*
X-20771428Y-12428571D01*
X-20800000Y-12371428D01*
X-20800000Y-12257142D01*
X-20771428Y-12200000D01*
X-20742857Y-12171428D01*
X-20685714Y-12142857D01*
X20371428Y-14542857D02*
X20857142Y-14542857D01*
X20914285Y-14571428D01*
X20942857Y-14600000D01*
X20971428Y-14657142D01*
X20971428Y-14771428D01*
X20942857Y-14828571D01*
X20914285Y-14857142D01*
X20857142Y-14885714D01*
X20371428Y-14885714D01*
X20571428Y-15428571D02*
X20971428Y-15428571D01*
X20342857Y-15285714D02*
X20771428Y-15142857D01*
X20771428Y-15514285D01*
X-22528571Y23385714D02*
X-22814285Y23585714D01*
X-22528571Y23728571D02*
X-23128571Y23728571D01*
X-23128571Y23500000D01*
X-23100000Y23442857D01*
X-23071428Y23414285D01*
X-23014285Y23385714D01*
X-22928571Y23385714D01*
X-22871428Y23414285D01*
X-22842857Y23442857D01*
X-22814285Y23500000D01*
X-22814285Y23728571D01*
X-23128571Y23185714D02*
X-23128571Y22814285D01*
X-22900000Y23014285D01*
X-22900000Y22928571D01*
X-22871428Y22871428D01*
X-22842857Y22842857D01*
X-22785714Y22814285D01*
X-22642857Y22814285D01*
X-22585714Y22842857D01*
X-22557142Y22871428D01*
X-22528571Y22928571D01*
X-22528571Y23100000D01*
X-22557142Y23157142D01*
X-22585714Y23185714D01*
X-23128571Y22614285D02*
X-23128571Y22214285D01*
X-22528571Y22471428D01*
X-22528571Y16385714D02*
X-22814285Y16585714D01*
X-22528571Y16728571D02*
X-23128571Y16728571D01*
X-23128571Y16500000D01*
X-23100000Y16442857D01*
X-23071428Y16414285D01*
X-23014285Y16385714D01*
X-22928571Y16385714D01*
X-22871428Y16414285D01*
X-22842857Y16442857D01*
X-22814285Y16500000D01*
X-22814285Y16728571D01*
X-23128571Y16185714D02*
X-23128571Y15814285D01*
X-22900000Y16014285D01*
X-22900000Y15928571D01*
X-22871428Y15871428D01*
X-22842857Y15842857D01*
X-22785714Y15814285D01*
X-22642857Y15814285D01*
X-22585714Y15842857D01*
X-22557142Y15871428D01*
X-22528571Y15928571D01*
X-22528571Y16100000D01*
X-22557142Y16157142D01*
X-22585714Y16185714D01*
X-23128571Y15300000D02*
X-23128571Y15414285D01*
X-23100000Y15471428D01*
X-23071428Y15500000D01*
X-22985714Y15557142D01*
X-22871428Y15585714D01*
X-22642857Y15585714D01*
X-22585714Y15557142D01*
X-22557142Y15528571D01*
X-22528571Y15471428D01*
X-22528571Y15357142D01*
X-22557142Y15300000D01*
X-22585714Y15271428D01*
X-22642857Y15242857D01*
X-22785714Y15242857D01*
X-22842857Y15271428D01*
X-22871428Y15300000D01*
X-22900000Y15357142D01*
X-22900000Y15471428D01*
X-22871428Y15528571D01*
X-22842857Y15557142D01*
X-22785714Y15585714D01*
X-22528571Y9385714D02*
X-22814285Y9585714D01*
X-22528571Y9728571D02*
X-23128571Y9728571D01*
X-23128571Y9500000D01*
X-23100000Y9442857D01*
X-23071428Y9414285D01*
X-23014285Y9385714D01*
X-22928571Y9385714D01*
X-22871428Y9414285D01*
X-22842857Y9442857D01*
X-22814285Y9500000D01*
X-22814285Y9728571D01*
X-23128571Y9185714D02*
X-23128571Y8814285D01*
X-22900000Y9014285D01*
X-22900000Y8928571D01*
X-22871428Y8871428D01*
X-22842857Y8842857D01*
X-22785714Y8814285D01*
X-22642857Y8814285D01*
X-22585714Y8842857D01*
X-22557142Y8871428D01*
X-22528571Y8928571D01*
X-22528571Y9100000D01*
X-22557142Y9157142D01*
X-22585714Y9185714D01*
X-23128571Y8271428D02*
X-23128571Y8557142D01*
X-22842857Y8585714D01*
X-22871428Y8557142D01*
X-22900000Y8500000D01*
X-22900000Y8357142D01*
X-22871428Y8300000D01*
X-22842857Y8271428D01*
X-22785714Y8242857D01*
X-22642857Y8242857D01*
X-22585714Y8271428D01*
X-22557142Y8300000D01*
X-22528571Y8357142D01*
X-22528571Y8500000D01*
X-22557142Y8557142D01*
X-22585714Y8585714D01*
X-20614285Y21628571D02*
X-20414285Y21914285D01*
X-20271428Y21628571D02*
X-20271428Y22228571D01*
X-20500000Y22228571D01*
X-20557142Y22200000D01*
X-20585714Y22171428D01*
X-20614285Y22114285D01*
X-20614285Y22028571D01*
X-20585714Y21971428D01*
X-20557142Y21942857D01*
X-20500000Y21914285D01*
X-20271428Y21914285D01*
X-20814285Y22228571D02*
X-21185714Y22228571D01*
X-20985714Y22000000D01*
X-21071428Y22000000D01*
X-21128571Y21971428D01*
X-21157142Y21942857D01*
X-21185714Y21885714D01*
X-21185714Y21742857D01*
X-21157142Y21685714D01*
X-21128571Y21657142D01*
X-21071428Y21628571D01*
X-20900000Y21628571D01*
X-20842857Y21657142D01*
X-20814285Y21685714D01*
X-21757142Y21628571D02*
X-21414285Y21628571D01*
X-21585714Y21628571D02*
X-21585714Y22228571D01*
X-21528571Y22142857D01*
X-21471428Y22085714D01*
X-21414285Y22057142D01*
X-22528571Y-3614285D02*
X-22814285Y-3414285D01*
X-22528571Y-3271428D02*
X-23128571Y-3271428D01*
X-23128571Y-3500000D01*
X-23100000Y-3557142D01*
X-23071428Y-3585714D01*
X-23014285Y-3614285D01*
X-22928571Y-3614285D01*
X-22871428Y-3585714D01*
X-22842857Y-3557142D01*
X-22814285Y-3500000D01*
X-22814285Y-3271428D01*
X-23071428Y-3842857D02*
X-23100000Y-3871428D01*
X-23128571Y-3928571D01*
X-23128571Y-4071428D01*
X-23100000Y-4128571D01*
X-23071428Y-4157142D01*
X-23014285Y-4185714D01*
X-22957142Y-4185714D01*
X-22871428Y-4157142D01*
X-22528571Y-3814285D01*
X-22528571Y-4185714D01*
X-22528571Y-4471428D02*
X-22528571Y-4585714D01*
X-22557142Y-4642857D01*
X-22585714Y-4671428D01*
X-22671428Y-4728571D01*
X-22785714Y-4757142D01*
X-23014285Y-4757142D01*
X-23071428Y-4728571D01*
X-23100000Y-4700000D01*
X-23128571Y-4642857D01*
X-23128571Y-4528571D01*
X-23100000Y-4471428D01*
X-23071428Y-4442857D01*
X-23014285Y-4414285D01*
X-22871428Y-4414285D01*
X-22814285Y-4442857D01*
X-22785714Y-4471428D01*
X-22757142Y-4528571D01*
X-22757142Y-4642857D01*
X-22785714Y-4700000D01*
X-22814285Y-4728571D01*
X-22871428Y-4757142D01*
X-22528571Y-10614285D02*
X-22814285Y-10414285D01*
X-22528571Y-10271428D02*
X-23128571Y-10271428D01*
X-23128571Y-10500000D01*
X-23100000Y-10557142D01*
X-23071428Y-10585714D01*
X-23014285Y-10614285D01*
X-22928571Y-10614285D01*
X-22871428Y-10585714D01*
X-22842857Y-10557142D01*
X-22814285Y-10500000D01*
X-22814285Y-10271428D01*
X-23071428Y-10842857D02*
X-23100000Y-10871428D01*
X-23128571Y-10928571D01*
X-23128571Y-11071428D01*
X-23100000Y-11128571D01*
X-23071428Y-11157142D01*
X-23014285Y-11185714D01*
X-22957142Y-11185714D01*
X-22871428Y-11157142D01*
X-22528571Y-10814285D01*
X-22528571Y-11185714D01*
X-22871428Y-11528571D02*
X-22900000Y-11471428D01*
X-22928571Y-11442857D01*
X-22985714Y-11414285D01*
X-23014285Y-11414285D01*
X-23071428Y-11442857D01*
X-23100000Y-11471428D01*
X-23128571Y-11528571D01*
X-23128571Y-11642857D01*
X-23100000Y-11700000D01*
X-23071428Y-11728571D01*
X-23014285Y-11757142D01*
X-22985714Y-11757142D01*
X-22928571Y-11728571D01*
X-22900000Y-11700000D01*
X-22871428Y-11642857D01*
X-22871428Y-11528571D01*
X-22842857Y-11471428D01*
X-22814285Y-11442857D01*
X-22757142Y-11414285D01*
X-22642857Y-11414285D01*
X-22585714Y-11442857D01*
X-22557142Y-11471428D01*
X-22528571Y-11528571D01*
X-22528571Y-11642857D01*
X-22557142Y-11700000D01*
X-22585714Y-11728571D01*
X-22642857Y-11757142D01*
X-22757142Y-11757142D01*
X-22814285Y-11728571D01*
X-22842857Y-11700000D01*
X-22871428Y-11642857D01*
X-22528571Y-17614285D02*
X-22814285Y-17414285D01*
X-22528571Y-17271428D02*
X-23128571Y-17271428D01*
X-23128571Y-17500000D01*
X-23100000Y-17557142D01*
X-23071428Y-17585714D01*
X-23014285Y-17614285D01*
X-22928571Y-17614285D01*
X-22871428Y-17585714D01*
X-22842857Y-17557142D01*
X-22814285Y-17500000D01*
X-22814285Y-17271428D01*
X-23071428Y-17842857D02*
X-23100000Y-17871428D01*
X-23128571Y-17928571D01*
X-23128571Y-18071428D01*
X-23100000Y-18128571D01*
X-23071428Y-18157142D01*
X-23014285Y-18185714D01*
X-22957142Y-18185714D01*
X-22871428Y-18157142D01*
X-22528571Y-17814285D01*
X-22528571Y-18185714D01*
X-23128571Y-18385714D02*
X-23128571Y-18785714D01*
X-22528571Y-18528571D01*
X-20614285Y-5371428D02*
X-20414285Y-5085714D01*
X-20271428Y-5371428D02*
X-20271428Y-4771428D01*
X-20500000Y-4771428D01*
X-20557142Y-4800000D01*
X-20585714Y-4828571D01*
X-20614285Y-4885714D01*
X-20614285Y-4971428D01*
X-20585714Y-5028571D01*
X-20557142Y-5057142D01*
X-20500000Y-5085714D01*
X-20271428Y-5085714D01*
X-20842857Y-4828571D02*
X-20871428Y-4800000D01*
X-20928571Y-4771428D01*
X-21071428Y-4771428D01*
X-21128571Y-4800000D01*
X-21157142Y-4828571D01*
X-21185714Y-4885714D01*
X-21185714Y-4942857D01*
X-21157142Y-5028571D01*
X-20814285Y-5371428D01*
X-21185714Y-5371428D01*
X-21385714Y-4771428D02*
X-21757142Y-4771428D01*
X-21557142Y-5000000D01*
X-21642857Y-5000000D01*
X-21700000Y-5028571D01*
X-21728571Y-5057142D01*
X-21757142Y-5114285D01*
X-21757142Y-5257142D01*
X-21728571Y-5314285D01*
X-21700000Y-5342857D01*
X-21642857Y-5371428D01*
X-21471428Y-5371428D01*
X-21414285Y-5342857D01*
X-21385714Y-5314285D01*
X23071428Y-22614285D02*
X22785714Y-22414285D01*
X23071428Y-22271428D02*
X22471428Y-22271428D01*
X22471428Y-22500000D01*
X22500000Y-22557142D01*
X22528571Y-22585714D01*
X22585714Y-22614285D01*
X22671428Y-22614285D01*
X22728571Y-22585714D01*
X22757142Y-22557142D01*
X22785714Y-22500000D01*
X22785714Y-22271428D01*
X22528571Y-22842857D02*
X22500000Y-22871428D01*
X22471428Y-22928571D01*
X22471428Y-23071428D01*
X22500000Y-23128571D01*
X22528571Y-23157142D01*
X22585714Y-23185714D01*
X22642857Y-23185714D01*
X22728571Y-23157142D01*
X23071428Y-22814285D01*
X23071428Y-23185714D01*
X23071428Y-23757142D02*
X23071428Y-23414285D01*
X23071428Y-23585714D02*
X22471428Y-23585714D01*
X22557142Y-23528571D01*
X22614285Y-23471428D01*
X22642857Y-23414285D01*
X23071428Y-15614285D02*
X22785714Y-15414285D01*
X23071428Y-15271428D02*
X22471428Y-15271428D01*
X22471428Y-15500000D01*
X22500000Y-15557142D01*
X22528571Y-15585714D01*
X22585714Y-15614285D01*
X22671428Y-15614285D01*
X22728571Y-15585714D01*
X22757142Y-15557142D01*
X22785714Y-15500000D01*
X22785714Y-15271428D01*
X22528571Y-15842857D02*
X22500000Y-15871428D01*
X22471428Y-15928571D01*
X22471428Y-16071428D01*
X22500000Y-16128571D01*
X22528571Y-16157142D01*
X22585714Y-16185714D01*
X22642857Y-16185714D01*
X22728571Y-16157142D01*
X23071428Y-15814285D01*
X23071428Y-16185714D01*
X22471428Y-16557142D02*
X22471428Y-16614285D01*
X22500000Y-16671428D01*
X22528571Y-16700000D01*
X22585714Y-16728571D01*
X22700000Y-16757142D01*
X22842857Y-16757142D01*
X22957142Y-16728571D01*
X23014285Y-16700000D01*
X23042857Y-16671428D01*
X23071428Y-16614285D01*
X23071428Y-16557142D01*
X23042857Y-16500000D01*
X23014285Y-16471428D01*
X22957142Y-16442857D01*
X22842857Y-16414285D01*
X22700000Y-16414285D01*
X22585714Y-16442857D01*
X22528571Y-16471428D01*
X22500000Y-16500000D01*
X22471428Y-16557142D01*
X23071428Y-8614285D02*
X22785714Y-8414285D01*
X23071428Y-8271428D02*
X22471428Y-8271428D01*
X22471428Y-8500000D01*
X22500000Y-8557142D01*
X22528571Y-8585714D01*
X22585714Y-8614285D01*
X22671428Y-8614285D01*
X22728571Y-8585714D01*
X22757142Y-8557142D01*
X22785714Y-8500000D01*
X22785714Y-8271428D01*
X23071428Y-9185714D02*
X23071428Y-8842857D01*
X23071428Y-9014285D02*
X22471428Y-9014285D01*
X22557142Y-8957142D01*
X22614285Y-8900000D01*
X22642857Y-8842857D01*
X23071428Y-9471428D02*
X23071428Y-9585714D01*
X23042857Y-9642857D01*
X23014285Y-9671428D01*
X22928571Y-9728571D01*
X22814285Y-9757142D01*
X22585714Y-9757142D01*
X22528571Y-9728571D01*
X22500000Y-9700000D01*
X22471428Y-9642857D01*
X22471428Y-9528571D01*
X22500000Y-9471428D01*
X22528571Y-9442857D01*
X22585714Y-9414285D01*
X22728571Y-9414285D01*
X22785714Y-9442857D01*
X22814285Y-9471428D01*
X22842857Y-9528571D01*
X22842857Y-9642857D01*
X22814285Y-9700000D01*
X22785714Y-9728571D01*
X22728571Y-9757142D01*
X21385714Y-22171428D02*
X21585714Y-21885714D01*
X21728571Y-22171428D02*
X21728571Y-21571428D01*
X21500000Y-21571428D01*
X21442857Y-21600000D01*
X21414285Y-21628571D01*
X21385714Y-21685714D01*
X21385714Y-21771428D01*
X21414285Y-21828571D01*
X21442857Y-21857142D01*
X21500000Y-21885714D01*
X21728571Y-21885714D01*
X20814285Y-22171428D02*
X21157142Y-22171428D01*
X20985714Y-22171428D02*
X20985714Y-21571428D01*
X21042857Y-21657142D01*
X21100000Y-21714285D01*
X21157142Y-21742857D01*
X20271428Y-21571428D02*
X20557142Y-21571428D01*
X20585714Y-21857142D01*
X20557142Y-21828571D01*
X20500000Y-21800000D01*
X20357142Y-21800000D01*
X20300000Y-21828571D01*
X20271428Y-21857142D01*
X20242857Y-21914285D01*
X20242857Y-22057142D01*
X20271428Y-22114285D01*
X20300000Y-22142857D01*
X20357142Y-22171428D01*
X20500000Y-22171428D01*
X20557142Y-22142857D01*
X20585714Y-22114285D01*
X-29657142Y25771428D02*
X-29600000Y25800000D01*
X-29542857Y25857142D01*
X-29457142Y25942857D01*
X-29400000Y25971428D01*
X-29342857Y25971428D01*
X-29371428Y25828571D02*
X-29314285Y25857142D01*
X-29257142Y25914285D01*
X-29228571Y26028571D01*
X-29228571Y26228571D01*
X-29257142Y26342857D01*
X-29314285Y26400000D01*
X-29371428Y26428571D01*
X-29485714Y26428571D01*
X-29542857Y26400000D01*
X-29600000Y26342857D01*
X-29628571Y26228571D01*
X-29628571Y26028571D01*
X-29600000Y25914285D01*
X-29542857Y25857142D01*
X-29485714Y25828571D01*
X-29371428Y25828571D01*
X-29857142Y26371428D02*
X-29885714Y26400000D01*
X-29942857Y26428571D01*
X-30085714Y26428571D01*
X-30142857Y26400000D01*
X-30171428Y26371428D01*
X-30200000Y26314285D01*
X-30200000Y26257142D01*
X-30171428Y26171428D01*
X-29828571Y25828571D01*
X-30200000Y25828571D01*
X-30714285Y26228571D02*
X-30714285Y25828571D01*
X-30571428Y26457142D02*
X-30428571Y26028571D01*
X-30800000Y26028571D01*
X-29657142Y18771428D02*
X-29600000Y18800000D01*
X-29542857Y18857142D01*
X-29457142Y18942857D01*
X-29400000Y18971428D01*
X-29342857Y18971428D01*
X-29371428Y18828571D02*
X-29314285Y18857142D01*
X-29257142Y18914285D01*
X-29228571Y19028571D01*
X-29228571Y19228571D01*
X-29257142Y19342857D01*
X-29314285Y19400000D01*
X-29371428Y19428571D01*
X-29485714Y19428571D01*
X-29542857Y19400000D01*
X-29600000Y19342857D01*
X-29628571Y19228571D01*
X-29628571Y19028571D01*
X-29600000Y18914285D01*
X-29542857Y18857142D01*
X-29485714Y18828571D01*
X-29371428Y18828571D01*
X-29857142Y19371428D02*
X-29885714Y19400000D01*
X-29942857Y19428571D01*
X-30085714Y19428571D01*
X-30142857Y19400000D01*
X-30171428Y19371428D01*
X-30200000Y19314285D01*
X-30200000Y19257142D01*
X-30171428Y19171428D01*
X-29828571Y18828571D01*
X-30200000Y18828571D01*
X-30400000Y19428571D02*
X-30771428Y19428571D01*
X-30571428Y19200000D01*
X-30657142Y19200000D01*
X-30714285Y19171428D01*
X-30742857Y19142857D01*
X-30771428Y19085714D01*
X-30771428Y18942857D01*
X-30742857Y18885714D01*
X-30714285Y18857142D01*
X-30657142Y18828571D01*
X-30485714Y18828571D01*
X-30428571Y18857142D01*
X-30400000Y18885714D01*
X-29657142Y11771428D02*
X-29600000Y11800000D01*
X-29542857Y11857142D01*
X-29457142Y11942857D01*
X-29400000Y11971428D01*
X-29342857Y11971428D01*
X-29371428Y11828571D02*
X-29314285Y11857142D01*
X-29257142Y11914285D01*
X-29228571Y12028571D01*
X-29228571Y12228571D01*
X-29257142Y12342857D01*
X-29314285Y12400000D01*
X-29371428Y12428571D01*
X-29485714Y12428571D01*
X-29542857Y12400000D01*
X-29600000Y12342857D01*
X-29628571Y12228571D01*
X-29628571Y12028571D01*
X-29600000Y11914285D01*
X-29542857Y11857142D01*
X-29485714Y11828571D01*
X-29371428Y11828571D01*
X-29857142Y12371428D02*
X-29885714Y12400000D01*
X-29942857Y12428571D01*
X-30085714Y12428571D01*
X-30142857Y12400000D01*
X-30171428Y12371428D01*
X-30200000Y12314285D01*
X-30200000Y12257142D01*
X-30171428Y12171428D01*
X-29828571Y11828571D01*
X-30200000Y11828571D01*
X-30428571Y12371428D02*
X-30457142Y12400000D01*
X-30514285Y12428571D01*
X-30657142Y12428571D01*
X-30714285Y12400000D01*
X-30742857Y12371428D01*
X-30771428Y12314285D01*
X-30771428Y12257142D01*
X-30742857Y12171428D01*
X-30400000Y11828571D01*
X-30771428Y11828571D01*
X-29657142Y-7428571D02*
X-29600000Y-7400000D01*
X-29542857Y-7342857D01*
X-29457142Y-7257142D01*
X-29400000Y-7228571D01*
X-29342857Y-7228571D01*
X-29371428Y-7371428D02*
X-29314285Y-7342857D01*
X-29257142Y-7285714D01*
X-29228571Y-7171428D01*
X-29228571Y-6971428D01*
X-29257142Y-6857142D01*
X-29314285Y-6800000D01*
X-29371428Y-6771428D01*
X-29485714Y-6771428D01*
X-29542857Y-6800000D01*
X-29600000Y-6857142D01*
X-29628571Y-6971428D01*
X-29628571Y-7171428D01*
X-29600000Y-7285714D01*
X-29542857Y-7342857D01*
X-29485714Y-7371428D01*
X-29371428Y-7371428D01*
X-30200000Y-7371428D02*
X-29857142Y-7371428D01*
X-30028571Y-7371428D02*
X-30028571Y-6771428D01*
X-29971428Y-6857142D01*
X-29914285Y-6914285D01*
X-29857142Y-6942857D01*
X-30542857Y-7028571D02*
X-30485714Y-7000000D01*
X-30457142Y-6971428D01*
X-30428571Y-6914285D01*
X-30428571Y-6885714D01*
X-30457142Y-6828571D01*
X-30485714Y-6800000D01*
X-30542857Y-6771428D01*
X-30657142Y-6771428D01*
X-30714285Y-6800000D01*
X-30742857Y-6828571D01*
X-30771428Y-6885714D01*
X-30771428Y-6914285D01*
X-30742857Y-6971428D01*
X-30714285Y-7000000D01*
X-30657142Y-7028571D01*
X-30542857Y-7028571D01*
X-30485714Y-7057142D01*
X-30457142Y-7085714D01*
X-30428571Y-7142857D01*
X-30428571Y-7257142D01*
X-30457142Y-7314285D01*
X-30485714Y-7342857D01*
X-30542857Y-7371428D01*
X-30657142Y-7371428D01*
X-30714285Y-7342857D01*
X-30742857Y-7314285D01*
X-30771428Y-7257142D01*
X-30771428Y-7142857D01*
X-30742857Y-7085714D01*
X-30714285Y-7057142D01*
X-30657142Y-7028571D01*
X-29657142Y-14428571D02*
X-29600000Y-14400000D01*
X-29542857Y-14342857D01*
X-29457142Y-14257142D01*
X-29400000Y-14228571D01*
X-29342857Y-14228571D01*
X-29371428Y-14371428D02*
X-29314285Y-14342857D01*
X-29257142Y-14285714D01*
X-29228571Y-14171428D01*
X-29228571Y-13971428D01*
X-29257142Y-13857142D01*
X-29314285Y-13800000D01*
X-29371428Y-13771428D01*
X-29485714Y-13771428D01*
X-29542857Y-13800000D01*
X-29600000Y-13857142D01*
X-29628571Y-13971428D01*
X-29628571Y-14171428D01*
X-29600000Y-14285714D01*
X-29542857Y-14342857D01*
X-29485714Y-14371428D01*
X-29371428Y-14371428D01*
X-30200000Y-14371428D02*
X-29857142Y-14371428D01*
X-30028571Y-14371428D02*
X-30028571Y-13771428D01*
X-29971428Y-13857142D01*
X-29914285Y-13914285D01*
X-29857142Y-13942857D01*
X-30400000Y-13771428D02*
X-30800000Y-13771428D01*
X-30542857Y-14371428D01*
X-29657142Y-21428571D02*
X-29600000Y-21400000D01*
X-29542857Y-21342857D01*
X-29457142Y-21257142D01*
X-29400000Y-21228571D01*
X-29342857Y-21228571D01*
X-29371428Y-21371428D02*
X-29314285Y-21342857D01*
X-29257142Y-21285714D01*
X-29228571Y-21171428D01*
X-29228571Y-20971428D01*
X-29257142Y-20857142D01*
X-29314285Y-20800000D01*
X-29371428Y-20771428D01*
X-29485714Y-20771428D01*
X-29542857Y-20800000D01*
X-29600000Y-20857142D01*
X-29628571Y-20971428D01*
X-29628571Y-21171428D01*
X-29600000Y-21285714D01*
X-29542857Y-21342857D01*
X-29485714Y-21371428D01*
X-29371428Y-21371428D01*
X-30200000Y-21371428D02*
X-29857142Y-21371428D01*
X-30028571Y-21371428D02*
X-30028571Y-20771428D01*
X-29971428Y-20857142D01*
X-29914285Y-20914285D01*
X-29857142Y-20942857D01*
X-30714285Y-20771428D02*
X-30600000Y-20771428D01*
X-30542857Y-20800000D01*
X-30514285Y-20828571D01*
X-30457142Y-20914285D01*
X-30428571Y-21028571D01*
X-30428571Y-21257142D01*
X-30457142Y-21314285D01*
X-30485714Y-21342857D01*
X-30542857Y-21371428D01*
X-30657142Y-21371428D01*
X-30714285Y-21342857D01*
X-30742857Y-21314285D01*
X-30771428Y-21257142D01*
X-30771428Y-21114285D01*
X-30742857Y-21057142D01*
X-30714285Y-21028571D01*
X-30657142Y-21000000D01*
X-30542857Y-21000000D01*
X-30485714Y-21028571D01*
X-30457142Y-21057142D01*
X-30428571Y-21114285D01*
X30342857Y-20228571D02*
X30400000Y-20200000D01*
X30457142Y-20142857D01*
X30542857Y-20057142D01*
X30600000Y-20028571D01*
X30657142Y-20028571D01*
X30628571Y-20171428D02*
X30685714Y-20142857D01*
X30742857Y-20085714D01*
X30771428Y-19971428D01*
X30771428Y-19771428D01*
X30742857Y-19657142D01*
X30685714Y-19600000D01*
X30628571Y-19571428D01*
X30514285Y-19571428D01*
X30457142Y-19600000D01*
X30400000Y-19657142D01*
X30371428Y-19771428D01*
X30371428Y-19971428D01*
X30400000Y-20085714D01*
X30457142Y-20142857D01*
X30514285Y-20171428D01*
X30628571Y-20171428D01*
X29800000Y-20171428D02*
X30142857Y-20171428D01*
X29971428Y-20171428D02*
X29971428Y-19571428D01*
X30028571Y-19657142D01*
X30085714Y-19714285D01*
X30142857Y-19742857D01*
X29571428Y-19628571D02*
X29542857Y-19600000D01*
X29485714Y-19571428D01*
X29342857Y-19571428D01*
X29285714Y-19600000D01*
X29257142Y-19628571D01*
X29228571Y-19685714D01*
X29228571Y-19742857D01*
X29257142Y-19828571D01*
X29600000Y-20171428D01*
X29228571Y-20171428D01*
X30342857Y-13228571D02*
X30400000Y-13200000D01*
X30457142Y-13142857D01*
X30542857Y-13057142D01*
X30600000Y-13028571D01*
X30657142Y-13028571D01*
X30628571Y-13171428D02*
X30685714Y-13142857D01*
X30742857Y-13085714D01*
X30771428Y-12971428D01*
X30771428Y-12771428D01*
X30742857Y-12657142D01*
X30685714Y-12600000D01*
X30628571Y-12571428D01*
X30514285Y-12571428D01*
X30457142Y-12600000D01*
X30400000Y-12657142D01*
X30371428Y-12771428D01*
X30371428Y-12971428D01*
X30400000Y-13085714D01*
X30457142Y-13142857D01*
X30514285Y-13171428D01*
X30628571Y-13171428D01*
X29800000Y-13171428D02*
X30142857Y-13171428D01*
X29971428Y-13171428D02*
X29971428Y-12571428D01*
X30028571Y-12657142D01*
X30085714Y-12714285D01*
X30142857Y-12742857D01*
X29228571Y-13171428D02*
X29571428Y-13171428D01*
X29400000Y-13171428D02*
X29400000Y-12571428D01*
X29457142Y-12657142D01*
X29514285Y-12714285D01*
X29571428Y-12742857D01*
X30342857Y-6228571D02*
X30400000Y-6200000D01*
X30457142Y-6142857D01*
X30542857Y-6057142D01*
X30600000Y-6028571D01*
X30657142Y-6028571D01*
X30628571Y-6171428D02*
X30685714Y-6142857D01*
X30742857Y-6085714D01*
X30771428Y-5971428D01*
X30771428Y-5771428D01*
X30742857Y-5657142D01*
X30685714Y-5600000D01*
X30628571Y-5571428D01*
X30514285Y-5571428D01*
X30457142Y-5600000D01*
X30400000Y-5657142D01*
X30371428Y-5771428D01*
X30371428Y-5971428D01*
X30400000Y-6085714D01*
X30457142Y-6142857D01*
X30514285Y-6171428D01*
X30628571Y-6171428D01*
X29800000Y-6171428D02*
X30142857Y-6171428D01*
X29971428Y-6171428D02*
X29971428Y-5571428D01*
X30028571Y-5657142D01*
X30085714Y-5714285D01*
X30142857Y-5742857D01*
X29428571Y-5571428D02*
X29371428Y-5571428D01*
X29314285Y-5600000D01*
X29285714Y-5628571D01*
X29257142Y-5685714D01*
X29228571Y-5800000D01*
X29228571Y-5942857D01*
X29257142Y-6057142D01*
X29285714Y-6114285D01*
X29314285Y-6142857D01*
X29371428Y-6171428D01*
X29428571Y-6171428D01*
X29485714Y-6142857D01*
X29514285Y-6114285D01*
X29542857Y-6057142D01*
X29571428Y-5942857D01*
X29571428Y-5800000D01*
X29542857Y-5685714D01*
X29514285Y-5628571D01*
X29485714Y-5600000D01*
X29428571Y-5571428D01*
X-9614285Y6685714D02*
X-9585714Y6657142D01*
X-9500000Y6628571D01*
X-9442857Y6628571D01*
X-9357142Y6657142D01*
X-9300000Y6714285D01*
X-9271428Y6771428D01*
X-9242857Y6885714D01*
X-9242857Y6971428D01*
X-9271428Y7085714D01*
X-9300000Y7142857D01*
X-9357142Y7200000D01*
X-9442857Y7228571D01*
X-9500000Y7228571D01*
X-9585714Y7200000D01*
X-9614285Y7171428D01*
X-10128571Y7028571D02*
X-10128571Y6628571D01*
X-9985714Y7257142D02*
X-9842857Y6828571D01*
X-10214285Y6828571D01*
X-10528571Y6971428D02*
X-10471428Y7000000D01*
X-10442857Y7028571D01*
X-10414285Y7085714D01*
X-10414285Y7114285D01*
X-10442857Y7171428D01*
X-10471428Y7200000D01*
X-10528571Y7228571D01*
X-10642857Y7228571D01*
X-10700000Y7200000D01*
X-10728571Y7171428D01*
X-10757142Y7114285D01*
X-10757142Y7085714D01*
X-10728571Y7028571D01*
X-10700000Y7000000D01*
X-10642857Y6971428D01*
X-10528571Y6971428D01*
X-10471428Y6942857D01*
X-10442857Y6914285D01*
X-10414285Y6857142D01*
X-10414285Y6742857D01*
X-10442857Y6685714D01*
X-10471428Y6657142D01*
X-10528571Y6628571D01*
X-10642857Y6628571D01*
X-10700000Y6657142D01*
X-10728571Y6685714D01*
X-10757142Y6742857D01*
X-10757142Y6857142D01*
X-10728571Y6914285D01*
X-10700000Y6942857D01*
X-10642857Y6971428D01*
X-11614285Y21685714D02*
X-11585714Y21657142D01*
X-11500000Y21628571D01*
X-11442857Y21628571D01*
X-11357142Y21657142D01*
X-11300000Y21714285D01*
X-11271428Y21771428D01*
X-11242857Y21885714D01*
X-11242857Y21971428D01*
X-11271428Y22085714D01*
X-11300000Y22142857D01*
X-11357142Y22200000D01*
X-11442857Y22228571D01*
X-11500000Y22228571D01*
X-11585714Y22200000D01*
X-11614285Y22171428D01*
X-12128571Y22028571D02*
X-12128571Y21628571D01*
X-11985714Y22257142D02*
X-11842857Y21828571D01*
X-12214285Y21828571D01*
X-12385714Y22228571D02*
X-12785714Y22228571D01*
X-12528571Y21628571D01*
X-17614285Y21685714D02*
X-17585714Y21657142D01*
X-17500000Y21628571D01*
X-17442857Y21628571D01*
X-17357142Y21657142D01*
X-17300000Y21714285D01*
X-17271428Y21771428D01*
X-17242857Y21885714D01*
X-17242857Y21971428D01*
X-17271428Y22085714D01*
X-17300000Y22142857D01*
X-17357142Y22200000D01*
X-17442857Y22228571D01*
X-17500000Y22228571D01*
X-17585714Y22200000D01*
X-17614285Y22171428D01*
X-18128571Y22028571D02*
X-18128571Y21628571D01*
X-17985714Y22257142D02*
X-17842857Y21828571D01*
X-18214285Y21828571D01*
X-18700000Y22228571D02*
X-18585714Y22228571D01*
X-18528571Y22200000D01*
X-18500000Y22171428D01*
X-18442857Y22085714D01*
X-18414285Y21971428D01*
X-18414285Y21742857D01*
X-18442857Y21685714D01*
X-18471428Y21657142D01*
X-18528571Y21628571D01*
X-18642857Y21628571D01*
X-18700000Y21657142D01*
X-18728571Y21685714D01*
X-18757142Y21742857D01*
X-18757142Y21885714D01*
X-18728571Y21942857D01*
X-18700000Y21971428D01*
X-18642857Y22000000D01*
X-18528571Y22000000D01*
X-18471428Y21971428D01*
X-18442857Y21942857D01*
X-18414285Y21885714D01*
X-19114285Y21685714D02*
X-19085714Y21657142D01*
X-19000000Y21628571D01*
X-18942857Y21628571D01*
X-18857142Y21657142D01*
X-18800000Y21714285D01*
X-18771428Y21771428D01*
X-18742857Y21885714D01*
X-18742857Y21971428D01*
X-18771428Y22085714D01*
X-18800000Y22142857D01*
X-18857142Y22200000D01*
X-18942857Y22228571D01*
X-19000000Y22228571D01*
X-19085714Y22200000D01*
X-19114285Y22171428D01*
X-19628571Y22028571D02*
X-19628571Y21628571D01*
X-19485714Y22257142D02*
X-19342857Y21828571D01*
X-19714285Y21828571D01*
X-19914285Y22171428D02*
X-19942857Y22200000D01*
X-20000000Y22228571D01*
X-20142857Y22228571D01*
X-20200000Y22200000D01*
X-20228571Y22171428D01*
X-20257142Y22114285D01*
X-20257142Y22057142D01*
X-20228571Y21971428D01*
X-19885714Y21628571D01*
X-20257142Y21628571D01*
X-9614285Y-20314285D02*
X-9585714Y-20342857D01*
X-9500000Y-20371428D01*
X-9442857Y-20371428D01*
X-9357142Y-20342857D01*
X-9300000Y-20285714D01*
X-9271428Y-20228571D01*
X-9242857Y-20114285D01*
X-9242857Y-20028571D01*
X-9271428Y-19914285D01*
X-9300000Y-19857142D01*
X-9357142Y-19800000D01*
X-9442857Y-19771428D01*
X-9500000Y-19771428D01*
X-9585714Y-19800000D01*
X-9614285Y-19828571D01*
X-9814285Y-19771428D02*
X-10185714Y-19771428D01*
X-9985714Y-20000000D01*
X-10071428Y-20000000D01*
X-10128571Y-20028571D01*
X-10157142Y-20057142D01*
X-10185714Y-20114285D01*
X-10185714Y-20257142D01*
X-10157142Y-20314285D01*
X-10128571Y-20342857D01*
X-10071428Y-20371428D01*
X-9900000Y-20371428D01*
X-9842857Y-20342857D01*
X-9814285Y-20314285D01*
X-10385714Y-19771428D02*
X-10785714Y-19771428D01*
X-10528571Y-20371428D01*
X-11614285Y-5314285D02*
X-11585714Y-5342857D01*
X-11500000Y-5371428D01*
X-11442857Y-5371428D01*
X-11357142Y-5342857D01*
X-11300000Y-5285714D01*
X-11271428Y-5228571D01*
X-11242857Y-5114285D01*
X-11242857Y-5028571D01*
X-11271428Y-4914285D01*
X-11300000Y-4857142D01*
X-11357142Y-4800000D01*
X-11442857Y-4771428D01*
X-11500000Y-4771428D01*
X-11585714Y-4800000D01*
X-11614285Y-4828571D01*
X-11814285Y-4771428D02*
X-12185714Y-4771428D01*
X-11985714Y-5000000D01*
X-12071428Y-5000000D01*
X-12128571Y-5028571D01*
X-12157142Y-5057142D01*
X-12185714Y-5114285D01*
X-12185714Y-5257142D01*
X-12157142Y-5314285D01*
X-12128571Y-5342857D01*
X-12071428Y-5371428D01*
X-11900000Y-5371428D01*
X-11842857Y-5342857D01*
X-11814285Y-5314285D01*
X-12700000Y-4771428D02*
X-12585714Y-4771428D01*
X-12528571Y-4800000D01*
X-12500000Y-4828571D01*
X-12442857Y-4914285D01*
X-12414285Y-5028571D01*
X-12414285Y-5257142D01*
X-12442857Y-5314285D01*
X-12471428Y-5342857D01*
X-12528571Y-5371428D01*
X-12642857Y-5371428D01*
X-12700000Y-5342857D01*
X-12728571Y-5314285D01*
X-12757142Y-5257142D01*
X-12757142Y-5114285D01*
X-12728571Y-5057142D01*
X-12700000Y-5028571D01*
X-12642857Y-5000000D01*
X-12528571Y-5000000D01*
X-12471428Y-5028571D01*
X-12442857Y-5057142D01*
X-12414285Y-5114285D01*
X-17614285Y-5314285D02*
X-17585714Y-5342857D01*
X-17500000Y-5371428D01*
X-17442857Y-5371428D01*
X-17357142Y-5342857D01*
X-17300000Y-5285714D01*
X-17271428Y-5228571D01*
X-17242857Y-5114285D01*
X-17242857Y-5028571D01*
X-17271428Y-4914285D01*
X-17300000Y-4857142D01*
X-17357142Y-4800000D01*
X-17442857Y-4771428D01*
X-17500000Y-4771428D01*
X-17585714Y-4800000D01*
X-17614285Y-4828571D01*
X-17814285Y-4771428D02*
X-18185714Y-4771428D01*
X-17985714Y-5000000D01*
X-18071428Y-5000000D01*
X-18128571Y-5028571D01*
X-18157142Y-5057142D01*
X-18185714Y-5114285D01*
X-18185714Y-5257142D01*
X-18157142Y-5314285D01*
X-18128571Y-5342857D01*
X-18071428Y-5371428D01*
X-17900000Y-5371428D01*
X-17842857Y-5342857D01*
X-17814285Y-5314285D01*
X-18728571Y-4771428D02*
X-18442857Y-4771428D01*
X-18414285Y-5057142D01*
X-18442857Y-5028571D01*
X-18500000Y-5000000D01*
X-18642857Y-5000000D01*
X-18700000Y-5028571D01*
X-18728571Y-5057142D01*
X-18757142Y-5114285D01*
X-18757142Y-5257142D01*
X-18728571Y-5314285D01*
X-18700000Y-5342857D01*
X-18642857Y-5371428D01*
X-18500000Y-5371428D01*
X-18442857Y-5342857D01*
X-18414285Y-5314285D01*
X-19114285Y-5314285D02*
X-19085714Y-5342857D01*
X-19000000Y-5371428D01*
X-18942857Y-5371428D01*
X-18857142Y-5342857D01*
X-18800000Y-5285714D01*
X-18771428Y-5228571D01*
X-18742857Y-5114285D01*
X-18742857Y-5028571D01*
X-18771428Y-4914285D01*
X-18800000Y-4857142D01*
X-18857142Y-4800000D01*
X-18942857Y-4771428D01*
X-19000000Y-4771428D01*
X-19085714Y-4800000D01*
X-19114285Y-4828571D01*
X-19314285Y-4771428D02*
X-19685714Y-4771428D01*
X-19485714Y-5000000D01*
X-19571428Y-5000000D01*
X-19628571Y-5028571D01*
X-19657142Y-5057142D01*
X-19685714Y-5114285D01*
X-19685714Y-5257142D01*
X-19657142Y-5314285D01*
X-19628571Y-5342857D01*
X-19571428Y-5371428D01*
X-19400000Y-5371428D01*
X-19342857Y-5342857D01*
X-19314285Y-5314285D01*
X-20257142Y-5371428D02*
X-19914285Y-5371428D01*
X-20085714Y-5371428D02*
X-20085714Y-4771428D01*
X-20028571Y-4857142D01*
X-19971428Y-4914285D01*
X-19914285Y-4942857D01*
X10385714Y-7114285D02*
X10414285Y-7142857D01*
X10500000Y-7171428D01*
X10557142Y-7171428D01*
X10642857Y-7142857D01*
X10700000Y-7085714D01*
X10728571Y-7028571D01*
X10757142Y-6914285D01*
X10757142Y-6828571D01*
X10728571Y-6714285D01*
X10700000Y-6657142D01*
X10642857Y-6600000D01*
X10557142Y-6571428D01*
X10500000Y-6571428D01*
X10414285Y-6600000D01*
X10385714Y-6628571D01*
X10157142Y-6628571D02*
X10128571Y-6600000D01*
X10071428Y-6571428D01*
X9928571Y-6571428D01*
X9871428Y-6600000D01*
X9842857Y-6628571D01*
X9814285Y-6685714D01*
X9814285Y-6742857D01*
X9842857Y-6828571D01*
X10185714Y-7171428D01*
X9814285Y-7171428D01*
X9300000Y-6571428D02*
X9414285Y-6571428D01*
X9471428Y-6600000D01*
X9500000Y-6628571D01*
X9557142Y-6714285D01*
X9585714Y-6828571D01*
X9585714Y-7057142D01*
X9557142Y-7114285D01*
X9528571Y-7142857D01*
X9471428Y-7171428D01*
X9357142Y-7171428D01*
X9300000Y-7142857D01*
X9271428Y-7114285D01*
X9242857Y-7057142D01*
X9242857Y-6914285D01*
X9271428Y-6857142D01*
X9300000Y-6828571D01*
X9357142Y-6800000D01*
X9471428Y-6800000D01*
X9528571Y-6828571D01*
X9557142Y-6857142D01*
X9585714Y-6914285D01*
X12385714Y-22114285D02*
X12414285Y-22142857D01*
X12500000Y-22171428D01*
X12557142Y-22171428D01*
X12642857Y-22142857D01*
X12700000Y-22085714D01*
X12728571Y-22028571D01*
X12757142Y-21914285D01*
X12757142Y-21828571D01*
X12728571Y-21714285D01*
X12700000Y-21657142D01*
X12642857Y-21600000D01*
X12557142Y-21571428D01*
X12500000Y-21571428D01*
X12414285Y-21600000D01*
X12385714Y-21628571D01*
X12157142Y-21628571D02*
X12128571Y-21600000D01*
X12071428Y-21571428D01*
X11928571Y-21571428D01*
X11871428Y-21600000D01*
X11842857Y-21628571D01*
X11814285Y-21685714D01*
X11814285Y-21742857D01*
X11842857Y-21828571D01*
X12185714Y-22171428D01*
X11814285Y-22171428D01*
X11271428Y-21571428D02*
X11557142Y-21571428D01*
X11585714Y-21857142D01*
X11557142Y-21828571D01*
X11500000Y-21800000D01*
X11357142Y-21800000D01*
X11300000Y-21828571D01*
X11271428Y-21857142D01*
X11242857Y-21914285D01*
X11242857Y-22057142D01*
X11271428Y-22114285D01*
X11300000Y-22142857D01*
X11357142Y-22171428D01*
X11500000Y-22171428D01*
X11557142Y-22142857D01*
X11585714Y-22114285D01*
X18385714Y-22114285D02*
X18414285Y-22142857D01*
X18500000Y-22171428D01*
X18557142Y-22171428D01*
X18642857Y-22142857D01*
X18700000Y-22085714D01*
X18728571Y-22028571D01*
X18757142Y-21914285D01*
X18757142Y-21828571D01*
X18728571Y-21714285D01*
X18700000Y-21657142D01*
X18642857Y-21600000D01*
X18557142Y-21571428D01*
X18500000Y-21571428D01*
X18414285Y-21600000D01*
X18385714Y-21628571D01*
X18157142Y-21628571D02*
X18128571Y-21600000D01*
X18071428Y-21571428D01*
X17928571Y-21571428D01*
X17871428Y-21600000D01*
X17842857Y-21628571D01*
X17814285Y-21685714D01*
X17814285Y-21742857D01*
X17842857Y-21828571D01*
X18185714Y-22171428D01*
X17814285Y-22171428D01*
X17300000Y-21771428D02*
X17300000Y-22171428D01*
X17442857Y-21542857D02*
X17585714Y-21971428D01*
X17214285Y-21971428D01*
X19885714Y-22114285D02*
X19914285Y-22142857D01*
X20000000Y-22171428D01*
X20057142Y-22171428D01*
X20142857Y-22142857D01*
X20200000Y-22085714D01*
X20228571Y-22028571D01*
X20257142Y-21914285D01*
X20257142Y-21828571D01*
X20228571Y-21714285D01*
X20200000Y-21657142D01*
X20142857Y-21600000D01*
X20057142Y-21571428D01*
X20000000Y-21571428D01*
X19914285Y-21600000D01*
X19885714Y-21628571D01*
X19657142Y-21628571D02*
X19628571Y-21600000D01*
X19571428Y-21571428D01*
X19428571Y-21571428D01*
X19371428Y-21600000D01*
X19342857Y-21628571D01*
X19314285Y-21685714D01*
X19314285Y-21742857D01*
X19342857Y-21828571D01*
X19685714Y-22171428D01*
X19314285Y-22171428D01*
X18942857Y-21571428D02*
X18885714Y-21571428D01*
X18828571Y-21600000D01*
X18800000Y-21628571D01*
X18771428Y-21685714D01*
X18742857Y-21800000D01*
X18742857Y-21942857D01*
X18771428Y-22057142D01*
X18800000Y-22114285D01*
X18828571Y-22142857D01*
X18885714Y-22171428D01*
X18942857Y-22171428D01*
X19000000Y-22142857D01*
X19028571Y-22114285D01*
X19057142Y-22057142D01*
X19085714Y-21942857D01*
X19085714Y-21800000D01*
X19057142Y-21685714D01*
X19028571Y-21628571D01*
X19000000Y-21600000D01*
X18942857Y-21571428D01*
X10100000Y19885714D02*
X10128571Y19857142D01*
X10214285Y19828571D01*
X10271428Y19828571D01*
X10357142Y19857142D01*
X10414285Y19914285D01*
X10442857Y19971428D01*
X10471428Y20085714D01*
X10471428Y20171428D01*
X10442857Y20285714D01*
X10414285Y20342857D01*
X10357142Y20400000D01*
X10271428Y20428571D01*
X10214285Y20428571D01*
X10128571Y20400000D01*
X10100000Y20371428D01*
X9814285Y19828571D02*
X9700000Y19828571D01*
X9642857Y19857142D01*
X9614285Y19885714D01*
X9557142Y19971428D01*
X9528571Y20085714D01*
X9528571Y20314285D01*
X9557142Y20371428D01*
X9585714Y20400000D01*
X9642857Y20428571D01*
X9757142Y20428571D01*
X9814285Y20400000D01*
X9842857Y20371428D01*
X9871428Y20314285D01*
X9871428Y20171428D01*
X9842857Y20114285D01*
X9814285Y20085714D01*
X9757142Y20057142D01*
X9642857Y20057142D01*
X9585714Y20085714D01*
X9557142Y20114285D01*
X9528571Y20171428D01*
X15285714Y5114285D02*
X15285714Y4828571D01*
X15485714Y5428571D02*
X15285714Y5114285D01*
X15085714Y5428571D01*
X14571428Y4828571D02*
X14914285Y4828571D01*
X14742857Y4828571D02*
X14742857Y5428571D01*
X14800000Y5342857D01*
X14857142Y5285714D01*
X14914285Y5257142D01*
X15457142Y18128571D02*
X15457142Y17642857D01*
X15428571Y17585714D01*
X15400000Y17557142D01*
X15342857Y17528571D01*
X15228571Y17528571D01*
X15171428Y17557142D01*
X15142857Y17585714D01*
X15114285Y17642857D01*
X15114285Y18128571D01*
X14857142Y18071428D02*
X14828571Y18100000D01*
X14771428Y18128571D01*
X14628571Y18128571D01*
X14571428Y18100000D01*
X14542857Y18071428D01*
X14514285Y18014285D01*
X14514285Y17957142D01*
X14542857Y17871428D01*
X14885714Y17528571D01*
X14514285Y17528571D01*
X23071428Y4385714D02*
X22785714Y4585714D01*
X23071428Y4728571D02*
X22471428Y4728571D01*
X22471428Y4500000D01*
X22500000Y4442857D01*
X22528571Y4414285D01*
X22585714Y4385714D01*
X22671428Y4385714D01*
X22728571Y4414285D01*
X22757142Y4442857D01*
X22785714Y4500000D01*
X22785714Y4728571D01*
X23071428Y3814285D02*
X23071428Y4157142D01*
X23071428Y3985714D02*
X22471428Y3985714D01*
X22557142Y4042857D01*
X22614285Y4100000D01*
X22642857Y4157142D01*
X22471428Y3614285D02*
X22471428Y3242857D01*
X22700000Y3442857D01*
X22700000Y3357142D01*
X22728571Y3300000D01*
X22757142Y3271428D01*
X22814285Y3242857D01*
X22957142Y3242857D01*
X23014285Y3271428D01*
X23042857Y3300000D01*
X23071428Y3357142D01*
X23071428Y3528571D01*
X23042857Y3585714D01*
X23014285Y3614285D01*
X23071428Y11385714D02*
X22785714Y11585714D01*
X23071428Y11728571D02*
X22471428Y11728571D01*
X22471428Y11500000D01*
X22500000Y11442857D01*
X22528571Y11414285D01*
X22585714Y11385714D01*
X22671428Y11385714D01*
X22728571Y11414285D01*
X22757142Y11442857D01*
X22785714Y11500000D01*
X22785714Y11728571D01*
X23071428Y10814285D02*
X23071428Y11157142D01*
X23071428Y10985714D02*
X22471428Y10985714D01*
X22557142Y11042857D01*
X22614285Y11100000D01*
X22642857Y11157142D01*
X22528571Y10585714D02*
X22500000Y10557142D01*
X22471428Y10500000D01*
X22471428Y10357142D01*
X22500000Y10300000D01*
X22528571Y10271428D01*
X22585714Y10242857D01*
X22642857Y10242857D01*
X22728571Y10271428D01*
X23071428Y10614285D01*
X23071428Y10242857D01*
X23071428Y18385714D02*
X22785714Y18585714D01*
X23071428Y18728571D02*
X22471428Y18728571D01*
X22471428Y18500000D01*
X22500000Y18442857D01*
X22528571Y18414285D01*
X22585714Y18385714D01*
X22671428Y18385714D01*
X22728571Y18414285D01*
X22757142Y18442857D01*
X22785714Y18500000D01*
X22785714Y18728571D01*
X23071428Y17814285D02*
X23071428Y18157142D01*
X23071428Y17985714D02*
X22471428Y17985714D01*
X22557142Y18042857D01*
X22614285Y18100000D01*
X22642857Y18157142D01*
X23071428Y17242857D02*
X23071428Y17585714D01*
X23071428Y17414285D02*
X22471428Y17414285D01*
X22557142Y17471428D01*
X22614285Y17528571D01*
X22642857Y17585714D01*
X21100000Y4828571D02*
X21300000Y5114285D01*
X21442857Y4828571D02*
X21442857Y5428571D01*
X21214285Y5428571D01*
X21157142Y5400000D01*
X21128571Y5371428D01*
X21100000Y5314285D01*
X21100000Y5228571D01*
X21128571Y5171428D01*
X21157142Y5142857D01*
X21214285Y5114285D01*
X21442857Y5114285D01*
X20900000Y5428571D02*
X20500000Y5428571D01*
X20757142Y4828571D01*
X30057142Y6771428D02*
X30114285Y6800000D01*
X30171428Y6857142D01*
X30257142Y6942857D01*
X30314285Y6971428D01*
X30371428Y6971428D01*
X30342857Y6828571D02*
X30400000Y6857142D01*
X30457142Y6914285D01*
X30485714Y7028571D01*
X30485714Y7228571D01*
X30457142Y7342857D01*
X30400000Y7400000D01*
X30342857Y7428571D01*
X30228571Y7428571D01*
X30171428Y7400000D01*
X30114285Y7342857D01*
X30085714Y7228571D01*
X30085714Y7028571D01*
X30114285Y6914285D01*
X30171428Y6857142D01*
X30228571Y6828571D01*
X30342857Y6828571D01*
X29571428Y7428571D02*
X29685714Y7428571D01*
X29742857Y7400000D01*
X29771428Y7371428D01*
X29828571Y7285714D01*
X29857142Y7171428D01*
X29857142Y6942857D01*
X29828571Y6885714D01*
X29800000Y6857142D01*
X29742857Y6828571D01*
X29628571Y6828571D01*
X29571428Y6857142D01*
X29542857Y6885714D01*
X29514285Y6942857D01*
X29514285Y7085714D01*
X29542857Y7142857D01*
X29571428Y7171428D01*
X29628571Y7200000D01*
X29742857Y7200000D01*
X29800000Y7171428D01*
X29828571Y7142857D01*
X29857142Y7085714D01*
X30057142Y13771428D02*
X30114285Y13800000D01*
X30171428Y13857142D01*
X30257142Y13942857D01*
X30314285Y13971428D01*
X30371428Y13971428D01*
X30342857Y13828571D02*
X30400000Y13857142D01*
X30457142Y13914285D01*
X30485714Y14028571D01*
X30485714Y14228571D01*
X30457142Y14342857D01*
X30400000Y14400000D01*
X30342857Y14428571D01*
X30228571Y14428571D01*
X30171428Y14400000D01*
X30114285Y14342857D01*
X30085714Y14228571D01*
X30085714Y14028571D01*
X30114285Y13914285D01*
X30171428Y13857142D01*
X30228571Y13828571D01*
X30342857Y13828571D01*
X29542857Y14428571D02*
X29828571Y14428571D01*
X29857142Y14142857D01*
X29828571Y14171428D01*
X29771428Y14200000D01*
X29628571Y14200000D01*
X29571428Y14171428D01*
X29542857Y14142857D01*
X29514285Y14085714D01*
X29514285Y13942857D01*
X29542857Y13885714D01*
X29571428Y13857142D01*
X29628571Y13828571D01*
X29771428Y13828571D01*
X29828571Y13857142D01*
X29857142Y13885714D01*
X30057142Y20771428D02*
X30114285Y20800000D01*
X30171428Y20857142D01*
X30257142Y20942857D01*
X30314285Y20971428D01*
X30371428Y20971428D01*
X30342857Y20828571D02*
X30400000Y20857142D01*
X30457142Y20914285D01*
X30485714Y21028571D01*
X30485714Y21228571D01*
X30457142Y21342857D01*
X30400000Y21400000D01*
X30342857Y21428571D01*
X30228571Y21428571D01*
X30171428Y21400000D01*
X30114285Y21342857D01*
X30085714Y21228571D01*
X30085714Y21028571D01*
X30114285Y20914285D01*
X30171428Y20857142D01*
X30228571Y20828571D01*
X30342857Y20828571D01*
X29571428Y21228571D02*
X29571428Y20828571D01*
X29714285Y21457142D02*
X29857142Y21028571D01*
X29485714Y21028571D01*
X19885714Y4885714D02*
X19914285Y4857142D01*
X20000000Y4828571D01*
X20057142Y4828571D01*
X20142857Y4857142D01*
X20200000Y4914285D01*
X20228571Y4971428D01*
X20257142Y5085714D01*
X20257142Y5171428D01*
X20228571Y5285714D01*
X20200000Y5342857D01*
X20142857Y5400000D01*
X20057142Y5428571D01*
X20000000Y5428571D01*
X19914285Y5400000D01*
X19885714Y5371428D01*
X19314285Y4828571D02*
X19657142Y4828571D01*
X19485714Y4828571D02*
X19485714Y5428571D01*
X19542857Y5342857D01*
X19600000Y5285714D01*
X19657142Y5257142D01*
X18771428Y5428571D02*
X19057142Y5428571D01*
X19085714Y5142857D01*
X19057142Y5171428D01*
X19000000Y5200000D01*
X18857142Y5200000D01*
X18800000Y5171428D01*
X18771428Y5142857D01*
X18742857Y5085714D01*
X18742857Y4942857D01*
X18771428Y4885714D01*
X18800000Y4857142D01*
X18857142Y4828571D01*
X19000000Y4828571D01*
X19057142Y4857142D01*
X19085714Y4885714D01*
X12385714Y4885714D02*
X12414285Y4857142D01*
X12500000Y4828571D01*
X12557142Y4828571D01*
X12642857Y4857142D01*
X12700000Y4914285D01*
X12728571Y4971428D01*
X12757142Y5085714D01*
X12757142Y5171428D01*
X12728571Y5285714D01*
X12700000Y5342857D01*
X12642857Y5400000D01*
X12557142Y5428571D01*
X12500000Y5428571D01*
X12414285Y5400000D01*
X12385714Y5371428D01*
X11814285Y4828571D02*
X12157142Y4828571D01*
X11985714Y4828571D02*
X11985714Y5428571D01*
X12042857Y5342857D01*
X12100000Y5285714D01*
X12157142Y5257142D01*
X11300000Y5228571D02*
X11300000Y4828571D01*
X11442857Y5457142D02*
X11585714Y5028571D01*
X11214285Y5028571D01*
X18385714Y4885714D02*
X18414285Y4857142D01*
X18500000Y4828571D01*
X18557142Y4828571D01*
X18642857Y4857142D01*
X18700000Y4914285D01*
X18728571Y4971428D01*
X18757142Y5085714D01*
X18757142Y5171428D01*
X18728571Y5285714D01*
X18700000Y5342857D01*
X18642857Y5400000D01*
X18557142Y5428571D01*
X18500000Y5428571D01*
X18414285Y5400000D01*
X18385714Y5371428D01*
X17814285Y4828571D02*
X18157142Y4828571D01*
X17985714Y4828571D02*
X17985714Y5428571D01*
X18042857Y5342857D01*
X18100000Y5285714D01*
X18157142Y5257142D01*
X17614285Y5428571D02*
X17242857Y5428571D01*
X17442857Y5200000D01*
X17357142Y5200000D01*
X17300000Y5171428D01*
X17271428Y5142857D01*
X17242857Y5085714D01*
X17242857Y4942857D01*
X17271428Y4885714D01*
X17300000Y4857142D01*
X17357142Y4828571D01*
X17528571Y4828571D01*
X17585714Y4857142D01*
X17614285Y4885714D01*
M02*
