G04 #@! TF.GenerationSoftware,KiCad,Pcbnew,(5.1.9-0-10_14)*
G04 #@! TF.CreationDate,2021-04-27T22:18:25+09:00*
G04 #@! TF.ProjectId,BldcDriver,426c6463-4472-4697-9665-722e6b696361,3.2*
G04 #@! TF.SameCoordinates,Original*
G04 #@! TF.FileFunction,Soldermask,Top*
G04 #@! TF.FilePolarity,Negative*
%FSLAX46Y46*%
G04 Gerber Fmt 4.6, Leading zero omitted, Abs format (unit mm)*
G04 Created by KiCad (PCBNEW (5.1.9-0-10_14)) date 2021-04-27 22:18:25*
%MOMM*%
%LPD*%
G01*
G04 APERTURE LIST*
%ADD10O,1.802000X1.802000*%
%ADD11C,1.902000*%
%ADD12O,1.102000X1.102000*%
%ADD13O,2.102000X2.007000*%
%ADD14C,0.100000*%
G04 APERTURE END LIST*
D10*
X10160000Y-2540000D03*
X10160000Y0D03*
G36*
G01*
X9259000Y1690000D02*
X9259000Y3390000D01*
G75*
G02*
X9310000Y3441000I51000J0D01*
G01*
X11010000Y3441000D01*
G75*
G02*
X11061000Y3390000I0J-51000D01*
G01*
X11061000Y1690000D01*
G75*
G02*
X11010000Y1639000I-51000J0D01*
G01*
X9310000Y1639000D01*
G75*
G02*
X9259000Y1690000I0J51000D01*
G01*
G37*
X-36195000Y6350000D03*
G36*
G01*
X-37096000Y8040000D02*
X-37096000Y9740000D01*
G75*
G02*
X-37045000Y9791000I51000J0D01*
G01*
X-35345000Y9791000D01*
G75*
G02*
X-35294000Y9740000I0J-51000D01*
G01*
X-35294000Y8040000D01*
G75*
G02*
X-35345000Y7989000I-51000J0D01*
G01*
X-37045000Y7989000D01*
G75*
G02*
X-37096000Y8040000I0J51000D01*
G01*
G37*
G36*
G01*
X-29226000Y-9650001D02*
X-29226000Y-8449999D01*
G75*
G02*
X-29175001Y-8399000I50999J0D01*
G01*
X-27824999Y-8399000D01*
G75*
G02*
X-27774000Y-8449999I0J-50999D01*
G01*
X-27774000Y-9650001D01*
G75*
G02*
X-27824999Y-9701000I-50999J0D01*
G01*
X-29175001Y-9701000D01*
G75*
G02*
X-29226000Y-9650001I0J50999D01*
G01*
G37*
G36*
G01*
X-26626000Y-9650001D02*
X-26626000Y-8449999D01*
G75*
G02*
X-26575001Y-8399000I50999J0D01*
G01*
X-25224999Y-8399000D01*
G75*
G02*
X-25174000Y-8449999I0J-50999D01*
G01*
X-25174000Y-9650001D01*
G75*
G02*
X-25224999Y-9701000I-50999J0D01*
G01*
X-26575001Y-9701000D01*
G75*
G02*
X-26626000Y-9650001I0J50999D01*
G01*
G37*
G36*
G01*
X-26626000Y-7550001D02*
X-26626000Y-6349999D01*
G75*
G02*
X-26575001Y-6299000I50999J0D01*
G01*
X-25224999Y-6299000D01*
G75*
G02*
X-25174000Y-6349999I0J-50999D01*
G01*
X-25174000Y-7550001D01*
G75*
G02*
X-25224999Y-7601000I-50999J0D01*
G01*
X-26575001Y-7601000D01*
G75*
G02*
X-26626000Y-7550001I0J50999D01*
G01*
G37*
G36*
G01*
X-29226000Y-7550001D02*
X-29226000Y-6349999D01*
G75*
G02*
X-29175001Y-6299000I50999J0D01*
G01*
X-27824999Y-6299000D01*
G75*
G02*
X-27774000Y-6349999I0J-50999D01*
G01*
X-27774000Y-7550001D01*
G75*
G02*
X-27824999Y-7601000I-50999J0D01*
G01*
X-29175001Y-7601000D01*
G75*
G02*
X-29226000Y-7550001I0J50999D01*
G01*
G37*
D11*
X-10160000Y15240000D03*
X-12700000Y15240000D03*
X-15240000Y15240000D03*
X-17780000Y15240000D03*
X-20320000Y15240000D03*
X-22860000Y15240000D03*
X-30480000Y15240000D03*
X-27940000Y15240000D03*
X-33020000Y15240000D03*
G36*
G01*
X-23401000Y-13563000D02*
X-23401000Y-13037000D01*
G75*
G02*
X-23138000Y-12774000I263000J0D01*
G01*
X-22512000Y-12774000D01*
G75*
G02*
X-22249000Y-13037000I0J-263000D01*
G01*
X-22249000Y-13563000D01*
G75*
G02*
X-22512000Y-13826000I-263000J0D01*
G01*
X-23138000Y-13826000D01*
G75*
G02*
X-23401000Y-13563000I0J263000D01*
G01*
G37*
G36*
G01*
X-25151000Y-13563000D02*
X-25151000Y-13037000D01*
G75*
G02*
X-24888000Y-12774000I263000J0D01*
G01*
X-24262000Y-12774000D01*
G75*
G02*
X-23999000Y-13037000I0J-263000D01*
G01*
X-23999000Y-13563000D01*
G75*
G02*
X-24262000Y-13826000I-263000J0D01*
G01*
X-24888000Y-13826000D01*
G75*
G02*
X-25151000Y-13563000I0J263000D01*
G01*
G37*
G36*
G01*
X-29424000Y9763000D02*
X-29424000Y9237000D01*
G75*
G02*
X-29687000Y8974000I-263000J0D01*
G01*
X-30313000Y8974000D01*
G75*
G02*
X-30576000Y9237000I0J263000D01*
G01*
X-30576000Y9763000D01*
G75*
G02*
X-30313000Y10026000I263000J0D01*
G01*
X-29687000Y10026000D01*
G75*
G02*
X-29424000Y9763000I0J-263000D01*
G01*
G37*
G36*
G01*
X-27674000Y9763000D02*
X-27674000Y9237000D01*
G75*
G02*
X-27937000Y8974000I-263000J0D01*
G01*
X-28563000Y8974000D01*
G75*
G02*
X-28826000Y9237000I0J263000D01*
G01*
X-28826000Y9763000D01*
G75*
G02*
X-28563000Y10026000I263000J0D01*
G01*
X-27937000Y10026000D01*
G75*
G02*
X-27674000Y9763000I0J-263000D01*
G01*
G37*
D12*
X-36195000Y2540000D03*
X-36195000Y1270000D03*
X-36195000Y0D03*
X-36195000Y-1270000D03*
G36*
G01*
X-36746000Y-3040000D02*
X-36746000Y-2040000D01*
G75*
G02*
X-36695000Y-1989000I51000J0D01*
G01*
X-35695000Y-1989000D01*
G75*
G02*
X-35644000Y-2040000I0J-51000D01*
G01*
X-35644000Y-3040000D01*
G75*
G02*
X-35695000Y-3091000I-51000J0D01*
G01*
X-36695000Y-3091000D01*
G75*
G02*
X-36746000Y-3040000I0J51000D01*
G01*
G37*
G36*
G01*
X-23999000Y-14537000D02*
X-23999000Y-15063000D01*
G75*
G02*
X-24262000Y-15326000I-263000J0D01*
G01*
X-24888000Y-15326000D01*
G75*
G02*
X-25151000Y-15063000I0J263000D01*
G01*
X-25151000Y-14537000D01*
G75*
G02*
X-24888000Y-14274000I263000J0D01*
G01*
X-24262000Y-14274000D01*
G75*
G02*
X-23999000Y-14537000I0J-263000D01*
G01*
G37*
G36*
G01*
X-22249000Y-14537000D02*
X-22249000Y-15063000D01*
G75*
G02*
X-22512000Y-15326000I-263000J0D01*
G01*
X-23138000Y-15326000D01*
G75*
G02*
X-23401000Y-15063000I0J263000D01*
G01*
X-23401000Y-14537000D01*
G75*
G02*
X-23138000Y-14274000I263000J0D01*
G01*
X-22512000Y-14274000D01*
G75*
G02*
X-22249000Y-14537000I0J-263000D01*
G01*
G37*
G36*
G01*
X-28826000Y7737000D02*
X-28826000Y8263000D01*
G75*
G02*
X-28563000Y8526000I263000J0D01*
G01*
X-27937000Y8526000D01*
G75*
G02*
X-27674000Y8263000I0J-263000D01*
G01*
X-27674000Y7737000D01*
G75*
G02*
X-27937000Y7474000I-263000J0D01*
G01*
X-28563000Y7474000D01*
G75*
G02*
X-28826000Y7737000I0J263000D01*
G01*
G37*
G36*
G01*
X-30576000Y7737000D02*
X-30576000Y8263000D01*
G75*
G02*
X-30313000Y8526000I263000J0D01*
G01*
X-29687000Y8526000D01*
G75*
G02*
X-29424000Y8263000I0J-263000D01*
G01*
X-29424000Y7737000D01*
G75*
G02*
X-29687000Y7474000I-263000J0D01*
G01*
X-30313000Y7474000D01*
G75*
G02*
X-30576000Y7737000I0J263000D01*
G01*
G37*
D13*
X-4000000Y-8460000D03*
X-4000000Y-11000000D03*
G36*
G01*
X-3000000Y-14543500D02*
X-5000000Y-14543500D01*
G75*
G02*
X-5051000Y-14492500I0J51000D01*
G01*
X-5051000Y-12587500D01*
G75*
G02*
X-5000000Y-12536500I51000J0D01*
G01*
X-3000000Y-12536500D01*
G75*
G02*
X-2949000Y-12587500I0J-51000D01*
G01*
X-2949000Y-14492500D01*
G75*
G02*
X-3000000Y-14543500I-51000J0D01*
G01*
G37*
X0Y-13540000D03*
X0Y-11000000D03*
G36*
G01*
X-1000000Y-7456500D02*
X1000000Y-7456500D01*
G75*
G02*
X1051000Y-7507500I0J-51000D01*
G01*
X1051000Y-9412500D01*
G75*
G02*
X1000000Y-9463500I-51000J0D01*
G01*
X-1000000Y-9463500D01*
G75*
G02*
X-1051000Y-9412500I0J51000D01*
G01*
X-1051000Y-7507500D01*
G75*
G02*
X-1000000Y-7456500I51000J0D01*
G01*
G37*
X-4000000Y2540000D03*
X-4000000Y0D03*
G36*
G01*
X-3000000Y-3543500D02*
X-5000000Y-3543500D01*
G75*
G02*
X-5051000Y-3492500I0J51000D01*
G01*
X-5051000Y-1587500D01*
G75*
G02*
X-5000000Y-1536500I51000J0D01*
G01*
X-3000000Y-1536500D01*
G75*
G02*
X-2949000Y-1587500I0J-51000D01*
G01*
X-2949000Y-3492500D01*
G75*
G02*
X-3000000Y-3543500I-51000J0D01*
G01*
G37*
X0Y-2540000D03*
X0Y0D03*
G36*
G01*
X-1000000Y3543500D02*
X1000000Y3543500D01*
G75*
G02*
X1051000Y3492500I0J-51000D01*
G01*
X1051000Y1587500D01*
G75*
G02*
X1000000Y1536500I-51000J0D01*
G01*
X-1000000Y1536500D01*
G75*
G02*
X-1051000Y1587500I0J51000D01*
G01*
X-1051000Y3492500D01*
G75*
G02*
X-1000000Y3543500I51000J0D01*
G01*
G37*
X-4000000Y13540000D03*
X-4000000Y11000000D03*
G36*
G01*
X-3000000Y7456500D02*
X-5000000Y7456500D01*
G75*
G02*
X-5051000Y7507500I0J51000D01*
G01*
X-5051000Y9412500D01*
G75*
G02*
X-5000000Y9463500I51000J0D01*
G01*
X-3000000Y9463500D01*
G75*
G02*
X-2949000Y9412500I0J-51000D01*
G01*
X-2949000Y7507500D01*
G75*
G02*
X-3000000Y7456500I-51000J0D01*
G01*
G37*
X0Y8460000D03*
X0Y11000000D03*
G36*
G01*
X-1000000Y14543500D02*
X1000000Y14543500D01*
G75*
G02*
X1051000Y14492500I0J-51000D01*
G01*
X1051000Y12587500D01*
G75*
G02*
X1000000Y12536500I-51000J0D01*
G01*
X-1000000Y12536500D01*
G75*
G02*
X-1051000Y12587500I0J51000D01*
G01*
X-1051000Y14492500D01*
G75*
G02*
X-1000000Y14543500I51000J0D01*
G01*
G37*
G36*
G01*
X-24585500Y-8134000D02*
X-24214500Y-8134000D01*
G75*
G02*
X-24029000Y-8319500I0J-185500D01*
G01*
X-24029000Y-9050500D01*
G75*
G02*
X-24214500Y-9236000I-185500J0D01*
G01*
X-24585500Y-9236000D01*
G75*
G02*
X-24771000Y-9050500I0J185500D01*
G01*
X-24771000Y-8319500D01*
G75*
G02*
X-24585500Y-8134000I185500J0D01*
G01*
G37*
G36*
G01*
X-24585500Y-6764000D02*
X-24214500Y-6764000D01*
G75*
G02*
X-24029000Y-6949500I0J-185500D01*
G01*
X-24029000Y-7680500D01*
G75*
G02*
X-24214500Y-7866000I-185500J0D01*
G01*
X-24585500Y-7866000D01*
G75*
G02*
X-24771000Y-7680500I0J185500D01*
G01*
X-24771000Y-6949500D01*
G75*
G02*
X-24585500Y-6764000I185500J0D01*
G01*
G37*
G36*
G01*
X-29814500Y-7866000D02*
X-30185500Y-7866000D01*
G75*
G02*
X-30371000Y-7680500I0J185500D01*
G01*
X-30371000Y-6949500D01*
G75*
G02*
X-30185500Y-6764000I185500J0D01*
G01*
X-29814500Y-6764000D01*
G75*
G02*
X-29629000Y-6949500I0J-185500D01*
G01*
X-29629000Y-7680500D01*
G75*
G02*
X-29814500Y-7866000I-185500J0D01*
G01*
G37*
G36*
G01*
X-29814500Y-9236000D02*
X-30185500Y-9236000D01*
G75*
G02*
X-30371000Y-9050500I0J185500D01*
G01*
X-30371000Y-8319500D01*
G75*
G02*
X-30185500Y-8134000I185500J0D01*
G01*
X-29814500Y-8134000D01*
G75*
G02*
X-29629000Y-8319500I0J-185500D01*
G01*
X-29629000Y-9050500D01*
G75*
G02*
X-29814500Y-9236000I-185500J0D01*
G01*
G37*
D11*
X-33400000Y-9100000D03*
X-33400000Y-11600000D03*
X-33400000Y-14100000D03*
X-35900000Y-9100000D03*
X-35900000Y-11600000D03*
X-35900000Y-14100000D03*
G36*
G01*
X-29674500Y-4976000D02*
X-29925500Y-4976000D01*
G75*
G02*
X-30051000Y-4850500I0J125500D01*
G01*
X-30051000Y-3499500D01*
G75*
G02*
X-29925500Y-3374000I125500J0D01*
G01*
X-29674500Y-3374000D01*
G75*
G02*
X-29549000Y-3499500I0J-125500D01*
G01*
X-29549000Y-4850500D01*
G75*
G02*
X-29674500Y-4976000I-125500J0D01*
G01*
G37*
G36*
G01*
X-28874500Y-4976000D02*
X-29125500Y-4976000D01*
G75*
G02*
X-29251000Y-4850500I0J125500D01*
G01*
X-29251000Y-3499500D01*
G75*
G02*
X-29125500Y-3374000I125500J0D01*
G01*
X-28874500Y-3374000D01*
G75*
G02*
X-28749000Y-3499500I0J-125500D01*
G01*
X-28749000Y-4850500D01*
G75*
G02*
X-28874500Y-4976000I-125500J0D01*
G01*
G37*
G36*
G01*
X-28074500Y-4976000D02*
X-28325500Y-4976000D01*
G75*
G02*
X-28451000Y-4850500I0J125500D01*
G01*
X-28451000Y-3499500D01*
G75*
G02*
X-28325500Y-3374000I125500J0D01*
G01*
X-28074500Y-3374000D01*
G75*
G02*
X-27949000Y-3499500I0J-125500D01*
G01*
X-27949000Y-4850500D01*
G75*
G02*
X-28074500Y-4976000I-125500J0D01*
G01*
G37*
G36*
G01*
X-27274500Y-4976000D02*
X-27525500Y-4976000D01*
G75*
G02*
X-27651000Y-4850500I0J125500D01*
G01*
X-27651000Y-3499500D01*
G75*
G02*
X-27525500Y-3374000I125500J0D01*
G01*
X-27274500Y-3374000D01*
G75*
G02*
X-27149000Y-3499500I0J-125500D01*
G01*
X-27149000Y-4850500D01*
G75*
G02*
X-27274500Y-4976000I-125500J0D01*
G01*
G37*
G36*
G01*
X-26474500Y-4976000D02*
X-26725500Y-4976000D01*
G75*
G02*
X-26851000Y-4850500I0J125500D01*
G01*
X-26851000Y-3499500D01*
G75*
G02*
X-26725500Y-3374000I125500J0D01*
G01*
X-26474500Y-3374000D01*
G75*
G02*
X-26349000Y-3499500I0J-125500D01*
G01*
X-26349000Y-4850500D01*
G75*
G02*
X-26474500Y-4976000I-125500J0D01*
G01*
G37*
G36*
G01*
X-25674500Y-4976000D02*
X-25925500Y-4976000D01*
G75*
G02*
X-26051000Y-4850500I0J125500D01*
G01*
X-26051000Y-3499500D01*
G75*
G02*
X-25925500Y-3374000I125500J0D01*
G01*
X-25674500Y-3374000D01*
G75*
G02*
X-25549000Y-3499500I0J-125500D01*
G01*
X-25549000Y-4850500D01*
G75*
G02*
X-25674500Y-4976000I-125500J0D01*
G01*
G37*
G36*
G01*
X-24874500Y-4976000D02*
X-25125500Y-4976000D01*
G75*
G02*
X-25251000Y-4850500I0J125500D01*
G01*
X-25251000Y-3499500D01*
G75*
G02*
X-25125500Y-3374000I125500J0D01*
G01*
X-24874500Y-3374000D01*
G75*
G02*
X-24749000Y-3499500I0J-125500D01*
G01*
X-24749000Y-4850500D01*
G75*
G02*
X-24874500Y-4976000I-125500J0D01*
G01*
G37*
G36*
G01*
X-24074500Y-4976000D02*
X-24325500Y-4976000D01*
G75*
G02*
X-24451000Y-4850500I0J125500D01*
G01*
X-24451000Y-3499500D01*
G75*
G02*
X-24325500Y-3374000I125500J0D01*
G01*
X-24074500Y-3374000D01*
G75*
G02*
X-23949000Y-3499500I0J-125500D01*
G01*
X-23949000Y-4850500D01*
G75*
G02*
X-24074500Y-4976000I-125500J0D01*
G01*
G37*
G36*
G01*
X-22149500Y-3051000D02*
X-23500500Y-3051000D01*
G75*
G02*
X-23626000Y-2925500I0J125500D01*
G01*
X-23626000Y-2674500D01*
G75*
G02*
X-23500500Y-2549000I125500J0D01*
G01*
X-22149500Y-2549000D01*
G75*
G02*
X-22024000Y-2674500I0J-125500D01*
G01*
X-22024000Y-2925500D01*
G75*
G02*
X-22149500Y-3051000I-125500J0D01*
G01*
G37*
G36*
G01*
X-22149500Y-2251000D02*
X-23500500Y-2251000D01*
G75*
G02*
X-23626000Y-2125500I0J125500D01*
G01*
X-23626000Y-1874500D01*
G75*
G02*
X-23500500Y-1749000I125500J0D01*
G01*
X-22149500Y-1749000D01*
G75*
G02*
X-22024000Y-1874500I0J-125500D01*
G01*
X-22024000Y-2125500D01*
G75*
G02*
X-22149500Y-2251000I-125500J0D01*
G01*
G37*
G36*
G01*
X-22149500Y-1451000D02*
X-23500500Y-1451000D01*
G75*
G02*
X-23626000Y-1325500I0J125500D01*
G01*
X-23626000Y-1074500D01*
G75*
G02*
X-23500500Y-949000I125500J0D01*
G01*
X-22149500Y-949000D01*
G75*
G02*
X-22024000Y-1074500I0J-125500D01*
G01*
X-22024000Y-1325500D01*
G75*
G02*
X-22149500Y-1451000I-125500J0D01*
G01*
G37*
G36*
G01*
X-22149500Y-651000D02*
X-23500500Y-651000D01*
G75*
G02*
X-23626000Y-525500I0J125500D01*
G01*
X-23626000Y-274500D01*
G75*
G02*
X-23500500Y-149000I125500J0D01*
G01*
X-22149500Y-149000D01*
G75*
G02*
X-22024000Y-274500I0J-125500D01*
G01*
X-22024000Y-525500D01*
G75*
G02*
X-22149500Y-651000I-125500J0D01*
G01*
G37*
G36*
G01*
X-22149500Y149000D02*
X-23500500Y149000D01*
G75*
G02*
X-23626000Y274500I0J125500D01*
G01*
X-23626000Y525500D01*
G75*
G02*
X-23500500Y651000I125500J0D01*
G01*
X-22149500Y651000D01*
G75*
G02*
X-22024000Y525500I0J-125500D01*
G01*
X-22024000Y274500D01*
G75*
G02*
X-22149500Y149000I-125500J0D01*
G01*
G37*
G36*
G01*
X-22149500Y949000D02*
X-23500500Y949000D01*
G75*
G02*
X-23626000Y1074500I0J125500D01*
G01*
X-23626000Y1325500D01*
G75*
G02*
X-23500500Y1451000I125500J0D01*
G01*
X-22149500Y1451000D01*
G75*
G02*
X-22024000Y1325500I0J-125500D01*
G01*
X-22024000Y1074500D01*
G75*
G02*
X-22149500Y949000I-125500J0D01*
G01*
G37*
G36*
G01*
X-22149500Y1749000D02*
X-23500500Y1749000D01*
G75*
G02*
X-23626000Y1874500I0J125500D01*
G01*
X-23626000Y2125500D01*
G75*
G02*
X-23500500Y2251000I125500J0D01*
G01*
X-22149500Y2251000D01*
G75*
G02*
X-22024000Y2125500I0J-125500D01*
G01*
X-22024000Y1874500D01*
G75*
G02*
X-22149500Y1749000I-125500J0D01*
G01*
G37*
G36*
G01*
X-22149500Y2549000D02*
X-23500500Y2549000D01*
G75*
G02*
X-23626000Y2674500I0J125500D01*
G01*
X-23626000Y2925500D01*
G75*
G02*
X-23500500Y3051000I125500J0D01*
G01*
X-22149500Y3051000D01*
G75*
G02*
X-22024000Y2925500I0J-125500D01*
G01*
X-22024000Y2674500D01*
G75*
G02*
X-22149500Y2549000I-125500J0D01*
G01*
G37*
G36*
G01*
X-24074500Y3374000D02*
X-24325500Y3374000D01*
G75*
G02*
X-24451000Y3499500I0J125500D01*
G01*
X-24451000Y4850500D01*
G75*
G02*
X-24325500Y4976000I125500J0D01*
G01*
X-24074500Y4976000D01*
G75*
G02*
X-23949000Y4850500I0J-125500D01*
G01*
X-23949000Y3499500D01*
G75*
G02*
X-24074500Y3374000I-125500J0D01*
G01*
G37*
G36*
G01*
X-24874500Y3374000D02*
X-25125500Y3374000D01*
G75*
G02*
X-25251000Y3499500I0J125500D01*
G01*
X-25251000Y4850500D01*
G75*
G02*
X-25125500Y4976000I125500J0D01*
G01*
X-24874500Y4976000D01*
G75*
G02*
X-24749000Y4850500I0J-125500D01*
G01*
X-24749000Y3499500D01*
G75*
G02*
X-24874500Y3374000I-125500J0D01*
G01*
G37*
G36*
G01*
X-25674500Y3374000D02*
X-25925500Y3374000D01*
G75*
G02*
X-26051000Y3499500I0J125500D01*
G01*
X-26051000Y4850500D01*
G75*
G02*
X-25925500Y4976000I125500J0D01*
G01*
X-25674500Y4976000D01*
G75*
G02*
X-25549000Y4850500I0J-125500D01*
G01*
X-25549000Y3499500D01*
G75*
G02*
X-25674500Y3374000I-125500J0D01*
G01*
G37*
G36*
G01*
X-26474500Y3374000D02*
X-26725500Y3374000D01*
G75*
G02*
X-26851000Y3499500I0J125500D01*
G01*
X-26851000Y4850500D01*
G75*
G02*
X-26725500Y4976000I125500J0D01*
G01*
X-26474500Y4976000D01*
G75*
G02*
X-26349000Y4850500I0J-125500D01*
G01*
X-26349000Y3499500D01*
G75*
G02*
X-26474500Y3374000I-125500J0D01*
G01*
G37*
G36*
G01*
X-27274500Y3374000D02*
X-27525500Y3374000D01*
G75*
G02*
X-27651000Y3499500I0J125500D01*
G01*
X-27651000Y4850500D01*
G75*
G02*
X-27525500Y4976000I125500J0D01*
G01*
X-27274500Y4976000D01*
G75*
G02*
X-27149000Y4850500I0J-125500D01*
G01*
X-27149000Y3499500D01*
G75*
G02*
X-27274500Y3374000I-125500J0D01*
G01*
G37*
G36*
G01*
X-28074500Y3374000D02*
X-28325500Y3374000D01*
G75*
G02*
X-28451000Y3499500I0J125500D01*
G01*
X-28451000Y4850500D01*
G75*
G02*
X-28325500Y4976000I125500J0D01*
G01*
X-28074500Y4976000D01*
G75*
G02*
X-27949000Y4850500I0J-125500D01*
G01*
X-27949000Y3499500D01*
G75*
G02*
X-28074500Y3374000I-125500J0D01*
G01*
G37*
G36*
G01*
X-28874500Y3374000D02*
X-29125500Y3374000D01*
G75*
G02*
X-29251000Y3499500I0J125500D01*
G01*
X-29251000Y4850500D01*
G75*
G02*
X-29125500Y4976000I125500J0D01*
G01*
X-28874500Y4976000D01*
G75*
G02*
X-28749000Y4850500I0J-125500D01*
G01*
X-28749000Y3499500D01*
G75*
G02*
X-28874500Y3374000I-125500J0D01*
G01*
G37*
G36*
G01*
X-29674500Y3374000D02*
X-29925500Y3374000D01*
G75*
G02*
X-30051000Y3499500I0J125500D01*
G01*
X-30051000Y4850500D01*
G75*
G02*
X-29925500Y4976000I125500J0D01*
G01*
X-29674500Y4976000D01*
G75*
G02*
X-29549000Y4850500I0J-125500D01*
G01*
X-29549000Y3499500D01*
G75*
G02*
X-29674500Y3374000I-125500J0D01*
G01*
G37*
G36*
G01*
X-30499500Y2549000D02*
X-31850500Y2549000D01*
G75*
G02*
X-31976000Y2674500I0J125500D01*
G01*
X-31976000Y2925500D01*
G75*
G02*
X-31850500Y3051000I125500J0D01*
G01*
X-30499500Y3051000D01*
G75*
G02*
X-30374000Y2925500I0J-125500D01*
G01*
X-30374000Y2674500D01*
G75*
G02*
X-30499500Y2549000I-125500J0D01*
G01*
G37*
G36*
G01*
X-30499500Y1749000D02*
X-31850500Y1749000D01*
G75*
G02*
X-31976000Y1874500I0J125500D01*
G01*
X-31976000Y2125500D01*
G75*
G02*
X-31850500Y2251000I125500J0D01*
G01*
X-30499500Y2251000D01*
G75*
G02*
X-30374000Y2125500I0J-125500D01*
G01*
X-30374000Y1874500D01*
G75*
G02*
X-30499500Y1749000I-125500J0D01*
G01*
G37*
G36*
G01*
X-30499500Y949000D02*
X-31850500Y949000D01*
G75*
G02*
X-31976000Y1074500I0J125500D01*
G01*
X-31976000Y1325500D01*
G75*
G02*
X-31850500Y1451000I125500J0D01*
G01*
X-30499500Y1451000D01*
G75*
G02*
X-30374000Y1325500I0J-125500D01*
G01*
X-30374000Y1074500D01*
G75*
G02*
X-30499500Y949000I-125500J0D01*
G01*
G37*
G36*
G01*
X-30499500Y149000D02*
X-31850500Y149000D01*
G75*
G02*
X-31976000Y274500I0J125500D01*
G01*
X-31976000Y525500D01*
G75*
G02*
X-31850500Y651000I125500J0D01*
G01*
X-30499500Y651000D01*
G75*
G02*
X-30374000Y525500I0J-125500D01*
G01*
X-30374000Y274500D01*
G75*
G02*
X-30499500Y149000I-125500J0D01*
G01*
G37*
G36*
G01*
X-30499500Y-651000D02*
X-31850500Y-651000D01*
G75*
G02*
X-31976000Y-525500I0J125500D01*
G01*
X-31976000Y-274500D01*
G75*
G02*
X-31850500Y-149000I125500J0D01*
G01*
X-30499500Y-149000D01*
G75*
G02*
X-30374000Y-274500I0J-125500D01*
G01*
X-30374000Y-525500D01*
G75*
G02*
X-30499500Y-651000I-125500J0D01*
G01*
G37*
G36*
G01*
X-30499500Y-1451000D02*
X-31850500Y-1451000D01*
G75*
G02*
X-31976000Y-1325500I0J125500D01*
G01*
X-31976000Y-1074500D01*
G75*
G02*
X-31850500Y-949000I125500J0D01*
G01*
X-30499500Y-949000D01*
G75*
G02*
X-30374000Y-1074500I0J-125500D01*
G01*
X-30374000Y-1325500D01*
G75*
G02*
X-30499500Y-1451000I-125500J0D01*
G01*
G37*
G36*
G01*
X-30499500Y-2251000D02*
X-31850500Y-2251000D01*
G75*
G02*
X-31976000Y-2125500I0J125500D01*
G01*
X-31976000Y-1874500D01*
G75*
G02*
X-31850500Y-1749000I125500J0D01*
G01*
X-30499500Y-1749000D01*
G75*
G02*
X-30374000Y-1874500I0J-125500D01*
G01*
X-30374000Y-2125500D01*
G75*
G02*
X-30499500Y-2251000I-125500J0D01*
G01*
G37*
G36*
G01*
X-30499500Y-3051000D02*
X-31850500Y-3051000D01*
G75*
G02*
X-31976000Y-2925500I0J125500D01*
G01*
X-31976000Y-2674500D01*
G75*
G02*
X-31850500Y-2549000I125500J0D01*
G01*
X-30499500Y-2549000D01*
G75*
G02*
X-30374000Y-2674500I0J-125500D01*
G01*
X-30374000Y-2925500D01*
G75*
G02*
X-30499500Y-3051000I-125500J0D01*
G01*
G37*
G36*
G01*
X-35474000Y-4037000D02*
X-35474000Y-4563000D01*
G75*
G02*
X-35737000Y-4826000I-263000J0D01*
G01*
X-36363000Y-4826000D01*
G75*
G02*
X-36626000Y-4563000I0J263000D01*
G01*
X-36626000Y-4037000D01*
G75*
G02*
X-36363000Y-3774000I263000J0D01*
G01*
X-35737000Y-3774000D01*
G75*
G02*
X-35474000Y-4037000I0J-263000D01*
G01*
G37*
G36*
G01*
X-33724000Y-4037000D02*
X-33724000Y-4563000D01*
G75*
G02*
X-33987000Y-4826000I-263000J0D01*
G01*
X-34613000Y-4826000D01*
G75*
G02*
X-34876000Y-4563000I0J263000D01*
G01*
X-34876000Y-4037000D01*
G75*
G02*
X-34613000Y-3774000I263000J0D01*
G01*
X-33987000Y-3774000D01*
G75*
G02*
X-33724000Y-4037000I0J-263000D01*
G01*
G37*
G36*
G01*
X-20826000Y3837000D02*
X-20826000Y4363000D01*
G75*
G02*
X-20563000Y4626000I263000J0D01*
G01*
X-19937000Y4626000D01*
G75*
G02*
X-19674000Y4363000I0J-263000D01*
G01*
X-19674000Y3837000D01*
G75*
G02*
X-19937000Y3574000I-263000J0D01*
G01*
X-20563000Y3574000D01*
G75*
G02*
X-20826000Y3837000I0J263000D01*
G01*
G37*
G36*
G01*
X-22576000Y3837000D02*
X-22576000Y4363000D01*
G75*
G02*
X-22313000Y4626000I263000J0D01*
G01*
X-21687000Y4626000D01*
G75*
G02*
X-21424000Y4363000I0J-263000D01*
G01*
X-21424000Y3837000D01*
G75*
G02*
X-21687000Y3574000I-263000J0D01*
G01*
X-22313000Y3574000D01*
G75*
G02*
X-22576000Y3837000I0J263000D01*
G01*
G37*
G36*
G01*
X-35474000Y-5537000D02*
X-35474000Y-6063000D01*
G75*
G02*
X-35737000Y-6326000I-263000J0D01*
G01*
X-36363000Y-6326000D01*
G75*
G02*
X-36626000Y-6063000I0J263000D01*
G01*
X-36626000Y-5537000D01*
G75*
G02*
X-36363000Y-5274000I263000J0D01*
G01*
X-35737000Y-5274000D01*
G75*
G02*
X-35474000Y-5537000I0J-263000D01*
G01*
G37*
G36*
G01*
X-33724000Y-5537000D02*
X-33724000Y-6063000D01*
G75*
G02*
X-33987000Y-6326000I-263000J0D01*
G01*
X-34613000Y-6326000D01*
G75*
G02*
X-34876000Y-6063000I0J263000D01*
G01*
X-34876000Y-5537000D01*
G75*
G02*
X-34613000Y-5274000I263000J0D01*
G01*
X-33987000Y-5274000D01*
G75*
G02*
X-33724000Y-5537000I0J-263000D01*
G01*
G37*
G36*
G01*
X7108106Y-10276000D02*
X4891894Y-10276000D01*
G75*
G02*
X4624000Y-10008106I0J267894D01*
G01*
X4624000Y-9016894D01*
G75*
G02*
X4891894Y-8749000I267894J0D01*
G01*
X7108106Y-8749000D01*
G75*
G02*
X7376000Y-9016894I0J-267894D01*
G01*
X7376000Y-10008106D01*
G75*
G02*
X7108106Y-10276000I-267894J0D01*
G01*
G37*
G36*
G01*
X7108106Y-13251000D02*
X4891894Y-13251000D01*
G75*
G02*
X4624000Y-12983106I0J267894D01*
G01*
X4624000Y-11991894D01*
G75*
G02*
X4891894Y-11724000I267894J0D01*
G01*
X7108106Y-11724000D01*
G75*
G02*
X7376000Y-11991894I0J-267894D01*
G01*
X7376000Y-12983106D01*
G75*
G02*
X7108106Y-13251000I-267894J0D01*
G01*
G37*
G36*
G01*
X7108106Y724000D02*
X4891894Y724000D01*
G75*
G02*
X4624000Y991894I0J267894D01*
G01*
X4624000Y1983106D01*
G75*
G02*
X4891894Y2251000I267894J0D01*
G01*
X7108106Y2251000D01*
G75*
G02*
X7376000Y1983106I0J-267894D01*
G01*
X7376000Y991894D01*
G75*
G02*
X7108106Y724000I-267894J0D01*
G01*
G37*
G36*
G01*
X7108106Y-2251000D02*
X4891894Y-2251000D01*
G75*
G02*
X4624000Y-1983106I0J267894D01*
G01*
X4624000Y-991894D01*
G75*
G02*
X4891894Y-724000I267894J0D01*
G01*
X7108106Y-724000D01*
G75*
G02*
X7376000Y-991894I0J-267894D01*
G01*
X7376000Y-1983106D01*
G75*
G02*
X7108106Y-2251000I-267894J0D01*
G01*
G37*
G36*
G01*
X7108106Y11724000D02*
X4891894Y11724000D01*
G75*
G02*
X4624000Y11991894I0J267894D01*
G01*
X4624000Y12983106D01*
G75*
G02*
X4891894Y13251000I267894J0D01*
G01*
X7108106Y13251000D01*
G75*
G02*
X7376000Y12983106I0J-267894D01*
G01*
X7376000Y11991894D01*
G75*
G02*
X7108106Y11724000I-267894J0D01*
G01*
G37*
G36*
G01*
X7108106Y8749000D02*
X4891894Y8749000D01*
G75*
G02*
X4624000Y9016894I0J267894D01*
G01*
X4624000Y10008106D01*
G75*
G02*
X4891894Y10276000I267894J0D01*
G01*
X7108106Y10276000D01*
G75*
G02*
X7376000Y10008106I0J-267894D01*
G01*
X7376000Y9016894D01*
G75*
G02*
X7108106Y8749000I-267894J0D01*
G01*
G37*
D14*
G36*
X-35936895Y-1755534D02*
G01*
X-35936130Y-1757382D01*
X-35937002Y-1758784D01*
X-35941330Y-1761676D01*
X-35960045Y-1777035D01*
X-35975340Y-1795672D01*
X-35986705Y-1816935D01*
X-35993705Y-1840010D01*
X-35996068Y-1864001D01*
X-35993705Y-1887993D01*
X-35986705Y-1911068D01*
X-35975340Y-1932331D01*
X-35960044Y-1950968D01*
X-35941407Y-1966263D01*
X-35920144Y-1977628D01*
X-35897069Y-1984628D01*
X-35872882Y-1987010D01*
X-35871256Y-1988175D01*
X-35871452Y-1990165D01*
X-35873078Y-1991000D01*
X-36516922Y-1991000D01*
X-36518654Y-1990000D01*
X-36518654Y-1988000D01*
X-36517118Y-1987010D01*
X-36492931Y-1984628D01*
X-36469856Y-1977628D01*
X-36448592Y-1966263D01*
X-36429955Y-1950968D01*
X-36414660Y-1932331D01*
X-36403295Y-1911067D01*
X-36396295Y-1887992D01*
X-36393932Y-1864001D01*
X-36396295Y-1840010D01*
X-36403295Y-1816935D01*
X-36414660Y-1795671D01*
X-36429955Y-1777034D01*
X-36448670Y-1761676D01*
X-36452998Y-1758784D01*
X-36453883Y-1756990D01*
X-36452772Y-1755327D01*
X-36451122Y-1755273D01*
X-36354365Y-1795350D01*
X-36248808Y-1816347D01*
X-36141192Y-1816347D01*
X-36035635Y-1795350D01*
X-35938878Y-1755273D01*
X-35936895Y-1755534D01*
G37*
G36*
X-36022094Y-520824D02*
G01*
X-36021329Y-522672D01*
X-36022369Y-524175D01*
X-36038391Y-532738D01*
X-36057028Y-548033D01*
X-36072323Y-566670D01*
X-36083688Y-587934D01*
X-36090688Y-611009D01*
X-36093051Y-635000D01*
X-36090688Y-658991D01*
X-36083688Y-682066D01*
X-36072323Y-703330D01*
X-36057028Y-721967D01*
X-36038391Y-737262D01*
X-36022369Y-745825D01*
X-36021313Y-747524D01*
X-36022256Y-749287D01*
X-36024077Y-749437D01*
X-36035635Y-744650D01*
X-36141192Y-723653D01*
X-36248808Y-723653D01*
X-36354365Y-744650D01*
X-36365923Y-749437D01*
X-36367906Y-749176D01*
X-36368671Y-747328D01*
X-36367631Y-745825D01*
X-36351609Y-737262D01*
X-36332972Y-721967D01*
X-36317677Y-703330D01*
X-36306312Y-682066D01*
X-36299312Y-658991D01*
X-36296949Y-635000D01*
X-36299312Y-611009D01*
X-36306312Y-587934D01*
X-36317677Y-566670D01*
X-36332972Y-548033D01*
X-36351609Y-532738D01*
X-36367631Y-524175D01*
X-36368687Y-522476D01*
X-36367744Y-520713D01*
X-36365923Y-520563D01*
X-36354365Y-525350D01*
X-36248808Y-546347D01*
X-36141192Y-546347D01*
X-36035635Y-525350D01*
X-36024077Y-520563D01*
X-36022094Y-520824D01*
G37*
G36*
X-36022094Y749176D02*
G01*
X-36021329Y747328D01*
X-36022369Y745825D01*
X-36038391Y737262D01*
X-36057028Y721967D01*
X-36072323Y703330D01*
X-36083688Y682066D01*
X-36090688Y658991D01*
X-36093051Y635000D01*
X-36090688Y611009D01*
X-36083688Y587934D01*
X-36072323Y566670D01*
X-36057028Y548033D01*
X-36038391Y532738D01*
X-36022369Y524175D01*
X-36021313Y522476D01*
X-36022256Y520713D01*
X-36024077Y520563D01*
X-36035635Y525350D01*
X-36141192Y546347D01*
X-36248808Y546347D01*
X-36354365Y525350D01*
X-36365923Y520563D01*
X-36367906Y520824D01*
X-36368671Y522672D01*
X-36367631Y524175D01*
X-36351609Y532738D01*
X-36332972Y548033D01*
X-36317677Y566670D01*
X-36306312Y587934D01*
X-36299312Y611009D01*
X-36296949Y635000D01*
X-36299312Y658991D01*
X-36306312Y682066D01*
X-36317677Y703330D01*
X-36332972Y721967D01*
X-36351609Y737262D01*
X-36367631Y745825D01*
X-36368687Y747524D01*
X-36367744Y749287D01*
X-36365923Y749437D01*
X-36354365Y744650D01*
X-36248808Y723653D01*
X-36141192Y723653D01*
X-36035635Y744650D01*
X-36024077Y749437D01*
X-36022094Y749176D01*
G37*
G36*
X-36022094Y2019176D02*
G01*
X-36021329Y2017328D01*
X-36022369Y2015825D01*
X-36038391Y2007262D01*
X-36057028Y1991967D01*
X-36072323Y1973330D01*
X-36083688Y1952066D01*
X-36090688Y1928991D01*
X-36093051Y1905000D01*
X-36090688Y1881009D01*
X-36083688Y1857934D01*
X-36072323Y1836670D01*
X-36057028Y1818033D01*
X-36038391Y1802738D01*
X-36022369Y1794175D01*
X-36021313Y1792476D01*
X-36022256Y1790713D01*
X-36024077Y1790563D01*
X-36035635Y1795350D01*
X-36141192Y1816347D01*
X-36248808Y1816347D01*
X-36354365Y1795350D01*
X-36365923Y1790563D01*
X-36367906Y1790824D01*
X-36368671Y1792672D01*
X-36367631Y1794175D01*
X-36351609Y1802738D01*
X-36332972Y1818033D01*
X-36317677Y1836670D01*
X-36306312Y1857934D01*
X-36299312Y1881009D01*
X-36296949Y1905000D01*
X-36299312Y1928991D01*
X-36306312Y1952066D01*
X-36317677Y1973330D01*
X-36332972Y1991967D01*
X-36351609Y2007262D01*
X-36367631Y2015825D01*
X-36368687Y2017524D01*
X-36367744Y2019287D01*
X-36365923Y2019437D01*
X-36354365Y2014650D01*
X-36248808Y1993653D01*
X-36141192Y1993653D01*
X-36035635Y2014650D01*
X-36024077Y2019437D01*
X-36022094Y2019176D01*
G37*
M02*
