G04 #@! TF.GenerationSoftware,KiCad,Pcbnew,(5.1.10-1-10_14)*
G04 #@! TF.CreationDate,2021-08-08T19:50:54+09:00*
G04 #@! TF.ProjectId,BldcDriver,426c6463-4472-4697-9665-722e6b696361,V4.0*
G04 #@! TF.SameCoordinates,Original*
G04 #@! TF.FileFunction,Legend,Top*
G04 #@! TF.FilePolarity,Positive*
%FSLAX46Y46*%
G04 Gerber Fmt 4.6, Leading zero omitted, Abs format (unit mm)*
G04 Created by KiCad (PCBNEW (5.1.10-1-10_14)) date 2021-08-08 19:50:54*
%MOMM*%
%LPD*%
G01*
G04 APERTURE LIST*
%ADD10C,0.150000*%
%ADD11C,0.100000*%
%ADD12C,0.120000*%
%ADD13C,0.200000*%
G04 APERTURE END LIST*
D10*
X-1333333Y6721428D02*
X-1190476Y6673809D01*
X-1142857Y6626190D01*
X-1095238Y6530952D01*
X-1095238Y6388095D01*
X-1142857Y6292857D01*
X-1190476Y6245238D01*
X-1285714Y6197619D01*
X-1666666Y6197619D01*
X-1666666Y7197619D01*
X-1333333Y7197619D01*
X-1238095Y7150000D01*
X-1190476Y7102380D01*
X-1142857Y7007142D01*
X-1142857Y6911904D01*
X-1190476Y6816666D01*
X-1238095Y6769047D01*
X-1333333Y6721428D01*
X-1666666Y6721428D01*
X-190476Y6197619D02*
X-666666Y6197619D01*
X-666666Y7197619D01*
X142857Y6197619D02*
X142857Y7197619D01*
X380952Y7197619D01*
X523809Y7150000D01*
X619047Y7054761D01*
X666666Y6959523D01*
X714285Y6769047D01*
X714285Y6626190D01*
X666666Y6435714D01*
X619047Y6340476D01*
X523809Y6245238D01*
X380952Y6197619D01*
X142857Y6197619D01*
X1714285Y6292857D02*
X1666666Y6245238D01*
X1523809Y6197619D01*
X1428571Y6197619D01*
X1285714Y6245238D01*
X1190476Y6340476D01*
X1142857Y6435714D01*
X1095238Y6626190D01*
X1095238Y6769047D01*
X1142857Y6959523D01*
X1190476Y7054761D01*
X1285714Y7150000D01*
X1428571Y7197619D01*
X1523809Y7197619D01*
X1666666Y7150000D01*
X1714285Y7102380D01*
X-1928571Y4547619D02*
X-1928571Y5547619D01*
X-1690476Y5547619D01*
X-1547619Y5500000D01*
X-1452380Y5404761D01*
X-1404761Y5309523D01*
X-1357142Y5119047D01*
X-1357142Y4976190D01*
X-1404761Y4785714D01*
X-1452380Y4690476D01*
X-1547619Y4595238D01*
X-1690476Y4547619D01*
X-1928571Y4547619D01*
X-928571Y4547619D02*
X-928571Y5214285D01*
X-928571Y5023809D02*
X-880952Y5119047D01*
X-833333Y5166666D01*
X-738095Y5214285D01*
X-642857Y5214285D01*
X-309523Y4547619D02*
X-309523Y5214285D01*
X-309523Y5547619D02*
X-357142Y5500000D01*
X-309523Y5452380D01*
X-261904Y5500000D01*
X-309523Y5547619D01*
X-309523Y5452380D01*
X71428Y5214285D02*
X309523Y4547619D01*
X547619Y5214285D01*
X1309523Y4595238D02*
X1214285Y4547619D01*
X1023809Y4547619D01*
X928571Y4595238D01*
X880952Y4690476D01*
X880952Y5071428D01*
X928571Y5166666D01*
X1023809Y5214285D01*
X1214285Y5214285D01*
X1309523Y5166666D01*
X1357142Y5071428D01*
X1357142Y4976190D01*
X880952Y4880952D01*
X1785714Y4547619D02*
X1785714Y5214285D01*
X1785714Y5023809D02*
X1833333Y5119047D01*
X1880952Y5166666D01*
X1976190Y5214285D01*
X2071428Y5214285D01*
X-1523809Y3897619D02*
X-1190476Y2897619D01*
X-857142Y3897619D01*
X-95238Y3564285D02*
X-95238Y2897619D01*
X-333333Y3945238D02*
X-571428Y3230952D01*
X47619Y3230952D01*
X428571Y2992857D02*
X476190Y2945238D01*
X428571Y2897619D01*
X380952Y2945238D01*
X428571Y2992857D01*
X428571Y2897619D01*
X1095238Y3897619D02*
X1190476Y3897619D01*
X1285714Y3850000D01*
X1333333Y3802380D01*
X1380952Y3707142D01*
X1428571Y3516666D01*
X1428571Y3278571D01*
X1380952Y3088095D01*
X1333333Y2992857D01*
X1285714Y2945238D01*
X1190476Y2897619D01*
X1095238Y2897619D01*
X999999Y2945238D01*
X952380Y2992857D01*
X904761Y3088095D01*
X857142Y3278571D01*
X857142Y3516666D01*
X904761Y3707142D01*
X952380Y3802380D01*
X999999Y3850000D01*
X1095238Y3897619D01*
D11*
X-8093571Y17028571D02*
X-7950714Y16428571D01*
X-7836428Y16857142D01*
X-7722142Y16428571D01*
X-7579285Y17028571D01*
X-7350714Y16428571D02*
X-7350714Y17028571D01*
X-7007857Y16428571D01*
X-7007857Y17028571D01*
X-7636428Y18928571D02*
X-7636428Y19528571D01*
X-7350714Y18928571D02*
X-7350714Y19528571D01*
X-7007857Y18928571D01*
X-7007857Y19528571D01*
X-8322142Y22128571D02*
X-8207857Y22128571D01*
X-8150714Y22100000D01*
X-8093571Y22042857D01*
X-8065000Y21928571D01*
X-8065000Y21728571D01*
X-8093571Y21614285D01*
X-8150714Y21557142D01*
X-8207857Y21528571D01*
X-8322142Y21528571D01*
X-8379285Y21557142D01*
X-8436428Y21614285D01*
X-8465000Y21728571D01*
X-8465000Y21928571D01*
X-8436428Y22042857D01*
X-8379285Y22100000D01*
X-8322142Y22128571D01*
X-7807857Y22128571D02*
X-7807857Y21642857D01*
X-7779285Y21585714D01*
X-7750714Y21557142D01*
X-7693571Y21528571D01*
X-7579285Y21528571D01*
X-7522142Y21557142D01*
X-7493571Y21585714D01*
X-7465000Y21642857D01*
X-7465000Y22128571D01*
X-7265000Y22128571D02*
X-6922142Y22128571D01*
X-7093571Y21528571D02*
X-7093571Y22128571D01*
X-7950714Y14428571D02*
X-7750714Y13828571D01*
X-7550714Y14428571D01*
X-7350714Y13828571D02*
X-7350714Y14428571D01*
X-7007857Y13828571D01*
X-7007857Y14428571D01*
X-7979285Y11928571D02*
X-7979285Y11442857D01*
X-7950714Y11385714D01*
X-7922142Y11357142D01*
X-7865000Y11328571D01*
X-7750714Y11328571D01*
X-7693571Y11357142D01*
X-7665000Y11385714D01*
X-7636428Y11442857D01*
X-7636428Y11928571D01*
X-7350714Y11328571D02*
X-7350714Y11928571D01*
X-7007857Y11328571D01*
X-7007857Y11928571D01*
X-7922142Y6828571D02*
X-7722142Y6228571D01*
X-7522142Y6828571D01*
X-7322142Y6228571D02*
X-7322142Y6828571D01*
X-7093571Y6828571D01*
X-7036428Y6800000D01*
X-7007857Y6771428D01*
X-6979285Y6714285D01*
X-6979285Y6628571D01*
X-7007857Y6571428D01*
X-7036428Y6542857D01*
X-7093571Y6514285D01*
X-7322142Y6514285D01*
X-8065000Y9328571D02*
X-7922142Y8728571D01*
X-7807857Y9157142D01*
X-7693571Y8728571D01*
X-7550714Y9328571D01*
X-7322142Y8728571D02*
X-7322142Y9328571D01*
X-7093571Y9328571D01*
X-7036428Y9300000D01*
X-7007857Y9271428D01*
X-6979285Y9214285D01*
X-6979285Y9128571D01*
X-7007857Y9071428D01*
X-7036428Y9042857D01*
X-7093571Y9014285D01*
X-7322142Y9014285D01*
X-7850714Y4328571D02*
X-7850714Y3842857D01*
X-7822142Y3785714D01*
X-7793571Y3757142D01*
X-7736428Y3728571D01*
X-7622142Y3728571D01*
X-7565000Y3757142D01*
X-7536428Y3785714D01*
X-7507857Y3842857D01*
X-7507857Y4328571D01*
X-7222142Y3728571D02*
X-7222142Y4328571D01*
X-6993571Y4328571D01*
X-6936428Y4300000D01*
X-6907857Y4271428D01*
X-6879285Y4214285D01*
X-6879285Y4128571D01*
X-6907857Y4071428D01*
X-6936428Y4042857D01*
X-6993571Y4014285D01*
X-7222142Y4014285D01*
X-8093571Y-9971428D02*
X-7950714Y-10571428D01*
X-7836428Y-10142857D01*
X-7722142Y-10571428D01*
X-7579285Y-9971428D01*
X-7350714Y-10571428D02*
X-7350714Y-9971428D01*
X-7007857Y-10571428D01*
X-7007857Y-9971428D01*
X-7636428Y-8071428D02*
X-7636428Y-7471428D01*
X-7350714Y-8071428D02*
X-7350714Y-7471428D01*
X-7007857Y-8071428D01*
X-7007857Y-7471428D01*
X-7950714Y-12571428D02*
X-7750714Y-13171428D01*
X-7550714Y-12571428D01*
X-7350714Y-13171428D02*
X-7350714Y-12571428D01*
X-7007857Y-13171428D01*
X-7007857Y-12571428D01*
X-8322142Y-4871428D02*
X-8207857Y-4871428D01*
X-8150714Y-4900000D01*
X-8093571Y-4957142D01*
X-8065000Y-5071428D01*
X-8065000Y-5271428D01*
X-8093571Y-5385714D01*
X-8150714Y-5442857D01*
X-8207857Y-5471428D01*
X-8322142Y-5471428D01*
X-8379285Y-5442857D01*
X-8436428Y-5385714D01*
X-8465000Y-5271428D01*
X-8465000Y-5071428D01*
X-8436428Y-4957142D01*
X-8379285Y-4900000D01*
X-8322142Y-4871428D01*
X-7807857Y-4871428D02*
X-7807857Y-5357142D01*
X-7779285Y-5414285D01*
X-7750714Y-5442857D01*
X-7693571Y-5471428D01*
X-7579285Y-5471428D01*
X-7522142Y-5442857D01*
X-7493571Y-5414285D01*
X-7465000Y-5357142D01*
X-7465000Y-4871428D01*
X-7265000Y-4871428D02*
X-6922142Y-4871428D01*
X-7093571Y-5471428D02*
X-7093571Y-4871428D01*
X-7979285Y-15071428D02*
X-7979285Y-15557142D01*
X-7950714Y-15614285D01*
X-7922142Y-15642857D01*
X-7865000Y-15671428D01*
X-7750714Y-15671428D01*
X-7693571Y-15642857D01*
X-7665000Y-15614285D01*
X-7636428Y-15557142D01*
X-7636428Y-15071428D01*
X-7350714Y-15671428D02*
X-7350714Y-15071428D01*
X-7007857Y-15671428D01*
X-7007857Y-15071428D01*
X-8065000Y-17671428D02*
X-7922142Y-18271428D01*
X-7807857Y-17842857D01*
X-7693571Y-18271428D01*
X-7550714Y-17671428D01*
X-7322142Y-18271428D02*
X-7322142Y-17671428D01*
X-7093571Y-17671428D01*
X-7036428Y-17700000D01*
X-7007857Y-17728571D01*
X-6979285Y-17785714D01*
X-6979285Y-17871428D01*
X-7007857Y-17928571D01*
X-7036428Y-17957142D01*
X-7093571Y-17985714D01*
X-7322142Y-17985714D01*
X-7922142Y-20171428D02*
X-7722142Y-20771428D01*
X-7522142Y-20171428D01*
X-7322142Y-20771428D02*
X-7322142Y-20171428D01*
X-7093571Y-20171428D01*
X-7036428Y-20200000D01*
X-7007857Y-20228571D01*
X-6979285Y-20285714D01*
X-6979285Y-20371428D01*
X-7007857Y-20428571D01*
X-7036428Y-20457142D01*
X-7093571Y-20485714D01*
X-7322142Y-20485714D01*
X-7850714Y-22671428D02*
X-7850714Y-23157142D01*
X-7822142Y-23214285D01*
X-7793571Y-23242857D01*
X-7736428Y-23271428D01*
X-7622142Y-23271428D01*
X-7565000Y-23242857D01*
X-7536428Y-23214285D01*
X-7507857Y-23157142D01*
X-7507857Y-22671428D01*
X-7222142Y-23271428D02*
X-7222142Y-22671428D01*
X-6993571Y-22671428D01*
X-6936428Y-22700000D01*
X-6907857Y-22728571D01*
X-6879285Y-22785714D01*
X-6879285Y-22871428D01*
X-6907857Y-22928571D01*
X-6936428Y-22957142D01*
X-6993571Y-22985714D01*
X-7222142Y-22985714D01*
X6907857Y-3671428D02*
X6907857Y-4157142D01*
X6936428Y-4214285D01*
X6965000Y-4242857D01*
X7022142Y-4271428D01*
X7136428Y-4271428D01*
X7193571Y-4242857D01*
X7222142Y-4214285D01*
X7250714Y-4157142D01*
X7250714Y-3671428D01*
X7536428Y-4271428D02*
X7536428Y-3671428D01*
X7765000Y-3671428D01*
X7822142Y-3700000D01*
X7850714Y-3728571D01*
X7879285Y-3785714D01*
X7879285Y-3871428D01*
X7850714Y-3928571D01*
X7822142Y-3957142D01*
X7765000Y-3985714D01*
X7536428Y-3985714D01*
X7007857Y-19571428D02*
X7007857Y-18971428D01*
X7293571Y-19571428D02*
X7293571Y-18971428D01*
X7636428Y-19571428D01*
X7636428Y-18971428D01*
X6922142Y-6271428D02*
X7122142Y-6871428D01*
X7322142Y-6271428D01*
X7522142Y-6871428D02*
X7522142Y-6271428D01*
X7750714Y-6271428D01*
X7807857Y-6300000D01*
X7836428Y-6328571D01*
X7865000Y-6385714D01*
X7865000Y-6471428D01*
X7836428Y-6528571D01*
X7807857Y-6557142D01*
X7750714Y-6585714D01*
X7522142Y-6585714D01*
X7122142Y-21471428D02*
X7236428Y-21471428D01*
X7293571Y-21500000D01*
X7350714Y-21557142D01*
X7379285Y-21671428D01*
X7379285Y-21871428D01*
X7350714Y-21985714D01*
X7293571Y-22042857D01*
X7236428Y-22071428D01*
X7122142Y-22071428D01*
X7065000Y-22042857D01*
X7007857Y-21985714D01*
X6979285Y-21871428D01*
X6979285Y-21671428D01*
X7007857Y-21557142D01*
X7065000Y-21500000D01*
X7122142Y-21471428D01*
X7636428Y-21471428D02*
X7636428Y-21957142D01*
X7665000Y-22014285D01*
X7693571Y-22042857D01*
X7750714Y-22071428D01*
X7865000Y-22071428D01*
X7922142Y-22042857D01*
X7950714Y-22014285D01*
X7979285Y-21957142D01*
X7979285Y-21471428D01*
X8179285Y-21471428D02*
X8522142Y-21471428D01*
X8350714Y-22071428D02*
X8350714Y-21471428D01*
X6950714Y-16371428D02*
X7093571Y-16971428D01*
X7207857Y-16542857D01*
X7322142Y-16971428D01*
X7465000Y-16371428D01*
X7693571Y-16971428D02*
X7693571Y-16371428D01*
X8036428Y-16971428D01*
X8036428Y-16371428D01*
X6950714Y-8771428D02*
X7093571Y-9371428D01*
X7207857Y-8942857D01*
X7322142Y-9371428D01*
X7465000Y-8771428D01*
X7693571Y-9371428D02*
X7693571Y-8771428D01*
X7922142Y-8771428D01*
X7979285Y-8800000D01*
X8007857Y-8828571D01*
X8036428Y-8885714D01*
X8036428Y-8971428D01*
X8007857Y-9028571D01*
X7979285Y-9057142D01*
X7922142Y-9085714D01*
X7693571Y-9085714D01*
X6907857Y-11371428D02*
X6907857Y-11857142D01*
X6936428Y-11914285D01*
X6965000Y-11942857D01*
X7022142Y-11971428D01*
X7136428Y-11971428D01*
X7193571Y-11942857D01*
X7222142Y-11914285D01*
X7250714Y-11857142D01*
X7250714Y-11371428D01*
X7536428Y-11971428D02*
X7536428Y-11371428D01*
X7879285Y-11971428D01*
X7879285Y-11371428D01*
X6922142Y-13871428D02*
X7122142Y-14471428D01*
X7322142Y-13871428D01*
X7522142Y-14471428D02*
X7522142Y-13871428D01*
X7865000Y-14471428D01*
X7865000Y-13871428D01*
X7122142Y5528571D02*
X7236428Y5528571D01*
X7293571Y5500000D01*
X7350714Y5442857D01*
X7379285Y5328571D01*
X7379285Y5128571D01*
X7350714Y5014285D01*
X7293571Y4957142D01*
X7236428Y4928571D01*
X7122142Y4928571D01*
X7065000Y4957142D01*
X7007857Y5014285D01*
X6979285Y5128571D01*
X6979285Y5328571D01*
X7007857Y5442857D01*
X7065000Y5500000D01*
X7122142Y5528571D01*
X7636428Y5528571D02*
X7636428Y5042857D01*
X7665000Y4985714D01*
X7693571Y4957142D01*
X7750714Y4928571D01*
X7865000Y4928571D01*
X7922142Y4957142D01*
X7950714Y4985714D01*
X7979285Y5042857D01*
X7979285Y5528571D01*
X8179285Y5528571D02*
X8522142Y5528571D01*
X8350714Y4928571D02*
X8350714Y5528571D01*
X7007857Y7428571D02*
X7007857Y8028571D01*
X7293571Y7428571D02*
X7293571Y8028571D01*
X7636428Y7428571D01*
X7636428Y8028571D01*
X6950714Y10628571D02*
X7093571Y10028571D01*
X7207857Y10457142D01*
X7322142Y10028571D01*
X7465000Y10628571D01*
X7693571Y10028571D02*
X7693571Y10628571D01*
X8036428Y10028571D01*
X8036428Y10628571D01*
X6922142Y13128571D02*
X7122142Y12528571D01*
X7322142Y13128571D01*
X7522142Y12528571D02*
X7522142Y13128571D01*
X7865000Y12528571D01*
X7865000Y13128571D01*
X6907857Y15628571D02*
X6907857Y15142857D01*
X6936428Y15085714D01*
X6965000Y15057142D01*
X7022142Y15028571D01*
X7136428Y15028571D01*
X7193571Y15057142D01*
X7222142Y15085714D01*
X7250714Y15142857D01*
X7250714Y15628571D01*
X7536428Y15028571D02*
X7536428Y15628571D01*
X7879285Y15028571D01*
X7879285Y15628571D01*
X6950714Y18228571D02*
X7093571Y17628571D01*
X7207857Y18057142D01*
X7322142Y17628571D01*
X7465000Y18228571D01*
X7693571Y17628571D02*
X7693571Y18228571D01*
X7922142Y18228571D01*
X7979285Y18200000D01*
X8007857Y18171428D01*
X8036428Y18114285D01*
X8036428Y18028571D01*
X8007857Y17971428D01*
X7979285Y17942857D01*
X7922142Y17914285D01*
X7693571Y17914285D01*
X6922142Y20728571D02*
X7122142Y20128571D01*
X7322142Y20728571D01*
X7522142Y20128571D02*
X7522142Y20728571D01*
X7750714Y20728571D01*
X7807857Y20700000D01*
X7836428Y20671428D01*
X7865000Y20614285D01*
X7865000Y20528571D01*
X7836428Y20471428D01*
X7807857Y20442857D01*
X7750714Y20414285D01*
X7522142Y20414285D01*
X6907857Y23328571D02*
X6907857Y22842857D01*
X6936428Y22785714D01*
X6965000Y22757142D01*
X7022142Y22728571D01*
X7136428Y22728571D01*
X7193571Y22757142D01*
X7222142Y22785714D01*
X7250714Y22842857D01*
X7250714Y23328571D01*
X7536428Y22728571D02*
X7536428Y23328571D01*
X7765000Y23328571D01*
X7822142Y23300000D01*
X7850714Y23271428D01*
X7879285Y23214285D01*
X7879285Y23128571D01*
X7850714Y23071428D01*
X7822142Y23042857D01*
X7765000Y23014285D01*
X7536428Y23014285D01*
X828571Y-23871428D02*
X485714Y-23871428D01*
X657142Y-23871428D02*
X657142Y-23271428D01*
X600000Y-23357142D01*
X542857Y-23414285D01*
X485714Y-23442857D01*
X1057142Y-23328571D02*
X1085714Y-23300000D01*
X1142857Y-23271428D01*
X1285714Y-23271428D01*
X1342857Y-23300000D01*
X1371428Y-23328571D01*
X1400000Y-23385714D01*
X1400000Y-23442857D01*
X1371428Y-23528571D01*
X1028571Y-23871428D01*
X1400000Y-23871428D01*
X1571428Y-23271428D02*
X1771428Y-23871428D01*
X1971428Y-23271428D01*
X-1757142Y-23300000D02*
X-1814285Y-23271428D01*
X-1899999Y-23271428D01*
X-1985714Y-23300000D01*
X-2042857Y-23357142D01*
X-2071428Y-23414285D01*
X-2100000Y-23528571D01*
X-2100000Y-23614285D01*
X-2071428Y-23728571D01*
X-2042857Y-23785714D01*
X-1985714Y-23842857D01*
X-1899999Y-23871428D01*
X-1842857Y-23871428D01*
X-1757142Y-23842857D01*
X-1728571Y-23814285D01*
X-1728571Y-23614285D01*
X-1842857Y-23614285D01*
X-1471428Y-23871428D02*
X-1471428Y-23271428D01*
X-1128571Y-23871428D01*
X-1128571Y-23271428D01*
X-842857Y-23871428D02*
X-842857Y-23271428D01*
X-699999Y-23271428D01*
X-614285Y-23300000D01*
X-557142Y-23357142D01*
X-528571Y-23414285D01*
X-499999Y-23528571D01*
X-499999Y-23614285D01*
X-528571Y-23728571D01*
X-557142Y-23785714D01*
X-614285Y-23842857D01*
X-699999Y-23871428D01*
X-842857Y-23871428D01*
X-2814285Y23328571D02*
X-2814285Y23928571D01*
X-2528571Y23328571D02*
X-2528571Y23928571D01*
X-2185714Y23328571D01*
X-2185714Y23928571D01*
X-885714Y23928571D02*
X-514285Y23928571D01*
X-714285Y23700000D01*
X-628571Y23700000D01*
X-571428Y23671428D01*
X-542857Y23642857D01*
X-514285Y23585714D01*
X-514285Y23442857D01*
X-542857Y23385714D01*
X-571428Y23357142D01*
X-628571Y23328571D01*
X-800000Y23328571D01*
X-857142Y23357142D01*
X-885714Y23385714D01*
X-257142Y23385714D02*
X-228571Y23357142D01*
X-257142Y23328571D01*
X-285714Y23357142D01*
X-257142Y23385714D01*
X-257142Y23328571D01*
X-28571Y23928571D02*
X342857Y23928571D01*
X142857Y23700000D01*
X228571Y23700000D01*
X285714Y23671428D01*
X314285Y23642857D01*
X342857Y23585714D01*
X342857Y23442857D01*
X314285Y23385714D01*
X285714Y23357142D01*
X228571Y23328571D01*
X57142Y23328571D01*
X0Y23357142D01*
X-28571Y23385714D01*
X514285Y23928571D02*
X714285Y23328571D01*
X914285Y23928571D01*
X2042857Y23900000D02*
X1985714Y23928571D01*
X1900000Y23928571D01*
X1814285Y23900000D01*
X1757142Y23842857D01*
X1728571Y23785714D01*
X1700000Y23671428D01*
X1700000Y23585714D01*
X1728571Y23471428D01*
X1757142Y23414285D01*
X1814285Y23357142D01*
X1900000Y23328571D01*
X1957142Y23328571D01*
X2042857Y23357142D01*
X2071428Y23385714D01*
X2071428Y23585714D01*
X1957142Y23585714D01*
X2328571Y23328571D02*
X2328571Y23928571D01*
X2671428Y23328571D01*
X2671428Y23928571D01*
X2957142Y23328571D02*
X2957142Y23928571D01*
X3100000Y23928571D01*
X3185714Y23900000D01*
X3242857Y23842857D01*
X3271428Y23785714D01*
X3300000Y23671428D01*
X3300000Y23585714D01*
X3271428Y23471428D01*
X3242857Y23414285D01*
X3185714Y23357142D01*
X3100000Y23328571D01*
X2957142Y23328571D01*
D10*
X-619047Y9447619D02*
X-1190476Y9447619D01*
X-904761Y9447619D02*
X-904761Y10447619D01*
X-999999Y10304761D01*
X-1095238Y10209523D01*
X-1190476Y10161904D01*
X-238095Y10352380D02*
X-190476Y10400000D01*
X-95238Y10447619D01*
X142857Y10447619D01*
X238095Y10400000D01*
X285714Y10352380D01*
X333333Y10257142D01*
X333333Y10161904D01*
X285714Y10019047D01*
X-285714Y9447619D01*
X333333Y9447619D01*
X619047Y10447619D02*
X952380Y9447619D01*
X1285714Y10447619D01*
X-1476190Y13947619D02*
X-857142Y13947619D01*
X-1190476Y13566666D01*
X-1047619Y13566666D01*
X-952380Y13519047D01*
X-904761Y13471428D01*
X-857142Y13376190D01*
X-857142Y13138095D01*
X-904761Y13042857D01*
X-952380Y12995238D01*
X-1047619Y12947619D01*
X-1333333Y12947619D01*
X-1428571Y12995238D01*
X-1476190Y13042857D01*
X-428571Y13042857D02*
X-380952Y12995238D01*
X-428571Y12947619D01*
X-476190Y12995238D01*
X-428571Y13042857D01*
X-428571Y12947619D01*
X-47619Y13947619D02*
X571428Y13947619D01*
X238095Y13566666D01*
X380952Y13566666D01*
X476190Y13519047D01*
X523809Y13471428D01*
X571428Y13376190D01*
X571428Y13138095D01*
X523809Y13042857D01*
X476190Y12995238D01*
X380952Y12947619D01*
X95238Y12947619D01*
X0Y12995238D01*
X-47619Y13042857D01*
X857142Y13947619D02*
X1190476Y12947619D01*
X1523809Y13947619D01*
X-761904Y17400000D02*
X-857142Y17447619D01*
X-1000000Y17447619D01*
X-1142857Y17400000D01*
X-1238095Y17304761D01*
X-1285714Y17209523D01*
X-1333333Y17019047D01*
X-1333333Y16876190D01*
X-1285714Y16685714D01*
X-1238095Y16590476D01*
X-1142857Y16495238D01*
X-1000000Y16447619D01*
X-904761Y16447619D01*
X-761904Y16495238D01*
X-714285Y16542857D01*
X-714285Y16876190D01*
X-904761Y16876190D01*
X-285714Y16447619D02*
X-285714Y17447619D01*
X285714Y16447619D01*
X285714Y17447619D01*
X761904Y16447619D02*
X761904Y17447619D01*
X1000000Y17447619D01*
X1142857Y17400000D01*
X1238095Y17304761D01*
X1285714Y17209523D01*
X1333333Y17019047D01*
X1333333Y16876190D01*
X1285714Y16685714D01*
X1238095Y16590476D01*
X1142857Y16495238D01*
X1000000Y16447619D01*
X761904Y16447619D01*
X-761904Y20900000D02*
X-857142Y20947619D01*
X-1000000Y20947619D01*
X-1142857Y20900000D01*
X-1238095Y20804761D01*
X-1285714Y20709523D01*
X-1333333Y20519047D01*
X-1333333Y20376190D01*
X-1285714Y20185714D01*
X-1238095Y20090476D01*
X-1142857Y19995238D01*
X-1000000Y19947619D01*
X-904761Y19947619D01*
X-761904Y19995238D01*
X-714285Y20042857D01*
X-714285Y20376190D01*
X-904761Y20376190D01*
X-285714Y19947619D02*
X-285714Y20947619D01*
X285714Y19947619D01*
X285714Y20947619D01*
X761904Y19947619D02*
X761904Y20947619D01*
X1000000Y20947619D01*
X1142857Y20900000D01*
X1238095Y20804761D01*
X1285714Y20709523D01*
X1333333Y20519047D01*
X1333333Y20376190D01*
X1285714Y20185714D01*
X1238095Y20090476D01*
X1142857Y19995238D01*
X1000000Y19947619D01*
X761904Y19947619D01*
X-37828571Y19047619D02*
X-37590476Y18047619D01*
X-37400000Y18761904D01*
X-37209523Y18047619D01*
X-36971428Y19047619D01*
X-38028571Y-7952380D02*
X-37790476Y-8952380D01*
X-37600000Y-8238095D01*
X-37409523Y-8952380D01*
X-37171428Y-7952380D01*
X37171428Y-17952380D02*
X37409523Y-18952380D01*
X37600000Y-18238095D01*
X37790476Y-18952380D01*
X38028571Y-17952380D01*
X37171428Y9047619D02*
X37409523Y8047619D01*
X37600000Y8761904D01*
X37790476Y8047619D01*
X38028571Y9047619D01*
X-37733333Y16547619D02*
X-37400000Y15547619D01*
X-37066666Y16547619D01*
X-37933333Y-10452380D02*
X-37600000Y-11452380D01*
X-37266666Y-10452380D01*
X37266666Y-15452380D02*
X37600000Y-16452380D01*
X37933333Y-15452380D01*
X37266666Y11547619D02*
X37600000Y10547619D01*
X37933333Y11547619D01*
X-37685714Y14047619D02*
X-37685714Y13238095D01*
X-37638095Y13142857D01*
X-37590476Y13095238D01*
X-37495238Y13047619D01*
X-37304761Y13047619D01*
X-37209523Y13095238D01*
X-37161904Y13142857D01*
X-37114285Y13238095D01*
X-37114285Y14047619D01*
X-37885714Y-12952380D02*
X-37885714Y-13761904D01*
X-37838095Y-13857142D01*
X-37790476Y-13904761D01*
X-37695238Y-13952380D01*
X-37504761Y-13952380D01*
X-37409523Y-13904761D01*
X-37361904Y-13857142D01*
X-37314285Y-13761904D01*
X-37314285Y-12952380D01*
X37314285Y-12952380D02*
X37314285Y-13761904D01*
X37361904Y-13857142D01*
X37409523Y-13904761D01*
X37504761Y-13952380D01*
X37695238Y-13952380D01*
X37790476Y-13904761D01*
X37838095Y-13857142D01*
X37885714Y-13761904D01*
X37885714Y-12952380D01*
X37314285Y14047619D02*
X37314285Y13238095D01*
X37361904Y13142857D01*
X37409523Y13095238D01*
X37504761Y13047619D01*
X37695238Y13047619D01*
X37790476Y13095238D01*
X37838095Y13142857D01*
X37885714Y13238095D01*
X37885714Y14047619D01*
X-41214285Y9547619D02*
X-41214285Y10547619D01*
X-40880952Y9833333D01*
X-40547619Y10547619D01*
X-40547619Y9547619D01*
X-39880952Y10547619D02*
X-39690476Y10547619D01*
X-39595238Y10500000D01*
X-39500000Y10404761D01*
X-39452380Y10214285D01*
X-39452380Y9880952D01*
X-39500000Y9690476D01*
X-39595238Y9595238D01*
X-39690476Y9547619D01*
X-39880952Y9547619D01*
X-39976190Y9595238D01*
X-40071428Y9690476D01*
X-40119047Y9880952D01*
X-40119047Y10214285D01*
X-40071428Y10404761D01*
X-39976190Y10500000D01*
X-39880952Y10547619D01*
X-39166666Y10547619D02*
X-38595238Y10547619D01*
X-38880952Y9547619D02*
X-38880952Y10547619D01*
X-37833333Y10214285D02*
X-37833333Y9547619D01*
X-38071428Y10595238D02*
X-38309523Y9880952D01*
X-37690476Y9880952D01*
X-41214285Y-17452380D02*
X-41214285Y-16452380D01*
X-40880952Y-17166666D01*
X-40547619Y-16452380D01*
X-40547619Y-17452380D01*
X-39880952Y-16452380D02*
X-39690476Y-16452380D01*
X-39595238Y-16500000D01*
X-39500000Y-16595238D01*
X-39452380Y-16785714D01*
X-39452380Y-17119047D01*
X-39500000Y-17309523D01*
X-39595238Y-17404761D01*
X-39690476Y-17452380D01*
X-39880952Y-17452380D01*
X-39976190Y-17404761D01*
X-40071428Y-17309523D01*
X-40119047Y-17119047D01*
X-40119047Y-16785714D01*
X-40071428Y-16595238D01*
X-39976190Y-16500000D01*
X-39880952Y-16452380D01*
X-39166666Y-16452380D02*
X-38595238Y-16452380D01*
X-38880952Y-17452380D02*
X-38880952Y-16452380D01*
X-38357142Y-16452380D02*
X-37738095Y-16452380D01*
X-38071428Y-16833333D01*
X-37928571Y-16833333D01*
X-37833333Y-16880952D01*
X-37785714Y-16928571D01*
X-37738095Y-17023809D01*
X-37738095Y-17261904D01*
X-37785714Y-17357142D01*
X-37833333Y-17404761D01*
X-37928571Y-17452380D01*
X-38214285Y-17452380D01*
X-38309523Y-17404761D01*
X-38357142Y-17357142D01*
X37785714Y-22452380D02*
X37785714Y-21452380D01*
X38119047Y-22166666D01*
X38452380Y-21452380D01*
X38452380Y-22452380D01*
X39119047Y-21452380D02*
X39309523Y-21452380D01*
X39404761Y-21500000D01*
X39500000Y-21595238D01*
X39547619Y-21785714D01*
X39547619Y-22119047D01*
X39500000Y-22309523D01*
X39404761Y-22404761D01*
X39309523Y-22452380D01*
X39119047Y-22452380D01*
X39023809Y-22404761D01*
X38928571Y-22309523D01*
X38880952Y-22119047D01*
X38880952Y-21785714D01*
X38928571Y-21595238D01*
X39023809Y-21500000D01*
X39119047Y-21452380D01*
X39833333Y-21452380D02*
X40404761Y-21452380D01*
X40119047Y-22452380D02*
X40119047Y-21452380D01*
X40690476Y-21547619D02*
X40738095Y-21500000D01*
X40833333Y-21452380D01*
X41071428Y-21452380D01*
X41166666Y-21500000D01*
X41214285Y-21547619D01*
X41261904Y-21642857D01*
X41261904Y-21738095D01*
X41214285Y-21880952D01*
X40642857Y-22452380D01*
X41261904Y-22452380D01*
X37785714Y4547619D02*
X37785714Y5547619D01*
X38119047Y4833333D01*
X38452380Y5547619D01*
X38452380Y4547619D01*
X39119047Y5547619D02*
X39309523Y5547619D01*
X39404761Y5500000D01*
X39500000Y5404761D01*
X39547619Y5214285D01*
X39547619Y4880952D01*
X39500000Y4690476D01*
X39404761Y4595238D01*
X39309523Y4547619D01*
X39119047Y4547619D01*
X39023809Y4595238D01*
X38928571Y4690476D01*
X38880952Y4880952D01*
X38880952Y5214285D01*
X38928571Y5404761D01*
X39023809Y5500000D01*
X39119047Y5547619D01*
X39833333Y5547619D02*
X40404761Y5547619D01*
X40119047Y4547619D02*
X40119047Y5547619D01*
X41261904Y4547619D02*
X40690476Y4547619D01*
X40976190Y4547619D02*
X40976190Y5547619D01*
X40880952Y5404761D01*
X40785714Y5309523D01*
X40690476Y5261904D01*
D12*
X2430000Y-22700000D02*
X2430000Y-27200000D01*
X3730000Y-22700000D02*
X2430000Y-22700000D01*
X3730000Y-27700000D02*
X3730000Y-22700000D01*
X-2470000Y-27200000D02*
X2430000Y-27200000D01*
X-2470000Y-22700000D02*
X-2470000Y-27200000D01*
X-3770000Y-22700000D02*
X-2470000Y-22700000D01*
X-3770000Y-27700000D02*
X-3770000Y-22700000D01*
X-41600000Y-6000000D02*
X-36600000Y-6000000D01*
X-36600000Y-6000000D02*
X-36600000Y-7300000D01*
X-36600000Y-7300000D02*
X-41100000Y-7300000D01*
X-41600000Y-16000000D02*
X-36600000Y-16000000D01*
X-36600000Y-16000000D02*
X-36600000Y-14700000D01*
X-36600000Y-14700000D02*
X-41100000Y-14700000D01*
X-41100000Y-14700000D02*
X-41100000Y-7300000D01*
X5000000Y27600000D02*
X5000000Y22600000D01*
X5000000Y22600000D02*
X3700000Y22600000D01*
X3700000Y22600000D02*
X3700000Y27100000D01*
X-5000000Y27600000D02*
X-5000000Y22600000D01*
X-5000000Y22600000D02*
X-3700000Y22600000D01*
X-3700000Y22600000D02*
X-3700000Y27100000D01*
X-3700000Y27100000D02*
X3700000Y27100000D01*
X41600000Y-21000000D02*
X36600000Y-21000000D01*
X36600000Y-21000000D02*
X36600000Y-19700000D01*
X36600000Y-19700000D02*
X41100000Y-19700000D01*
X41600000Y-11000000D02*
X36600000Y-11000000D01*
X36600000Y-11000000D02*
X36600000Y-12300000D01*
X36600000Y-12300000D02*
X41100000Y-12300000D01*
X41100000Y-12300000D02*
X41100000Y-19700000D01*
X41600000Y6000000D02*
X36600000Y6000000D01*
X36600000Y6000000D02*
X36600000Y7300000D01*
X36600000Y7300000D02*
X41100000Y7300000D01*
X41600000Y16000000D02*
X36600000Y16000000D01*
X36600000Y16000000D02*
X36600000Y14700000D01*
X36600000Y14700000D02*
X41100000Y14700000D01*
X41100000Y14700000D02*
X41100000Y7300000D01*
D13*
X-8677000Y7745000D02*
G75*
G03*
X-8677000Y7745000I-100000J0D01*
G01*
D12*
X-15000000Y25100000D02*
X-18900000Y25100000D01*
X-18900000Y25100000D02*
X-18900000Y24815000D01*
X-15000000Y25100000D02*
X-11100000Y25100000D01*
X-11100000Y25100000D02*
X-11100000Y24815000D01*
X-15000000Y6900000D02*
X-18900000Y6900000D01*
X-18900000Y6900000D02*
X-18900000Y7200000D01*
X-15000000Y6900000D02*
X-11100000Y6900000D01*
X-11100000Y6900000D02*
X-11100000Y7200000D01*
D13*
X-8677000Y-19255000D02*
G75*
G03*
X-8677000Y-19255000I-100000J0D01*
G01*
D12*
X-15000000Y-1900000D02*
X-18900000Y-1900000D01*
X-18900000Y-1900000D02*
X-18900000Y-2185000D01*
X-15000000Y-1900000D02*
X-11100000Y-1900000D01*
X-11100000Y-1900000D02*
X-11100000Y-2185000D01*
X-15000000Y-20100000D02*
X-18900000Y-20100000D01*
X-18900000Y-20100000D02*
X-18900000Y-19800000D01*
X-15000000Y-20100000D02*
X-11100000Y-20100000D01*
X-11100000Y-20100000D02*
X-11100000Y-19800000D01*
D13*
X8877000Y-7745000D02*
G75*
G03*
X8877000Y-7745000I-100000J0D01*
G01*
D12*
X15000000Y-25100000D02*
X18900000Y-25100000D01*
X18900000Y-25100000D02*
X18900000Y-24815000D01*
X15000000Y-25100000D02*
X11100000Y-25100000D01*
X11100000Y-25100000D02*
X11100000Y-24815000D01*
X15000000Y-6900000D02*
X18900000Y-6900000D01*
X18900000Y-6900000D02*
X18900000Y-7200000D01*
X15000000Y-6900000D02*
X11100000Y-6900000D01*
X11100000Y-6900000D02*
X11100000Y-7200000D01*
X-2100000Y-11300000D02*
X-2300000Y-11300000D01*
X-2300000Y-11300000D02*
X-2300000Y-8700000D01*
X-2300000Y-8700000D02*
X-2100000Y-8700000D01*
X2100000Y-11300000D02*
X2300000Y-11300000D01*
X2300000Y-11300000D02*
X2300000Y-8700000D01*
X2300000Y-8700000D02*
X2100000Y-8700000D01*
X-24000000Y23100000D02*
X-23800000Y22900000D01*
X-24200000Y22900000D02*
X-24000000Y23100000D01*
X-23800000Y22900000D02*
X-24200000Y22900000D01*
X-24750000Y24650000D02*
X-24750000Y21350000D01*
X-23250000Y24650000D02*
X-23250000Y21350000D01*
X-23250000Y21350000D02*
X-24750000Y21350000D01*
X-23250000Y24650000D02*
X-24750000Y24650000D01*
X-24000000Y16100000D02*
X-23800000Y15900000D01*
X-24200000Y15900000D02*
X-24000000Y16100000D01*
X-23800000Y15900000D02*
X-24200000Y15900000D01*
X-24750000Y17650000D02*
X-24750000Y14350000D01*
X-23250000Y17650000D02*
X-23250000Y14350000D01*
X-23250000Y14350000D02*
X-24750000Y14350000D01*
X-23250000Y17650000D02*
X-24750000Y17650000D01*
X-24000000Y9100000D02*
X-23800000Y8900000D01*
X-24200000Y8900000D02*
X-24000000Y9100000D01*
X-23800000Y8900000D02*
X-24200000Y8900000D01*
X-24750000Y10650000D02*
X-24750000Y7350000D01*
X-23250000Y10650000D02*
X-23250000Y7350000D01*
X-23250000Y7350000D02*
X-24750000Y7350000D01*
X-23250000Y10650000D02*
X-24750000Y10650000D01*
X-10250000Y4250000D02*
X-10450000Y4450000D01*
X-10050000Y4450000D02*
X-10250000Y4250000D01*
X-10450000Y4450000D02*
X-10050000Y4450000D01*
X-9500000Y2700000D02*
X-9500000Y6000000D01*
X-11000000Y2700000D02*
X-11000000Y6000000D01*
X-11000000Y6000000D02*
X-9500000Y6000000D01*
X-11000000Y2700000D02*
X-9500000Y2700000D01*
X-24000000Y-3900000D02*
X-23800000Y-4100000D01*
X-24200000Y-4100000D02*
X-24000000Y-3900000D01*
X-23800000Y-4100000D02*
X-24200000Y-4100000D01*
X-24750000Y-2350000D02*
X-24750000Y-5650000D01*
X-23250000Y-2350000D02*
X-23250000Y-5650000D01*
X-23250000Y-5650000D02*
X-24750000Y-5650000D01*
X-23250000Y-2350000D02*
X-24750000Y-2350000D01*
X-24000000Y-10900000D02*
X-23800000Y-11100000D01*
X-24200000Y-11100000D02*
X-24000000Y-10900000D01*
X-23800000Y-11100000D02*
X-24200000Y-11100000D01*
X-24750000Y-9350000D02*
X-24750000Y-12650000D01*
X-23250000Y-9350000D02*
X-23250000Y-12650000D01*
X-23250000Y-12650000D02*
X-24750000Y-12650000D01*
X-23250000Y-9350000D02*
X-24750000Y-9350000D01*
X-24000000Y-17900000D02*
X-23800000Y-18100000D01*
X-24200000Y-18100000D02*
X-24000000Y-17900000D01*
X-23800000Y-18100000D02*
X-24200000Y-18100000D01*
X-24750000Y-16350000D02*
X-24750000Y-19650000D01*
X-23250000Y-16350000D02*
X-23250000Y-19650000D01*
X-23250000Y-19650000D02*
X-24750000Y-19650000D01*
X-23250000Y-16350000D02*
X-24750000Y-16350000D01*
X-10250000Y-22750000D02*
X-10450000Y-22550000D01*
X-10050000Y-22550000D02*
X-10250000Y-22750000D01*
X-10450000Y-22550000D02*
X-10050000Y-22550000D01*
X-9500000Y-24300000D02*
X-9500000Y-21000000D01*
X-11000000Y-24300000D02*
X-11000000Y-21000000D01*
X-11000000Y-21000000D02*
X-9500000Y-21000000D01*
X-11000000Y-24300000D02*
X-9500000Y-24300000D01*
X24000000Y-23100000D02*
X23800000Y-22900000D01*
X24200000Y-22900000D02*
X24000000Y-23100000D01*
X23800000Y-22900000D02*
X24200000Y-22900000D01*
X24750000Y-24650000D02*
X24750000Y-21350000D01*
X23250000Y-24650000D02*
X23250000Y-21350000D01*
X23250000Y-21350000D02*
X24750000Y-21350000D01*
X23250000Y-24650000D02*
X24750000Y-24650000D01*
X24000000Y-16100000D02*
X23800000Y-15900000D01*
X24200000Y-15900000D02*
X24000000Y-16100000D01*
X23800000Y-15900000D02*
X24200000Y-15900000D01*
X24750000Y-17650000D02*
X24750000Y-14350000D01*
X23250000Y-17650000D02*
X23250000Y-14350000D01*
X23250000Y-14350000D02*
X24750000Y-14350000D01*
X23250000Y-17650000D02*
X24750000Y-17650000D01*
X24000000Y-9100000D02*
X23800000Y-8900000D01*
X24200000Y-8900000D02*
X24000000Y-9100000D01*
X23800000Y-8900000D02*
X24200000Y-8900000D01*
X24750000Y-10650000D02*
X24750000Y-7350000D01*
X23250000Y-10650000D02*
X23250000Y-7350000D01*
X23250000Y-7350000D02*
X24750000Y-7350000D01*
X23250000Y-10650000D02*
X24750000Y-10650000D01*
X10250000Y-4250000D02*
X10450000Y-4450000D01*
X10050000Y-4450000D02*
X10250000Y-4250000D01*
X10450000Y-4450000D02*
X10050000Y-4450000D01*
X9500000Y-2700000D02*
X9500000Y-6000000D01*
X11000000Y-2700000D02*
X11000000Y-6000000D01*
X11000000Y-6000000D02*
X9500000Y-6000000D01*
X11000000Y-2700000D02*
X9500000Y-2700000D01*
X10250000Y22750000D02*
X10450000Y22550000D01*
X10050000Y22550000D02*
X10250000Y22750000D01*
X10450000Y22550000D02*
X10050000Y22550000D01*
X9500000Y24300000D02*
X9500000Y21000000D01*
X11000000Y24300000D02*
X11000000Y21000000D01*
X11000000Y21000000D02*
X9500000Y21000000D01*
X11000000Y24300000D02*
X9500000Y24300000D01*
X-6000000Y-2100000D02*
X-6200000Y-1900000D01*
X-5800000Y-1900000D02*
X-6000000Y-2100000D01*
X-6200000Y-1900000D02*
X-5800000Y-1900000D01*
X-5250000Y-3650000D02*
X-5250000Y-350000D01*
X-6750000Y-3650000D02*
X-6750000Y-350000D01*
X-6750000Y-350000D02*
X-5250000Y-350000D01*
X-6750000Y-3650000D02*
X-5250000Y-3650000D01*
X6000000Y-24900000D02*
X6200000Y-25100000D01*
X5800000Y-25100000D02*
X6000000Y-24900000D01*
X6200000Y-25100000D02*
X5800000Y-25100000D01*
X5250000Y-23350000D02*
X5250000Y-26650000D01*
X6750000Y-23350000D02*
X6750000Y-26650000D01*
X6750000Y-26650000D02*
X5250000Y-26650000D01*
X6750000Y-23350000D02*
X5250000Y-23350000D01*
X6000000Y2100000D02*
X6200000Y1900000D01*
X5800000Y1900000D02*
X6000000Y2100000D01*
X6200000Y1900000D02*
X5800000Y1900000D01*
X5250000Y3650000D02*
X5250000Y350000D01*
X6750000Y3650000D02*
X6750000Y350000D01*
X6750000Y350000D02*
X5250000Y350000D01*
X6750000Y3650000D02*
X5250000Y3650000D01*
X-750000Y-19600000D02*
X-950000Y-19400000D01*
X-550000Y-19400000D02*
X-750000Y-19600000D01*
X-950000Y-19400000D02*
X-550000Y-19400000D01*
X0Y-21150000D02*
X0Y-17850000D01*
X-1500000Y-21150000D02*
X-1500000Y-17850000D01*
X-1500000Y-17850000D02*
X0Y-17850000D01*
X-1500000Y-21150000D02*
X0Y-21150000D01*
X-33100000Y20400000D02*
X-26900000Y20400000D01*
X-33100000Y25600000D02*
X-26900000Y25600000D01*
X-26900000Y20400000D02*
X-26900000Y20600000D01*
X-33100000Y20400000D02*
X-33100000Y20600000D01*
X-26900000Y25600000D02*
X-26900000Y25400000D01*
X-33100000Y25600000D02*
X-33100000Y25400000D01*
X-33100000Y13400000D02*
X-26900000Y13400000D01*
X-33100000Y18600000D02*
X-26900000Y18600000D01*
X-26900000Y13400000D02*
X-26900000Y13600000D01*
X-33100000Y13400000D02*
X-33100000Y13600000D01*
X-26900000Y18600000D02*
X-26900000Y18400000D01*
X-33100000Y18600000D02*
X-33100000Y18400000D01*
X-33100000Y6400000D02*
X-26900000Y6400000D01*
X-33100000Y11600000D02*
X-26900000Y11600000D01*
X-26900000Y6400000D02*
X-26900000Y6600000D01*
X-33100000Y6400000D02*
X-33100000Y6600000D01*
X-26900000Y11600000D02*
X-26900000Y11400000D01*
X-33100000Y11600000D02*
X-33100000Y11400000D01*
X-33100000Y-6600000D02*
X-26900000Y-6600000D01*
X-33100000Y-1400000D02*
X-26900000Y-1400000D01*
X-26900000Y-6600000D02*
X-26900000Y-6400000D01*
X-33100000Y-6600000D02*
X-33100000Y-6400000D01*
X-26900000Y-1400000D02*
X-26900000Y-1600000D01*
X-33100000Y-1400000D02*
X-33100000Y-1600000D01*
X-33100000Y-13600000D02*
X-26900000Y-13600000D01*
X-33100000Y-8400000D02*
X-26900000Y-8400000D01*
X-26900000Y-13600000D02*
X-26900000Y-13400000D01*
X-33100000Y-13600000D02*
X-33100000Y-13400000D01*
X-26900000Y-8400000D02*
X-26900000Y-8600000D01*
X-33100000Y-8400000D02*
X-33100000Y-8600000D01*
X-33100000Y-20600000D02*
X-26900000Y-20600000D01*
X-33100000Y-15400000D02*
X-26900000Y-15400000D01*
X-26900000Y-20600000D02*
X-26900000Y-20400000D01*
X-33100000Y-20600000D02*
X-33100000Y-20400000D01*
X-26900000Y-15400000D02*
X-26900000Y-15600000D01*
X-33100000Y-15400000D02*
X-33100000Y-15600000D01*
X33100000Y-20400000D02*
X26900000Y-20400000D01*
X33100000Y-25600000D02*
X26900000Y-25600000D01*
X26900000Y-20400000D02*
X26900000Y-20600000D01*
X33100000Y-20400000D02*
X33100000Y-20600000D01*
X26900000Y-25600000D02*
X26900000Y-25400000D01*
X33100000Y-25600000D02*
X33100000Y-25400000D01*
X33100000Y-13400000D02*
X26900000Y-13400000D01*
X33100000Y-18600000D02*
X26900000Y-18600000D01*
X26900000Y-13400000D02*
X26900000Y-13600000D01*
X33100000Y-13400000D02*
X33100000Y-13600000D01*
X26900000Y-18600000D02*
X26900000Y-18400000D01*
X33100000Y-18600000D02*
X33100000Y-18400000D01*
X33100000Y-6400000D02*
X26900000Y-6400000D01*
X33100000Y-11600000D02*
X26900000Y-11600000D01*
X26900000Y-6400000D02*
X26900000Y-6600000D01*
X33100000Y-6400000D02*
X33100000Y-6600000D01*
X26900000Y-11600000D02*
X26900000Y-11400000D01*
X33100000Y-11600000D02*
X33100000Y-11400000D01*
X-41600000Y21000000D02*
X-36600000Y21000000D01*
X-36600000Y21000000D02*
X-36600000Y19700000D01*
X-36600000Y19700000D02*
X-41100000Y19700000D01*
X-41600000Y11000000D02*
X-36600000Y11000000D01*
X-36600000Y11000000D02*
X-36600000Y12300000D01*
X-36600000Y12300000D02*
X-41100000Y12300000D01*
X-41100000Y12300000D02*
X-41100000Y19700000D01*
X-22000000Y3050000D02*
X-22000000Y4950000D01*
X-28950000Y3050000D02*
X-22000000Y3050000D01*
X-28950000Y4950000D02*
X-22000000Y4950000D01*
X-28950000Y3050000D02*
X-28950000Y4950000D01*
X-22000000Y-23950000D02*
X-22000000Y-22050000D01*
X-28950000Y-23950000D02*
X-22000000Y-23950000D01*
X-28950000Y-22050000D02*
X-22000000Y-22050000D01*
X-28950000Y-23950000D02*
X-28950000Y-22050000D01*
X22000000Y-3050000D02*
X22000000Y-4950000D01*
X28950000Y-3050000D02*
X22000000Y-3050000D01*
X28950000Y-4950000D02*
X22000000Y-4950000D01*
X28950000Y-3050000D02*
X28950000Y-4950000D01*
X-12500000Y6000000D02*
X-12500000Y1200000D01*
X-14500000Y6000000D02*
X-14500000Y1200000D01*
X-12500000Y6000000D02*
X-14500000Y6000000D01*
X-12500000Y1200000D02*
X-14500000Y1200000D01*
X-13100000Y3300000D02*
X-13900000Y3300000D01*
X-13900000Y3300000D02*
X-13500000Y4000000D01*
X-13500000Y4000000D02*
X-13100000Y3300000D01*
X-13000000Y4000000D02*
X-14000000Y4000000D01*
X-16000000Y6000000D02*
X-16000000Y1200000D01*
X-18000000Y6000000D02*
X-18000000Y1200000D01*
X-16000000Y6000000D02*
X-18000000Y6000000D01*
X-16000000Y1200000D02*
X-18000000Y1200000D01*
X-16600000Y3300000D02*
X-17400000Y3300000D01*
X-17400000Y3300000D02*
X-17000000Y4000000D01*
X-17000000Y4000000D02*
X-16600000Y3300000D01*
X-16500000Y4000000D02*
X-17500000Y4000000D01*
X-19500000Y6000000D02*
X-19500000Y1200000D01*
X-21500000Y6000000D02*
X-21500000Y1200000D01*
X-19500000Y6000000D02*
X-21500000Y6000000D01*
X-19500000Y1200000D02*
X-21500000Y1200000D01*
X-20100000Y3300000D02*
X-20900000Y3300000D01*
X-20900000Y3300000D02*
X-20500000Y4000000D01*
X-20500000Y4000000D02*
X-20100000Y3300000D01*
X-20000000Y4000000D02*
X-21000000Y4000000D01*
X-12500000Y-21000000D02*
X-12500000Y-25800000D01*
X-14500000Y-21000000D02*
X-14500000Y-25800000D01*
X-12500000Y-21000000D02*
X-14500000Y-21000000D01*
X-12500000Y-25800000D02*
X-14500000Y-25800000D01*
X-13100000Y-23700000D02*
X-13900000Y-23700000D01*
X-13900000Y-23700000D02*
X-13500000Y-23000000D01*
X-13500000Y-23000000D02*
X-13100000Y-23700000D01*
X-13000000Y-23000000D02*
X-14000000Y-23000000D01*
X-16000000Y-21000000D02*
X-16000000Y-25800000D01*
X-18000000Y-21000000D02*
X-18000000Y-25800000D01*
X-16000000Y-21000000D02*
X-18000000Y-21000000D01*
X-16000000Y-25800000D02*
X-18000000Y-25800000D01*
X-16600000Y-23700000D02*
X-17400000Y-23700000D01*
X-17400000Y-23700000D02*
X-17000000Y-23000000D01*
X-17000000Y-23000000D02*
X-16600000Y-23700000D01*
X-16500000Y-23000000D02*
X-17500000Y-23000000D01*
X-19500000Y-21000000D02*
X-19500000Y-25800000D01*
X-21500000Y-21000000D02*
X-21500000Y-25800000D01*
X-19500000Y-21000000D02*
X-21500000Y-21000000D01*
X-19500000Y-25800000D02*
X-21500000Y-25800000D01*
X-20100000Y-23700000D02*
X-20900000Y-23700000D01*
X-20900000Y-23700000D02*
X-20500000Y-23000000D01*
X-20500000Y-23000000D02*
X-20100000Y-23700000D01*
X-20000000Y-23000000D02*
X-21000000Y-23000000D01*
X12500000Y-6000000D02*
X12500000Y-1200000D01*
X14500000Y-6000000D02*
X14500000Y-1200000D01*
X12500000Y-6000000D02*
X14500000Y-6000000D01*
X12500000Y-1200000D02*
X14500000Y-1200000D01*
X13100000Y-3300000D02*
X13900000Y-3300000D01*
X13900000Y-3300000D02*
X13500000Y-4000000D01*
X13500000Y-4000000D02*
X13100000Y-3300000D01*
X13000000Y-4000000D02*
X14000000Y-4000000D01*
X16000000Y-6000000D02*
X16000000Y-1200000D01*
X18000000Y-6000000D02*
X18000000Y-1200000D01*
X16000000Y-6000000D02*
X18000000Y-6000000D01*
X16000000Y-1200000D02*
X18000000Y-1200000D01*
X16600000Y-3300000D02*
X17400000Y-3300000D01*
X17400000Y-3300000D02*
X17000000Y-4000000D01*
X17000000Y-4000000D02*
X16600000Y-3300000D01*
X16500000Y-4000000D02*
X17500000Y-4000000D01*
X19500000Y-6000000D02*
X19500000Y-1200000D01*
X21500000Y-6000000D02*
X21500000Y-1200000D01*
X19500000Y-6000000D02*
X21500000Y-6000000D01*
X19500000Y-1200000D02*
X21500000Y-1200000D01*
X20100000Y-3300000D02*
X20900000Y-3300000D01*
X20900000Y-3300000D02*
X20500000Y-4000000D01*
X20500000Y-4000000D02*
X20100000Y-3300000D01*
X20000000Y-4000000D02*
X21000000Y-4000000D01*
X-7500000Y25100000D02*
X-7300000Y24900000D01*
X-7700000Y24900000D02*
X-7500000Y25100000D01*
X-7300000Y24900000D02*
X-7700000Y24900000D01*
X-8250000Y26650000D02*
X-8250000Y23350000D01*
X-6750000Y26650000D02*
X-6750000Y23350000D01*
X-6750000Y23350000D02*
X-8250000Y23350000D01*
X-6750000Y26650000D02*
X-8250000Y26650000D01*
X-7500000Y-1900000D02*
X-7300000Y-2100000D01*
X-7700000Y-2100000D02*
X-7500000Y-1900000D01*
X-7300000Y-2100000D02*
X-7700000Y-2100000D01*
X-8250000Y-350000D02*
X-8250000Y-3650000D01*
X-6750000Y-350000D02*
X-6750000Y-3650000D01*
X-6750000Y-3650000D02*
X-8250000Y-3650000D01*
X-6750000Y-350000D02*
X-8250000Y-350000D01*
X7500000Y-25100000D02*
X7300000Y-24900000D01*
X7700000Y-24900000D02*
X7500000Y-25100000D01*
X7300000Y-24900000D02*
X7700000Y-24900000D01*
X8250000Y-26650000D02*
X8250000Y-23350000D01*
X6750000Y-26650000D02*
X6750000Y-23350000D01*
X6750000Y-23350000D02*
X8250000Y-23350000D01*
X6750000Y-26650000D02*
X8250000Y-26650000D01*
X7500000Y1900000D02*
X7300000Y2100000D01*
X7700000Y2100000D02*
X7500000Y1900000D01*
X7300000Y2100000D02*
X7700000Y2100000D01*
X8250000Y350000D02*
X8250000Y3650000D01*
X6750000Y350000D02*
X6750000Y3650000D01*
X6750000Y3650000D02*
X8250000Y3650000D01*
X6750000Y350000D02*
X8250000Y350000D01*
X750000Y-19400000D02*
X950000Y-19600000D01*
X550000Y-19600000D02*
X750000Y-19400000D01*
X950000Y-19600000D02*
X550000Y-19600000D01*
X0Y-17850000D02*
X0Y-21150000D01*
X1500000Y-17850000D02*
X1500000Y-21150000D01*
X1500000Y-21150000D02*
X0Y-21150000D01*
X1500000Y-17850000D02*
X0Y-17850000D01*
X-36000000Y22900000D02*
X-36200000Y23100000D01*
X-35800000Y23100000D02*
X-36000000Y22900000D01*
X-36200000Y23100000D02*
X-35800000Y23100000D01*
X-35250000Y21350000D02*
X-35250000Y24650000D01*
X-36750000Y21350000D02*
X-36750000Y24650000D01*
X-36750000Y24650000D02*
X-35250000Y24650000D01*
X-36750000Y21350000D02*
X-35250000Y21350000D01*
X-36000000Y15900000D02*
X-36200000Y16100000D01*
X-35800000Y16100000D02*
X-36000000Y15900000D01*
X-36200000Y16100000D02*
X-35800000Y16100000D01*
X-35250000Y14350000D02*
X-35250000Y17650000D01*
X-36750000Y14350000D02*
X-36750000Y17650000D01*
X-36750000Y17650000D02*
X-35250000Y17650000D01*
X-36750000Y14350000D02*
X-35250000Y14350000D01*
X-36000000Y8900000D02*
X-36200000Y9100000D01*
X-35800000Y9100000D02*
X-36000000Y8900000D01*
X-36200000Y9100000D02*
X-35800000Y9100000D01*
X-35250000Y7350000D02*
X-35250000Y10650000D01*
X-36750000Y7350000D02*
X-36750000Y10650000D01*
X-36750000Y10650000D02*
X-35250000Y10650000D01*
X-36750000Y7350000D02*
X-35250000Y7350000D01*
X-11750000Y4250000D02*
X-11950000Y4450000D01*
X-11550000Y4450000D02*
X-11750000Y4250000D01*
X-11950000Y4450000D02*
X-11550000Y4450000D01*
X-11000000Y2700000D02*
X-11000000Y6000000D01*
X-12500000Y2700000D02*
X-12500000Y6000000D01*
X-12500000Y6000000D02*
X-11000000Y6000000D01*
X-12500000Y2700000D02*
X-11000000Y2700000D01*
X-15250000Y4250000D02*
X-15450000Y4450000D01*
X-15050000Y4450000D02*
X-15250000Y4250000D01*
X-15450000Y4450000D02*
X-15050000Y4450000D01*
X-14500000Y2700000D02*
X-14500000Y6000000D01*
X-16000000Y2700000D02*
X-16000000Y6000000D01*
X-16000000Y6000000D02*
X-14500000Y6000000D01*
X-16000000Y2700000D02*
X-14500000Y2700000D01*
X-18750000Y4250000D02*
X-18950000Y4450000D01*
X-18550000Y4450000D02*
X-18750000Y4250000D01*
X-18950000Y4450000D02*
X-18550000Y4450000D01*
X-18000000Y2700000D02*
X-18000000Y6000000D01*
X-19500000Y2700000D02*
X-19500000Y6000000D01*
X-19500000Y6000000D02*
X-18000000Y6000000D01*
X-19500000Y2700000D02*
X-18000000Y2700000D01*
X-8750000Y4250000D02*
X-8950000Y4450000D01*
X-8550000Y4450000D02*
X-8750000Y4250000D01*
X-8950000Y4450000D02*
X-8550000Y4450000D01*
X-8000000Y2700000D02*
X-8000000Y6000000D01*
X-9500000Y2700000D02*
X-9500000Y6000000D01*
X-9500000Y6000000D02*
X-8000000Y6000000D01*
X-9500000Y2700000D02*
X-8000000Y2700000D01*
X-36000000Y-4100000D02*
X-36200000Y-3900000D01*
X-35800000Y-3900000D02*
X-36000000Y-4100000D01*
X-36200000Y-3900000D02*
X-35800000Y-3900000D01*
X-35250000Y-5650000D02*
X-35250000Y-2350000D01*
X-36750000Y-5650000D02*
X-36750000Y-2350000D01*
X-36750000Y-2350000D02*
X-35250000Y-2350000D01*
X-36750000Y-5650000D02*
X-35250000Y-5650000D01*
X-36000000Y-11100000D02*
X-36200000Y-10900000D01*
X-35800000Y-10900000D02*
X-36000000Y-11100000D01*
X-36200000Y-10900000D02*
X-35800000Y-10900000D01*
X-35250000Y-12650000D02*
X-35250000Y-9350000D01*
X-36750000Y-12650000D02*
X-36750000Y-9350000D01*
X-36750000Y-9350000D02*
X-35250000Y-9350000D01*
X-36750000Y-12650000D02*
X-35250000Y-12650000D01*
X-36000000Y-18100000D02*
X-36200000Y-17900000D01*
X-35800000Y-17900000D02*
X-36000000Y-18100000D01*
X-36200000Y-17900000D02*
X-35800000Y-17900000D01*
X-35250000Y-19650000D02*
X-35250000Y-16350000D01*
X-36750000Y-19650000D02*
X-36750000Y-16350000D01*
X-36750000Y-16350000D02*
X-35250000Y-16350000D01*
X-36750000Y-19650000D02*
X-35250000Y-19650000D01*
X-11750000Y-22750000D02*
X-11950000Y-22550000D01*
X-11550000Y-22550000D02*
X-11750000Y-22750000D01*
X-11950000Y-22550000D02*
X-11550000Y-22550000D01*
X-11000000Y-24300000D02*
X-11000000Y-21000000D01*
X-12500000Y-24300000D02*
X-12500000Y-21000000D01*
X-12500000Y-21000000D02*
X-11000000Y-21000000D01*
X-12500000Y-24300000D02*
X-11000000Y-24300000D01*
X-15250000Y-22750000D02*
X-15450000Y-22550000D01*
X-15050000Y-22550000D02*
X-15250000Y-22750000D01*
X-15450000Y-22550000D02*
X-15050000Y-22550000D01*
X-14500000Y-24300000D02*
X-14500000Y-21000000D01*
X-16000000Y-24300000D02*
X-16000000Y-21000000D01*
X-16000000Y-21000000D02*
X-14500000Y-21000000D01*
X-16000000Y-24300000D02*
X-14500000Y-24300000D01*
X-18750000Y-22750000D02*
X-18950000Y-22550000D01*
X-18550000Y-22550000D02*
X-18750000Y-22750000D01*
X-18950000Y-22550000D02*
X-18550000Y-22550000D01*
X-18000000Y-24300000D02*
X-18000000Y-21000000D01*
X-19500000Y-24300000D02*
X-19500000Y-21000000D01*
X-19500000Y-21000000D02*
X-18000000Y-21000000D01*
X-19500000Y-24300000D02*
X-18000000Y-24300000D01*
X-8750000Y-22750000D02*
X-8950000Y-22550000D01*
X-8550000Y-22550000D02*
X-8750000Y-22750000D01*
X-8950000Y-22550000D02*
X-8550000Y-22550000D01*
X-8000000Y-24300000D02*
X-8000000Y-21000000D01*
X-9500000Y-24300000D02*
X-9500000Y-21000000D01*
X-9500000Y-21000000D02*
X-8000000Y-21000000D01*
X-9500000Y-24300000D02*
X-8000000Y-24300000D01*
X36000000Y-22900000D02*
X36200000Y-23100000D01*
X35800000Y-23100000D02*
X36000000Y-22900000D01*
X36200000Y-23100000D02*
X35800000Y-23100000D01*
X35250000Y-21350000D02*
X35250000Y-24650000D01*
X36750000Y-21350000D02*
X36750000Y-24650000D01*
X36750000Y-24650000D02*
X35250000Y-24650000D01*
X36750000Y-21350000D02*
X35250000Y-21350000D01*
X36000000Y-15900000D02*
X36200000Y-16100000D01*
X35800000Y-16100000D02*
X36000000Y-15900000D01*
X36200000Y-16100000D02*
X35800000Y-16100000D01*
X35250000Y-14350000D02*
X35250000Y-17650000D01*
X36750000Y-14350000D02*
X36750000Y-17650000D01*
X36750000Y-17650000D02*
X35250000Y-17650000D01*
X36750000Y-14350000D02*
X35250000Y-14350000D01*
X36000000Y-8900000D02*
X36200000Y-9100000D01*
X35800000Y-9100000D02*
X36000000Y-8900000D01*
X36200000Y-9100000D02*
X35800000Y-9100000D01*
X35250000Y-7350000D02*
X35250000Y-10650000D01*
X36750000Y-7350000D02*
X36750000Y-10650000D01*
X36750000Y-10650000D02*
X35250000Y-10650000D01*
X36750000Y-7350000D02*
X35250000Y-7350000D01*
X11750000Y-4250000D02*
X11950000Y-4450000D01*
X11550000Y-4450000D02*
X11750000Y-4250000D01*
X11950000Y-4450000D02*
X11550000Y-4450000D01*
X11000000Y-2700000D02*
X11000000Y-6000000D01*
X12500000Y-2700000D02*
X12500000Y-6000000D01*
X12500000Y-6000000D02*
X11000000Y-6000000D01*
X12500000Y-2700000D02*
X11000000Y-2700000D01*
X15250000Y-4250000D02*
X15450000Y-4450000D01*
X15050000Y-4450000D02*
X15250000Y-4250000D01*
X15450000Y-4450000D02*
X15050000Y-4450000D01*
X14500000Y-2700000D02*
X14500000Y-6000000D01*
X16000000Y-2700000D02*
X16000000Y-6000000D01*
X16000000Y-6000000D02*
X14500000Y-6000000D01*
X16000000Y-2700000D02*
X14500000Y-2700000D01*
X18750000Y-4250000D02*
X18950000Y-4450000D01*
X18550000Y-4450000D02*
X18750000Y-4250000D01*
X18950000Y-4450000D02*
X18550000Y-4450000D01*
X18000000Y-2700000D02*
X18000000Y-6000000D01*
X19500000Y-2700000D02*
X19500000Y-6000000D01*
X19500000Y-6000000D02*
X18000000Y-6000000D01*
X19500000Y-2700000D02*
X18000000Y-2700000D01*
X8750000Y-4250000D02*
X8950000Y-4450000D01*
X8550000Y-4450000D02*
X8750000Y-4250000D01*
X8950000Y-4450000D02*
X8550000Y-4450000D01*
X8000000Y-2700000D02*
X8000000Y-6000000D01*
X9500000Y-2700000D02*
X9500000Y-6000000D01*
X9500000Y-6000000D02*
X8000000Y-6000000D01*
X9500000Y-2700000D02*
X8000000Y-2700000D01*
X36000000Y4100000D02*
X36200000Y3900000D01*
X35800000Y3900000D02*
X36000000Y4100000D01*
X36200000Y3900000D02*
X35800000Y3900000D01*
X35250000Y5650000D02*
X35250000Y2350000D01*
X36750000Y5650000D02*
X36750000Y2350000D01*
X36750000Y2350000D02*
X35250000Y2350000D01*
X36750000Y5650000D02*
X35250000Y5650000D01*
X36000000Y11100000D02*
X36200000Y10900000D01*
X35800000Y10900000D02*
X36000000Y11100000D01*
X36200000Y10900000D02*
X35800000Y10900000D01*
X35250000Y12650000D02*
X35250000Y9350000D01*
X36750000Y12650000D02*
X36750000Y9350000D01*
X36750000Y9350000D02*
X35250000Y9350000D01*
X36750000Y12650000D02*
X35250000Y12650000D01*
X36000000Y18100000D02*
X36200000Y17900000D01*
X35800000Y17900000D02*
X36000000Y18100000D01*
X36200000Y17900000D02*
X35800000Y17900000D01*
X35250000Y19650000D02*
X35250000Y16350000D01*
X36750000Y19650000D02*
X36750000Y16350000D01*
X36750000Y16350000D02*
X35250000Y16350000D01*
X36750000Y19650000D02*
X35250000Y19650000D01*
X39910000Y-5910000D02*
X39910000Y-3560000D01*
X39910000Y910000D02*
X39910000Y-1440000D01*
X34154437Y910000D02*
X39910000Y910000D01*
X34154437Y-5910000D02*
X39910000Y-5910000D01*
X33090000Y-4845563D02*
X33090000Y-3560000D01*
X33090000Y-154437D02*
X33090000Y-1440000D01*
X33090000Y-154437D02*
X34154437Y910000D01*
X33090000Y-4845563D02*
X34154437Y-5910000D01*
X32062500Y-652500D02*
X32850000Y-652500D01*
X32456250Y-258750D02*
X32456250Y-1046250D01*
X-39910000Y5910000D02*
X-39910000Y3560000D01*
X-39910000Y-910000D02*
X-39910000Y1440000D01*
X-34154437Y-910000D02*
X-39910000Y-910000D01*
X-34154437Y5910000D02*
X-39910000Y5910000D01*
X-33090000Y4845563D02*
X-33090000Y3560000D01*
X-33090000Y154437D02*
X-33090000Y1440000D01*
X-33090000Y154437D02*
X-34154437Y-910000D01*
X-33090000Y4845563D02*
X-34154437Y5910000D01*
X-32062500Y652500D02*
X-32850000Y652500D01*
X-32456250Y258750D02*
X-32456250Y1046250D01*
X100000Y-6000000D02*
X-100000Y-6200000D01*
X-100000Y-5800000D02*
X100000Y-6000000D01*
X-100000Y-6200000D02*
X-100000Y-5800000D01*
X1650000Y-5250000D02*
X-1650000Y-5250000D01*
X1650000Y-6750000D02*
X-1650000Y-6750000D01*
X-1650000Y-6750000D02*
X-1650000Y-5250000D01*
X1650000Y-6750000D02*
X1650000Y-5250000D01*
X-100000Y-14000000D02*
X100000Y-13800000D01*
X100000Y-14200000D02*
X-100000Y-14000000D01*
X100000Y-13800000D02*
X100000Y-14200000D01*
X-1650000Y-14750000D02*
X1650000Y-14750000D01*
X-1650000Y-13250000D02*
X1650000Y-13250000D01*
X1650000Y-13250000D02*
X1650000Y-14750000D01*
X-1650000Y-13250000D02*
X-1650000Y-14750000D01*
D13*
X8877000Y19255000D02*
G75*
G03*
X8877000Y19255000I-100000J0D01*
G01*
D12*
X15000000Y1900000D02*
X18900000Y1900000D01*
X18900000Y1900000D02*
X18900000Y2185000D01*
X15000000Y1900000D02*
X11100000Y1900000D01*
X11100000Y1900000D02*
X11100000Y2185000D01*
X15000000Y20100000D02*
X18900000Y20100000D01*
X18900000Y20100000D02*
X18900000Y19800000D01*
X15000000Y20100000D02*
X11100000Y20100000D01*
X11100000Y20100000D02*
X11100000Y19800000D01*
X24000000Y3900000D02*
X23800000Y4100000D01*
X24200000Y4100000D02*
X24000000Y3900000D01*
X23800000Y4100000D02*
X24200000Y4100000D01*
X24750000Y2350000D02*
X24750000Y5650000D01*
X23250000Y2350000D02*
X23250000Y5650000D01*
X23250000Y5650000D02*
X24750000Y5650000D01*
X23250000Y2350000D02*
X24750000Y2350000D01*
X24000000Y10900000D02*
X23800000Y11100000D01*
X24200000Y11100000D02*
X24000000Y10900000D01*
X23800000Y11100000D02*
X24200000Y11100000D01*
X24750000Y9350000D02*
X24750000Y12650000D01*
X23250000Y9350000D02*
X23250000Y12650000D01*
X23250000Y12650000D02*
X24750000Y12650000D01*
X23250000Y9350000D02*
X24750000Y9350000D01*
X24000000Y17900000D02*
X23800000Y18100000D01*
X24200000Y18100000D02*
X24000000Y17900000D01*
X23800000Y18100000D02*
X24200000Y18100000D01*
X24750000Y16350000D02*
X24750000Y19650000D01*
X23250000Y16350000D02*
X23250000Y19650000D01*
X23250000Y19650000D02*
X24750000Y19650000D01*
X23250000Y16350000D02*
X24750000Y16350000D01*
X-6000000Y24900000D02*
X-6200000Y25100000D01*
X-5800000Y25100000D02*
X-6000000Y24900000D01*
X-6200000Y25100000D02*
X-5800000Y25100000D01*
X-5250000Y23350000D02*
X-5250000Y26650000D01*
X-6750000Y23350000D02*
X-6750000Y26650000D01*
X-6750000Y26650000D02*
X-5250000Y26650000D01*
X-6750000Y23350000D02*
X-5250000Y23350000D01*
X33100000Y6600000D02*
X26900000Y6600000D01*
X33100000Y1400000D02*
X26900000Y1400000D01*
X26900000Y6600000D02*
X26900000Y6400000D01*
X33100000Y6600000D02*
X33100000Y6400000D01*
X26900000Y1400000D02*
X26900000Y1600000D01*
X33100000Y1400000D02*
X33100000Y1600000D01*
X33100000Y13600000D02*
X26900000Y13600000D01*
X33100000Y8400000D02*
X26900000Y8400000D01*
X26900000Y13600000D02*
X26900000Y13400000D01*
X33100000Y13600000D02*
X33100000Y13400000D01*
X26900000Y8400000D02*
X26900000Y8600000D01*
X33100000Y8400000D02*
X33100000Y8600000D01*
X33100000Y20600000D02*
X26900000Y20600000D01*
X33100000Y15400000D02*
X26900000Y15400000D01*
X26900000Y20600000D02*
X26900000Y20400000D01*
X33100000Y20600000D02*
X33100000Y20400000D01*
X26900000Y15400000D02*
X26900000Y15600000D01*
X33100000Y15400000D02*
X33100000Y15600000D01*
X22000000Y23950000D02*
X22000000Y22050000D01*
X28950000Y23950000D02*
X22000000Y23950000D01*
X28950000Y22050000D02*
X22000000Y22050000D01*
X28950000Y23950000D02*
X28950000Y22050000D01*
X12500000Y21000000D02*
X12500000Y25800000D01*
X14500000Y21000000D02*
X14500000Y25800000D01*
X12500000Y21000000D02*
X14500000Y21000000D01*
X12500000Y25800000D02*
X14500000Y25800000D01*
X13100000Y23700000D02*
X13900000Y23700000D01*
X13900000Y23700000D02*
X13500000Y23000000D01*
X13500000Y23000000D02*
X13100000Y23700000D01*
X13000000Y23000000D02*
X14000000Y23000000D01*
X16000000Y21000000D02*
X16000000Y25800000D01*
X18000000Y21000000D02*
X18000000Y25800000D01*
X16000000Y21000000D02*
X18000000Y21000000D01*
X16000000Y25800000D02*
X18000000Y25800000D01*
X16600000Y23700000D02*
X17400000Y23700000D01*
X17400000Y23700000D02*
X17000000Y23000000D01*
X17000000Y23000000D02*
X16600000Y23700000D01*
X16500000Y23000000D02*
X17500000Y23000000D01*
X19500000Y21000000D02*
X19500000Y25800000D01*
X21500000Y21000000D02*
X21500000Y25800000D01*
X19500000Y21000000D02*
X21500000Y21000000D01*
X19500000Y25800000D02*
X21500000Y25800000D01*
X20100000Y23700000D02*
X20900000Y23700000D01*
X20900000Y23700000D02*
X20500000Y23000000D01*
X20500000Y23000000D02*
X20100000Y23700000D01*
X20000000Y23000000D02*
X21000000Y23000000D01*
X11750000Y22750000D02*
X11950000Y22550000D01*
X11550000Y22550000D02*
X11750000Y22750000D01*
X11950000Y22550000D02*
X11550000Y22550000D01*
X11000000Y24300000D02*
X11000000Y21000000D01*
X12500000Y24300000D02*
X12500000Y21000000D01*
X12500000Y21000000D02*
X11000000Y21000000D01*
X12500000Y24300000D02*
X11000000Y24300000D01*
X15250000Y22750000D02*
X15450000Y22550000D01*
X15050000Y22550000D02*
X15250000Y22750000D01*
X15450000Y22550000D02*
X15050000Y22550000D01*
X14500000Y24300000D02*
X14500000Y21000000D01*
X16000000Y24300000D02*
X16000000Y21000000D01*
X16000000Y21000000D02*
X14500000Y21000000D01*
X16000000Y24300000D02*
X14500000Y24300000D01*
X18750000Y22750000D02*
X18950000Y22550000D01*
X18550000Y22550000D02*
X18750000Y22750000D01*
X18950000Y22550000D02*
X18550000Y22550000D01*
X18000000Y24300000D02*
X18000000Y21000000D01*
X19500000Y24300000D02*
X19500000Y21000000D01*
X19500000Y21000000D02*
X18000000Y21000000D01*
X19500000Y24300000D02*
X18000000Y24300000D01*
X8750000Y22750000D02*
X8950000Y22550000D01*
X8550000Y22550000D02*
X8750000Y22750000D01*
X8950000Y22550000D02*
X8550000Y22550000D01*
X8000000Y24300000D02*
X8000000Y21000000D01*
X9500000Y24300000D02*
X9500000Y21000000D01*
X9500000Y21000000D02*
X8000000Y21000000D01*
X9500000Y24300000D02*
X8000000Y24300000D01*
D11*
X-200000Y-26171428D02*
X-200000Y-26600000D01*
X-228571Y-26685714D01*
X-285714Y-26742857D01*
X-371428Y-26771428D01*
X-428571Y-26771428D01*
X399999Y-26771428D02*
X57142Y-26771428D01*
X228571Y-26771428D02*
X228571Y-26171428D01*
X171428Y-26257142D01*
X114285Y-26314285D01*
X57142Y-26342857D01*
X-39485714Y-4971428D02*
X-39485714Y-5400000D01*
X-39514285Y-5485714D01*
X-39571428Y-5542857D01*
X-39657142Y-5571428D01*
X-39714285Y-5571428D01*
X-38885714Y-5571428D02*
X-39228571Y-5571428D01*
X-39057142Y-5571428D02*
X-39057142Y-4971428D01*
X-39114285Y-5057142D01*
X-39171428Y-5114285D01*
X-39228571Y-5142857D01*
X-38314285Y-5571428D02*
X-38657142Y-5571428D01*
X-38485714Y-5571428D02*
X-38485714Y-4971428D01*
X-38542857Y-5057142D01*
X-38600000Y-5114285D01*
X-38657142Y-5142857D01*
X-200000Y26828571D02*
X-200000Y26400000D01*
X-228571Y26314285D01*
X-285714Y26257142D01*
X-371428Y26228571D01*
X-428571Y26228571D01*
X57142Y26771428D02*
X85714Y26800000D01*
X142857Y26828571D01*
X285714Y26828571D01*
X342857Y26800000D01*
X371428Y26771428D01*
X399999Y26714285D01*
X399999Y26657142D01*
X371428Y26571428D01*
X28571Y26228571D01*
X399999Y26228571D01*
X38800000Y-9921428D02*
X38800000Y-10350000D01*
X38771428Y-10435714D01*
X38714285Y-10492857D01*
X38628571Y-10521428D01*
X38571428Y-10521428D01*
X39171428Y-10178571D02*
X39114285Y-10150000D01*
X39085714Y-10121428D01*
X39057142Y-10064285D01*
X39057142Y-10035714D01*
X39085714Y-9978571D01*
X39114285Y-9950000D01*
X39171428Y-9921428D01*
X39285714Y-9921428D01*
X39342857Y-9950000D01*
X39371428Y-9978571D01*
X39400000Y-10035714D01*
X39400000Y-10064285D01*
X39371428Y-10121428D01*
X39342857Y-10150000D01*
X39285714Y-10178571D01*
X39171428Y-10178571D01*
X39114285Y-10207142D01*
X39085714Y-10235714D01*
X39057142Y-10292857D01*
X39057142Y-10407142D01*
X39085714Y-10464285D01*
X39114285Y-10492857D01*
X39171428Y-10521428D01*
X39285714Y-10521428D01*
X39342857Y-10492857D01*
X39371428Y-10464285D01*
X39400000Y-10407142D01*
X39400000Y-10292857D01*
X39371428Y-10235714D01*
X39342857Y-10207142D01*
X39285714Y-10178571D01*
X38800000Y17078571D02*
X38800000Y16650000D01*
X38771428Y16564285D01*
X38714285Y16507142D01*
X38628571Y16478571D01*
X38571428Y16478571D01*
X39371428Y17078571D02*
X39085714Y17078571D01*
X39057142Y16792857D01*
X39085714Y16821428D01*
X39142857Y16850000D01*
X39285714Y16850000D01*
X39342857Y16821428D01*
X39371428Y16792857D01*
X39400000Y16735714D01*
X39400000Y16592857D01*
X39371428Y16535714D01*
X39342857Y16507142D01*
X39285714Y16478571D01*
X39142857Y16478571D01*
X39085714Y16507142D01*
X39057142Y16535714D01*
X-15457142Y25928571D02*
X-15457142Y25442857D01*
X-15428571Y25385714D01*
X-15400000Y25357142D01*
X-15342857Y25328571D01*
X-15228571Y25328571D01*
X-15171428Y25357142D01*
X-15142857Y25385714D01*
X-15114285Y25442857D01*
X-15114285Y25928571D01*
X-14800000Y25328571D02*
X-14685714Y25328571D01*
X-14628571Y25357142D01*
X-14600000Y25385714D01*
X-14542857Y25471428D01*
X-14514285Y25585714D01*
X-14514285Y25814285D01*
X-14542857Y25871428D01*
X-14571428Y25900000D01*
X-14628571Y25928571D01*
X-14742857Y25928571D01*
X-14800000Y25900000D01*
X-14828571Y25871428D01*
X-14857142Y25814285D01*
X-14857142Y25671428D01*
X-14828571Y25614285D01*
X-14800000Y25585714D01*
X-14742857Y25557142D01*
X-14628571Y25557142D01*
X-14571428Y25585714D01*
X-14542857Y25614285D01*
X-14514285Y25671428D01*
X-15457142Y-1071428D02*
X-15457142Y-1557142D01*
X-15428571Y-1614285D01*
X-15400000Y-1642857D01*
X-15342857Y-1671428D01*
X-15228571Y-1671428D01*
X-15171428Y-1642857D01*
X-15142857Y-1614285D01*
X-15114285Y-1557142D01*
X-15114285Y-1071428D01*
X-14885714Y-1071428D02*
X-14485714Y-1071428D01*
X-14742857Y-1671428D01*
X14542857Y-25271428D02*
X14542857Y-25757142D01*
X14571428Y-25814285D01*
X14600000Y-25842857D01*
X14657142Y-25871428D01*
X14771428Y-25871428D01*
X14828571Y-25842857D01*
X14857142Y-25814285D01*
X14885714Y-25757142D01*
X14885714Y-25271428D01*
X15457142Y-25271428D02*
X15171428Y-25271428D01*
X15142857Y-25557142D01*
X15171428Y-25528571D01*
X15228571Y-25500000D01*
X15371428Y-25500000D01*
X15428571Y-25528571D01*
X15457142Y-25557142D01*
X15485714Y-25614285D01*
X15485714Y-25757142D01*
X15457142Y-25814285D01*
X15428571Y-25842857D01*
X15371428Y-25871428D01*
X15228571Y-25871428D01*
X15171428Y-25842857D01*
X15142857Y-25814285D01*
X-3457142Y-9671428D02*
X-3457142Y-10157142D01*
X-3428571Y-10214285D01*
X-3400000Y-10242857D01*
X-3342857Y-10271428D01*
X-3228571Y-10271428D01*
X-3171428Y-10242857D01*
X-3142857Y-10214285D01*
X-3114285Y-10157142D01*
X-3114285Y-9671428D01*
X-2514285Y-10271428D02*
X-2857142Y-10271428D01*
X-2685714Y-10271428D02*
X-2685714Y-9671428D01*
X-2742857Y-9757142D01*
X-2800000Y-9814285D01*
X-2857142Y-9842857D01*
X-6757142Y18368571D02*
X-6414285Y18368571D01*
X-6585714Y17768571D02*
X-6585714Y18368571D01*
X-6214285Y17768571D02*
X-6214285Y18368571D01*
X-5985714Y18368571D01*
X-5928571Y18340000D01*
X-5900000Y18311428D01*
X-5871428Y18254285D01*
X-5871428Y18168571D01*
X-5900000Y18111428D01*
X-5928571Y18082857D01*
X-5985714Y18054285D01*
X-6214285Y18054285D01*
X-5528571Y18111428D02*
X-5585714Y18140000D01*
X-5614285Y18168571D01*
X-5642857Y18225714D01*
X-5642857Y18254285D01*
X-5614285Y18311428D01*
X-5585714Y18340000D01*
X-5528571Y18368571D01*
X-5414285Y18368571D01*
X-5357142Y18340000D01*
X-5328571Y18311428D01*
X-5300000Y18254285D01*
X-5300000Y18225714D01*
X-5328571Y18168571D01*
X-5357142Y18140000D01*
X-5414285Y18111428D01*
X-5528571Y18111428D01*
X-5585714Y18082857D01*
X-5614285Y18054285D01*
X-5642857Y17997142D01*
X-5642857Y17882857D01*
X-5614285Y17825714D01*
X-5585714Y17797142D01*
X-5528571Y17768571D01*
X-5414285Y17768571D01*
X-5357142Y17797142D01*
X-5328571Y17825714D01*
X-5300000Y17882857D01*
X-5300000Y17997142D01*
X-5328571Y18054285D01*
X-5357142Y18082857D01*
X-5414285Y18111428D01*
X-6757142Y-8631428D02*
X-6414285Y-8631428D01*
X-6585714Y-9231428D02*
X-6585714Y-8631428D01*
X-6214285Y-9231428D02*
X-6214285Y-8631428D01*
X-5985714Y-8631428D01*
X-5928571Y-8660000D01*
X-5900000Y-8688571D01*
X-5871428Y-8745714D01*
X-5871428Y-8831428D01*
X-5900000Y-8888571D01*
X-5928571Y-8917142D01*
X-5985714Y-8945714D01*
X-6214285Y-8945714D01*
X-5671428Y-8631428D02*
X-5271428Y-8631428D01*
X-5528571Y-9231428D01*
X5242857Y-17711428D02*
X5585714Y-17711428D01*
X5414285Y-18311428D02*
X5414285Y-17711428D01*
X5785714Y-18311428D02*
X5785714Y-17711428D01*
X6014285Y-17711428D01*
X6071428Y-17740000D01*
X6100000Y-17768571D01*
X6128571Y-17825714D01*
X6128571Y-17911428D01*
X6100000Y-17968571D01*
X6071428Y-17997142D01*
X6014285Y-18025714D01*
X5785714Y-18025714D01*
X6642857Y-17711428D02*
X6528571Y-17711428D01*
X6471428Y-17740000D01*
X6442857Y-17768571D01*
X6385714Y-17854285D01*
X6357142Y-17968571D01*
X6357142Y-18197142D01*
X6385714Y-18254285D01*
X6414285Y-18282857D01*
X6471428Y-18311428D01*
X6585714Y-18311428D01*
X6642857Y-18282857D01*
X6671428Y-18254285D01*
X6700000Y-18197142D01*
X6700000Y-18054285D01*
X6671428Y-17997142D01*
X6642857Y-17968571D01*
X6585714Y-17940000D01*
X6471428Y-17940000D01*
X6414285Y-17968571D01*
X6385714Y-17997142D01*
X6357142Y-18054285D01*
X5242857Y9288571D02*
X5585714Y9288571D01*
X5414285Y8688571D02*
X5414285Y9288571D01*
X5785714Y8688571D02*
X5785714Y9288571D01*
X6014285Y9288571D01*
X6071428Y9260000D01*
X6100000Y9231428D01*
X6128571Y9174285D01*
X6128571Y9088571D01*
X6100000Y9031428D01*
X6071428Y9002857D01*
X6014285Y8974285D01*
X5785714Y8974285D01*
X6671428Y9288571D02*
X6385714Y9288571D01*
X6357142Y9002857D01*
X6385714Y9031428D01*
X6442857Y9060000D01*
X6585714Y9060000D01*
X6642857Y9031428D01*
X6671428Y9002857D01*
X6700000Y8945714D01*
X6700000Y8802857D01*
X6671428Y8745714D01*
X6642857Y8717142D01*
X6585714Y8688571D01*
X6442857Y8688571D01*
X6385714Y8717142D01*
X6357142Y8745714D01*
X-6757142Y20908571D02*
X-6414285Y20908571D01*
X-6585714Y20308571D02*
X-6585714Y20908571D01*
X-6214285Y20308571D02*
X-6214285Y20908571D01*
X-5985714Y20908571D01*
X-5928571Y20880000D01*
X-5900000Y20851428D01*
X-5871428Y20794285D01*
X-5871428Y20708571D01*
X-5900000Y20651428D01*
X-5928571Y20622857D01*
X-5985714Y20594285D01*
X-6214285Y20594285D01*
X-5357142Y20708571D02*
X-5357142Y20308571D01*
X-5500000Y20937142D02*
X-5642857Y20508571D01*
X-5271428Y20508571D01*
X-6757142Y-6091428D02*
X-6414285Y-6091428D01*
X-6585714Y-6691428D02*
X-6585714Y-6091428D01*
X-6214285Y-6691428D02*
X-6214285Y-6091428D01*
X-5985714Y-6091428D01*
X-5928571Y-6120000D01*
X-5900000Y-6148571D01*
X-5871428Y-6205714D01*
X-5871428Y-6291428D01*
X-5900000Y-6348571D01*
X-5928571Y-6377142D01*
X-5985714Y-6405714D01*
X-6214285Y-6405714D01*
X-5671428Y-6091428D02*
X-5300000Y-6091428D01*
X-5500000Y-6320000D01*
X-5414285Y-6320000D01*
X-5357142Y-6348571D01*
X-5328571Y-6377142D01*
X-5300000Y-6434285D01*
X-5300000Y-6577142D01*
X-5328571Y-6634285D01*
X-5357142Y-6662857D01*
X-5414285Y-6691428D01*
X-5585714Y-6691428D01*
X-5642857Y-6662857D01*
X-5671428Y-6634285D01*
X5242857Y-20251428D02*
X5585714Y-20251428D01*
X5414285Y-20851428D02*
X5414285Y-20251428D01*
X5785714Y-20851428D02*
X5785714Y-20251428D01*
X6014285Y-20251428D01*
X6071428Y-20280000D01*
X6100000Y-20308571D01*
X6128571Y-20365714D01*
X6128571Y-20451428D01*
X6100000Y-20508571D01*
X6071428Y-20537142D01*
X6014285Y-20565714D01*
X5785714Y-20565714D01*
X6357142Y-20308571D02*
X6385714Y-20280000D01*
X6442857Y-20251428D01*
X6585714Y-20251428D01*
X6642857Y-20280000D01*
X6671428Y-20308571D01*
X6700000Y-20365714D01*
X6700000Y-20422857D01*
X6671428Y-20508571D01*
X6328571Y-20851428D01*
X6700000Y-20851428D01*
X5242857Y6748571D02*
X5585714Y6748571D01*
X5414285Y6148571D02*
X5414285Y6748571D01*
X5785714Y6148571D02*
X5785714Y6748571D01*
X6014285Y6748571D01*
X6071428Y6720000D01*
X6100000Y6691428D01*
X6128571Y6634285D01*
X6128571Y6548571D01*
X6100000Y6491428D01*
X6071428Y6462857D01*
X6014285Y6434285D01*
X5785714Y6434285D01*
X6700000Y6148571D02*
X6357142Y6148571D01*
X6528571Y6148571D02*
X6528571Y6748571D01*
X6471428Y6662857D01*
X6414285Y6605714D01*
X6357142Y6577142D01*
X-22528571Y22614285D02*
X-22814285Y22414285D01*
X-22528571Y22271428D02*
X-23128571Y22271428D01*
X-23128571Y22500000D01*
X-23100000Y22557142D01*
X-23071428Y22585714D01*
X-23014285Y22614285D01*
X-22928571Y22614285D01*
X-22871428Y22585714D01*
X-22842857Y22557142D01*
X-22814285Y22500000D01*
X-22814285Y22271428D01*
X-23128571Y22814285D02*
X-23128571Y23185714D01*
X-22900000Y22985714D01*
X-22900000Y23071428D01*
X-22871428Y23128571D01*
X-22842857Y23157142D01*
X-22785714Y23185714D01*
X-22642857Y23185714D01*
X-22585714Y23157142D01*
X-22557142Y23128571D01*
X-22528571Y23071428D01*
X-22528571Y22900000D01*
X-22557142Y22842857D01*
X-22585714Y22814285D01*
X-22928571Y23700000D02*
X-22528571Y23700000D01*
X-23157142Y23557142D02*
X-22728571Y23414285D01*
X-22728571Y23785714D01*
X-22528571Y15614285D02*
X-22814285Y15414285D01*
X-22528571Y15271428D02*
X-23128571Y15271428D01*
X-23128571Y15500000D01*
X-23100000Y15557142D01*
X-23071428Y15585714D01*
X-23014285Y15614285D01*
X-22928571Y15614285D01*
X-22871428Y15585714D01*
X-22842857Y15557142D01*
X-22814285Y15500000D01*
X-22814285Y15271428D01*
X-23128571Y15814285D02*
X-23128571Y16185714D01*
X-22900000Y15985714D01*
X-22900000Y16071428D01*
X-22871428Y16128571D01*
X-22842857Y16157142D01*
X-22785714Y16185714D01*
X-22642857Y16185714D01*
X-22585714Y16157142D01*
X-22557142Y16128571D01*
X-22528571Y16071428D01*
X-22528571Y15900000D01*
X-22557142Y15842857D01*
X-22585714Y15814285D01*
X-23128571Y16385714D02*
X-23128571Y16757142D01*
X-22900000Y16557142D01*
X-22900000Y16642857D01*
X-22871428Y16700000D01*
X-22842857Y16728571D01*
X-22785714Y16757142D01*
X-22642857Y16757142D01*
X-22585714Y16728571D01*
X-22557142Y16700000D01*
X-22528571Y16642857D01*
X-22528571Y16471428D01*
X-22557142Y16414285D01*
X-22585714Y16385714D01*
X-22528571Y8614285D02*
X-22814285Y8414285D01*
X-22528571Y8271428D02*
X-23128571Y8271428D01*
X-23128571Y8500000D01*
X-23100000Y8557142D01*
X-23071428Y8585714D01*
X-23014285Y8614285D01*
X-22928571Y8614285D01*
X-22871428Y8585714D01*
X-22842857Y8557142D01*
X-22814285Y8500000D01*
X-22814285Y8271428D01*
X-23128571Y8814285D02*
X-23128571Y9185714D01*
X-22900000Y8985714D01*
X-22900000Y9071428D01*
X-22871428Y9128571D01*
X-22842857Y9157142D01*
X-22785714Y9185714D01*
X-22642857Y9185714D01*
X-22585714Y9157142D01*
X-22557142Y9128571D01*
X-22528571Y9071428D01*
X-22528571Y8900000D01*
X-22557142Y8842857D01*
X-22585714Y8814285D01*
X-23071428Y9414285D02*
X-23100000Y9442857D01*
X-23128571Y9500000D01*
X-23128571Y9642857D01*
X-23100000Y9700000D01*
X-23071428Y9728571D01*
X-23014285Y9757142D01*
X-22957142Y9757142D01*
X-22871428Y9728571D01*
X-22528571Y9385714D01*
X-22528571Y9757142D01*
X-10635714Y6278571D02*
X-10835714Y6564285D01*
X-10978571Y6278571D02*
X-10978571Y6878571D01*
X-10750000Y6878571D01*
X-10692857Y6850000D01*
X-10664285Y6821428D01*
X-10635714Y6764285D01*
X-10635714Y6678571D01*
X-10664285Y6621428D01*
X-10692857Y6592857D01*
X-10750000Y6564285D01*
X-10978571Y6564285D01*
X-10435714Y6878571D02*
X-10064285Y6878571D01*
X-10264285Y6650000D01*
X-10178571Y6650000D01*
X-10121428Y6621428D01*
X-10092857Y6592857D01*
X-10064285Y6535714D01*
X-10064285Y6392857D01*
X-10092857Y6335714D01*
X-10121428Y6307142D01*
X-10178571Y6278571D01*
X-10350000Y6278571D01*
X-10407142Y6307142D01*
X-10435714Y6335714D01*
X-9692857Y6878571D02*
X-9635714Y6878571D01*
X-9578571Y6850000D01*
X-9550000Y6821428D01*
X-9521428Y6764285D01*
X-9492857Y6650000D01*
X-9492857Y6507142D01*
X-9521428Y6392857D01*
X-9550000Y6335714D01*
X-9578571Y6307142D01*
X-9635714Y6278571D01*
X-9692857Y6278571D01*
X-9750000Y6307142D01*
X-9778571Y6335714D01*
X-9807142Y6392857D01*
X-9835714Y6507142D01*
X-9835714Y6650000D01*
X-9807142Y6764285D01*
X-9778571Y6821428D01*
X-9750000Y6850000D01*
X-9692857Y6878571D01*
X-22528571Y-4385714D02*
X-22814285Y-4585714D01*
X-22528571Y-4728571D02*
X-23128571Y-4728571D01*
X-23128571Y-4500000D01*
X-23100000Y-4442857D01*
X-23071428Y-4414285D01*
X-23014285Y-4385714D01*
X-22928571Y-4385714D01*
X-22871428Y-4414285D01*
X-22842857Y-4442857D01*
X-22814285Y-4500000D01*
X-22814285Y-4728571D01*
X-23071428Y-4157142D02*
X-23100000Y-4128571D01*
X-23128571Y-4071428D01*
X-23128571Y-3928571D01*
X-23100000Y-3871428D01*
X-23071428Y-3842857D01*
X-23014285Y-3814285D01*
X-22957142Y-3814285D01*
X-22871428Y-3842857D01*
X-22528571Y-4185714D01*
X-22528571Y-3814285D01*
X-23128571Y-3300000D02*
X-23128571Y-3414285D01*
X-23100000Y-3471428D01*
X-23071428Y-3500000D01*
X-22985714Y-3557142D01*
X-22871428Y-3585714D01*
X-22642857Y-3585714D01*
X-22585714Y-3557142D01*
X-22557142Y-3528571D01*
X-22528571Y-3471428D01*
X-22528571Y-3357142D01*
X-22557142Y-3300000D01*
X-22585714Y-3271428D01*
X-22642857Y-3242857D01*
X-22785714Y-3242857D01*
X-22842857Y-3271428D01*
X-22871428Y-3300000D01*
X-22900000Y-3357142D01*
X-22900000Y-3471428D01*
X-22871428Y-3528571D01*
X-22842857Y-3557142D01*
X-22785714Y-3585714D01*
X-22528571Y-11385714D02*
X-22814285Y-11585714D01*
X-22528571Y-11728571D02*
X-23128571Y-11728571D01*
X-23128571Y-11500000D01*
X-23100000Y-11442857D01*
X-23071428Y-11414285D01*
X-23014285Y-11385714D01*
X-22928571Y-11385714D01*
X-22871428Y-11414285D01*
X-22842857Y-11442857D01*
X-22814285Y-11500000D01*
X-22814285Y-11728571D01*
X-23071428Y-11157142D02*
X-23100000Y-11128571D01*
X-23128571Y-11071428D01*
X-23128571Y-10928571D01*
X-23100000Y-10871428D01*
X-23071428Y-10842857D01*
X-23014285Y-10814285D01*
X-22957142Y-10814285D01*
X-22871428Y-10842857D01*
X-22528571Y-11185714D01*
X-22528571Y-10814285D01*
X-23128571Y-10271428D02*
X-23128571Y-10557142D01*
X-22842857Y-10585714D01*
X-22871428Y-10557142D01*
X-22900000Y-10500000D01*
X-22900000Y-10357142D01*
X-22871428Y-10300000D01*
X-22842857Y-10271428D01*
X-22785714Y-10242857D01*
X-22642857Y-10242857D01*
X-22585714Y-10271428D01*
X-22557142Y-10300000D01*
X-22528571Y-10357142D01*
X-22528571Y-10500000D01*
X-22557142Y-10557142D01*
X-22585714Y-10585714D01*
X-22528571Y-18385714D02*
X-22814285Y-18585714D01*
X-22528571Y-18728571D02*
X-23128571Y-18728571D01*
X-23128571Y-18500000D01*
X-23100000Y-18442857D01*
X-23071428Y-18414285D01*
X-23014285Y-18385714D01*
X-22928571Y-18385714D01*
X-22871428Y-18414285D01*
X-22842857Y-18442857D01*
X-22814285Y-18500000D01*
X-22814285Y-18728571D01*
X-23071428Y-18157142D02*
X-23100000Y-18128571D01*
X-23128571Y-18071428D01*
X-23128571Y-17928571D01*
X-23100000Y-17871428D01*
X-23071428Y-17842857D01*
X-23014285Y-17814285D01*
X-22957142Y-17814285D01*
X-22871428Y-17842857D01*
X-22528571Y-18185714D01*
X-22528571Y-17814285D01*
X-22928571Y-17300000D02*
X-22528571Y-17300000D01*
X-23157142Y-17442857D02*
X-22728571Y-17585714D01*
X-22728571Y-17214285D01*
X-10635714Y-20771428D02*
X-10835714Y-20485714D01*
X-10978571Y-20771428D02*
X-10978571Y-20171428D01*
X-10750000Y-20171428D01*
X-10692857Y-20200000D01*
X-10664285Y-20228571D01*
X-10635714Y-20285714D01*
X-10635714Y-20371428D01*
X-10664285Y-20428571D01*
X-10692857Y-20457142D01*
X-10750000Y-20485714D01*
X-10978571Y-20485714D01*
X-10407142Y-20228571D02*
X-10378571Y-20200000D01*
X-10321428Y-20171428D01*
X-10178571Y-20171428D01*
X-10121428Y-20200000D01*
X-10092857Y-20228571D01*
X-10064285Y-20285714D01*
X-10064285Y-20342857D01*
X-10092857Y-20428571D01*
X-10435714Y-20771428D01*
X-10064285Y-20771428D01*
X-9835714Y-20228571D02*
X-9807142Y-20200000D01*
X-9750000Y-20171428D01*
X-9607142Y-20171428D01*
X-9550000Y-20200000D01*
X-9521428Y-20228571D01*
X-9492857Y-20285714D01*
X-9492857Y-20342857D01*
X-9521428Y-20428571D01*
X-9864285Y-20771428D01*
X-9492857Y-20771428D01*
X23071428Y-23385714D02*
X22785714Y-23585714D01*
X23071428Y-23728571D02*
X22471428Y-23728571D01*
X22471428Y-23500000D01*
X22500000Y-23442857D01*
X22528571Y-23414285D01*
X22585714Y-23385714D01*
X22671428Y-23385714D01*
X22728571Y-23414285D01*
X22757142Y-23442857D01*
X22785714Y-23500000D01*
X22785714Y-23728571D01*
X23071428Y-22814285D02*
X23071428Y-23157142D01*
X23071428Y-22985714D02*
X22471428Y-22985714D01*
X22557142Y-23042857D01*
X22614285Y-23100000D01*
X22642857Y-23157142D01*
X22728571Y-22471428D02*
X22700000Y-22528571D01*
X22671428Y-22557142D01*
X22614285Y-22585714D01*
X22585714Y-22585714D01*
X22528571Y-22557142D01*
X22500000Y-22528571D01*
X22471428Y-22471428D01*
X22471428Y-22357142D01*
X22500000Y-22300000D01*
X22528571Y-22271428D01*
X22585714Y-22242857D01*
X22614285Y-22242857D01*
X22671428Y-22271428D01*
X22700000Y-22300000D01*
X22728571Y-22357142D01*
X22728571Y-22471428D01*
X22757142Y-22528571D01*
X22785714Y-22557142D01*
X22842857Y-22585714D01*
X22957142Y-22585714D01*
X23014285Y-22557142D01*
X23042857Y-22528571D01*
X23071428Y-22471428D01*
X23071428Y-22357142D01*
X23042857Y-22300000D01*
X23014285Y-22271428D01*
X22957142Y-22242857D01*
X22842857Y-22242857D01*
X22785714Y-22271428D01*
X22757142Y-22300000D01*
X22728571Y-22357142D01*
X23071428Y-16385714D02*
X22785714Y-16585714D01*
X23071428Y-16728571D02*
X22471428Y-16728571D01*
X22471428Y-16500000D01*
X22500000Y-16442857D01*
X22528571Y-16414285D01*
X22585714Y-16385714D01*
X22671428Y-16385714D01*
X22728571Y-16414285D01*
X22757142Y-16442857D01*
X22785714Y-16500000D01*
X22785714Y-16728571D01*
X23071428Y-15814285D02*
X23071428Y-16157142D01*
X23071428Y-15985714D02*
X22471428Y-15985714D01*
X22557142Y-16042857D01*
X22614285Y-16100000D01*
X22642857Y-16157142D01*
X22471428Y-15614285D02*
X22471428Y-15214285D01*
X23071428Y-15471428D01*
X23071428Y-9385714D02*
X22785714Y-9585714D01*
X23071428Y-9728571D02*
X22471428Y-9728571D01*
X22471428Y-9500000D01*
X22500000Y-9442857D01*
X22528571Y-9414285D01*
X22585714Y-9385714D01*
X22671428Y-9385714D01*
X22728571Y-9414285D01*
X22757142Y-9442857D01*
X22785714Y-9500000D01*
X22785714Y-9728571D01*
X23071428Y-8814285D02*
X23071428Y-9157142D01*
X23071428Y-8985714D02*
X22471428Y-8985714D01*
X22557142Y-9042857D01*
X22614285Y-9100000D01*
X22642857Y-9157142D01*
X22471428Y-8300000D02*
X22471428Y-8414285D01*
X22500000Y-8471428D01*
X22528571Y-8500000D01*
X22614285Y-8557142D01*
X22728571Y-8585714D01*
X22957142Y-8585714D01*
X23014285Y-8557142D01*
X23042857Y-8528571D01*
X23071428Y-8471428D01*
X23071428Y-8357142D01*
X23042857Y-8300000D01*
X23014285Y-8271428D01*
X22957142Y-8242857D01*
X22814285Y-8242857D01*
X22757142Y-8271428D01*
X22728571Y-8300000D01*
X22700000Y-8357142D01*
X22700000Y-8471428D01*
X22728571Y-8528571D01*
X22757142Y-8557142D01*
X22814285Y-8585714D01*
X9864285Y-6771428D02*
X9664285Y-6485714D01*
X9521428Y-6771428D02*
X9521428Y-6171428D01*
X9750000Y-6171428D01*
X9807142Y-6200000D01*
X9835714Y-6228571D01*
X9864285Y-6285714D01*
X9864285Y-6371428D01*
X9835714Y-6428571D01*
X9807142Y-6457142D01*
X9750000Y-6485714D01*
X9521428Y-6485714D01*
X10435714Y-6771428D02*
X10092857Y-6771428D01*
X10264285Y-6771428D02*
X10264285Y-6171428D01*
X10207142Y-6257142D01*
X10150000Y-6314285D01*
X10092857Y-6342857D01*
X10950000Y-6371428D02*
X10950000Y-6771428D01*
X10807142Y-6142857D02*
X10664285Y-6571428D01*
X11035714Y-6571428D01*
X10150000Y20228571D02*
X9950000Y20514285D01*
X9807142Y20228571D02*
X9807142Y20828571D01*
X10035714Y20828571D01*
X10092857Y20800000D01*
X10121428Y20771428D01*
X10150000Y20714285D01*
X10150000Y20628571D01*
X10121428Y20571428D01*
X10092857Y20542857D01*
X10035714Y20514285D01*
X9807142Y20514285D01*
X10664285Y20828571D02*
X10550000Y20828571D01*
X10492857Y20800000D01*
X10464285Y20771428D01*
X10407142Y20685714D01*
X10378571Y20571428D01*
X10378571Y20342857D01*
X10407142Y20285714D01*
X10435714Y20257142D01*
X10492857Y20228571D01*
X10607142Y20228571D01*
X10664285Y20257142D01*
X10692857Y20285714D01*
X10721428Y20342857D01*
X10721428Y20485714D01*
X10692857Y20542857D01*
X10664285Y20571428D01*
X10607142Y20600000D01*
X10492857Y20600000D01*
X10435714Y20571428D01*
X10407142Y20542857D01*
X10378571Y20485714D01*
X-6100000Y-4371428D02*
X-6300000Y-4085714D01*
X-6442857Y-4371428D02*
X-6442857Y-3771428D01*
X-6214285Y-3771428D01*
X-6157142Y-3800000D01*
X-6128571Y-3828571D01*
X-6100000Y-3885714D01*
X-6100000Y-3971428D01*
X-6128571Y-4028571D01*
X-6157142Y-4057142D01*
X-6214285Y-4085714D01*
X-6442857Y-4085714D01*
X-5585714Y-3971428D02*
X-5585714Y-4371428D01*
X-5728571Y-3742857D02*
X-5871428Y-4171428D01*
X-5500000Y-4171428D01*
X5900000Y-23171428D02*
X5700000Y-22885714D01*
X5557142Y-23171428D02*
X5557142Y-22571428D01*
X5785714Y-22571428D01*
X5842857Y-22600000D01*
X5871428Y-22628571D01*
X5900000Y-22685714D01*
X5900000Y-22771428D01*
X5871428Y-22828571D01*
X5842857Y-22857142D01*
X5785714Y-22885714D01*
X5557142Y-22885714D01*
X6100000Y-22571428D02*
X6471428Y-22571428D01*
X6271428Y-22800000D01*
X6357142Y-22800000D01*
X6414285Y-22828571D01*
X6442857Y-22857142D01*
X6471428Y-22914285D01*
X6471428Y-23057142D01*
X6442857Y-23114285D01*
X6414285Y-23142857D01*
X6357142Y-23171428D01*
X6185714Y-23171428D01*
X6128571Y-23142857D01*
X6100000Y-23114285D01*
X5900000Y3828571D02*
X5700000Y4114285D01*
X5557142Y3828571D02*
X5557142Y4428571D01*
X5785714Y4428571D01*
X5842857Y4400000D01*
X5871428Y4371428D01*
X5900000Y4314285D01*
X5900000Y4228571D01*
X5871428Y4171428D01*
X5842857Y4142857D01*
X5785714Y4114285D01*
X5557142Y4114285D01*
X6128571Y4371428D02*
X6157142Y4400000D01*
X6214285Y4428571D01*
X6357142Y4428571D01*
X6414285Y4400000D01*
X6442857Y4371428D01*
X6471428Y4314285D01*
X6471428Y4257142D01*
X6442857Y4171428D01*
X6100000Y3828571D01*
X6471428Y3828571D01*
X-850000Y-17671428D02*
X-1050000Y-17385714D01*
X-1192857Y-17671428D02*
X-1192857Y-17071428D01*
X-964285Y-17071428D01*
X-907142Y-17100000D01*
X-878571Y-17128571D01*
X-850000Y-17185714D01*
X-850000Y-17271428D01*
X-878571Y-17328571D01*
X-907142Y-17357142D01*
X-964285Y-17385714D01*
X-1192857Y-17385714D01*
X-278571Y-17671428D02*
X-621428Y-17671428D01*
X-450000Y-17671428D02*
X-450000Y-17071428D01*
X-507142Y-17157142D01*
X-564285Y-17214285D01*
X-621428Y-17242857D01*
X-30342857Y19571428D02*
X-30400000Y19600000D01*
X-30457142Y19657142D01*
X-30542857Y19742857D01*
X-30600000Y19771428D01*
X-30657142Y19771428D01*
X-30628571Y19628571D02*
X-30685714Y19657142D01*
X-30742857Y19714285D01*
X-30771428Y19828571D01*
X-30771428Y20028571D01*
X-30742857Y20142857D01*
X-30685714Y20200000D01*
X-30628571Y20228571D01*
X-30514285Y20228571D01*
X-30457142Y20200000D01*
X-30400000Y20142857D01*
X-30371428Y20028571D01*
X-30371428Y19828571D01*
X-30400000Y19714285D01*
X-30457142Y19657142D01*
X-30514285Y19628571D01*
X-30628571Y19628571D01*
X-30142857Y20171428D02*
X-30114285Y20200000D01*
X-30057142Y20228571D01*
X-29914285Y20228571D01*
X-29857142Y20200000D01*
X-29828571Y20171428D01*
X-29800000Y20114285D01*
X-29800000Y20057142D01*
X-29828571Y19971428D01*
X-30171428Y19628571D01*
X-29800000Y19628571D01*
X-29228571Y19628571D02*
X-29571428Y19628571D01*
X-29400000Y19628571D02*
X-29400000Y20228571D01*
X-29457142Y20142857D01*
X-29514285Y20085714D01*
X-29571428Y20057142D01*
X-30342857Y12571428D02*
X-30400000Y12600000D01*
X-30457142Y12657142D01*
X-30542857Y12742857D01*
X-30600000Y12771428D01*
X-30657142Y12771428D01*
X-30628571Y12628571D02*
X-30685714Y12657142D01*
X-30742857Y12714285D01*
X-30771428Y12828571D01*
X-30771428Y13028571D01*
X-30742857Y13142857D01*
X-30685714Y13200000D01*
X-30628571Y13228571D01*
X-30514285Y13228571D01*
X-30457142Y13200000D01*
X-30400000Y13142857D01*
X-30371428Y13028571D01*
X-30371428Y12828571D01*
X-30400000Y12714285D01*
X-30457142Y12657142D01*
X-30514285Y12628571D01*
X-30628571Y12628571D01*
X-30142857Y13171428D02*
X-30114285Y13200000D01*
X-30057142Y13228571D01*
X-29914285Y13228571D01*
X-29857142Y13200000D01*
X-29828571Y13171428D01*
X-29800000Y13114285D01*
X-29800000Y13057142D01*
X-29828571Y12971428D01*
X-30171428Y12628571D01*
X-29800000Y12628571D01*
X-29428571Y13228571D02*
X-29371428Y13228571D01*
X-29314285Y13200000D01*
X-29285714Y13171428D01*
X-29257142Y13114285D01*
X-29228571Y13000000D01*
X-29228571Y12857142D01*
X-29257142Y12742857D01*
X-29285714Y12685714D01*
X-29314285Y12657142D01*
X-29371428Y12628571D01*
X-29428571Y12628571D01*
X-29485714Y12657142D01*
X-29514285Y12685714D01*
X-29542857Y12742857D01*
X-29571428Y12857142D01*
X-29571428Y13000000D01*
X-29542857Y13114285D01*
X-29514285Y13171428D01*
X-29485714Y13200000D01*
X-29428571Y13228571D01*
X-30342857Y5571428D02*
X-30400000Y5600000D01*
X-30457142Y5657142D01*
X-30542857Y5742857D01*
X-30600000Y5771428D01*
X-30657142Y5771428D01*
X-30628571Y5628571D02*
X-30685714Y5657142D01*
X-30742857Y5714285D01*
X-30771428Y5828571D01*
X-30771428Y6028571D01*
X-30742857Y6142857D01*
X-30685714Y6200000D01*
X-30628571Y6228571D01*
X-30514285Y6228571D01*
X-30457142Y6200000D01*
X-30400000Y6142857D01*
X-30371428Y6028571D01*
X-30371428Y5828571D01*
X-30400000Y5714285D01*
X-30457142Y5657142D01*
X-30514285Y5628571D01*
X-30628571Y5628571D01*
X-29800000Y5628571D02*
X-30142857Y5628571D01*
X-29971428Y5628571D02*
X-29971428Y6228571D01*
X-30028571Y6142857D01*
X-30085714Y6085714D01*
X-30142857Y6057142D01*
X-29514285Y5628571D02*
X-29400000Y5628571D01*
X-29342857Y5657142D01*
X-29314285Y5685714D01*
X-29257142Y5771428D01*
X-29228571Y5885714D01*
X-29228571Y6114285D01*
X-29257142Y6171428D01*
X-29285714Y6200000D01*
X-29342857Y6228571D01*
X-29457142Y6228571D01*
X-29514285Y6200000D01*
X-29542857Y6171428D01*
X-29571428Y6114285D01*
X-29571428Y5971428D01*
X-29542857Y5914285D01*
X-29514285Y5885714D01*
X-29457142Y5857142D01*
X-29342857Y5857142D01*
X-29285714Y5885714D01*
X-29257142Y5914285D01*
X-29228571Y5971428D01*
X-30342857Y-7428571D02*
X-30400000Y-7400000D01*
X-30457142Y-7342857D01*
X-30542857Y-7257142D01*
X-30600000Y-7228571D01*
X-30657142Y-7228571D01*
X-30628571Y-7371428D02*
X-30685714Y-7342857D01*
X-30742857Y-7285714D01*
X-30771428Y-7171428D01*
X-30771428Y-6971428D01*
X-30742857Y-6857142D01*
X-30685714Y-6800000D01*
X-30628571Y-6771428D01*
X-30514285Y-6771428D01*
X-30457142Y-6800000D01*
X-30400000Y-6857142D01*
X-30371428Y-6971428D01*
X-30371428Y-7171428D01*
X-30400000Y-7285714D01*
X-30457142Y-7342857D01*
X-30514285Y-7371428D01*
X-30628571Y-7371428D01*
X-29800000Y-7371428D02*
X-30142857Y-7371428D01*
X-29971428Y-7371428D02*
X-29971428Y-6771428D01*
X-30028571Y-6857142D01*
X-30085714Y-6914285D01*
X-30142857Y-6942857D01*
X-29257142Y-6771428D02*
X-29542857Y-6771428D01*
X-29571428Y-7057142D01*
X-29542857Y-7028571D01*
X-29485714Y-7000000D01*
X-29342857Y-7000000D01*
X-29285714Y-7028571D01*
X-29257142Y-7057142D01*
X-29228571Y-7114285D01*
X-29228571Y-7257142D01*
X-29257142Y-7314285D01*
X-29285714Y-7342857D01*
X-29342857Y-7371428D01*
X-29485714Y-7371428D01*
X-29542857Y-7342857D01*
X-29571428Y-7314285D01*
X-30342857Y-14428571D02*
X-30400000Y-14400000D01*
X-30457142Y-14342857D01*
X-30542857Y-14257142D01*
X-30600000Y-14228571D01*
X-30657142Y-14228571D01*
X-30628571Y-14371428D02*
X-30685714Y-14342857D01*
X-30742857Y-14285714D01*
X-30771428Y-14171428D01*
X-30771428Y-13971428D01*
X-30742857Y-13857142D01*
X-30685714Y-13800000D01*
X-30628571Y-13771428D01*
X-30514285Y-13771428D01*
X-30457142Y-13800000D01*
X-30400000Y-13857142D01*
X-30371428Y-13971428D01*
X-30371428Y-14171428D01*
X-30400000Y-14285714D01*
X-30457142Y-14342857D01*
X-30514285Y-14371428D01*
X-30628571Y-14371428D01*
X-29800000Y-14371428D02*
X-30142857Y-14371428D01*
X-29971428Y-14371428D02*
X-29971428Y-13771428D01*
X-30028571Y-13857142D01*
X-30085714Y-13914285D01*
X-30142857Y-13942857D01*
X-29285714Y-13971428D02*
X-29285714Y-14371428D01*
X-29428571Y-13742857D02*
X-29571428Y-14171428D01*
X-29200000Y-14171428D01*
X-30342857Y-21428571D02*
X-30400000Y-21400000D01*
X-30457142Y-21342857D01*
X-30542857Y-21257142D01*
X-30600000Y-21228571D01*
X-30657142Y-21228571D01*
X-30628571Y-21371428D02*
X-30685714Y-21342857D01*
X-30742857Y-21285714D01*
X-30771428Y-21171428D01*
X-30771428Y-20971428D01*
X-30742857Y-20857142D01*
X-30685714Y-20800000D01*
X-30628571Y-20771428D01*
X-30514285Y-20771428D01*
X-30457142Y-20800000D01*
X-30400000Y-20857142D01*
X-30371428Y-20971428D01*
X-30371428Y-21171428D01*
X-30400000Y-21285714D01*
X-30457142Y-21342857D01*
X-30514285Y-21371428D01*
X-30628571Y-21371428D01*
X-29800000Y-21371428D02*
X-30142857Y-21371428D01*
X-29971428Y-21371428D02*
X-29971428Y-20771428D01*
X-30028571Y-20857142D01*
X-30085714Y-20914285D01*
X-30142857Y-20942857D01*
X-29600000Y-20771428D02*
X-29228571Y-20771428D01*
X-29428571Y-21000000D01*
X-29342857Y-21000000D01*
X-29285714Y-21028571D01*
X-29257142Y-21057142D01*
X-29228571Y-21114285D01*
X-29228571Y-21257142D01*
X-29257142Y-21314285D01*
X-29285714Y-21342857D01*
X-29342857Y-21371428D01*
X-29514285Y-21371428D01*
X-29571428Y-21342857D01*
X-29600000Y-21314285D01*
X29942857Y-20228571D02*
X29885714Y-20200000D01*
X29828571Y-20142857D01*
X29742857Y-20057142D01*
X29685714Y-20028571D01*
X29628571Y-20028571D01*
X29657142Y-20171428D02*
X29600000Y-20142857D01*
X29542857Y-20085714D01*
X29514285Y-19971428D01*
X29514285Y-19771428D01*
X29542857Y-19657142D01*
X29600000Y-19600000D01*
X29657142Y-19571428D01*
X29771428Y-19571428D01*
X29828571Y-19600000D01*
X29885714Y-19657142D01*
X29914285Y-19771428D01*
X29914285Y-19971428D01*
X29885714Y-20085714D01*
X29828571Y-20142857D01*
X29771428Y-20171428D01*
X29657142Y-20171428D01*
X30200000Y-20171428D02*
X30314285Y-20171428D01*
X30371428Y-20142857D01*
X30400000Y-20114285D01*
X30457142Y-20028571D01*
X30485714Y-19914285D01*
X30485714Y-19685714D01*
X30457142Y-19628571D01*
X30428571Y-19600000D01*
X30371428Y-19571428D01*
X30257142Y-19571428D01*
X30200000Y-19600000D01*
X30171428Y-19628571D01*
X30142857Y-19685714D01*
X30142857Y-19828571D01*
X30171428Y-19885714D01*
X30200000Y-19914285D01*
X30257142Y-19942857D01*
X30371428Y-19942857D01*
X30428571Y-19914285D01*
X30457142Y-19885714D01*
X30485714Y-19828571D01*
X29942857Y-13228571D02*
X29885714Y-13200000D01*
X29828571Y-13142857D01*
X29742857Y-13057142D01*
X29685714Y-13028571D01*
X29628571Y-13028571D01*
X29657142Y-13171428D02*
X29600000Y-13142857D01*
X29542857Y-13085714D01*
X29514285Y-12971428D01*
X29514285Y-12771428D01*
X29542857Y-12657142D01*
X29600000Y-12600000D01*
X29657142Y-12571428D01*
X29771428Y-12571428D01*
X29828571Y-12600000D01*
X29885714Y-12657142D01*
X29914285Y-12771428D01*
X29914285Y-12971428D01*
X29885714Y-13085714D01*
X29828571Y-13142857D01*
X29771428Y-13171428D01*
X29657142Y-13171428D01*
X30257142Y-12828571D02*
X30200000Y-12800000D01*
X30171428Y-12771428D01*
X30142857Y-12714285D01*
X30142857Y-12685714D01*
X30171428Y-12628571D01*
X30200000Y-12600000D01*
X30257142Y-12571428D01*
X30371428Y-12571428D01*
X30428571Y-12600000D01*
X30457142Y-12628571D01*
X30485714Y-12685714D01*
X30485714Y-12714285D01*
X30457142Y-12771428D01*
X30428571Y-12800000D01*
X30371428Y-12828571D01*
X30257142Y-12828571D01*
X30200000Y-12857142D01*
X30171428Y-12885714D01*
X30142857Y-12942857D01*
X30142857Y-13057142D01*
X30171428Y-13114285D01*
X30200000Y-13142857D01*
X30257142Y-13171428D01*
X30371428Y-13171428D01*
X30428571Y-13142857D01*
X30457142Y-13114285D01*
X30485714Y-13057142D01*
X30485714Y-12942857D01*
X30457142Y-12885714D01*
X30428571Y-12857142D01*
X30371428Y-12828571D01*
X29942857Y-6228571D02*
X29885714Y-6200000D01*
X29828571Y-6142857D01*
X29742857Y-6057142D01*
X29685714Y-6028571D01*
X29628571Y-6028571D01*
X29657142Y-6171428D02*
X29600000Y-6142857D01*
X29542857Y-6085714D01*
X29514285Y-5971428D01*
X29514285Y-5771428D01*
X29542857Y-5657142D01*
X29600000Y-5600000D01*
X29657142Y-5571428D01*
X29771428Y-5571428D01*
X29828571Y-5600000D01*
X29885714Y-5657142D01*
X29914285Y-5771428D01*
X29914285Y-5971428D01*
X29885714Y-6085714D01*
X29828571Y-6142857D01*
X29771428Y-6171428D01*
X29657142Y-6171428D01*
X30114285Y-5571428D02*
X30514285Y-5571428D01*
X30257142Y-6171428D01*
X-39485714Y22028571D02*
X-39485714Y21600000D01*
X-39514285Y21514285D01*
X-39571428Y21457142D01*
X-39657142Y21428571D01*
X-39714285Y21428571D01*
X-38885714Y21428571D02*
X-39228571Y21428571D01*
X-39057142Y21428571D02*
X-39057142Y22028571D01*
X-39114285Y21942857D01*
X-39171428Y21885714D01*
X-39228571Y21857142D01*
X-38371428Y21828571D02*
X-38371428Y21428571D01*
X-38514285Y22057142D02*
X-38657142Y21628571D01*
X-38285714Y21628571D01*
X-6485714Y3028571D02*
X-6485714Y2600000D01*
X-6514285Y2514285D01*
X-6571428Y2457142D01*
X-6657142Y2428571D01*
X-6714285Y2428571D01*
X-5885714Y2428571D02*
X-6228571Y2428571D01*
X-6057142Y2428571D02*
X-6057142Y3028571D01*
X-6114285Y2942857D01*
X-6171428Y2885714D01*
X-6228571Y2857142D01*
X-5685714Y3028571D02*
X-5314285Y3028571D01*
X-5514285Y2800000D01*
X-5428571Y2800000D01*
X-5371428Y2771428D01*
X-5342857Y2742857D01*
X-5314285Y2685714D01*
X-5314285Y2542857D01*
X-5342857Y2485714D01*
X-5371428Y2457142D01*
X-5428571Y2428571D01*
X-5600000Y2428571D01*
X-5657142Y2457142D01*
X-5685714Y2485714D01*
X-29828571Y3514285D02*
X-29400000Y3514285D01*
X-29314285Y3485714D01*
X-29257142Y3428571D01*
X-29228571Y3342857D01*
X-29228571Y3285714D01*
X-29228571Y4114285D02*
X-29228571Y3771428D01*
X-29228571Y3942857D02*
X-29828571Y3942857D01*
X-29742857Y3885714D01*
X-29685714Y3828571D01*
X-29657142Y3771428D01*
X-29771428Y4342857D02*
X-29800000Y4371428D01*
X-29828571Y4428571D01*
X-29828571Y4571428D01*
X-29800000Y4628571D01*
X-29771428Y4657142D01*
X-29714285Y4685714D01*
X-29657142Y4685714D01*
X-29571428Y4657142D01*
X-29228571Y4314285D01*
X-29228571Y4685714D01*
X-6485714Y-23971428D02*
X-6485714Y-24400000D01*
X-6514285Y-24485714D01*
X-6571428Y-24542857D01*
X-6657142Y-24571428D01*
X-6714285Y-24571428D01*
X-5885714Y-24571428D02*
X-6228571Y-24571428D01*
X-6057142Y-24571428D02*
X-6057142Y-23971428D01*
X-6114285Y-24057142D01*
X-6171428Y-24114285D01*
X-6228571Y-24142857D01*
X-5514285Y-23971428D02*
X-5457142Y-23971428D01*
X-5400000Y-24000000D01*
X-5371428Y-24028571D01*
X-5342857Y-24085714D01*
X-5314285Y-24200000D01*
X-5314285Y-24342857D01*
X-5342857Y-24457142D01*
X-5371428Y-24514285D01*
X-5400000Y-24542857D01*
X-5457142Y-24571428D01*
X-5514285Y-24571428D01*
X-5571428Y-24542857D01*
X-5600000Y-24514285D01*
X-5628571Y-24457142D01*
X-5657142Y-24342857D01*
X-5657142Y-24200000D01*
X-5628571Y-24085714D01*
X-5600000Y-24028571D01*
X-5571428Y-24000000D01*
X-5514285Y-23971428D01*
X-29828571Y-23200000D02*
X-29400000Y-23200000D01*
X-29314285Y-23228571D01*
X-29257142Y-23285714D01*
X-29228571Y-23371428D01*
X-29228571Y-23428571D01*
X-29228571Y-22885714D02*
X-29228571Y-22771428D01*
X-29257142Y-22714285D01*
X-29285714Y-22685714D01*
X-29371428Y-22628571D01*
X-29485714Y-22600000D01*
X-29714285Y-22600000D01*
X-29771428Y-22628571D01*
X-29800000Y-22657142D01*
X-29828571Y-22714285D01*
X-29828571Y-22828571D01*
X-29800000Y-22885714D01*
X-29771428Y-22914285D01*
X-29714285Y-22942857D01*
X-29571428Y-22942857D01*
X-29514285Y-22914285D01*
X-29485714Y-22885714D01*
X-29457142Y-22828571D01*
X-29457142Y-22714285D01*
X-29485714Y-22657142D01*
X-29514285Y-22628571D01*
X-29571428Y-22600000D01*
X5800000Y-2371428D02*
X5800000Y-2800000D01*
X5771428Y-2885714D01*
X5714285Y-2942857D01*
X5628571Y-2971428D01*
X5571428Y-2971428D01*
X6028571Y-2371428D02*
X6428571Y-2371428D01*
X6171428Y-2971428D01*
X29171428Y-4200000D02*
X29600000Y-4200000D01*
X29685714Y-4228571D01*
X29742857Y-4285714D01*
X29771428Y-4371428D01*
X29771428Y-4428571D01*
X29171428Y-3657142D02*
X29171428Y-3771428D01*
X29200000Y-3828571D01*
X29228571Y-3857142D01*
X29314285Y-3914285D01*
X29428571Y-3942857D01*
X29657142Y-3942857D01*
X29714285Y-3914285D01*
X29742857Y-3885714D01*
X29771428Y-3828571D01*
X29771428Y-3714285D01*
X29742857Y-3657142D01*
X29714285Y-3628571D01*
X29657142Y-3600000D01*
X29514285Y-3600000D01*
X29457142Y-3628571D01*
X29428571Y-3657142D01*
X29400000Y-3714285D01*
X29400000Y-3828571D01*
X29428571Y-3885714D01*
X29457142Y-3914285D01*
X29514285Y-3942857D01*
X-14228571Y6278571D02*
X-14228571Y6878571D01*
X-14085714Y6878571D01*
X-14000000Y6850000D01*
X-13942857Y6792857D01*
X-13914285Y6735714D01*
X-13885714Y6621428D01*
X-13885714Y6535714D01*
X-13914285Y6421428D01*
X-13942857Y6364285D01*
X-14000000Y6307142D01*
X-14085714Y6278571D01*
X-14228571Y6278571D01*
X-13314285Y6278571D02*
X-13657142Y6278571D01*
X-13485714Y6278571D02*
X-13485714Y6878571D01*
X-13542857Y6792857D01*
X-13600000Y6735714D01*
X-13657142Y6707142D01*
X-13114285Y6878571D02*
X-12714285Y6878571D01*
X-12971428Y6278571D01*
X-17778571Y6278571D02*
X-17778571Y6878571D01*
X-17635714Y6878571D01*
X-17550000Y6850000D01*
X-17492857Y6792857D01*
X-17464285Y6735714D01*
X-17435714Y6621428D01*
X-17435714Y6535714D01*
X-17464285Y6421428D01*
X-17492857Y6364285D01*
X-17550000Y6307142D01*
X-17635714Y6278571D01*
X-17778571Y6278571D01*
X-16864285Y6278571D02*
X-17207142Y6278571D01*
X-17035714Y6278571D02*
X-17035714Y6878571D01*
X-17092857Y6792857D01*
X-17150000Y6735714D01*
X-17207142Y6707142D01*
X-16350000Y6878571D02*
X-16464285Y6878571D01*
X-16521428Y6850000D01*
X-16550000Y6821428D01*
X-16607142Y6735714D01*
X-16635714Y6621428D01*
X-16635714Y6392857D01*
X-16607142Y6335714D01*
X-16578571Y6307142D01*
X-16521428Y6278571D01*
X-16407142Y6278571D01*
X-16350000Y6307142D01*
X-16321428Y6335714D01*
X-16292857Y6392857D01*
X-16292857Y6535714D01*
X-16321428Y6592857D01*
X-16350000Y6621428D01*
X-16407142Y6650000D01*
X-16521428Y6650000D01*
X-16578571Y6621428D01*
X-16607142Y6592857D01*
X-16635714Y6535714D01*
X-21228571Y6278571D02*
X-21228571Y6878571D01*
X-21085714Y6878571D01*
X-21000000Y6850000D01*
X-20942857Y6792857D01*
X-20914285Y6735714D01*
X-20885714Y6621428D01*
X-20885714Y6535714D01*
X-20914285Y6421428D01*
X-20942857Y6364285D01*
X-21000000Y6307142D01*
X-21085714Y6278571D01*
X-21228571Y6278571D01*
X-20314285Y6278571D02*
X-20657142Y6278571D01*
X-20485714Y6278571D02*
X-20485714Y6878571D01*
X-20542857Y6792857D01*
X-20600000Y6735714D01*
X-20657142Y6707142D01*
X-19771428Y6878571D02*
X-20057142Y6878571D01*
X-20085714Y6592857D01*
X-20057142Y6621428D01*
X-20000000Y6650000D01*
X-19857142Y6650000D01*
X-19800000Y6621428D01*
X-19771428Y6592857D01*
X-19742857Y6535714D01*
X-19742857Y6392857D01*
X-19771428Y6335714D01*
X-19800000Y6307142D01*
X-19857142Y6278571D01*
X-20000000Y6278571D01*
X-20057142Y6307142D01*
X-20085714Y6335714D01*
X-14278571Y-20771428D02*
X-14278571Y-20171428D01*
X-14135714Y-20171428D01*
X-14050000Y-20200000D01*
X-13992857Y-20257142D01*
X-13964285Y-20314285D01*
X-13935714Y-20428571D01*
X-13935714Y-20514285D01*
X-13964285Y-20628571D01*
X-13992857Y-20685714D01*
X-14050000Y-20742857D01*
X-14135714Y-20771428D01*
X-14278571Y-20771428D01*
X-13364285Y-20771428D02*
X-13707142Y-20771428D01*
X-13535714Y-20771428D02*
X-13535714Y-20171428D01*
X-13592857Y-20257142D01*
X-13650000Y-20314285D01*
X-13707142Y-20342857D01*
X-12850000Y-20371428D02*
X-12850000Y-20771428D01*
X-12992857Y-20142857D02*
X-13135714Y-20571428D01*
X-12764285Y-20571428D01*
X-17778571Y-20771428D02*
X-17778571Y-20171428D01*
X-17635714Y-20171428D01*
X-17550000Y-20200000D01*
X-17492857Y-20257142D01*
X-17464285Y-20314285D01*
X-17435714Y-20428571D01*
X-17435714Y-20514285D01*
X-17464285Y-20628571D01*
X-17492857Y-20685714D01*
X-17550000Y-20742857D01*
X-17635714Y-20771428D01*
X-17778571Y-20771428D01*
X-16864285Y-20771428D02*
X-17207142Y-20771428D01*
X-17035714Y-20771428D02*
X-17035714Y-20171428D01*
X-17092857Y-20257142D01*
X-17150000Y-20314285D01*
X-17207142Y-20342857D01*
X-16664285Y-20171428D02*
X-16292857Y-20171428D01*
X-16492857Y-20400000D01*
X-16407142Y-20400000D01*
X-16350000Y-20428571D01*
X-16321428Y-20457142D01*
X-16292857Y-20514285D01*
X-16292857Y-20657142D01*
X-16321428Y-20714285D01*
X-16350000Y-20742857D01*
X-16407142Y-20771428D01*
X-16578571Y-20771428D01*
X-16635714Y-20742857D01*
X-16664285Y-20714285D01*
X-21278571Y-20771428D02*
X-21278571Y-20171428D01*
X-21135714Y-20171428D01*
X-21050000Y-20200000D01*
X-20992857Y-20257142D01*
X-20964285Y-20314285D01*
X-20935714Y-20428571D01*
X-20935714Y-20514285D01*
X-20964285Y-20628571D01*
X-20992857Y-20685714D01*
X-21050000Y-20742857D01*
X-21135714Y-20771428D01*
X-21278571Y-20771428D01*
X-20364285Y-20771428D02*
X-20707142Y-20771428D01*
X-20535714Y-20771428D02*
X-20535714Y-20171428D01*
X-20592857Y-20257142D01*
X-20650000Y-20314285D01*
X-20707142Y-20342857D01*
X-20135714Y-20228571D02*
X-20107142Y-20200000D01*
X-20050000Y-20171428D01*
X-19907142Y-20171428D01*
X-19850000Y-20200000D01*
X-19821428Y-20228571D01*
X-19792857Y-20285714D01*
X-19792857Y-20342857D01*
X-19821428Y-20428571D01*
X-20164285Y-20771428D01*
X-19792857Y-20771428D01*
X12771428Y-6771428D02*
X12771428Y-6171428D01*
X12914285Y-6171428D01*
X13000000Y-6200000D01*
X13057142Y-6257142D01*
X13085714Y-6314285D01*
X13114285Y-6428571D01*
X13114285Y-6514285D01*
X13085714Y-6628571D01*
X13057142Y-6685714D01*
X13000000Y-6742857D01*
X12914285Y-6771428D01*
X12771428Y-6771428D01*
X13685714Y-6771428D02*
X13342857Y-6771428D01*
X13514285Y-6771428D02*
X13514285Y-6171428D01*
X13457142Y-6257142D01*
X13400000Y-6314285D01*
X13342857Y-6342857D01*
X14257142Y-6771428D02*
X13914285Y-6771428D01*
X14085714Y-6771428D02*
X14085714Y-6171428D01*
X14028571Y-6257142D01*
X13971428Y-6314285D01*
X13914285Y-6342857D01*
X16271428Y-6771428D02*
X16271428Y-6171428D01*
X16414285Y-6171428D01*
X16500000Y-6200000D01*
X16557142Y-6257142D01*
X16585714Y-6314285D01*
X16614285Y-6428571D01*
X16614285Y-6514285D01*
X16585714Y-6628571D01*
X16557142Y-6685714D01*
X16500000Y-6742857D01*
X16414285Y-6771428D01*
X16271428Y-6771428D01*
X17185714Y-6771428D02*
X16842857Y-6771428D01*
X17014285Y-6771428D02*
X17014285Y-6171428D01*
X16957142Y-6257142D01*
X16900000Y-6314285D01*
X16842857Y-6342857D01*
X17557142Y-6171428D02*
X17614285Y-6171428D01*
X17671428Y-6200000D01*
X17700000Y-6228571D01*
X17728571Y-6285714D01*
X17757142Y-6400000D01*
X17757142Y-6542857D01*
X17728571Y-6657142D01*
X17700000Y-6714285D01*
X17671428Y-6742857D01*
X17614285Y-6771428D01*
X17557142Y-6771428D01*
X17500000Y-6742857D01*
X17471428Y-6714285D01*
X17442857Y-6657142D01*
X17414285Y-6542857D01*
X17414285Y-6400000D01*
X17442857Y-6285714D01*
X17471428Y-6228571D01*
X17500000Y-6200000D01*
X17557142Y-6171428D01*
X20057142Y-6771428D02*
X20057142Y-6171428D01*
X20200000Y-6171428D01*
X20285714Y-6200000D01*
X20342857Y-6257142D01*
X20371428Y-6314285D01*
X20400000Y-6428571D01*
X20400000Y-6514285D01*
X20371428Y-6628571D01*
X20342857Y-6685714D01*
X20285714Y-6742857D01*
X20200000Y-6771428D01*
X20057142Y-6771428D01*
X20685714Y-6771428D02*
X20800000Y-6771428D01*
X20857142Y-6742857D01*
X20885714Y-6714285D01*
X20942857Y-6628571D01*
X20971428Y-6514285D01*
X20971428Y-6285714D01*
X20942857Y-6228571D01*
X20914285Y-6200000D01*
X20857142Y-6171428D01*
X20742857Y-6171428D01*
X20685714Y-6200000D01*
X20657142Y-6228571D01*
X20628571Y-6285714D01*
X20628571Y-6428571D01*
X20657142Y-6485714D01*
X20685714Y-6514285D01*
X20742857Y-6542857D01*
X20857142Y-6542857D01*
X20914285Y-6514285D01*
X20942857Y-6485714D01*
X20971428Y-6428571D01*
X-7942857Y22628571D02*
X-7942857Y23228571D01*
X-7800000Y23228571D01*
X-7714285Y23200000D01*
X-7657142Y23142857D01*
X-7628571Y23085714D01*
X-7600000Y22971428D01*
X-7600000Y22885714D01*
X-7628571Y22771428D01*
X-7657142Y22714285D01*
X-7714285Y22657142D01*
X-7800000Y22628571D01*
X-7942857Y22628571D01*
X-7057142Y23228571D02*
X-7342857Y23228571D01*
X-7371428Y22942857D01*
X-7342857Y22971428D01*
X-7285714Y23000000D01*
X-7142857Y23000000D01*
X-7085714Y22971428D01*
X-7057142Y22942857D01*
X-7028571Y22885714D01*
X-7028571Y22742857D01*
X-7057142Y22685714D01*
X-7085714Y22657142D01*
X-7142857Y22628571D01*
X-7285714Y22628571D01*
X-7342857Y22657142D01*
X-7371428Y22685714D01*
X-7942857Y-4371428D02*
X-7942857Y-3771428D01*
X-7800000Y-3771428D01*
X-7714285Y-3800000D01*
X-7657142Y-3857142D01*
X-7628571Y-3914285D01*
X-7600000Y-4028571D01*
X-7600000Y-4114285D01*
X-7628571Y-4228571D01*
X-7657142Y-4285714D01*
X-7714285Y-4342857D01*
X-7800000Y-4371428D01*
X-7942857Y-4371428D01*
X-7085714Y-3971428D02*
X-7085714Y-4371428D01*
X-7228571Y-3742857D02*
X-7371428Y-4171428D01*
X-7000000Y-4171428D01*
X7057142Y-23171428D02*
X7057142Y-22571428D01*
X7200000Y-22571428D01*
X7285714Y-22600000D01*
X7342857Y-22657142D01*
X7371428Y-22714285D01*
X7400000Y-22828571D01*
X7400000Y-22914285D01*
X7371428Y-23028571D01*
X7342857Y-23085714D01*
X7285714Y-23142857D01*
X7200000Y-23171428D01*
X7057142Y-23171428D01*
X7600000Y-22571428D02*
X7971428Y-22571428D01*
X7771428Y-22800000D01*
X7857142Y-22800000D01*
X7914285Y-22828571D01*
X7942857Y-22857142D01*
X7971428Y-22914285D01*
X7971428Y-23057142D01*
X7942857Y-23114285D01*
X7914285Y-23142857D01*
X7857142Y-23171428D01*
X7685714Y-23171428D01*
X7628571Y-23142857D01*
X7600000Y-23114285D01*
X7057142Y3828571D02*
X7057142Y4428571D01*
X7200000Y4428571D01*
X7285714Y4400000D01*
X7342857Y4342857D01*
X7371428Y4285714D01*
X7400000Y4171428D01*
X7400000Y4085714D01*
X7371428Y3971428D01*
X7342857Y3914285D01*
X7285714Y3857142D01*
X7200000Y3828571D01*
X7057142Y3828571D01*
X7628571Y4371428D02*
X7657142Y4400000D01*
X7714285Y4428571D01*
X7857142Y4428571D01*
X7914285Y4400000D01*
X7942857Y4371428D01*
X7971428Y4314285D01*
X7971428Y4257142D01*
X7942857Y4171428D01*
X7600000Y3828571D01*
X7971428Y3828571D01*
X307142Y-17671428D02*
X307142Y-17071428D01*
X450000Y-17071428D01*
X535714Y-17100000D01*
X592857Y-17157142D01*
X621428Y-17214285D01*
X650000Y-17328571D01*
X650000Y-17414285D01*
X621428Y-17528571D01*
X592857Y-17585714D01*
X535714Y-17642857D01*
X450000Y-17671428D01*
X307142Y-17671428D01*
X1221428Y-17671428D02*
X878571Y-17671428D01*
X1050000Y-17671428D02*
X1050000Y-17071428D01*
X992857Y-17157142D01*
X935714Y-17214285D01*
X878571Y-17242857D01*
X-36385714Y24885714D02*
X-36414285Y24857142D01*
X-36500000Y24828571D01*
X-36557142Y24828571D01*
X-36642857Y24857142D01*
X-36700000Y24914285D01*
X-36728571Y24971428D01*
X-36757142Y25085714D01*
X-36757142Y25171428D01*
X-36728571Y25285714D01*
X-36700000Y25342857D01*
X-36642857Y25400000D01*
X-36557142Y25428571D01*
X-36500000Y25428571D01*
X-36414285Y25400000D01*
X-36385714Y25371428D01*
X-35871428Y25228571D02*
X-35871428Y24828571D01*
X-36014285Y25457142D02*
X-36157142Y25028571D01*
X-35785714Y25028571D01*
X-35271428Y25428571D02*
X-35557142Y25428571D01*
X-35585714Y25142857D01*
X-35557142Y25171428D01*
X-35500000Y25200000D01*
X-35357142Y25200000D01*
X-35300000Y25171428D01*
X-35271428Y25142857D01*
X-35242857Y25085714D01*
X-35242857Y24942857D01*
X-35271428Y24885714D01*
X-35300000Y24857142D01*
X-35357142Y24828571D01*
X-35500000Y24828571D01*
X-35557142Y24857142D01*
X-35585714Y24885714D01*
X-36385714Y17885714D02*
X-36414285Y17857142D01*
X-36500000Y17828571D01*
X-36557142Y17828571D01*
X-36642857Y17857142D01*
X-36700000Y17914285D01*
X-36728571Y17971428D01*
X-36757142Y18085714D01*
X-36757142Y18171428D01*
X-36728571Y18285714D01*
X-36700000Y18342857D01*
X-36642857Y18400000D01*
X-36557142Y18428571D01*
X-36500000Y18428571D01*
X-36414285Y18400000D01*
X-36385714Y18371428D01*
X-35871428Y18228571D02*
X-35871428Y17828571D01*
X-36014285Y18457142D02*
X-36157142Y18028571D01*
X-35785714Y18028571D01*
X-35300000Y18228571D02*
X-35300000Y17828571D01*
X-35442857Y18457142D02*
X-35585714Y18028571D01*
X-35214285Y18028571D01*
X-36385714Y6585714D02*
X-36414285Y6557142D01*
X-36500000Y6528571D01*
X-36557142Y6528571D01*
X-36642857Y6557142D01*
X-36700000Y6614285D01*
X-36728571Y6671428D01*
X-36757142Y6785714D01*
X-36757142Y6871428D01*
X-36728571Y6985714D01*
X-36700000Y7042857D01*
X-36642857Y7100000D01*
X-36557142Y7128571D01*
X-36500000Y7128571D01*
X-36414285Y7100000D01*
X-36385714Y7071428D01*
X-35871428Y6928571D02*
X-35871428Y6528571D01*
X-36014285Y7157142D02*
X-36157142Y6728571D01*
X-35785714Y6728571D01*
X-35614285Y7128571D02*
X-35242857Y7128571D01*
X-35442857Y6900000D01*
X-35357142Y6900000D01*
X-35300000Y6871428D01*
X-35271428Y6842857D01*
X-35242857Y6785714D01*
X-35242857Y6642857D01*
X-35271428Y6585714D01*
X-35300000Y6557142D01*
X-35357142Y6528571D01*
X-35528571Y6528571D01*
X-35585714Y6557142D01*
X-35614285Y6585714D01*
X-12135714Y6335714D02*
X-12164285Y6307142D01*
X-12250000Y6278571D01*
X-12307142Y6278571D01*
X-12392857Y6307142D01*
X-12450000Y6364285D01*
X-12478571Y6421428D01*
X-12507142Y6535714D01*
X-12507142Y6621428D01*
X-12478571Y6735714D01*
X-12450000Y6792857D01*
X-12392857Y6850000D01*
X-12307142Y6878571D01*
X-12250000Y6878571D01*
X-12164285Y6850000D01*
X-12135714Y6821428D01*
X-11621428Y6678571D02*
X-11621428Y6278571D01*
X-11764285Y6907142D02*
X-11907142Y6478571D01*
X-11535714Y6478571D01*
X-10992857Y6278571D02*
X-11335714Y6278571D01*
X-11164285Y6278571D02*
X-11164285Y6878571D01*
X-11221428Y6792857D01*
X-11278571Y6735714D01*
X-11335714Y6707142D01*
X-15635714Y6335714D02*
X-15664285Y6307142D01*
X-15750000Y6278571D01*
X-15807142Y6278571D01*
X-15892857Y6307142D01*
X-15950000Y6364285D01*
X-15978571Y6421428D01*
X-16007142Y6535714D01*
X-16007142Y6621428D01*
X-15978571Y6735714D01*
X-15950000Y6792857D01*
X-15892857Y6850000D01*
X-15807142Y6878571D01*
X-15750000Y6878571D01*
X-15664285Y6850000D01*
X-15635714Y6821428D01*
X-15121428Y6678571D02*
X-15121428Y6278571D01*
X-15264285Y6907142D02*
X-15407142Y6478571D01*
X-15035714Y6478571D01*
X-14692857Y6878571D02*
X-14635714Y6878571D01*
X-14578571Y6850000D01*
X-14550000Y6821428D01*
X-14521428Y6764285D01*
X-14492857Y6650000D01*
X-14492857Y6507142D01*
X-14521428Y6392857D01*
X-14550000Y6335714D01*
X-14578571Y6307142D01*
X-14635714Y6278571D01*
X-14692857Y6278571D01*
X-14750000Y6307142D01*
X-14778571Y6335714D01*
X-14807142Y6392857D01*
X-14835714Y6507142D01*
X-14835714Y6650000D01*
X-14807142Y6764285D01*
X-14778571Y6821428D01*
X-14750000Y6850000D01*
X-14692857Y6878571D01*
X-19135714Y6335714D02*
X-19164285Y6307142D01*
X-19250000Y6278571D01*
X-19307142Y6278571D01*
X-19392857Y6307142D01*
X-19450000Y6364285D01*
X-19478571Y6421428D01*
X-19507142Y6535714D01*
X-19507142Y6621428D01*
X-19478571Y6735714D01*
X-19450000Y6792857D01*
X-19392857Y6850000D01*
X-19307142Y6878571D01*
X-19250000Y6878571D01*
X-19164285Y6850000D01*
X-19135714Y6821428D01*
X-18935714Y6878571D02*
X-18564285Y6878571D01*
X-18764285Y6650000D01*
X-18678571Y6650000D01*
X-18621428Y6621428D01*
X-18592857Y6592857D01*
X-18564285Y6535714D01*
X-18564285Y6392857D01*
X-18592857Y6335714D01*
X-18621428Y6307142D01*
X-18678571Y6278571D01*
X-18850000Y6278571D01*
X-18907142Y6307142D01*
X-18935714Y6335714D01*
X-18278571Y6278571D02*
X-18164285Y6278571D01*
X-18107142Y6307142D01*
X-18078571Y6335714D01*
X-18021428Y6421428D01*
X-17992857Y6535714D01*
X-17992857Y6764285D01*
X-18021428Y6821428D01*
X-18050000Y6850000D01*
X-18107142Y6878571D01*
X-18221428Y6878571D01*
X-18278571Y6850000D01*
X-18307142Y6821428D01*
X-18335714Y6764285D01*
X-18335714Y6621428D01*
X-18307142Y6564285D01*
X-18278571Y6535714D01*
X-18221428Y6507142D01*
X-18107142Y6507142D01*
X-18050000Y6535714D01*
X-18021428Y6564285D01*
X-17992857Y6621428D01*
X-9135714Y6335714D02*
X-9164285Y6307142D01*
X-9250000Y6278571D01*
X-9307142Y6278571D01*
X-9392857Y6307142D01*
X-9450000Y6364285D01*
X-9478571Y6421428D01*
X-9507142Y6535714D01*
X-9507142Y6621428D01*
X-9478571Y6735714D01*
X-9450000Y6792857D01*
X-9392857Y6850000D01*
X-9307142Y6878571D01*
X-9250000Y6878571D01*
X-9164285Y6850000D01*
X-9135714Y6821428D01*
X-8935714Y6878571D02*
X-8564285Y6878571D01*
X-8764285Y6650000D01*
X-8678571Y6650000D01*
X-8621428Y6621428D01*
X-8592857Y6592857D01*
X-8564285Y6535714D01*
X-8564285Y6392857D01*
X-8592857Y6335714D01*
X-8621428Y6307142D01*
X-8678571Y6278571D01*
X-8850000Y6278571D01*
X-8907142Y6307142D01*
X-8935714Y6335714D01*
X-8221428Y6621428D02*
X-8278571Y6650000D01*
X-8307142Y6678571D01*
X-8335714Y6735714D01*
X-8335714Y6764285D01*
X-8307142Y6821428D01*
X-8278571Y6850000D01*
X-8221428Y6878571D01*
X-8107142Y6878571D01*
X-8050000Y6850000D01*
X-8021428Y6821428D01*
X-7992857Y6764285D01*
X-7992857Y6735714D01*
X-8021428Y6678571D01*
X-8050000Y6650000D01*
X-8107142Y6621428D01*
X-8221428Y6621428D01*
X-8278571Y6592857D01*
X-8307142Y6564285D01*
X-8335714Y6507142D01*
X-8335714Y6392857D01*
X-8307142Y6335714D01*
X-8278571Y6307142D01*
X-8221428Y6278571D01*
X-8107142Y6278571D01*
X-8050000Y6307142D01*
X-8021428Y6335714D01*
X-7992857Y6392857D01*
X-7992857Y6507142D01*
X-8021428Y6564285D01*
X-8050000Y6592857D01*
X-8107142Y6621428D01*
X-36385714Y-2114285D02*
X-36414285Y-2142857D01*
X-36500000Y-2171428D01*
X-36557142Y-2171428D01*
X-36642857Y-2142857D01*
X-36700000Y-2085714D01*
X-36728571Y-2028571D01*
X-36757142Y-1914285D01*
X-36757142Y-1828571D01*
X-36728571Y-1714285D01*
X-36700000Y-1657142D01*
X-36642857Y-1600000D01*
X-36557142Y-1571428D01*
X-36500000Y-1571428D01*
X-36414285Y-1600000D01*
X-36385714Y-1628571D01*
X-36185714Y-1571428D02*
X-35814285Y-1571428D01*
X-36014285Y-1800000D01*
X-35928571Y-1800000D01*
X-35871428Y-1828571D01*
X-35842857Y-1857142D01*
X-35814285Y-1914285D01*
X-35814285Y-2057142D01*
X-35842857Y-2114285D01*
X-35871428Y-2142857D01*
X-35928571Y-2171428D01*
X-36100000Y-2171428D01*
X-36157142Y-2142857D01*
X-36185714Y-2114285D01*
X-35300000Y-1771428D02*
X-35300000Y-2171428D01*
X-35442857Y-1542857D02*
X-35585714Y-1971428D01*
X-35214285Y-1971428D01*
X-36385714Y-9114285D02*
X-36414285Y-9142857D01*
X-36500000Y-9171428D01*
X-36557142Y-9171428D01*
X-36642857Y-9142857D01*
X-36700000Y-9085714D01*
X-36728571Y-9028571D01*
X-36757142Y-8914285D01*
X-36757142Y-8828571D01*
X-36728571Y-8714285D01*
X-36700000Y-8657142D01*
X-36642857Y-8600000D01*
X-36557142Y-8571428D01*
X-36500000Y-8571428D01*
X-36414285Y-8600000D01*
X-36385714Y-8628571D01*
X-36185714Y-8571428D02*
X-35814285Y-8571428D01*
X-36014285Y-8800000D01*
X-35928571Y-8800000D01*
X-35871428Y-8828571D01*
X-35842857Y-8857142D01*
X-35814285Y-8914285D01*
X-35814285Y-9057142D01*
X-35842857Y-9114285D01*
X-35871428Y-9142857D01*
X-35928571Y-9171428D01*
X-36100000Y-9171428D01*
X-36157142Y-9142857D01*
X-36185714Y-9114285D01*
X-35614285Y-8571428D02*
X-35242857Y-8571428D01*
X-35442857Y-8800000D01*
X-35357142Y-8800000D01*
X-35300000Y-8828571D01*
X-35271428Y-8857142D01*
X-35242857Y-8914285D01*
X-35242857Y-9057142D01*
X-35271428Y-9114285D01*
X-35300000Y-9142857D01*
X-35357142Y-9171428D01*
X-35528571Y-9171428D01*
X-35585714Y-9142857D01*
X-35614285Y-9114285D01*
X-36385714Y-20414285D02*
X-36414285Y-20442857D01*
X-36500000Y-20471428D01*
X-36557142Y-20471428D01*
X-36642857Y-20442857D01*
X-36700000Y-20385714D01*
X-36728571Y-20328571D01*
X-36757142Y-20214285D01*
X-36757142Y-20128571D01*
X-36728571Y-20014285D01*
X-36700000Y-19957142D01*
X-36642857Y-19900000D01*
X-36557142Y-19871428D01*
X-36500000Y-19871428D01*
X-36414285Y-19900000D01*
X-36385714Y-19928571D01*
X-36185714Y-19871428D02*
X-35814285Y-19871428D01*
X-36014285Y-20100000D01*
X-35928571Y-20100000D01*
X-35871428Y-20128571D01*
X-35842857Y-20157142D01*
X-35814285Y-20214285D01*
X-35814285Y-20357142D01*
X-35842857Y-20414285D01*
X-35871428Y-20442857D01*
X-35928571Y-20471428D01*
X-36100000Y-20471428D01*
X-36157142Y-20442857D01*
X-36185714Y-20414285D01*
X-35585714Y-19928571D02*
X-35557142Y-19900000D01*
X-35500000Y-19871428D01*
X-35357142Y-19871428D01*
X-35300000Y-19900000D01*
X-35271428Y-19928571D01*
X-35242857Y-19985714D01*
X-35242857Y-20042857D01*
X-35271428Y-20128571D01*
X-35614285Y-20471428D01*
X-35242857Y-20471428D01*
X-12135714Y-20714285D02*
X-12164285Y-20742857D01*
X-12250000Y-20771428D01*
X-12307142Y-20771428D01*
X-12392857Y-20742857D01*
X-12450000Y-20685714D01*
X-12478571Y-20628571D01*
X-12507142Y-20514285D01*
X-12507142Y-20428571D01*
X-12478571Y-20314285D01*
X-12450000Y-20257142D01*
X-12392857Y-20200000D01*
X-12307142Y-20171428D01*
X-12250000Y-20171428D01*
X-12164285Y-20200000D01*
X-12135714Y-20228571D01*
X-11935714Y-20171428D02*
X-11564285Y-20171428D01*
X-11764285Y-20400000D01*
X-11678571Y-20400000D01*
X-11621428Y-20428571D01*
X-11592857Y-20457142D01*
X-11564285Y-20514285D01*
X-11564285Y-20657142D01*
X-11592857Y-20714285D01*
X-11621428Y-20742857D01*
X-11678571Y-20771428D01*
X-11850000Y-20771428D01*
X-11907142Y-20742857D01*
X-11935714Y-20714285D01*
X-11192857Y-20171428D02*
X-11135714Y-20171428D01*
X-11078571Y-20200000D01*
X-11050000Y-20228571D01*
X-11021428Y-20285714D01*
X-10992857Y-20400000D01*
X-10992857Y-20542857D01*
X-11021428Y-20657142D01*
X-11050000Y-20714285D01*
X-11078571Y-20742857D01*
X-11135714Y-20771428D01*
X-11192857Y-20771428D01*
X-11250000Y-20742857D01*
X-11278571Y-20714285D01*
X-11307142Y-20657142D01*
X-11335714Y-20542857D01*
X-11335714Y-20400000D01*
X-11307142Y-20285714D01*
X-11278571Y-20228571D01*
X-11250000Y-20200000D01*
X-11192857Y-20171428D01*
X-15635714Y-20714285D02*
X-15664285Y-20742857D01*
X-15750000Y-20771428D01*
X-15807142Y-20771428D01*
X-15892857Y-20742857D01*
X-15950000Y-20685714D01*
X-15978571Y-20628571D01*
X-16007142Y-20514285D01*
X-16007142Y-20428571D01*
X-15978571Y-20314285D01*
X-15950000Y-20257142D01*
X-15892857Y-20200000D01*
X-15807142Y-20171428D01*
X-15750000Y-20171428D01*
X-15664285Y-20200000D01*
X-15635714Y-20228571D01*
X-15407142Y-20228571D02*
X-15378571Y-20200000D01*
X-15321428Y-20171428D01*
X-15178571Y-20171428D01*
X-15121428Y-20200000D01*
X-15092857Y-20228571D01*
X-15064285Y-20285714D01*
X-15064285Y-20342857D01*
X-15092857Y-20428571D01*
X-15435714Y-20771428D01*
X-15064285Y-20771428D01*
X-14778571Y-20771428D02*
X-14664285Y-20771428D01*
X-14607142Y-20742857D01*
X-14578571Y-20714285D01*
X-14521428Y-20628571D01*
X-14492857Y-20514285D01*
X-14492857Y-20285714D01*
X-14521428Y-20228571D01*
X-14550000Y-20200000D01*
X-14607142Y-20171428D01*
X-14721428Y-20171428D01*
X-14778571Y-20200000D01*
X-14807142Y-20228571D01*
X-14835714Y-20285714D01*
X-14835714Y-20428571D01*
X-14807142Y-20485714D01*
X-14778571Y-20514285D01*
X-14721428Y-20542857D01*
X-14607142Y-20542857D01*
X-14550000Y-20514285D01*
X-14521428Y-20485714D01*
X-14492857Y-20428571D01*
X-19185714Y-20714285D02*
X-19214285Y-20742857D01*
X-19300000Y-20771428D01*
X-19357142Y-20771428D01*
X-19442857Y-20742857D01*
X-19500000Y-20685714D01*
X-19528571Y-20628571D01*
X-19557142Y-20514285D01*
X-19557142Y-20428571D01*
X-19528571Y-20314285D01*
X-19500000Y-20257142D01*
X-19442857Y-20200000D01*
X-19357142Y-20171428D01*
X-19300000Y-20171428D01*
X-19214285Y-20200000D01*
X-19185714Y-20228571D01*
X-18957142Y-20228571D02*
X-18928571Y-20200000D01*
X-18871428Y-20171428D01*
X-18728571Y-20171428D01*
X-18671428Y-20200000D01*
X-18642857Y-20228571D01*
X-18614285Y-20285714D01*
X-18614285Y-20342857D01*
X-18642857Y-20428571D01*
X-18985714Y-20771428D01*
X-18614285Y-20771428D01*
X-18271428Y-20428571D02*
X-18328571Y-20400000D01*
X-18357142Y-20371428D01*
X-18385714Y-20314285D01*
X-18385714Y-20285714D01*
X-18357142Y-20228571D01*
X-18328571Y-20200000D01*
X-18271428Y-20171428D01*
X-18157142Y-20171428D01*
X-18100000Y-20200000D01*
X-18071428Y-20228571D01*
X-18042857Y-20285714D01*
X-18042857Y-20314285D01*
X-18071428Y-20371428D01*
X-18100000Y-20400000D01*
X-18157142Y-20428571D01*
X-18271428Y-20428571D01*
X-18328571Y-20457142D01*
X-18357142Y-20485714D01*
X-18385714Y-20542857D01*
X-18385714Y-20657142D01*
X-18357142Y-20714285D01*
X-18328571Y-20742857D01*
X-18271428Y-20771428D01*
X-18157142Y-20771428D01*
X-18100000Y-20742857D01*
X-18071428Y-20714285D01*
X-18042857Y-20657142D01*
X-18042857Y-20542857D01*
X-18071428Y-20485714D01*
X-18100000Y-20457142D01*
X-18157142Y-20428571D01*
X-9135714Y-20714285D02*
X-9164285Y-20742857D01*
X-9250000Y-20771428D01*
X-9307142Y-20771428D01*
X-9392857Y-20742857D01*
X-9450000Y-20685714D01*
X-9478571Y-20628571D01*
X-9507142Y-20514285D01*
X-9507142Y-20428571D01*
X-9478571Y-20314285D01*
X-9450000Y-20257142D01*
X-9392857Y-20200000D01*
X-9307142Y-20171428D01*
X-9250000Y-20171428D01*
X-9164285Y-20200000D01*
X-9135714Y-20228571D01*
X-8907142Y-20228571D02*
X-8878571Y-20200000D01*
X-8821428Y-20171428D01*
X-8678571Y-20171428D01*
X-8621428Y-20200000D01*
X-8592857Y-20228571D01*
X-8564285Y-20285714D01*
X-8564285Y-20342857D01*
X-8592857Y-20428571D01*
X-8935714Y-20771428D01*
X-8564285Y-20771428D01*
X-8364285Y-20171428D02*
X-7964285Y-20171428D01*
X-8221428Y-20771428D01*
X35614285Y-25414285D02*
X35585714Y-25442857D01*
X35500000Y-25471428D01*
X35442857Y-25471428D01*
X35357142Y-25442857D01*
X35300000Y-25385714D01*
X35271428Y-25328571D01*
X35242857Y-25214285D01*
X35242857Y-25128571D01*
X35271428Y-25014285D01*
X35300000Y-24957142D01*
X35357142Y-24900000D01*
X35442857Y-24871428D01*
X35500000Y-24871428D01*
X35585714Y-24900000D01*
X35614285Y-24928571D01*
X35842857Y-24928571D02*
X35871428Y-24900000D01*
X35928571Y-24871428D01*
X36071428Y-24871428D01*
X36128571Y-24900000D01*
X36157142Y-24928571D01*
X36185714Y-24985714D01*
X36185714Y-25042857D01*
X36157142Y-25128571D01*
X35814285Y-25471428D01*
X36185714Y-25471428D01*
X36385714Y-24871428D02*
X36757142Y-24871428D01*
X36557142Y-25100000D01*
X36642857Y-25100000D01*
X36700000Y-25128571D01*
X36728571Y-25157142D01*
X36757142Y-25214285D01*
X36757142Y-25357142D01*
X36728571Y-25414285D01*
X36700000Y-25442857D01*
X36642857Y-25471428D01*
X36471428Y-25471428D01*
X36414285Y-25442857D01*
X36385714Y-25414285D01*
X35614285Y-14114285D02*
X35585714Y-14142857D01*
X35500000Y-14171428D01*
X35442857Y-14171428D01*
X35357142Y-14142857D01*
X35300000Y-14085714D01*
X35271428Y-14028571D01*
X35242857Y-13914285D01*
X35242857Y-13828571D01*
X35271428Y-13714285D01*
X35300000Y-13657142D01*
X35357142Y-13600000D01*
X35442857Y-13571428D01*
X35500000Y-13571428D01*
X35585714Y-13600000D01*
X35614285Y-13628571D01*
X35842857Y-13628571D02*
X35871428Y-13600000D01*
X35928571Y-13571428D01*
X36071428Y-13571428D01*
X36128571Y-13600000D01*
X36157142Y-13628571D01*
X36185714Y-13685714D01*
X36185714Y-13742857D01*
X36157142Y-13828571D01*
X35814285Y-14171428D01*
X36185714Y-14171428D01*
X36414285Y-13628571D02*
X36442857Y-13600000D01*
X36500000Y-13571428D01*
X36642857Y-13571428D01*
X36700000Y-13600000D01*
X36728571Y-13628571D01*
X36757142Y-13685714D01*
X36757142Y-13742857D01*
X36728571Y-13828571D01*
X36385714Y-14171428D01*
X36757142Y-14171428D01*
X35614285Y-7114285D02*
X35585714Y-7142857D01*
X35500000Y-7171428D01*
X35442857Y-7171428D01*
X35357142Y-7142857D01*
X35300000Y-7085714D01*
X35271428Y-7028571D01*
X35242857Y-6914285D01*
X35242857Y-6828571D01*
X35271428Y-6714285D01*
X35300000Y-6657142D01*
X35357142Y-6600000D01*
X35442857Y-6571428D01*
X35500000Y-6571428D01*
X35585714Y-6600000D01*
X35614285Y-6628571D01*
X35842857Y-6628571D02*
X35871428Y-6600000D01*
X35928571Y-6571428D01*
X36071428Y-6571428D01*
X36128571Y-6600000D01*
X36157142Y-6628571D01*
X36185714Y-6685714D01*
X36185714Y-6742857D01*
X36157142Y-6828571D01*
X35814285Y-7171428D01*
X36185714Y-7171428D01*
X36757142Y-7171428D02*
X36414285Y-7171428D01*
X36585714Y-7171428D02*
X36585714Y-6571428D01*
X36528571Y-6657142D01*
X36471428Y-6714285D01*
X36414285Y-6742857D01*
X11364285Y-6714285D02*
X11335714Y-6742857D01*
X11250000Y-6771428D01*
X11192857Y-6771428D01*
X11107142Y-6742857D01*
X11050000Y-6685714D01*
X11021428Y-6628571D01*
X10992857Y-6514285D01*
X10992857Y-6428571D01*
X11021428Y-6314285D01*
X11050000Y-6257142D01*
X11107142Y-6200000D01*
X11192857Y-6171428D01*
X11250000Y-6171428D01*
X11335714Y-6200000D01*
X11364285Y-6228571D01*
X11935714Y-6771428D02*
X11592857Y-6771428D01*
X11764285Y-6771428D02*
X11764285Y-6171428D01*
X11707142Y-6257142D01*
X11650000Y-6314285D01*
X11592857Y-6342857D01*
X12221428Y-6771428D02*
X12335714Y-6771428D01*
X12392857Y-6742857D01*
X12421428Y-6714285D01*
X12478571Y-6628571D01*
X12507142Y-6514285D01*
X12507142Y-6285714D01*
X12478571Y-6228571D01*
X12450000Y-6200000D01*
X12392857Y-6171428D01*
X12278571Y-6171428D01*
X12221428Y-6200000D01*
X12192857Y-6228571D01*
X12164285Y-6285714D01*
X12164285Y-6428571D01*
X12192857Y-6485714D01*
X12221428Y-6514285D01*
X12278571Y-6542857D01*
X12392857Y-6542857D01*
X12450000Y-6514285D01*
X12478571Y-6485714D01*
X12507142Y-6428571D01*
X14864285Y-6714285D02*
X14835714Y-6742857D01*
X14750000Y-6771428D01*
X14692857Y-6771428D01*
X14607142Y-6742857D01*
X14550000Y-6685714D01*
X14521428Y-6628571D01*
X14492857Y-6514285D01*
X14492857Y-6428571D01*
X14521428Y-6314285D01*
X14550000Y-6257142D01*
X14607142Y-6200000D01*
X14692857Y-6171428D01*
X14750000Y-6171428D01*
X14835714Y-6200000D01*
X14864285Y-6228571D01*
X15435714Y-6771428D02*
X15092857Y-6771428D01*
X15264285Y-6771428D02*
X15264285Y-6171428D01*
X15207142Y-6257142D01*
X15150000Y-6314285D01*
X15092857Y-6342857D01*
X15778571Y-6428571D02*
X15721428Y-6400000D01*
X15692857Y-6371428D01*
X15664285Y-6314285D01*
X15664285Y-6285714D01*
X15692857Y-6228571D01*
X15721428Y-6200000D01*
X15778571Y-6171428D01*
X15892857Y-6171428D01*
X15950000Y-6200000D01*
X15978571Y-6228571D01*
X16007142Y-6285714D01*
X16007142Y-6314285D01*
X15978571Y-6371428D01*
X15950000Y-6400000D01*
X15892857Y-6428571D01*
X15778571Y-6428571D01*
X15721428Y-6457142D01*
X15692857Y-6485714D01*
X15664285Y-6542857D01*
X15664285Y-6657142D01*
X15692857Y-6714285D01*
X15721428Y-6742857D01*
X15778571Y-6771428D01*
X15892857Y-6771428D01*
X15950000Y-6742857D01*
X15978571Y-6714285D01*
X16007142Y-6657142D01*
X16007142Y-6542857D01*
X15978571Y-6485714D01*
X15950000Y-6457142D01*
X15892857Y-6428571D01*
X18364285Y-6714285D02*
X18335714Y-6742857D01*
X18250000Y-6771428D01*
X18192857Y-6771428D01*
X18107142Y-6742857D01*
X18050000Y-6685714D01*
X18021428Y-6628571D01*
X17992857Y-6514285D01*
X17992857Y-6428571D01*
X18021428Y-6314285D01*
X18050000Y-6257142D01*
X18107142Y-6200000D01*
X18192857Y-6171428D01*
X18250000Y-6171428D01*
X18335714Y-6200000D01*
X18364285Y-6228571D01*
X18935714Y-6771428D02*
X18592857Y-6771428D01*
X18764285Y-6771428D02*
X18764285Y-6171428D01*
X18707142Y-6257142D01*
X18650000Y-6314285D01*
X18592857Y-6342857D01*
X19135714Y-6171428D02*
X19535714Y-6171428D01*
X19278571Y-6771428D01*
X8364285Y-6714285D02*
X8335714Y-6742857D01*
X8250000Y-6771428D01*
X8192857Y-6771428D01*
X8107142Y-6742857D01*
X8050000Y-6685714D01*
X8021428Y-6628571D01*
X7992857Y-6514285D01*
X7992857Y-6428571D01*
X8021428Y-6314285D01*
X8050000Y-6257142D01*
X8107142Y-6200000D01*
X8192857Y-6171428D01*
X8250000Y-6171428D01*
X8335714Y-6200000D01*
X8364285Y-6228571D01*
X8935714Y-6771428D02*
X8592857Y-6771428D01*
X8764285Y-6771428D02*
X8764285Y-6171428D01*
X8707142Y-6257142D01*
X8650000Y-6314285D01*
X8592857Y-6342857D01*
X9450000Y-6171428D02*
X9335714Y-6171428D01*
X9278571Y-6200000D01*
X9250000Y-6228571D01*
X9192857Y-6314285D01*
X9164285Y-6428571D01*
X9164285Y-6657142D01*
X9192857Y-6714285D01*
X9221428Y-6742857D01*
X9278571Y-6771428D01*
X9392857Y-6771428D01*
X9450000Y-6742857D01*
X9478571Y-6714285D01*
X9507142Y-6657142D01*
X9507142Y-6514285D01*
X9478571Y-6457142D01*
X9450000Y-6428571D01*
X9392857Y-6400000D01*
X9278571Y-6400000D01*
X9221428Y-6428571D01*
X9192857Y-6457142D01*
X9164285Y-6514285D01*
X35614285Y1585714D02*
X35585714Y1557142D01*
X35500000Y1528571D01*
X35442857Y1528571D01*
X35357142Y1557142D01*
X35300000Y1614285D01*
X35271428Y1671428D01*
X35242857Y1785714D01*
X35242857Y1871428D01*
X35271428Y1985714D01*
X35300000Y2042857D01*
X35357142Y2100000D01*
X35442857Y2128571D01*
X35500000Y2128571D01*
X35585714Y2100000D01*
X35614285Y2071428D01*
X36185714Y1528571D02*
X35842857Y1528571D01*
X36014285Y1528571D02*
X36014285Y2128571D01*
X35957142Y2042857D01*
X35900000Y1985714D01*
X35842857Y1957142D01*
X36414285Y2071428D02*
X36442857Y2100000D01*
X36500000Y2128571D01*
X36642857Y2128571D01*
X36700000Y2100000D01*
X36728571Y2071428D01*
X36757142Y2014285D01*
X36757142Y1957142D01*
X36728571Y1871428D01*
X36385714Y1528571D01*
X36757142Y1528571D01*
X35614285Y12885714D02*
X35585714Y12857142D01*
X35500000Y12828571D01*
X35442857Y12828571D01*
X35357142Y12857142D01*
X35300000Y12914285D01*
X35271428Y12971428D01*
X35242857Y13085714D01*
X35242857Y13171428D01*
X35271428Y13285714D01*
X35300000Y13342857D01*
X35357142Y13400000D01*
X35442857Y13428571D01*
X35500000Y13428571D01*
X35585714Y13400000D01*
X35614285Y13371428D01*
X36185714Y12828571D02*
X35842857Y12828571D01*
X36014285Y12828571D02*
X36014285Y13428571D01*
X35957142Y13342857D01*
X35900000Y13285714D01*
X35842857Y13257142D01*
X36757142Y12828571D02*
X36414285Y12828571D01*
X36585714Y12828571D02*
X36585714Y13428571D01*
X36528571Y13342857D01*
X36471428Y13285714D01*
X36414285Y13257142D01*
X35614285Y19885714D02*
X35585714Y19857142D01*
X35500000Y19828571D01*
X35442857Y19828571D01*
X35357142Y19857142D01*
X35300000Y19914285D01*
X35271428Y19971428D01*
X35242857Y20085714D01*
X35242857Y20171428D01*
X35271428Y20285714D01*
X35300000Y20342857D01*
X35357142Y20400000D01*
X35442857Y20428571D01*
X35500000Y20428571D01*
X35585714Y20400000D01*
X35614285Y20371428D01*
X36185714Y19828571D02*
X35842857Y19828571D01*
X36014285Y19828571D02*
X36014285Y20428571D01*
X35957142Y20342857D01*
X35900000Y20285714D01*
X35842857Y20257142D01*
X36557142Y20428571D02*
X36614285Y20428571D01*
X36671428Y20400000D01*
X36700000Y20371428D01*
X36728571Y20314285D01*
X36757142Y20200000D01*
X36757142Y20057142D01*
X36728571Y19942857D01*
X36700000Y19885714D01*
X36671428Y19857142D01*
X36614285Y19828571D01*
X36557142Y19828571D01*
X36500000Y19857142D01*
X36471428Y19885714D01*
X36442857Y19942857D01*
X36414285Y20057142D01*
X36414285Y20200000D01*
X36442857Y20314285D01*
X36471428Y20371428D01*
X36500000Y20400000D01*
X36557142Y20428571D01*
X30800000Y-2714285D02*
X30771428Y-2742857D01*
X30685714Y-2771428D01*
X30628571Y-2771428D01*
X30542857Y-2742857D01*
X30485714Y-2685714D01*
X30457142Y-2628571D01*
X30428571Y-2514285D01*
X30428571Y-2428571D01*
X30457142Y-2314285D01*
X30485714Y-2257142D01*
X30542857Y-2200000D01*
X30628571Y-2171428D01*
X30685714Y-2171428D01*
X30771428Y-2200000D01*
X30800000Y-2228571D01*
X31314285Y-2371428D02*
X31314285Y-2771428D01*
X31171428Y-2142857D02*
X31028571Y-2571428D01*
X31400000Y-2571428D01*
X-31300000Y2285714D02*
X-31328571Y2257142D01*
X-31414285Y2228571D01*
X-31471428Y2228571D01*
X-31557142Y2257142D01*
X-31614285Y2314285D01*
X-31642857Y2371428D01*
X-31671428Y2485714D01*
X-31671428Y2571428D01*
X-31642857Y2685714D01*
X-31614285Y2742857D01*
X-31557142Y2800000D01*
X-31471428Y2828571D01*
X-31414285Y2828571D01*
X-31328571Y2800000D01*
X-31300000Y2771428D01*
X-31100000Y2828571D02*
X-30728571Y2828571D01*
X-30928571Y2600000D01*
X-30842857Y2600000D01*
X-30785714Y2571428D01*
X-30757142Y2542857D01*
X-30728571Y2485714D01*
X-30728571Y2342857D01*
X-30757142Y2285714D01*
X-30785714Y2257142D01*
X-30842857Y2228571D01*
X-31014285Y2228571D01*
X-31071428Y2257142D01*
X-31100000Y2285714D01*
X-99999Y-5014285D02*
X-128571Y-5042857D01*
X-214285Y-5071428D01*
X-271428Y-5071428D01*
X-357142Y-5042857D01*
X-414285Y-4985714D01*
X-442857Y-4928571D01*
X-471428Y-4814285D01*
X-471428Y-4728571D01*
X-442857Y-4614285D01*
X-414285Y-4557142D01*
X-357142Y-4500000D01*
X-271428Y-4471428D01*
X-214285Y-4471428D01*
X-128571Y-4500000D01*
X-99999Y-4528571D01*
X128571Y-4528571D02*
X157142Y-4500000D01*
X214285Y-4471428D01*
X357142Y-4471428D01*
X414285Y-4500000D01*
X442857Y-4528571D01*
X471428Y-4585714D01*
X471428Y-4642857D01*
X442857Y-4728571D01*
X100000Y-5071428D01*
X471428Y-5071428D01*
X-99999Y-15464285D02*
X-128571Y-15492857D01*
X-214285Y-15521428D01*
X-271428Y-15521428D01*
X-357142Y-15492857D01*
X-414285Y-15435714D01*
X-442857Y-15378571D01*
X-471428Y-15264285D01*
X-471428Y-15178571D01*
X-442857Y-15064285D01*
X-414285Y-15007142D01*
X-357142Y-14950000D01*
X-271428Y-14921428D01*
X-214285Y-14921428D01*
X-128571Y-14950000D01*
X-99999Y-14978571D01*
X471428Y-15521428D02*
X128571Y-15521428D01*
X300000Y-15521428D02*
X300000Y-14921428D01*
X242857Y-15007142D01*
X185714Y-15064285D01*
X128571Y-15092857D01*
X14542857Y1728571D02*
X14542857Y1242857D01*
X14571428Y1185714D01*
X14600000Y1157142D01*
X14657142Y1128571D01*
X14771428Y1128571D01*
X14828571Y1157142D01*
X14857142Y1185714D01*
X14885714Y1242857D01*
X14885714Y1728571D01*
X15114285Y1728571D02*
X15485714Y1728571D01*
X15285714Y1500000D01*
X15371428Y1500000D01*
X15428571Y1471428D01*
X15457142Y1442857D01*
X15485714Y1385714D01*
X15485714Y1242857D01*
X15457142Y1185714D01*
X15428571Y1157142D01*
X15371428Y1128571D01*
X15200000Y1128571D01*
X15142857Y1157142D01*
X15114285Y1185714D01*
X23071428Y3614285D02*
X22785714Y3414285D01*
X23071428Y3271428D02*
X22471428Y3271428D01*
X22471428Y3500000D01*
X22500000Y3557142D01*
X22528571Y3585714D01*
X22585714Y3614285D01*
X22671428Y3614285D01*
X22728571Y3585714D01*
X22757142Y3557142D01*
X22785714Y3500000D01*
X22785714Y3271428D01*
X23071428Y4185714D02*
X23071428Y3842857D01*
X23071428Y4014285D02*
X22471428Y4014285D01*
X22557142Y3957142D01*
X22614285Y3900000D01*
X22642857Y3842857D01*
X22471428Y4557142D02*
X22471428Y4614285D01*
X22500000Y4671428D01*
X22528571Y4700000D01*
X22585714Y4728571D01*
X22700000Y4757142D01*
X22842857Y4757142D01*
X22957142Y4728571D01*
X23014285Y4700000D01*
X23042857Y4671428D01*
X23071428Y4614285D01*
X23071428Y4557142D01*
X23042857Y4500000D01*
X23014285Y4471428D01*
X22957142Y4442857D01*
X22842857Y4414285D01*
X22700000Y4414285D01*
X22585714Y4442857D01*
X22528571Y4471428D01*
X22500000Y4500000D01*
X22471428Y4557142D01*
X23071428Y10900000D02*
X22785714Y10700000D01*
X23071428Y10557142D02*
X22471428Y10557142D01*
X22471428Y10785714D01*
X22500000Y10842857D01*
X22528571Y10871428D01*
X22585714Y10900000D01*
X22671428Y10900000D01*
X22728571Y10871428D01*
X22757142Y10842857D01*
X22785714Y10785714D01*
X22785714Y10557142D01*
X23071428Y11185714D02*
X23071428Y11300000D01*
X23042857Y11357142D01*
X23014285Y11385714D01*
X22928571Y11442857D01*
X22814285Y11471428D01*
X22585714Y11471428D01*
X22528571Y11442857D01*
X22500000Y11414285D01*
X22471428Y11357142D01*
X22471428Y11242857D01*
X22500000Y11185714D01*
X22528571Y11157142D01*
X22585714Y11128571D01*
X22728571Y11128571D01*
X22785714Y11157142D01*
X22814285Y11185714D01*
X22842857Y11242857D01*
X22842857Y11357142D01*
X22814285Y11414285D01*
X22785714Y11442857D01*
X22728571Y11471428D01*
X23071428Y17900000D02*
X22785714Y17700000D01*
X23071428Y17557142D02*
X22471428Y17557142D01*
X22471428Y17785714D01*
X22500000Y17842857D01*
X22528571Y17871428D01*
X22585714Y17900000D01*
X22671428Y17900000D01*
X22728571Y17871428D01*
X22757142Y17842857D01*
X22785714Y17785714D01*
X22785714Y17557142D01*
X22728571Y18242857D02*
X22700000Y18185714D01*
X22671428Y18157142D01*
X22614285Y18128571D01*
X22585714Y18128571D01*
X22528571Y18157142D01*
X22500000Y18185714D01*
X22471428Y18242857D01*
X22471428Y18357142D01*
X22500000Y18414285D01*
X22528571Y18442857D01*
X22585714Y18471428D01*
X22614285Y18471428D01*
X22671428Y18442857D01*
X22700000Y18414285D01*
X22728571Y18357142D01*
X22728571Y18242857D01*
X22757142Y18185714D01*
X22785714Y18157142D01*
X22842857Y18128571D01*
X22957142Y18128571D01*
X23014285Y18157142D01*
X23042857Y18185714D01*
X23071428Y18242857D01*
X23071428Y18357142D01*
X23042857Y18414285D01*
X23014285Y18442857D01*
X22957142Y18471428D01*
X22842857Y18471428D01*
X22785714Y18442857D01*
X22757142Y18414285D01*
X22728571Y18357142D01*
X-6100000Y22628571D02*
X-6300000Y22914285D01*
X-6442857Y22628571D02*
X-6442857Y23228571D01*
X-6214285Y23228571D01*
X-6157142Y23200000D01*
X-6128571Y23171428D01*
X-6100000Y23114285D01*
X-6100000Y23028571D01*
X-6128571Y22971428D01*
X-6157142Y22942857D01*
X-6214285Y22914285D01*
X-6442857Y22914285D01*
X-5557142Y23228571D02*
X-5842857Y23228571D01*
X-5871428Y22942857D01*
X-5842857Y22971428D01*
X-5785714Y23000000D01*
X-5642857Y23000000D01*
X-5585714Y22971428D01*
X-5557142Y22942857D01*
X-5528571Y22885714D01*
X-5528571Y22742857D01*
X-5557142Y22685714D01*
X-5585714Y22657142D01*
X-5642857Y22628571D01*
X-5785714Y22628571D01*
X-5842857Y22657142D01*
X-5871428Y22685714D01*
X29942857Y6771428D02*
X29885714Y6800000D01*
X29828571Y6857142D01*
X29742857Y6942857D01*
X29685714Y6971428D01*
X29628571Y6971428D01*
X29657142Y6828571D02*
X29600000Y6857142D01*
X29542857Y6914285D01*
X29514285Y7028571D01*
X29514285Y7228571D01*
X29542857Y7342857D01*
X29600000Y7400000D01*
X29657142Y7428571D01*
X29771428Y7428571D01*
X29828571Y7400000D01*
X29885714Y7342857D01*
X29914285Y7228571D01*
X29914285Y7028571D01*
X29885714Y6914285D01*
X29828571Y6857142D01*
X29771428Y6828571D01*
X29657142Y6828571D01*
X30114285Y7428571D02*
X30485714Y7428571D01*
X30285714Y7200000D01*
X30371428Y7200000D01*
X30428571Y7171428D01*
X30457142Y7142857D01*
X30485714Y7085714D01*
X30485714Y6942857D01*
X30457142Y6885714D01*
X30428571Y6857142D01*
X30371428Y6828571D01*
X30200000Y6828571D01*
X30142857Y6857142D01*
X30114285Y6885714D01*
X29942857Y13771428D02*
X29885714Y13800000D01*
X29828571Y13857142D01*
X29742857Y13942857D01*
X29685714Y13971428D01*
X29628571Y13971428D01*
X29657142Y13828571D02*
X29600000Y13857142D01*
X29542857Y13914285D01*
X29514285Y14028571D01*
X29514285Y14228571D01*
X29542857Y14342857D01*
X29600000Y14400000D01*
X29657142Y14428571D01*
X29771428Y14428571D01*
X29828571Y14400000D01*
X29885714Y14342857D01*
X29914285Y14228571D01*
X29914285Y14028571D01*
X29885714Y13914285D01*
X29828571Y13857142D01*
X29771428Y13828571D01*
X29657142Y13828571D01*
X30142857Y14371428D02*
X30171428Y14400000D01*
X30228571Y14428571D01*
X30371428Y14428571D01*
X30428571Y14400000D01*
X30457142Y14371428D01*
X30485714Y14314285D01*
X30485714Y14257142D01*
X30457142Y14171428D01*
X30114285Y13828571D01*
X30485714Y13828571D01*
X29942857Y20771428D02*
X29885714Y20800000D01*
X29828571Y20857142D01*
X29742857Y20942857D01*
X29685714Y20971428D01*
X29628571Y20971428D01*
X29657142Y20828571D02*
X29600000Y20857142D01*
X29542857Y20914285D01*
X29514285Y21028571D01*
X29514285Y21228571D01*
X29542857Y21342857D01*
X29600000Y21400000D01*
X29657142Y21428571D01*
X29771428Y21428571D01*
X29828571Y21400000D01*
X29885714Y21342857D01*
X29914285Y21228571D01*
X29914285Y21028571D01*
X29885714Y20914285D01*
X29828571Y20857142D01*
X29771428Y20828571D01*
X29657142Y20828571D01*
X30485714Y20828571D02*
X30142857Y20828571D01*
X30314285Y20828571D02*
X30314285Y21428571D01*
X30257142Y21342857D01*
X30200000Y21285714D01*
X30142857Y21257142D01*
X5800000Y24628571D02*
X5800000Y24200000D01*
X5771428Y24114285D01*
X5714285Y24057142D01*
X5628571Y24028571D01*
X5571428Y24028571D01*
X6342857Y24428571D02*
X6342857Y24028571D01*
X6200000Y24657142D02*
X6057142Y24228571D01*
X6428571Y24228571D01*
X29171428Y22800000D02*
X29600000Y22800000D01*
X29685714Y22771428D01*
X29742857Y22714285D01*
X29771428Y22628571D01*
X29771428Y22571428D01*
X29171428Y23028571D02*
X29171428Y23400000D01*
X29400000Y23200000D01*
X29400000Y23285714D01*
X29428571Y23342857D01*
X29457142Y23371428D01*
X29514285Y23400000D01*
X29657142Y23400000D01*
X29714285Y23371428D01*
X29742857Y23342857D01*
X29771428Y23285714D01*
X29771428Y23114285D01*
X29742857Y23057142D01*
X29714285Y23028571D01*
X13057142Y20228571D02*
X13057142Y20828571D01*
X13200000Y20828571D01*
X13285714Y20800000D01*
X13342857Y20742857D01*
X13371428Y20685714D01*
X13400000Y20571428D01*
X13400000Y20485714D01*
X13371428Y20371428D01*
X13342857Y20314285D01*
X13285714Y20257142D01*
X13200000Y20228571D01*
X13057142Y20228571D01*
X13742857Y20571428D02*
X13685714Y20600000D01*
X13657142Y20628571D01*
X13628571Y20685714D01*
X13628571Y20714285D01*
X13657142Y20771428D01*
X13685714Y20800000D01*
X13742857Y20828571D01*
X13857142Y20828571D01*
X13914285Y20800000D01*
X13942857Y20771428D01*
X13971428Y20714285D01*
X13971428Y20685714D01*
X13942857Y20628571D01*
X13914285Y20600000D01*
X13857142Y20571428D01*
X13742857Y20571428D01*
X13685714Y20542857D01*
X13657142Y20514285D01*
X13628571Y20457142D01*
X13628571Y20342857D01*
X13657142Y20285714D01*
X13685714Y20257142D01*
X13742857Y20228571D01*
X13857142Y20228571D01*
X13914285Y20257142D01*
X13942857Y20285714D01*
X13971428Y20342857D01*
X13971428Y20457142D01*
X13942857Y20514285D01*
X13914285Y20542857D01*
X13857142Y20571428D01*
X16557142Y20228571D02*
X16557142Y20828571D01*
X16700000Y20828571D01*
X16785714Y20800000D01*
X16842857Y20742857D01*
X16871428Y20685714D01*
X16900000Y20571428D01*
X16900000Y20485714D01*
X16871428Y20371428D01*
X16842857Y20314285D01*
X16785714Y20257142D01*
X16700000Y20228571D01*
X16557142Y20228571D01*
X17100000Y20828571D02*
X17500000Y20828571D01*
X17242857Y20228571D01*
X20057142Y20228571D02*
X20057142Y20828571D01*
X20200000Y20828571D01*
X20285714Y20800000D01*
X20342857Y20742857D01*
X20371428Y20685714D01*
X20400000Y20571428D01*
X20400000Y20485714D01*
X20371428Y20371428D01*
X20342857Y20314285D01*
X20285714Y20257142D01*
X20200000Y20228571D01*
X20057142Y20228571D01*
X20914285Y20828571D02*
X20800000Y20828571D01*
X20742857Y20800000D01*
X20714285Y20771428D01*
X20657142Y20685714D01*
X20628571Y20571428D01*
X20628571Y20342857D01*
X20657142Y20285714D01*
X20685714Y20257142D01*
X20742857Y20228571D01*
X20857142Y20228571D01*
X20914285Y20257142D01*
X20942857Y20285714D01*
X20971428Y20342857D01*
X20971428Y20485714D01*
X20942857Y20542857D01*
X20914285Y20571428D01*
X20857142Y20600000D01*
X20742857Y20600000D01*
X20685714Y20571428D01*
X20657142Y20542857D01*
X20628571Y20485714D01*
X11600000Y20285714D02*
X11571428Y20257142D01*
X11485714Y20228571D01*
X11428571Y20228571D01*
X11342857Y20257142D01*
X11285714Y20314285D01*
X11257142Y20371428D01*
X11228571Y20485714D01*
X11228571Y20571428D01*
X11257142Y20685714D01*
X11285714Y20742857D01*
X11342857Y20800000D01*
X11428571Y20828571D01*
X11485714Y20828571D01*
X11571428Y20800000D01*
X11600000Y20771428D01*
X11942857Y20571428D02*
X11885714Y20600000D01*
X11857142Y20628571D01*
X11828571Y20685714D01*
X11828571Y20714285D01*
X11857142Y20771428D01*
X11885714Y20800000D01*
X11942857Y20828571D01*
X12057142Y20828571D01*
X12114285Y20800000D01*
X12142857Y20771428D01*
X12171428Y20714285D01*
X12171428Y20685714D01*
X12142857Y20628571D01*
X12114285Y20600000D01*
X12057142Y20571428D01*
X11942857Y20571428D01*
X11885714Y20542857D01*
X11857142Y20514285D01*
X11828571Y20457142D01*
X11828571Y20342857D01*
X11857142Y20285714D01*
X11885714Y20257142D01*
X11942857Y20228571D01*
X12057142Y20228571D01*
X12114285Y20257142D01*
X12142857Y20285714D01*
X12171428Y20342857D01*
X12171428Y20457142D01*
X12142857Y20514285D01*
X12114285Y20542857D01*
X12057142Y20571428D01*
X15150000Y20285714D02*
X15121428Y20257142D01*
X15035714Y20228571D01*
X14978571Y20228571D01*
X14892857Y20257142D01*
X14835714Y20314285D01*
X14807142Y20371428D01*
X14778571Y20485714D01*
X14778571Y20571428D01*
X14807142Y20685714D01*
X14835714Y20742857D01*
X14892857Y20800000D01*
X14978571Y20828571D01*
X15035714Y20828571D01*
X15121428Y20800000D01*
X15150000Y20771428D01*
X15350000Y20828571D02*
X15750000Y20828571D01*
X15492857Y20228571D01*
X18650000Y20285714D02*
X18621428Y20257142D01*
X18535714Y20228571D01*
X18478571Y20228571D01*
X18392857Y20257142D01*
X18335714Y20314285D01*
X18307142Y20371428D01*
X18278571Y20485714D01*
X18278571Y20571428D01*
X18307142Y20685714D01*
X18335714Y20742857D01*
X18392857Y20800000D01*
X18478571Y20828571D01*
X18535714Y20828571D01*
X18621428Y20800000D01*
X18650000Y20771428D01*
X19164285Y20828571D02*
X19050000Y20828571D01*
X18992857Y20800000D01*
X18964285Y20771428D01*
X18907142Y20685714D01*
X18878571Y20571428D01*
X18878571Y20342857D01*
X18907142Y20285714D01*
X18935714Y20257142D01*
X18992857Y20228571D01*
X19107142Y20228571D01*
X19164285Y20257142D01*
X19192857Y20285714D01*
X19221428Y20342857D01*
X19221428Y20485714D01*
X19192857Y20542857D01*
X19164285Y20571428D01*
X19107142Y20600000D01*
X18992857Y20600000D01*
X18935714Y20571428D01*
X18907142Y20542857D01*
X18878571Y20485714D01*
X8650000Y20285714D02*
X8621428Y20257142D01*
X8535714Y20228571D01*
X8478571Y20228571D01*
X8392857Y20257142D01*
X8335714Y20314285D01*
X8307142Y20371428D01*
X8278571Y20485714D01*
X8278571Y20571428D01*
X8307142Y20685714D01*
X8335714Y20742857D01*
X8392857Y20800000D01*
X8478571Y20828571D01*
X8535714Y20828571D01*
X8621428Y20800000D01*
X8650000Y20771428D01*
X9192857Y20828571D02*
X8907142Y20828571D01*
X8878571Y20542857D01*
X8907142Y20571428D01*
X8964285Y20600000D01*
X9107142Y20600000D01*
X9164285Y20571428D01*
X9192857Y20542857D01*
X9221428Y20485714D01*
X9221428Y20342857D01*
X9192857Y20285714D01*
X9164285Y20257142D01*
X9107142Y20228571D01*
X8964285Y20228571D01*
X8907142Y20257142D01*
X8878571Y20285714D01*
M02*
