M48
; DRILL file {KiCad (5.1.9-0-10_14)} date Tuesday, April 27, 2021 at 10:18:30 PM
; FORMAT={-:-/ absolute / metric / decimal}
; #@! TF.CreationDate,2021-04-27T22:18:30+09:00
; #@! TF.GenerationSoftware,Kicad,Pcbnew,(5.1.9-0-10_14)
FMAT,2
METRIC
T1C0.305
T2C0.700
T3C1.000
T4C1.100
%
G90
G05
T1
X-28.355Y-2.913
X-26.6Y2.884
X-25.967Y-10.881
X-21.044Y3.306
X-20.214Y9.225
X-19.242Y4.711
X-16.733Y-9.008
X-15.358Y9.86
X-7.568Y1.988
X-7.554Y13.014
T2
X-36.195Y2.54
X-36.195Y1.27
X-36.195Y0.0
X-36.195Y-1.27
X-36.195Y-2.54
T3
X-36.195Y8.89
X-36.195Y6.35
X-35.9Y-9.1
X-35.9Y-11.6
X-35.9Y-14.1
X-33.4Y-9.1
X-33.4Y-11.6
X-33.4Y-14.1
X-33.02Y15.24
X-30.48Y15.24
X-27.94Y15.24
X-22.86Y15.24
X-20.32Y15.24
X-17.78Y15.24
X-15.24Y15.24
X-12.7Y15.24
X-10.16Y15.24
X10.16Y2.54
X10.16Y0.0
X10.16Y-2.54
T4
X-4.0Y13.54
X-4.0Y11.0
X-4.0Y8.46
X-4.0Y2.54
X-4.0Y0.0
X-4.0Y-2.54
X-4.0Y-8.46
X-4.0Y-11.0
X-4.0Y-13.54
X0.0Y13.54
X0.0Y11.0
X0.0Y8.46
X0.0Y2.54
X0.0Y0.0
X0.0Y-2.54
X0.0Y-8.46
X0.0Y-11.0
X0.0Y-13.54
T0
M30
