G04 #@! TF.GenerationSoftware,KiCad,Pcbnew,(5.1.10-1-10_14)*
G04 #@! TF.CreationDate,2021-08-08T19:50:54+09:00*
G04 #@! TF.ProjectId,BldcDriver,426c6463-4472-4697-9665-722e6b696361,V4.0*
G04 #@! TF.SameCoordinates,Original*
G04 #@! TF.FileFunction,Soldermask,Top*
G04 #@! TF.FilePolarity,Negative*
%FSLAX46Y46*%
G04 Gerber Fmt 4.6, Leading zero omitted, Abs format (unit mm)*
G04 Created by KiCad (PCBNEW (5.1.10-1-10_14)) date 2021-08-08 19:50:54*
%MOMM*%
%LPD*%
G01*
G04 APERTURE LIST*
%ADD10C,2.000000*%
%ADD11C,4.300000*%
%ADD12C,1.300000*%
%ADD13O,1.450000X1.450000*%
%ADD14R,0.700000X1.500000*%
%ADD15C,0.100000*%
%ADD16R,3.545000X4.410000*%
%ADD17R,1.500000X0.600000*%
%ADD18R,1.350000X0.600000*%
%ADD19O,1.950000X1.700000*%
%ADD20O,1.300000X1.300000*%
%ADD21R,1.000000X1.000000*%
%ADD22O,1.000000X1.000000*%
%ADD23R,1.200000X0.900000*%
G04 APERTURE END LIST*
D10*
X-37000000Y-23000000D03*
X37000000Y23000000D03*
D11*
X0Y0D03*
D12*
X0Y19000000D03*
X0Y15500000D03*
X0Y12000000D03*
X0Y8500000D03*
D13*
X-1270000Y-25000000D03*
X1230000Y-25000000D03*
X-39000000Y-8500000D03*
X-39000000Y-11000000D03*
X-39000000Y-13500000D03*
X2500000Y25000000D03*
X0Y25000000D03*
X-2500000Y25000000D03*
X39000000Y-18500000D03*
X39000000Y-16000000D03*
X39000000Y-13500000D03*
X39000000Y8500000D03*
X39000000Y11000000D03*
X39000000Y13500000D03*
G36*
G01*
X-18625000Y7895000D02*
X-18625000Y7595000D01*
G75*
G02*
X-18775000Y7445000I-150000J0D01*
G01*
X-20525000Y7445000D01*
G75*
G02*
X-20675000Y7595000I0J150000D01*
G01*
X-20675000Y7895000D01*
G75*
G02*
X-20525000Y8045000I150000J0D01*
G01*
X-18775000Y8045000D01*
G75*
G02*
X-18625000Y7895000I0J-150000D01*
G01*
G37*
G36*
G01*
X-18625000Y9165000D02*
X-18625000Y8865000D01*
G75*
G02*
X-18775000Y8715000I-150000J0D01*
G01*
X-20525000Y8715000D01*
G75*
G02*
X-20675000Y8865000I0J150000D01*
G01*
X-20675000Y9165000D01*
G75*
G02*
X-20525000Y9315000I150000J0D01*
G01*
X-18775000Y9315000D01*
G75*
G02*
X-18625000Y9165000I0J-150000D01*
G01*
G37*
G36*
G01*
X-18625000Y10435000D02*
X-18625000Y10135000D01*
G75*
G02*
X-18775000Y9985000I-150000J0D01*
G01*
X-20525000Y9985000D01*
G75*
G02*
X-20675000Y10135000I0J150000D01*
G01*
X-20675000Y10435000D01*
G75*
G02*
X-20525000Y10585000I150000J0D01*
G01*
X-18775000Y10585000D01*
G75*
G02*
X-18625000Y10435000I0J-150000D01*
G01*
G37*
G36*
G01*
X-18625000Y11705000D02*
X-18625000Y11405000D01*
G75*
G02*
X-18775000Y11255000I-150000J0D01*
G01*
X-20525000Y11255000D01*
G75*
G02*
X-20675000Y11405000I0J150000D01*
G01*
X-20675000Y11705000D01*
G75*
G02*
X-20525000Y11855000I150000J0D01*
G01*
X-18775000Y11855000D01*
G75*
G02*
X-18625000Y11705000I0J-150000D01*
G01*
G37*
G36*
G01*
X-18625000Y12975000D02*
X-18625000Y12675000D01*
G75*
G02*
X-18775000Y12525000I-150000J0D01*
G01*
X-20525000Y12525000D01*
G75*
G02*
X-20675000Y12675000I0J150000D01*
G01*
X-20675000Y12975000D01*
G75*
G02*
X-20525000Y13125000I150000J0D01*
G01*
X-18775000Y13125000D01*
G75*
G02*
X-18625000Y12975000I0J-150000D01*
G01*
G37*
G36*
G01*
X-18625000Y14245000D02*
X-18625000Y13945000D01*
G75*
G02*
X-18775000Y13795000I-150000J0D01*
G01*
X-20525000Y13795000D01*
G75*
G02*
X-20675000Y13945000I0J150000D01*
G01*
X-20675000Y14245000D01*
G75*
G02*
X-20525000Y14395000I150000J0D01*
G01*
X-18775000Y14395000D01*
G75*
G02*
X-18625000Y14245000I0J-150000D01*
G01*
G37*
G36*
G01*
X-18625000Y15515000D02*
X-18625000Y15215000D01*
G75*
G02*
X-18775000Y15065000I-150000J0D01*
G01*
X-20525000Y15065000D01*
G75*
G02*
X-20675000Y15215000I0J150000D01*
G01*
X-20675000Y15515000D01*
G75*
G02*
X-20525000Y15665000I150000J0D01*
G01*
X-18775000Y15665000D01*
G75*
G02*
X-18625000Y15515000I0J-150000D01*
G01*
G37*
G36*
G01*
X-18625000Y16785000D02*
X-18625000Y16485000D01*
G75*
G02*
X-18775000Y16335000I-150000J0D01*
G01*
X-20525000Y16335000D01*
G75*
G02*
X-20675000Y16485000I0J150000D01*
G01*
X-20675000Y16785000D01*
G75*
G02*
X-20525000Y16935000I150000J0D01*
G01*
X-18775000Y16935000D01*
G75*
G02*
X-18625000Y16785000I0J-150000D01*
G01*
G37*
G36*
G01*
X-18625000Y18055000D02*
X-18625000Y17755000D01*
G75*
G02*
X-18775000Y17605000I-150000J0D01*
G01*
X-20525000Y17605000D01*
G75*
G02*
X-20675000Y17755000I0J150000D01*
G01*
X-20675000Y18055000D01*
G75*
G02*
X-20525000Y18205000I150000J0D01*
G01*
X-18775000Y18205000D01*
G75*
G02*
X-18625000Y18055000I0J-150000D01*
G01*
G37*
G36*
G01*
X-18625000Y19325000D02*
X-18625000Y19025000D01*
G75*
G02*
X-18775000Y18875000I-150000J0D01*
G01*
X-20525000Y18875000D01*
G75*
G02*
X-20675000Y19025000I0J150000D01*
G01*
X-20675000Y19325000D01*
G75*
G02*
X-20525000Y19475000I150000J0D01*
G01*
X-18775000Y19475000D01*
G75*
G02*
X-18625000Y19325000I0J-150000D01*
G01*
G37*
G36*
G01*
X-18625000Y20595000D02*
X-18625000Y20295000D01*
G75*
G02*
X-18775000Y20145000I-150000J0D01*
G01*
X-20525000Y20145000D01*
G75*
G02*
X-20675000Y20295000I0J150000D01*
G01*
X-20675000Y20595000D01*
G75*
G02*
X-20525000Y20745000I150000J0D01*
G01*
X-18775000Y20745000D01*
G75*
G02*
X-18625000Y20595000I0J-150000D01*
G01*
G37*
G36*
G01*
X-18625000Y21865000D02*
X-18625000Y21565000D01*
G75*
G02*
X-18775000Y21415000I-150000J0D01*
G01*
X-20525000Y21415000D01*
G75*
G02*
X-20675000Y21565000I0J150000D01*
G01*
X-20675000Y21865000D01*
G75*
G02*
X-20525000Y22015000I150000J0D01*
G01*
X-18775000Y22015000D01*
G75*
G02*
X-18625000Y21865000I0J-150000D01*
G01*
G37*
G36*
G01*
X-18625000Y23135000D02*
X-18625000Y22835000D01*
G75*
G02*
X-18775000Y22685000I-150000J0D01*
G01*
X-20525000Y22685000D01*
G75*
G02*
X-20675000Y22835000I0J150000D01*
G01*
X-20675000Y23135000D01*
G75*
G02*
X-20525000Y23285000I150000J0D01*
G01*
X-18775000Y23285000D01*
G75*
G02*
X-18625000Y23135000I0J-150000D01*
G01*
G37*
G36*
G01*
X-18625000Y24405000D02*
X-18625000Y24105000D01*
G75*
G02*
X-18775000Y23955000I-150000J0D01*
G01*
X-20525000Y23955000D01*
G75*
G02*
X-20675000Y24105000I0J150000D01*
G01*
X-20675000Y24405000D01*
G75*
G02*
X-20525000Y24555000I150000J0D01*
G01*
X-18775000Y24555000D01*
G75*
G02*
X-18625000Y24405000I0J-150000D01*
G01*
G37*
G36*
G01*
X-9325000Y24405000D02*
X-9325000Y24105000D01*
G75*
G02*
X-9475000Y23955000I-150000J0D01*
G01*
X-11225000Y23955000D01*
G75*
G02*
X-11375000Y24105000I0J150000D01*
G01*
X-11375000Y24405000D01*
G75*
G02*
X-11225000Y24555000I150000J0D01*
G01*
X-9475000Y24555000D01*
G75*
G02*
X-9325000Y24405000I0J-150000D01*
G01*
G37*
G36*
G01*
X-9325000Y23135000D02*
X-9325000Y22835000D01*
G75*
G02*
X-9475000Y22685000I-150000J0D01*
G01*
X-11225000Y22685000D01*
G75*
G02*
X-11375000Y22835000I0J150000D01*
G01*
X-11375000Y23135000D01*
G75*
G02*
X-11225000Y23285000I150000J0D01*
G01*
X-9475000Y23285000D01*
G75*
G02*
X-9325000Y23135000I0J-150000D01*
G01*
G37*
G36*
G01*
X-9325000Y21865000D02*
X-9325000Y21565000D01*
G75*
G02*
X-9475000Y21415000I-150000J0D01*
G01*
X-11225000Y21415000D01*
G75*
G02*
X-11375000Y21565000I0J150000D01*
G01*
X-11375000Y21865000D01*
G75*
G02*
X-11225000Y22015000I150000J0D01*
G01*
X-9475000Y22015000D01*
G75*
G02*
X-9325000Y21865000I0J-150000D01*
G01*
G37*
G36*
G01*
X-9325000Y20595000D02*
X-9325000Y20295000D01*
G75*
G02*
X-9475000Y20145000I-150000J0D01*
G01*
X-11225000Y20145000D01*
G75*
G02*
X-11375000Y20295000I0J150000D01*
G01*
X-11375000Y20595000D01*
G75*
G02*
X-11225000Y20745000I150000J0D01*
G01*
X-9475000Y20745000D01*
G75*
G02*
X-9325000Y20595000I0J-150000D01*
G01*
G37*
G36*
G01*
X-9325000Y19325000D02*
X-9325000Y19025000D01*
G75*
G02*
X-9475000Y18875000I-150000J0D01*
G01*
X-11225000Y18875000D01*
G75*
G02*
X-11375000Y19025000I0J150000D01*
G01*
X-11375000Y19325000D01*
G75*
G02*
X-11225000Y19475000I150000J0D01*
G01*
X-9475000Y19475000D01*
G75*
G02*
X-9325000Y19325000I0J-150000D01*
G01*
G37*
G36*
G01*
X-9325000Y18055000D02*
X-9325000Y17755000D01*
G75*
G02*
X-9475000Y17605000I-150000J0D01*
G01*
X-11225000Y17605000D01*
G75*
G02*
X-11375000Y17755000I0J150000D01*
G01*
X-11375000Y18055000D01*
G75*
G02*
X-11225000Y18205000I150000J0D01*
G01*
X-9475000Y18205000D01*
G75*
G02*
X-9325000Y18055000I0J-150000D01*
G01*
G37*
G36*
G01*
X-9325000Y16785000D02*
X-9325000Y16485000D01*
G75*
G02*
X-9475000Y16335000I-150000J0D01*
G01*
X-11225000Y16335000D01*
G75*
G02*
X-11375000Y16485000I0J150000D01*
G01*
X-11375000Y16785000D01*
G75*
G02*
X-11225000Y16935000I150000J0D01*
G01*
X-9475000Y16935000D01*
G75*
G02*
X-9325000Y16785000I0J-150000D01*
G01*
G37*
G36*
G01*
X-9325000Y15515000D02*
X-9325000Y15215000D01*
G75*
G02*
X-9475000Y15065000I-150000J0D01*
G01*
X-11225000Y15065000D01*
G75*
G02*
X-11375000Y15215000I0J150000D01*
G01*
X-11375000Y15515000D01*
G75*
G02*
X-11225000Y15665000I150000J0D01*
G01*
X-9475000Y15665000D01*
G75*
G02*
X-9325000Y15515000I0J-150000D01*
G01*
G37*
G36*
G01*
X-9325000Y14245000D02*
X-9325000Y13945000D01*
G75*
G02*
X-9475000Y13795000I-150000J0D01*
G01*
X-11225000Y13795000D01*
G75*
G02*
X-11375000Y13945000I0J150000D01*
G01*
X-11375000Y14245000D01*
G75*
G02*
X-11225000Y14395000I150000J0D01*
G01*
X-9475000Y14395000D01*
G75*
G02*
X-9325000Y14245000I0J-150000D01*
G01*
G37*
G36*
G01*
X-9325000Y12975000D02*
X-9325000Y12675000D01*
G75*
G02*
X-9475000Y12525000I-150000J0D01*
G01*
X-11225000Y12525000D01*
G75*
G02*
X-11375000Y12675000I0J150000D01*
G01*
X-11375000Y12975000D01*
G75*
G02*
X-11225000Y13125000I150000J0D01*
G01*
X-9475000Y13125000D01*
G75*
G02*
X-9325000Y12975000I0J-150000D01*
G01*
G37*
G36*
G01*
X-9325000Y11705000D02*
X-9325000Y11405000D01*
G75*
G02*
X-9475000Y11255000I-150000J0D01*
G01*
X-11225000Y11255000D01*
G75*
G02*
X-11375000Y11405000I0J150000D01*
G01*
X-11375000Y11705000D01*
G75*
G02*
X-11225000Y11855000I150000J0D01*
G01*
X-9475000Y11855000D01*
G75*
G02*
X-9325000Y11705000I0J-150000D01*
G01*
G37*
G36*
G01*
X-9325000Y10435000D02*
X-9325000Y10135000D01*
G75*
G02*
X-9475000Y9985000I-150000J0D01*
G01*
X-11225000Y9985000D01*
G75*
G02*
X-11375000Y10135000I0J150000D01*
G01*
X-11375000Y10435000D01*
G75*
G02*
X-11225000Y10585000I150000J0D01*
G01*
X-9475000Y10585000D01*
G75*
G02*
X-9325000Y10435000I0J-150000D01*
G01*
G37*
G36*
G01*
X-9325000Y9165000D02*
X-9325000Y8865000D01*
G75*
G02*
X-9475000Y8715000I-150000J0D01*
G01*
X-11225000Y8715000D01*
G75*
G02*
X-11375000Y8865000I0J150000D01*
G01*
X-11375000Y9165000D01*
G75*
G02*
X-11225000Y9315000I150000J0D01*
G01*
X-9475000Y9315000D01*
G75*
G02*
X-9325000Y9165000I0J-150000D01*
G01*
G37*
G36*
G01*
X-9325000Y7895000D02*
X-9325000Y7595000D01*
G75*
G02*
X-9475000Y7445000I-150000J0D01*
G01*
X-11225000Y7445000D01*
G75*
G02*
X-11375000Y7595000I0J150000D01*
G01*
X-11375000Y7895000D01*
G75*
G02*
X-11225000Y8045000I150000J0D01*
G01*
X-9475000Y8045000D01*
G75*
G02*
X-9325000Y7895000I0J-150000D01*
G01*
G37*
G36*
G01*
X-18625000Y-19105000D02*
X-18625000Y-19405000D01*
G75*
G02*
X-18775000Y-19555000I-150000J0D01*
G01*
X-20525000Y-19555000D01*
G75*
G02*
X-20675000Y-19405000I0J150000D01*
G01*
X-20675000Y-19105000D01*
G75*
G02*
X-20525000Y-18955000I150000J0D01*
G01*
X-18775000Y-18955000D01*
G75*
G02*
X-18625000Y-19105000I0J-150000D01*
G01*
G37*
G36*
G01*
X-18625000Y-17835000D02*
X-18625000Y-18135000D01*
G75*
G02*
X-18775000Y-18285000I-150000J0D01*
G01*
X-20525000Y-18285000D01*
G75*
G02*
X-20675000Y-18135000I0J150000D01*
G01*
X-20675000Y-17835000D01*
G75*
G02*
X-20525000Y-17685000I150000J0D01*
G01*
X-18775000Y-17685000D01*
G75*
G02*
X-18625000Y-17835000I0J-150000D01*
G01*
G37*
G36*
G01*
X-18625000Y-16565000D02*
X-18625000Y-16865000D01*
G75*
G02*
X-18775000Y-17015000I-150000J0D01*
G01*
X-20525000Y-17015000D01*
G75*
G02*
X-20675000Y-16865000I0J150000D01*
G01*
X-20675000Y-16565000D01*
G75*
G02*
X-20525000Y-16415000I150000J0D01*
G01*
X-18775000Y-16415000D01*
G75*
G02*
X-18625000Y-16565000I0J-150000D01*
G01*
G37*
G36*
G01*
X-18625000Y-15295000D02*
X-18625000Y-15595000D01*
G75*
G02*
X-18775000Y-15745000I-150000J0D01*
G01*
X-20525000Y-15745000D01*
G75*
G02*
X-20675000Y-15595000I0J150000D01*
G01*
X-20675000Y-15295000D01*
G75*
G02*
X-20525000Y-15145000I150000J0D01*
G01*
X-18775000Y-15145000D01*
G75*
G02*
X-18625000Y-15295000I0J-150000D01*
G01*
G37*
G36*
G01*
X-18625000Y-14025000D02*
X-18625000Y-14325000D01*
G75*
G02*
X-18775000Y-14475000I-150000J0D01*
G01*
X-20525000Y-14475000D01*
G75*
G02*
X-20675000Y-14325000I0J150000D01*
G01*
X-20675000Y-14025000D01*
G75*
G02*
X-20525000Y-13875000I150000J0D01*
G01*
X-18775000Y-13875000D01*
G75*
G02*
X-18625000Y-14025000I0J-150000D01*
G01*
G37*
G36*
G01*
X-18625000Y-12755000D02*
X-18625000Y-13055000D01*
G75*
G02*
X-18775000Y-13205000I-150000J0D01*
G01*
X-20525000Y-13205000D01*
G75*
G02*
X-20675000Y-13055000I0J150000D01*
G01*
X-20675000Y-12755000D01*
G75*
G02*
X-20525000Y-12605000I150000J0D01*
G01*
X-18775000Y-12605000D01*
G75*
G02*
X-18625000Y-12755000I0J-150000D01*
G01*
G37*
G36*
G01*
X-18625000Y-11485000D02*
X-18625000Y-11785000D01*
G75*
G02*
X-18775000Y-11935000I-150000J0D01*
G01*
X-20525000Y-11935000D01*
G75*
G02*
X-20675000Y-11785000I0J150000D01*
G01*
X-20675000Y-11485000D01*
G75*
G02*
X-20525000Y-11335000I150000J0D01*
G01*
X-18775000Y-11335000D01*
G75*
G02*
X-18625000Y-11485000I0J-150000D01*
G01*
G37*
G36*
G01*
X-18625000Y-10215000D02*
X-18625000Y-10515000D01*
G75*
G02*
X-18775000Y-10665000I-150000J0D01*
G01*
X-20525000Y-10665000D01*
G75*
G02*
X-20675000Y-10515000I0J150000D01*
G01*
X-20675000Y-10215000D01*
G75*
G02*
X-20525000Y-10065000I150000J0D01*
G01*
X-18775000Y-10065000D01*
G75*
G02*
X-18625000Y-10215000I0J-150000D01*
G01*
G37*
G36*
G01*
X-18625000Y-8945000D02*
X-18625000Y-9245000D01*
G75*
G02*
X-18775000Y-9395000I-150000J0D01*
G01*
X-20525000Y-9395000D01*
G75*
G02*
X-20675000Y-9245000I0J150000D01*
G01*
X-20675000Y-8945000D01*
G75*
G02*
X-20525000Y-8795000I150000J0D01*
G01*
X-18775000Y-8795000D01*
G75*
G02*
X-18625000Y-8945000I0J-150000D01*
G01*
G37*
G36*
G01*
X-18625000Y-7675000D02*
X-18625000Y-7975000D01*
G75*
G02*
X-18775000Y-8125000I-150000J0D01*
G01*
X-20525000Y-8125000D01*
G75*
G02*
X-20675000Y-7975000I0J150000D01*
G01*
X-20675000Y-7675000D01*
G75*
G02*
X-20525000Y-7525000I150000J0D01*
G01*
X-18775000Y-7525000D01*
G75*
G02*
X-18625000Y-7675000I0J-150000D01*
G01*
G37*
G36*
G01*
X-18625000Y-6405000D02*
X-18625000Y-6705000D01*
G75*
G02*
X-18775000Y-6855000I-150000J0D01*
G01*
X-20525000Y-6855000D01*
G75*
G02*
X-20675000Y-6705000I0J150000D01*
G01*
X-20675000Y-6405000D01*
G75*
G02*
X-20525000Y-6255000I150000J0D01*
G01*
X-18775000Y-6255000D01*
G75*
G02*
X-18625000Y-6405000I0J-150000D01*
G01*
G37*
G36*
G01*
X-18625000Y-5135000D02*
X-18625000Y-5435000D01*
G75*
G02*
X-18775000Y-5585000I-150000J0D01*
G01*
X-20525000Y-5585000D01*
G75*
G02*
X-20675000Y-5435000I0J150000D01*
G01*
X-20675000Y-5135000D01*
G75*
G02*
X-20525000Y-4985000I150000J0D01*
G01*
X-18775000Y-4985000D01*
G75*
G02*
X-18625000Y-5135000I0J-150000D01*
G01*
G37*
G36*
G01*
X-18625000Y-3865000D02*
X-18625000Y-4165000D01*
G75*
G02*
X-18775000Y-4315000I-150000J0D01*
G01*
X-20525000Y-4315000D01*
G75*
G02*
X-20675000Y-4165000I0J150000D01*
G01*
X-20675000Y-3865000D01*
G75*
G02*
X-20525000Y-3715000I150000J0D01*
G01*
X-18775000Y-3715000D01*
G75*
G02*
X-18625000Y-3865000I0J-150000D01*
G01*
G37*
G36*
G01*
X-18625000Y-2595000D02*
X-18625000Y-2895000D01*
G75*
G02*
X-18775000Y-3045000I-150000J0D01*
G01*
X-20525000Y-3045000D01*
G75*
G02*
X-20675000Y-2895000I0J150000D01*
G01*
X-20675000Y-2595000D01*
G75*
G02*
X-20525000Y-2445000I150000J0D01*
G01*
X-18775000Y-2445000D01*
G75*
G02*
X-18625000Y-2595000I0J-150000D01*
G01*
G37*
G36*
G01*
X-9325000Y-2595000D02*
X-9325000Y-2895000D01*
G75*
G02*
X-9475000Y-3045000I-150000J0D01*
G01*
X-11225000Y-3045000D01*
G75*
G02*
X-11375000Y-2895000I0J150000D01*
G01*
X-11375000Y-2595000D01*
G75*
G02*
X-11225000Y-2445000I150000J0D01*
G01*
X-9475000Y-2445000D01*
G75*
G02*
X-9325000Y-2595000I0J-150000D01*
G01*
G37*
G36*
G01*
X-9325000Y-3865000D02*
X-9325000Y-4165000D01*
G75*
G02*
X-9475000Y-4315000I-150000J0D01*
G01*
X-11225000Y-4315000D01*
G75*
G02*
X-11375000Y-4165000I0J150000D01*
G01*
X-11375000Y-3865000D01*
G75*
G02*
X-11225000Y-3715000I150000J0D01*
G01*
X-9475000Y-3715000D01*
G75*
G02*
X-9325000Y-3865000I0J-150000D01*
G01*
G37*
G36*
G01*
X-9325000Y-5135000D02*
X-9325000Y-5435000D01*
G75*
G02*
X-9475000Y-5585000I-150000J0D01*
G01*
X-11225000Y-5585000D01*
G75*
G02*
X-11375000Y-5435000I0J150000D01*
G01*
X-11375000Y-5135000D01*
G75*
G02*
X-11225000Y-4985000I150000J0D01*
G01*
X-9475000Y-4985000D01*
G75*
G02*
X-9325000Y-5135000I0J-150000D01*
G01*
G37*
G36*
G01*
X-9325000Y-6405000D02*
X-9325000Y-6705000D01*
G75*
G02*
X-9475000Y-6855000I-150000J0D01*
G01*
X-11225000Y-6855000D01*
G75*
G02*
X-11375000Y-6705000I0J150000D01*
G01*
X-11375000Y-6405000D01*
G75*
G02*
X-11225000Y-6255000I150000J0D01*
G01*
X-9475000Y-6255000D01*
G75*
G02*
X-9325000Y-6405000I0J-150000D01*
G01*
G37*
G36*
G01*
X-9325000Y-7675000D02*
X-9325000Y-7975000D01*
G75*
G02*
X-9475000Y-8125000I-150000J0D01*
G01*
X-11225000Y-8125000D01*
G75*
G02*
X-11375000Y-7975000I0J150000D01*
G01*
X-11375000Y-7675000D01*
G75*
G02*
X-11225000Y-7525000I150000J0D01*
G01*
X-9475000Y-7525000D01*
G75*
G02*
X-9325000Y-7675000I0J-150000D01*
G01*
G37*
G36*
G01*
X-9325000Y-8945000D02*
X-9325000Y-9245000D01*
G75*
G02*
X-9475000Y-9395000I-150000J0D01*
G01*
X-11225000Y-9395000D01*
G75*
G02*
X-11375000Y-9245000I0J150000D01*
G01*
X-11375000Y-8945000D01*
G75*
G02*
X-11225000Y-8795000I150000J0D01*
G01*
X-9475000Y-8795000D01*
G75*
G02*
X-9325000Y-8945000I0J-150000D01*
G01*
G37*
G36*
G01*
X-9325000Y-10215000D02*
X-9325000Y-10515000D01*
G75*
G02*
X-9475000Y-10665000I-150000J0D01*
G01*
X-11225000Y-10665000D01*
G75*
G02*
X-11375000Y-10515000I0J150000D01*
G01*
X-11375000Y-10215000D01*
G75*
G02*
X-11225000Y-10065000I150000J0D01*
G01*
X-9475000Y-10065000D01*
G75*
G02*
X-9325000Y-10215000I0J-150000D01*
G01*
G37*
G36*
G01*
X-9325000Y-11485000D02*
X-9325000Y-11785000D01*
G75*
G02*
X-9475000Y-11935000I-150000J0D01*
G01*
X-11225000Y-11935000D01*
G75*
G02*
X-11375000Y-11785000I0J150000D01*
G01*
X-11375000Y-11485000D01*
G75*
G02*
X-11225000Y-11335000I150000J0D01*
G01*
X-9475000Y-11335000D01*
G75*
G02*
X-9325000Y-11485000I0J-150000D01*
G01*
G37*
G36*
G01*
X-9325000Y-12755000D02*
X-9325000Y-13055000D01*
G75*
G02*
X-9475000Y-13205000I-150000J0D01*
G01*
X-11225000Y-13205000D01*
G75*
G02*
X-11375000Y-13055000I0J150000D01*
G01*
X-11375000Y-12755000D01*
G75*
G02*
X-11225000Y-12605000I150000J0D01*
G01*
X-9475000Y-12605000D01*
G75*
G02*
X-9325000Y-12755000I0J-150000D01*
G01*
G37*
G36*
G01*
X-9325000Y-14025000D02*
X-9325000Y-14325000D01*
G75*
G02*
X-9475000Y-14475000I-150000J0D01*
G01*
X-11225000Y-14475000D01*
G75*
G02*
X-11375000Y-14325000I0J150000D01*
G01*
X-11375000Y-14025000D01*
G75*
G02*
X-11225000Y-13875000I150000J0D01*
G01*
X-9475000Y-13875000D01*
G75*
G02*
X-9325000Y-14025000I0J-150000D01*
G01*
G37*
G36*
G01*
X-9325000Y-15295000D02*
X-9325000Y-15595000D01*
G75*
G02*
X-9475000Y-15745000I-150000J0D01*
G01*
X-11225000Y-15745000D01*
G75*
G02*
X-11375000Y-15595000I0J150000D01*
G01*
X-11375000Y-15295000D01*
G75*
G02*
X-11225000Y-15145000I150000J0D01*
G01*
X-9475000Y-15145000D01*
G75*
G02*
X-9325000Y-15295000I0J-150000D01*
G01*
G37*
G36*
G01*
X-9325000Y-16565000D02*
X-9325000Y-16865000D01*
G75*
G02*
X-9475000Y-17015000I-150000J0D01*
G01*
X-11225000Y-17015000D01*
G75*
G02*
X-11375000Y-16865000I0J150000D01*
G01*
X-11375000Y-16565000D01*
G75*
G02*
X-11225000Y-16415000I150000J0D01*
G01*
X-9475000Y-16415000D01*
G75*
G02*
X-9325000Y-16565000I0J-150000D01*
G01*
G37*
G36*
G01*
X-9325000Y-17835000D02*
X-9325000Y-18135000D01*
G75*
G02*
X-9475000Y-18285000I-150000J0D01*
G01*
X-11225000Y-18285000D01*
G75*
G02*
X-11375000Y-18135000I0J150000D01*
G01*
X-11375000Y-17835000D01*
G75*
G02*
X-11225000Y-17685000I150000J0D01*
G01*
X-9475000Y-17685000D01*
G75*
G02*
X-9325000Y-17835000I0J-150000D01*
G01*
G37*
G36*
G01*
X-9325000Y-19105000D02*
X-9325000Y-19405000D01*
G75*
G02*
X-9475000Y-19555000I-150000J0D01*
G01*
X-11225000Y-19555000D01*
G75*
G02*
X-11375000Y-19405000I0J150000D01*
G01*
X-11375000Y-19105000D01*
G75*
G02*
X-11225000Y-18955000I150000J0D01*
G01*
X-9475000Y-18955000D01*
G75*
G02*
X-9325000Y-19105000I0J-150000D01*
G01*
G37*
G36*
G01*
X18625000Y-7895000D02*
X18625000Y-7595000D01*
G75*
G02*
X18775000Y-7445000I150000J0D01*
G01*
X20525000Y-7445000D01*
G75*
G02*
X20675000Y-7595000I0J-150000D01*
G01*
X20675000Y-7895000D01*
G75*
G02*
X20525000Y-8045000I-150000J0D01*
G01*
X18775000Y-8045000D01*
G75*
G02*
X18625000Y-7895000I0J150000D01*
G01*
G37*
G36*
G01*
X18625000Y-9165000D02*
X18625000Y-8865000D01*
G75*
G02*
X18775000Y-8715000I150000J0D01*
G01*
X20525000Y-8715000D01*
G75*
G02*
X20675000Y-8865000I0J-150000D01*
G01*
X20675000Y-9165000D01*
G75*
G02*
X20525000Y-9315000I-150000J0D01*
G01*
X18775000Y-9315000D01*
G75*
G02*
X18625000Y-9165000I0J150000D01*
G01*
G37*
G36*
G01*
X18625000Y-10435000D02*
X18625000Y-10135000D01*
G75*
G02*
X18775000Y-9985000I150000J0D01*
G01*
X20525000Y-9985000D01*
G75*
G02*
X20675000Y-10135000I0J-150000D01*
G01*
X20675000Y-10435000D01*
G75*
G02*
X20525000Y-10585000I-150000J0D01*
G01*
X18775000Y-10585000D01*
G75*
G02*
X18625000Y-10435000I0J150000D01*
G01*
G37*
G36*
G01*
X18625000Y-11705000D02*
X18625000Y-11405000D01*
G75*
G02*
X18775000Y-11255000I150000J0D01*
G01*
X20525000Y-11255000D01*
G75*
G02*
X20675000Y-11405000I0J-150000D01*
G01*
X20675000Y-11705000D01*
G75*
G02*
X20525000Y-11855000I-150000J0D01*
G01*
X18775000Y-11855000D01*
G75*
G02*
X18625000Y-11705000I0J150000D01*
G01*
G37*
G36*
G01*
X18625000Y-12975000D02*
X18625000Y-12675000D01*
G75*
G02*
X18775000Y-12525000I150000J0D01*
G01*
X20525000Y-12525000D01*
G75*
G02*
X20675000Y-12675000I0J-150000D01*
G01*
X20675000Y-12975000D01*
G75*
G02*
X20525000Y-13125000I-150000J0D01*
G01*
X18775000Y-13125000D01*
G75*
G02*
X18625000Y-12975000I0J150000D01*
G01*
G37*
G36*
G01*
X18625000Y-14245000D02*
X18625000Y-13945000D01*
G75*
G02*
X18775000Y-13795000I150000J0D01*
G01*
X20525000Y-13795000D01*
G75*
G02*
X20675000Y-13945000I0J-150000D01*
G01*
X20675000Y-14245000D01*
G75*
G02*
X20525000Y-14395000I-150000J0D01*
G01*
X18775000Y-14395000D01*
G75*
G02*
X18625000Y-14245000I0J150000D01*
G01*
G37*
G36*
G01*
X18625000Y-15515000D02*
X18625000Y-15215000D01*
G75*
G02*
X18775000Y-15065000I150000J0D01*
G01*
X20525000Y-15065000D01*
G75*
G02*
X20675000Y-15215000I0J-150000D01*
G01*
X20675000Y-15515000D01*
G75*
G02*
X20525000Y-15665000I-150000J0D01*
G01*
X18775000Y-15665000D01*
G75*
G02*
X18625000Y-15515000I0J150000D01*
G01*
G37*
G36*
G01*
X18625000Y-16785000D02*
X18625000Y-16485000D01*
G75*
G02*
X18775000Y-16335000I150000J0D01*
G01*
X20525000Y-16335000D01*
G75*
G02*
X20675000Y-16485000I0J-150000D01*
G01*
X20675000Y-16785000D01*
G75*
G02*
X20525000Y-16935000I-150000J0D01*
G01*
X18775000Y-16935000D01*
G75*
G02*
X18625000Y-16785000I0J150000D01*
G01*
G37*
G36*
G01*
X18625000Y-18055000D02*
X18625000Y-17755000D01*
G75*
G02*
X18775000Y-17605000I150000J0D01*
G01*
X20525000Y-17605000D01*
G75*
G02*
X20675000Y-17755000I0J-150000D01*
G01*
X20675000Y-18055000D01*
G75*
G02*
X20525000Y-18205000I-150000J0D01*
G01*
X18775000Y-18205000D01*
G75*
G02*
X18625000Y-18055000I0J150000D01*
G01*
G37*
G36*
G01*
X18625000Y-19325000D02*
X18625000Y-19025000D01*
G75*
G02*
X18775000Y-18875000I150000J0D01*
G01*
X20525000Y-18875000D01*
G75*
G02*
X20675000Y-19025000I0J-150000D01*
G01*
X20675000Y-19325000D01*
G75*
G02*
X20525000Y-19475000I-150000J0D01*
G01*
X18775000Y-19475000D01*
G75*
G02*
X18625000Y-19325000I0J150000D01*
G01*
G37*
G36*
G01*
X18625000Y-20595000D02*
X18625000Y-20295000D01*
G75*
G02*
X18775000Y-20145000I150000J0D01*
G01*
X20525000Y-20145000D01*
G75*
G02*
X20675000Y-20295000I0J-150000D01*
G01*
X20675000Y-20595000D01*
G75*
G02*
X20525000Y-20745000I-150000J0D01*
G01*
X18775000Y-20745000D01*
G75*
G02*
X18625000Y-20595000I0J150000D01*
G01*
G37*
G36*
G01*
X18625000Y-21865000D02*
X18625000Y-21565000D01*
G75*
G02*
X18775000Y-21415000I150000J0D01*
G01*
X20525000Y-21415000D01*
G75*
G02*
X20675000Y-21565000I0J-150000D01*
G01*
X20675000Y-21865000D01*
G75*
G02*
X20525000Y-22015000I-150000J0D01*
G01*
X18775000Y-22015000D01*
G75*
G02*
X18625000Y-21865000I0J150000D01*
G01*
G37*
G36*
G01*
X18625000Y-23135000D02*
X18625000Y-22835000D01*
G75*
G02*
X18775000Y-22685000I150000J0D01*
G01*
X20525000Y-22685000D01*
G75*
G02*
X20675000Y-22835000I0J-150000D01*
G01*
X20675000Y-23135000D01*
G75*
G02*
X20525000Y-23285000I-150000J0D01*
G01*
X18775000Y-23285000D01*
G75*
G02*
X18625000Y-23135000I0J150000D01*
G01*
G37*
G36*
G01*
X18625000Y-24405000D02*
X18625000Y-24105000D01*
G75*
G02*
X18775000Y-23955000I150000J0D01*
G01*
X20525000Y-23955000D01*
G75*
G02*
X20675000Y-24105000I0J-150000D01*
G01*
X20675000Y-24405000D01*
G75*
G02*
X20525000Y-24555000I-150000J0D01*
G01*
X18775000Y-24555000D01*
G75*
G02*
X18625000Y-24405000I0J150000D01*
G01*
G37*
G36*
G01*
X9325000Y-24405000D02*
X9325000Y-24105000D01*
G75*
G02*
X9475000Y-23955000I150000J0D01*
G01*
X11225000Y-23955000D01*
G75*
G02*
X11375000Y-24105000I0J-150000D01*
G01*
X11375000Y-24405000D01*
G75*
G02*
X11225000Y-24555000I-150000J0D01*
G01*
X9475000Y-24555000D01*
G75*
G02*
X9325000Y-24405000I0J150000D01*
G01*
G37*
G36*
G01*
X9325000Y-23135000D02*
X9325000Y-22835000D01*
G75*
G02*
X9475000Y-22685000I150000J0D01*
G01*
X11225000Y-22685000D01*
G75*
G02*
X11375000Y-22835000I0J-150000D01*
G01*
X11375000Y-23135000D01*
G75*
G02*
X11225000Y-23285000I-150000J0D01*
G01*
X9475000Y-23285000D01*
G75*
G02*
X9325000Y-23135000I0J150000D01*
G01*
G37*
G36*
G01*
X9325000Y-21865000D02*
X9325000Y-21565000D01*
G75*
G02*
X9475000Y-21415000I150000J0D01*
G01*
X11225000Y-21415000D01*
G75*
G02*
X11375000Y-21565000I0J-150000D01*
G01*
X11375000Y-21865000D01*
G75*
G02*
X11225000Y-22015000I-150000J0D01*
G01*
X9475000Y-22015000D01*
G75*
G02*
X9325000Y-21865000I0J150000D01*
G01*
G37*
G36*
G01*
X9325000Y-20595000D02*
X9325000Y-20295000D01*
G75*
G02*
X9475000Y-20145000I150000J0D01*
G01*
X11225000Y-20145000D01*
G75*
G02*
X11375000Y-20295000I0J-150000D01*
G01*
X11375000Y-20595000D01*
G75*
G02*
X11225000Y-20745000I-150000J0D01*
G01*
X9475000Y-20745000D01*
G75*
G02*
X9325000Y-20595000I0J150000D01*
G01*
G37*
G36*
G01*
X9325000Y-19325000D02*
X9325000Y-19025000D01*
G75*
G02*
X9475000Y-18875000I150000J0D01*
G01*
X11225000Y-18875000D01*
G75*
G02*
X11375000Y-19025000I0J-150000D01*
G01*
X11375000Y-19325000D01*
G75*
G02*
X11225000Y-19475000I-150000J0D01*
G01*
X9475000Y-19475000D01*
G75*
G02*
X9325000Y-19325000I0J150000D01*
G01*
G37*
G36*
G01*
X9325000Y-18055000D02*
X9325000Y-17755000D01*
G75*
G02*
X9475000Y-17605000I150000J0D01*
G01*
X11225000Y-17605000D01*
G75*
G02*
X11375000Y-17755000I0J-150000D01*
G01*
X11375000Y-18055000D01*
G75*
G02*
X11225000Y-18205000I-150000J0D01*
G01*
X9475000Y-18205000D01*
G75*
G02*
X9325000Y-18055000I0J150000D01*
G01*
G37*
G36*
G01*
X9325000Y-16785000D02*
X9325000Y-16485000D01*
G75*
G02*
X9475000Y-16335000I150000J0D01*
G01*
X11225000Y-16335000D01*
G75*
G02*
X11375000Y-16485000I0J-150000D01*
G01*
X11375000Y-16785000D01*
G75*
G02*
X11225000Y-16935000I-150000J0D01*
G01*
X9475000Y-16935000D01*
G75*
G02*
X9325000Y-16785000I0J150000D01*
G01*
G37*
G36*
G01*
X9325000Y-15515000D02*
X9325000Y-15215000D01*
G75*
G02*
X9475000Y-15065000I150000J0D01*
G01*
X11225000Y-15065000D01*
G75*
G02*
X11375000Y-15215000I0J-150000D01*
G01*
X11375000Y-15515000D01*
G75*
G02*
X11225000Y-15665000I-150000J0D01*
G01*
X9475000Y-15665000D01*
G75*
G02*
X9325000Y-15515000I0J150000D01*
G01*
G37*
G36*
G01*
X9325000Y-14245000D02*
X9325000Y-13945000D01*
G75*
G02*
X9475000Y-13795000I150000J0D01*
G01*
X11225000Y-13795000D01*
G75*
G02*
X11375000Y-13945000I0J-150000D01*
G01*
X11375000Y-14245000D01*
G75*
G02*
X11225000Y-14395000I-150000J0D01*
G01*
X9475000Y-14395000D01*
G75*
G02*
X9325000Y-14245000I0J150000D01*
G01*
G37*
G36*
G01*
X9325000Y-12975000D02*
X9325000Y-12675000D01*
G75*
G02*
X9475000Y-12525000I150000J0D01*
G01*
X11225000Y-12525000D01*
G75*
G02*
X11375000Y-12675000I0J-150000D01*
G01*
X11375000Y-12975000D01*
G75*
G02*
X11225000Y-13125000I-150000J0D01*
G01*
X9475000Y-13125000D01*
G75*
G02*
X9325000Y-12975000I0J150000D01*
G01*
G37*
G36*
G01*
X9325000Y-11705000D02*
X9325000Y-11405000D01*
G75*
G02*
X9475000Y-11255000I150000J0D01*
G01*
X11225000Y-11255000D01*
G75*
G02*
X11375000Y-11405000I0J-150000D01*
G01*
X11375000Y-11705000D01*
G75*
G02*
X11225000Y-11855000I-150000J0D01*
G01*
X9475000Y-11855000D01*
G75*
G02*
X9325000Y-11705000I0J150000D01*
G01*
G37*
G36*
G01*
X9325000Y-10435000D02*
X9325000Y-10135000D01*
G75*
G02*
X9475000Y-9985000I150000J0D01*
G01*
X11225000Y-9985000D01*
G75*
G02*
X11375000Y-10135000I0J-150000D01*
G01*
X11375000Y-10435000D01*
G75*
G02*
X11225000Y-10585000I-150000J0D01*
G01*
X9475000Y-10585000D01*
G75*
G02*
X9325000Y-10435000I0J150000D01*
G01*
G37*
G36*
G01*
X9325000Y-9165000D02*
X9325000Y-8865000D01*
G75*
G02*
X9475000Y-8715000I150000J0D01*
G01*
X11225000Y-8715000D01*
G75*
G02*
X11375000Y-8865000I0J-150000D01*
G01*
X11375000Y-9165000D01*
G75*
G02*
X11225000Y-9315000I-150000J0D01*
G01*
X9475000Y-9315000D01*
G75*
G02*
X9325000Y-9165000I0J150000D01*
G01*
G37*
G36*
G01*
X9325000Y-7895000D02*
X9325000Y-7595000D01*
G75*
G02*
X9475000Y-7445000I150000J0D01*
G01*
X11225000Y-7445000D01*
G75*
G02*
X11375000Y-7595000I0J-150000D01*
G01*
X11375000Y-7895000D01*
G75*
G02*
X11225000Y-8045000I-150000J0D01*
G01*
X9475000Y-8045000D01*
G75*
G02*
X9325000Y-7895000I0J150000D01*
G01*
G37*
D14*
X-1500000Y-8150000D03*
X1500000Y-8150000D03*
X-1500000Y-11850000D03*
X1500000Y-11850000D03*
D15*
G36*
X-500000Y-9100000D02*
G01*
X-500000Y-7400000D01*
X500000Y-7400000D01*
X500000Y-9100000D01*
X1000000Y-9600000D01*
X1000000Y-10400000D01*
X500000Y-10400000D01*
X500000Y-12600000D01*
X-500000Y-12600000D01*
X-500000Y-10400000D01*
X-1000000Y-10400000D01*
X-1000000Y-9600000D01*
X-500000Y-9100000D01*
G37*
D12*
X-6000000Y19240000D03*
X-6000000Y-7760000D03*
X6000000Y-19240000D03*
X6000000Y7760000D03*
X-6000000Y21780000D03*
X-6000000Y-5220000D03*
X6000000Y-21780000D03*
X6000000Y5220000D03*
G36*
G01*
X-24200000Y24300000D02*
X-23800000Y24300000D01*
G75*
G02*
X-23600000Y24100000I0J-200000D01*
G01*
X-23600000Y23600000D01*
G75*
G02*
X-23800000Y23400000I-200000J0D01*
G01*
X-24200000Y23400000D01*
G75*
G02*
X-24400000Y23600000I0J200000D01*
G01*
X-24400000Y24100000D01*
G75*
G02*
X-24200000Y24300000I200000J0D01*
G01*
G37*
G36*
G01*
X-24200000Y22600000D02*
X-23800000Y22600000D01*
G75*
G02*
X-23600000Y22400000I0J-200000D01*
G01*
X-23600000Y21900000D01*
G75*
G02*
X-23800000Y21700000I-200000J0D01*
G01*
X-24200000Y21700000D01*
G75*
G02*
X-24400000Y21900000I0J200000D01*
G01*
X-24400000Y22400000D01*
G75*
G02*
X-24200000Y22600000I200000J0D01*
G01*
G37*
G36*
G01*
X-24200000Y17300000D02*
X-23800000Y17300000D01*
G75*
G02*
X-23600000Y17100000I0J-200000D01*
G01*
X-23600000Y16600000D01*
G75*
G02*
X-23800000Y16400000I-200000J0D01*
G01*
X-24200000Y16400000D01*
G75*
G02*
X-24400000Y16600000I0J200000D01*
G01*
X-24400000Y17100000D01*
G75*
G02*
X-24200000Y17300000I200000J0D01*
G01*
G37*
G36*
G01*
X-24200000Y15600000D02*
X-23800000Y15600000D01*
G75*
G02*
X-23600000Y15400000I0J-200000D01*
G01*
X-23600000Y14900000D01*
G75*
G02*
X-23800000Y14700000I-200000J0D01*
G01*
X-24200000Y14700000D01*
G75*
G02*
X-24400000Y14900000I0J200000D01*
G01*
X-24400000Y15400000D01*
G75*
G02*
X-24200000Y15600000I200000J0D01*
G01*
G37*
G36*
G01*
X-24200000Y10300000D02*
X-23800000Y10300000D01*
G75*
G02*
X-23600000Y10100000I0J-200000D01*
G01*
X-23600000Y9600000D01*
G75*
G02*
X-23800000Y9400000I-200000J0D01*
G01*
X-24200000Y9400000D01*
G75*
G02*
X-24400000Y9600000I0J200000D01*
G01*
X-24400000Y10100000D01*
G75*
G02*
X-24200000Y10300000I200000J0D01*
G01*
G37*
G36*
G01*
X-24200000Y8600000D02*
X-23800000Y8600000D01*
G75*
G02*
X-23600000Y8400000I0J-200000D01*
G01*
X-23600000Y7900000D01*
G75*
G02*
X-23800000Y7700000I-200000J0D01*
G01*
X-24200000Y7700000D01*
G75*
G02*
X-24400000Y7900000I0J200000D01*
G01*
X-24400000Y8400000D01*
G75*
G02*
X-24200000Y8600000I200000J0D01*
G01*
G37*
G36*
G01*
X-10050000Y3050000D02*
X-10450000Y3050000D01*
G75*
G02*
X-10650000Y3250000I0J200000D01*
G01*
X-10650000Y3750000D01*
G75*
G02*
X-10450000Y3950000I200000J0D01*
G01*
X-10050000Y3950000D01*
G75*
G02*
X-9850000Y3750000I0J-200000D01*
G01*
X-9850000Y3250000D01*
G75*
G02*
X-10050000Y3050000I-200000J0D01*
G01*
G37*
G36*
G01*
X-10050000Y4750000D02*
X-10450000Y4750000D01*
G75*
G02*
X-10650000Y4950000I0J200000D01*
G01*
X-10650000Y5450000D01*
G75*
G02*
X-10450000Y5650000I200000J0D01*
G01*
X-10050000Y5650000D01*
G75*
G02*
X-9850000Y5450000I0J-200000D01*
G01*
X-9850000Y4950000D01*
G75*
G02*
X-10050000Y4750000I-200000J0D01*
G01*
G37*
G36*
G01*
X-24200000Y-2700000D02*
X-23800000Y-2700000D01*
G75*
G02*
X-23600000Y-2900000I0J-200000D01*
G01*
X-23600000Y-3400000D01*
G75*
G02*
X-23800000Y-3600000I-200000J0D01*
G01*
X-24200000Y-3600000D01*
G75*
G02*
X-24400000Y-3400000I0J200000D01*
G01*
X-24400000Y-2900000D01*
G75*
G02*
X-24200000Y-2700000I200000J0D01*
G01*
G37*
G36*
G01*
X-24200000Y-4400000D02*
X-23800000Y-4400000D01*
G75*
G02*
X-23600000Y-4600000I0J-200000D01*
G01*
X-23600000Y-5100000D01*
G75*
G02*
X-23800000Y-5300000I-200000J0D01*
G01*
X-24200000Y-5300000D01*
G75*
G02*
X-24400000Y-5100000I0J200000D01*
G01*
X-24400000Y-4600000D01*
G75*
G02*
X-24200000Y-4400000I200000J0D01*
G01*
G37*
G36*
G01*
X-24200000Y-9700000D02*
X-23800000Y-9700000D01*
G75*
G02*
X-23600000Y-9900000I0J-200000D01*
G01*
X-23600000Y-10400000D01*
G75*
G02*
X-23800000Y-10600000I-200000J0D01*
G01*
X-24200000Y-10600000D01*
G75*
G02*
X-24400000Y-10400000I0J200000D01*
G01*
X-24400000Y-9900000D01*
G75*
G02*
X-24200000Y-9700000I200000J0D01*
G01*
G37*
G36*
G01*
X-24200000Y-11400000D02*
X-23800000Y-11400000D01*
G75*
G02*
X-23600000Y-11600000I0J-200000D01*
G01*
X-23600000Y-12100000D01*
G75*
G02*
X-23800000Y-12300000I-200000J0D01*
G01*
X-24200000Y-12300000D01*
G75*
G02*
X-24400000Y-12100000I0J200000D01*
G01*
X-24400000Y-11600000D01*
G75*
G02*
X-24200000Y-11400000I200000J0D01*
G01*
G37*
G36*
G01*
X-24200000Y-16700000D02*
X-23800000Y-16700000D01*
G75*
G02*
X-23600000Y-16900000I0J-200000D01*
G01*
X-23600000Y-17400000D01*
G75*
G02*
X-23800000Y-17600000I-200000J0D01*
G01*
X-24200000Y-17600000D01*
G75*
G02*
X-24400000Y-17400000I0J200000D01*
G01*
X-24400000Y-16900000D01*
G75*
G02*
X-24200000Y-16700000I200000J0D01*
G01*
G37*
G36*
G01*
X-24200000Y-18400000D02*
X-23800000Y-18400000D01*
G75*
G02*
X-23600000Y-18600000I0J-200000D01*
G01*
X-23600000Y-19100000D01*
G75*
G02*
X-23800000Y-19300000I-200000J0D01*
G01*
X-24200000Y-19300000D01*
G75*
G02*
X-24400000Y-19100000I0J200000D01*
G01*
X-24400000Y-18600000D01*
G75*
G02*
X-24200000Y-18400000I200000J0D01*
G01*
G37*
G36*
G01*
X-10050000Y-23950000D02*
X-10450000Y-23950000D01*
G75*
G02*
X-10650000Y-23750000I0J200000D01*
G01*
X-10650000Y-23250000D01*
G75*
G02*
X-10450000Y-23050000I200000J0D01*
G01*
X-10050000Y-23050000D01*
G75*
G02*
X-9850000Y-23250000I0J-200000D01*
G01*
X-9850000Y-23750000D01*
G75*
G02*
X-10050000Y-23950000I-200000J0D01*
G01*
G37*
G36*
G01*
X-10050000Y-22250000D02*
X-10450000Y-22250000D01*
G75*
G02*
X-10650000Y-22050000I0J200000D01*
G01*
X-10650000Y-21550000D01*
G75*
G02*
X-10450000Y-21350000I200000J0D01*
G01*
X-10050000Y-21350000D01*
G75*
G02*
X-9850000Y-21550000I0J-200000D01*
G01*
X-9850000Y-22050000D01*
G75*
G02*
X-10050000Y-22250000I-200000J0D01*
G01*
G37*
G36*
G01*
X24200000Y-24300000D02*
X23800000Y-24300000D01*
G75*
G02*
X23600000Y-24100000I0J200000D01*
G01*
X23600000Y-23600000D01*
G75*
G02*
X23800000Y-23400000I200000J0D01*
G01*
X24200000Y-23400000D01*
G75*
G02*
X24400000Y-23600000I0J-200000D01*
G01*
X24400000Y-24100000D01*
G75*
G02*
X24200000Y-24300000I-200000J0D01*
G01*
G37*
G36*
G01*
X24200000Y-22600000D02*
X23800000Y-22600000D01*
G75*
G02*
X23600000Y-22400000I0J200000D01*
G01*
X23600000Y-21900000D01*
G75*
G02*
X23800000Y-21700000I200000J0D01*
G01*
X24200000Y-21700000D01*
G75*
G02*
X24400000Y-21900000I0J-200000D01*
G01*
X24400000Y-22400000D01*
G75*
G02*
X24200000Y-22600000I-200000J0D01*
G01*
G37*
G36*
G01*
X24200000Y-17300000D02*
X23800000Y-17300000D01*
G75*
G02*
X23600000Y-17100000I0J200000D01*
G01*
X23600000Y-16600000D01*
G75*
G02*
X23800000Y-16400000I200000J0D01*
G01*
X24200000Y-16400000D01*
G75*
G02*
X24400000Y-16600000I0J-200000D01*
G01*
X24400000Y-17100000D01*
G75*
G02*
X24200000Y-17300000I-200000J0D01*
G01*
G37*
G36*
G01*
X24200000Y-15600000D02*
X23800000Y-15600000D01*
G75*
G02*
X23600000Y-15400000I0J200000D01*
G01*
X23600000Y-14900000D01*
G75*
G02*
X23800000Y-14700000I200000J0D01*
G01*
X24200000Y-14700000D01*
G75*
G02*
X24400000Y-14900000I0J-200000D01*
G01*
X24400000Y-15400000D01*
G75*
G02*
X24200000Y-15600000I-200000J0D01*
G01*
G37*
G36*
G01*
X24200000Y-10300000D02*
X23800000Y-10300000D01*
G75*
G02*
X23600000Y-10100000I0J200000D01*
G01*
X23600000Y-9600000D01*
G75*
G02*
X23800000Y-9400000I200000J0D01*
G01*
X24200000Y-9400000D01*
G75*
G02*
X24400000Y-9600000I0J-200000D01*
G01*
X24400000Y-10100000D01*
G75*
G02*
X24200000Y-10300000I-200000J0D01*
G01*
G37*
G36*
G01*
X24200000Y-8600000D02*
X23800000Y-8600000D01*
G75*
G02*
X23600000Y-8400000I0J200000D01*
G01*
X23600000Y-7900000D01*
G75*
G02*
X23800000Y-7700000I200000J0D01*
G01*
X24200000Y-7700000D01*
G75*
G02*
X24400000Y-7900000I0J-200000D01*
G01*
X24400000Y-8400000D01*
G75*
G02*
X24200000Y-8600000I-200000J0D01*
G01*
G37*
G36*
G01*
X10050000Y-3050000D02*
X10450000Y-3050000D01*
G75*
G02*
X10650000Y-3250000I0J-200000D01*
G01*
X10650000Y-3750000D01*
G75*
G02*
X10450000Y-3950000I-200000J0D01*
G01*
X10050000Y-3950000D01*
G75*
G02*
X9850000Y-3750000I0J200000D01*
G01*
X9850000Y-3250000D01*
G75*
G02*
X10050000Y-3050000I200000J0D01*
G01*
G37*
G36*
G01*
X10050000Y-4750000D02*
X10450000Y-4750000D01*
G75*
G02*
X10650000Y-4950000I0J-200000D01*
G01*
X10650000Y-5450000D01*
G75*
G02*
X10450000Y-5650000I-200000J0D01*
G01*
X10050000Y-5650000D01*
G75*
G02*
X9850000Y-5450000I0J200000D01*
G01*
X9850000Y-4950000D01*
G75*
G02*
X10050000Y-4750000I200000J0D01*
G01*
G37*
G36*
G01*
X10050000Y23950000D02*
X10450000Y23950000D01*
G75*
G02*
X10650000Y23750000I0J-200000D01*
G01*
X10650000Y23250000D01*
G75*
G02*
X10450000Y23050000I-200000J0D01*
G01*
X10050000Y23050000D01*
G75*
G02*
X9850000Y23250000I0J200000D01*
G01*
X9850000Y23750000D01*
G75*
G02*
X10050000Y23950000I200000J0D01*
G01*
G37*
G36*
G01*
X10050000Y22250000D02*
X10450000Y22250000D01*
G75*
G02*
X10650000Y22050000I0J-200000D01*
G01*
X10650000Y21550000D01*
G75*
G02*
X10450000Y21350000I-200000J0D01*
G01*
X10050000Y21350000D01*
G75*
G02*
X9850000Y21550000I0J200000D01*
G01*
X9850000Y22050000D01*
G75*
G02*
X10050000Y22250000I200000J0D01*
G01*
G37*
G36*
G01*
X-5800000Y-3300000D02*
X-6200000Y-3300000D01*
G75*
G02*
X-6400000Y-3100000I0J200000D01*
G01*
X-6400000Y-2600000D01*
G75*
G02*
X-6200000Y-2400000I200000J0D01*
G01*
X-5800000Y-2400000D01*
G75*
G02*
X-5600000Y-2600000I0J-200000D01*
G01*
X-5600000Y-3100000D01*
G75*
G02*
X-5800000Y-3300000I-200000J0D01*
G01*
G37*
G36*
G01*
X-5800000Y-1600000D02*
X-6200000Y-1600000D01*
G75*
G02*
X-6400000Y-1400000I0J200000D01*
G01*
X-6400000Y-900000D01*
G75*
G02*
X-6200000Y-700000I200000J0D01*
G01*
X-5800000Y-700000D01*
G75*
G02*
X-5600000Y-900000I0J-200000D01*
G01*
X-5600000Y-1400000D01*
G75*
G02*
X-5800000Y-1600000I-200000J0D01*
G01*
G37*
G36*
G01*
X5800000Y-23700000D02*
X6200000Y-23700000D01*
G75*
G02*
X6400000Y-23900000I0J-200000D01*
G01*
X6400000Y-24400000D01*
G75*
G02*
X6200000Y-24600000I-200000J0D01*
G01*
X5800000Y-24600000D01*
G75*
G02*
X5600000Y-24400000I0J200000D01*
G01*
X5600000Y-23900000D01*
G75*
G02*
X5800000Y-23700000I200000J0D01*
G01*
G37*
G36*
G01*
X5800000Y-25400000D02*
X6200000Y-25400000D01*
G75*
G02*
X6400000Y-25600000I0J-200000D01*
G01*
X6400000Y-26100000D01*
G75*
G02*
X6200000Y-26300000I-200000J0D01*
G01*
X5800000Y-26300000D01*
G75*
G02*
X5600000Y-26100000I0J200000D01*
G01*
X5600000Y-25600000D01*
G75*
G02*
X5800000Y-25400000I200000J0D01*
G01*
G37*
G36*
G01*
X5800000Y3300000D02*
X6200000Y3300000D01*
G75*
G02*
X6400000Y3100000I0J-200000D01*
G01*
X6400000Y2600000D01*
G75*
G02*
X6200000Y2400000I-200000J0D01*
G01*
X5800000Y2400000D01*
G75*
G02*
X5600000Y2600000I0J200000D01*
G01*
X5600000Y3100000D01*
G75*
G02*
X5800000Y3300000I200000J0D01*
G01*
G37*
G36*
G01*
X5800000Y1600000D02*
X6200000Y1600000D01*
G75*
G02*
X6400000Y1400000I0J-200000D01*
G01*
X6400000Y900000D01*
G75*
G02*
X6200000Y700000I-200000J0D01*
G01*
X5800000Y700000D01*
G75*
G02*
X5600000Y900000I0J200000D01*
G01*
X5600000Y1400000D01*
G75*
G02*
X5800000Y1600000I200000J0D01*
G01*
G37*
G36*
G01*
X-550000Y-20800000D02*
X-950000Y-20800000D01*
G75*
G02*
X-1150000Y-20600000I0J200000D01*
G01*
X-1150000Y-20100000D01*
G75*
G02*
X-950000Y-19900000I200000J0D01*
G01*
X-550000Y-19900000D01*
G75*
G02*
X-350000Y-20100000I0J-200000D01*
G01*
X-350000Y-20600000D01*
G75*
G02*
X-550000Y-20800000I-200000J0D01*
G01*
G37*
G36*
G01*
X-550000Y-19100000D02*
X-950000Y-19100000D01*
G75*
G02*
X-1150000Y-18900000I0J200000D01*
G01*
X-1150000Y-18400000D01*
G75*
G02*
X-950000Y-18200000I200000J0D01*
G01*
X-550000Y-18200000D01*
G75*
G02*
X-350000Y-18400000I0J-200000D01*
G01*
X-350000Y-18900000D01*
G75*
G02*
X-550000Y-19100000I-200000J0D01*
G01*
G37*
D16*
X-30650000Y23000000D03*
D17*
X-26980000Y23635000D03*
X-26980000Y22365000D03*
X-26980000Y21095000D03*
X-26980000Y24905000D03*
D18*
X-33095000Y24905000D03*
X-33095000Y21095000D03*
X-33095000Y22365000D03*
X-33095000Y23635000D03*
D16*
X-30650000Y16000000D03*
D17*
X-26980000Y16635000D03*
X-26980000Y15365000D03*
X-26980000Y14095000D03*
X-26980000Y17905000D03*
D18*
X-33095000Y17905000D03*
X-33095000Y14095000D03*
X-33095000Y15365000D03*
X-33095000Y16635000D03*
D16*
X-30650000Y9000000D03*
D17*
X-26980000Y9635000D03*
X-26980000Y8365000D03*
X-26980000Y7095000D03*
X-26980000Y10905000D03*
D18*
X-33095000Y10905000D03*
X-33095000Y7095000D03*
X-33095000Y8365000D03*
X-33095000Y9635000D03*
D16*
X-30650000Y-4000000D03*
D17*
X-26980000Y-3365000D03*
X-26980000Y-4635000D03*
X-26980000Y-5905000D03*
X-26980000Y-2095000D03*
D18*
X-33095000Y-2095000D03*
X-33095000Y-5905000D03*
X-33095000Y-4635000D03*
X-33095000Y-3365000D03*
D16*
X-30650000Y-11000000D03*
D17*
X-26980000Y-10365000D03*
X-26980000Y-11635000D03*
X-26980000Y-12905000D03*
X-26980000Y-9095000D03*
D18*
X-33095000Y-9095000D03*
X-33095000Y-12905000D03*
X-33095000Y-11635000D03*
X-33095000Y-10365000D03*
D16*
X-30650000Y-18000000D03*
D17*
X-26980000Y-17365000D03*
X-26980000Y-18635000D03*
X-26980000Y-19905000D03*
X-26980000Y-16095000D03*
D18*
X-33095000Y-16095000D03*
X-33095000Y-19905000D03*
X-33095000Y-18635000D03*
X-33095000Y-17365000D03*
D16*
X30650000Y-23000000D03*
D17*
X26980000Y-23635000D03*
X26980000Y-22365000D03*
X26980000Y-21095000D03*
X26980000Y-24905000D03*
D18*
X33095000Y-24905000D03*
X33095000Y-21095000D03*
X33095000Y-22365000D03*
X33095000Y-23635000D03*
D16*
X30650000Y-16000000D03*
D17*
X26980000Y-16635000D03*
X26980000Y-15365000D03*
X26980000Y-14095000D03*
X26980000Y-17905000D03*
D18*
X33095000Y-17905000D03*
X33095000Y-14095000D03*
X33095000Y-15365000D03*
X33095000Y-16635000D03*
D16*
X30650000Y-9000000D03*
D17*
X26980000Y-9635000D03*
X26980000Y-8365000D03*
X26980000Y-7095000D03*
X26980000Y-10905000D03*
D18*
X33095000Y-10905000D03*
X33095000Y-7095000D03*
X33095000Y-8365000D03*
X33095000Y-9635000D03*
D19*
X-39000000Y18500000D03*
X-39000000Y16000000D03*
X-39000000Y13500000D03*
D12*
X-6000000Y4000000D03*
D20*
X-6000000Y6540000D03*
X-6000000Y9080000D03*
X-6000000Y11620000D03*
X-6000000Y14160000D03*
X-6000000Y16700000D03*
D21*
X-28000000Y4000000D03*
D22*
X-26730000Y4000000D03*
X-25460000Y4000000D03*
X-24190000Y4000000D03*
X-22920000Y4000000D03*
D12*
X-6000000Y-23000000D03*
D20*
X-6000000Y-20460000D03*
X-6000000Y-17920000D03*
X-6000000Y-15380000D03*
X-6000000Y-12840000D03*
X-6000000Y-10300000D03*
D21*
X-28000000Y-23000000D03*
D22*
X-26730000Y-23000000D03*
X-25460000Y-23000000D03*
X-24190000Y-23000000D03*
X-22920000Y-23000000D03*
D12*
X6000000Y-4000000D03*
D20*
X6000000Y-6540000D03*
X6000000Y-9080000D03*
X6000000Y-11620000D03*
X6000000Y-14160000D03*
X6000000Y-16700000D03*
D21*
X28000000Y-4000000D03*
D22*
X26730000Y-4000000D03*
X25460000Y-4000000D03*
X24190000Y-4000000D03*
X22920000Y-4000000D03*
D23*
X-13500000Y5250000D03*
X-13500000Y1950000D03*
X-17000000Y5250000D03*
X-17000000Y1950000D03*
X-20500000Y5250000D03*
X-20500000Y1950000D03*
X-13500000Y-21750000D03*
X-13500000Y-25050000D03*
X-17000000Y-21750000D03*
X-17000000Y-25050000D03*
X-20500000Y-21750000D03*
X-20500000Y-25050000D03*
X13500000Y-5250000D03*
X13500000Y-1950000D03*
X17000000Y-5250000D03*
X17000000Y-1950000D03*
X20500000Y-5250000D03*
X20500000Y-1950000D03*
G36*
G01*
X-7700000Y26300000D02*
X-7300000Y26300000D01*
G75*
G02*
X-7100000Y26100000I0J-200000D01*
G01*
X-7100000Y25600000D01*
G75*
G02*
X-7300000Y25400000I-200000J0D01*
G01*
X-7700000Y25400000D01*
G75*
G02*
X-7900000Y25600000I0J200000D01*
G01*
X-7900000Y26100000D01*
G75*
G02*
X-7700000Y26300000I200000J0D01*
G01*
G37*
G36*
G01*
X-7700000Y24600000D02*
X-7300000Y24600000D01*
G75*
G02*
X-7100000Y24400000I0J-200000D01*
G01*
X-7100000Y23900000D01*
G75*
G02*
X-7300000Y23700000I-200000J0D01*
G01*
X-7700000Y23700000D01*
G75*
G02*
X-7900000Y23900000I0J200000D01*
G01*
X-7900000Y24400000D01*
G75*
G02*
X-7700000Y24600000I200000J0D01*
G01*
G37*
G36*
G01*
X-7700000Y-700000D02*
X-7300000Y-700000D01*
G75*
G02*
X-7100000Y-900000I0J-200000D01*
G01*
X-7100000Y-1400000D01*
G75*
G02*
X-7300000Y-1600000I-200000J0D01*
G01*
X-7700000Y-1600000D01*
G75*
G02*
X-7900000Y-1400000I0J200000D01*
G01*
X-7900000Y-900000D01*
G75*
G02*
X-7700000Y-700000I200000J0D01*
G01*
G37*
G36*
G01*
X-7700000Y-2400000D02*
X-7300000Y-2400000D01*
G75*
G02*
X-7100000Y-2600000I0J-200000D01*
G01*
X-7100000Y-3100000D01*
G75*
G02*
X-7300000Y-3300000I-200000J0D01*
G01*
X-7700000Y-3300000D01*
G75*
G02*
X-7900000Y-3100000I0J200000D01*
G01*
X-7900000Y-2600000D01*
G75*
G02*
X-7700000Y-2400000I200000J0D01*
G01*
G37*
G36*
G01*
X7700000Y-26300000D02*
X7300000Y-26300000D01*
G75*
G02*
X7100000Y-26100000I0J200000D01*
G01*
X7100000Y-25600000D01*
G75*
G02*
X7300000Y-25400000I200000J0D01*
G01*
X7700000Y-25400000D01*
G75*
G02*
X7900000Y-25600000I0J-200000D01*
G01*
X7900000Y-26100000D01*
G75*
G02*
X7700000Y-26300000I-200000J0D01*
G01*
G37*
G36*
G01*
X7700000Y-24600000D02*
X7300000Y-24600000D01*
G75*
G02*
X7100000Y-24400000I0J200000D01*
G01*
X7100000Y-23900000D01*
G75*
G02*
X7300000Y-23700000I200000J0D01*
G01*
X7700000Y-23700000D01*
G75*
G02*
X7900000Y-23900000I0J-200000D01*
G01*
X7900000Y-24400000D01*
G75*
G02*
X7700000Y-24600000I-200000J0D01*
G01*
G37*
G36*
G01*
X7700000Y700000D02*
X7300000Y700000D01*
G75*
G02*
X7100000Y900000I0J200000D01*
G01*
X7100000Y1400000D01*
G75*
G02*
X7300000Y1600000I200000J0D01*
G01*
X7700000Y1600000D01*
G75*
G02*
X7900000Y1400000I0J-200000D01*
G01*
X7900000Y900000D01*
G75*
G02*
X7700000Y700000I-200000J0D01*
G01*
G37*
G36*
G01*
X7700000Y2400000D02*
X7300000Y2400000D01*
G75*
G02*
X7100000Y2600000I0J200000D01*
G01*
X7100000Y3100000D01*
G75*
G02*
X7300000Y3300000I200000J0D01*
G01*
X7700000Y3300000D01*
G75*
G02*
X7900000Y3100000I0J-200000D01*
G01*
X7900000Y2600000D01*
G75*
G02*
X7700000Y2400000I-200000J0D01*
G01*
G37*
G36*
G01*
X550000Y-18200000D02*
X950000Y-18200000D01*
G75*
G02*
X1150000Y-18400000I0J-200000D01*
G01*
X1150000Y-18900000D01*
G75*
G02*
X950000Y-19100000I-200000J0D01*
G01*
X550000Y-19100000D01*
G75*
G02*
X350000Y-18900000I0J200000D01*
G01*
X350000Y-18400000D01*
G75*
G02*
X550000Y-18200000I200000J0D01*
G01*
G37*
G36*
G01*
X550000Y-19900000D02*
X950000Y-19900000D01*
G75*
G02*
X1150000Y-20100000I0J-200000D01*
G01*
X1150000Y-20600000D01*
G75*
G02*
X950000Y-20800000I-200000J0D01*
G01*
X550000Y-20800000D01*
G75*
G02*
X350000Y-20600000I0J200000D01*
G01*
X350000Y-20100000D01*
G75*
G02*
X550000Y-19900000I200000J0D01*
G01*
G37*
G36*
G01*
X-35800000Y21700000D02*
X-36200000Y21700000D01*
G75*
G02*
X-36400000Y21900000I0J200000D01*
G01*
X-36400000Y22400000D01*
G75*
G02*
X-36200000Y22600000I200000J0D01*
G01*
X-35800000Y22600000D01*
G75*
G02*
X-35600000Y22400000I0J-200000D01*
G01*
X-35600000Y21900000D01*
G75*
G02*
X-35800000Y21700000I-200000J0D01*
G01*
G37*
G36*
G01*
X-35800000Y23400000D02*
X-36200000Y23400000D01*
G75*
G02*
X-36400000Y23600000I0J200000D01*
G01*
X-36400000Y24100000D01*
G75*
G02*
X-36200000Y24300000I200000J0D01*
G01*
X-35800000Y24300000D01*
G75*
G02*
X-35600000Y24100000I0J-200000D01*
G01*
X-35600000Y23600000D01*
G75*
G02*
X-35800000Y23400000I-200000J0D01*
G01*
G37*
G36*
G01*
X-35800000Y14700000D02*
X-36200000Y14700000D01*
G75*
G02*
X-36400000Y14900000I0J200000D01*
G01*
X-36400000Y15400000D01*
G75*
G02*
X-36200000Y15600000I200000J0D01*
G01*
X-35800000Y15600000D01*
G75*
G02*
X-35600000Y15400000I0J-200000D01*
G01*
X-35600000Y14900000D01*
G75*
G02*
X-35800000Y14700000I-200000J0D01*
G01*
G37*
G36*
G01*
X-35800000Y16400000D02*
X-36200000Y16400000D01*
G75*
G02*
X-36400000Y16600000I0J200000D01*
G01*
X-36400000Y17100000D01*
G75*
G02*
X-36200000Y17300000I200000J0D01*
G01*
X-35800000Y17300000D01*
G75*
G02*
X-35600000Y17100000I0J-200000D01*
G01*
X-35600000Y16600000D01*
G75*
G02*
X-35800000Y16400000I-200000J0D01*
G01*
G37*
G36*
G01*
X-35800000Y7700000D02*
X-36200000Y7700000D01*
G75*
G02*
X-36400000Y7900000I0J200000D01*
G01*
X-36400000Y8400000D01*
G75*
G02*
X-36200000Y8600000I200000J0D01*
G01*
X-35800000Y8600000D01*
G75*
G02*
X-35600000Y8400000I0J-200000D01*
G01*
X-35600000Y7900000D01*
G75*
G02*
X-35800000Y7700000I-200000J0D01*
G01*
G37*
G36*
G01*
X-35800000Y9400000D02*
X-36200000Y9400000D01*
G75*
G02*
X-36400000Y9600000I0J200000D01*
G01*
X-36400000Y10100000D01*
G75*
G02*
X-36200000Y10300000I200000J0D01*
G01*
X-35800000Y10300000D01*
G75*
G02*
X-35600000Y10100000I0J-200000D01*
G01*
X-35600000Y9600000D01*
G75*
G02*
X-35800000Y9400000I-200000J0D01*
G01*
G37*
G36*
G01*
X-11550000Y3050000D02*
X-11950000Y3050000D01*
G75*
G02*
X-12150000Y3250000I0J200000D01*
G01*
X-12150000Y3750000D01*
G75*
G02*
X-11950000Y3950000I200000J0D01*
G01*
X-11550000Y3950000D01*
G75*
G02*
X-11350000Y3750000I0J-200000D01*
G01*
X-11350000Y3250000D01*
G75*
G02*
X-11550000Y3050000I-200000J0D01*
G01*
G37*
G36*
G01*
X-11550000Y4750000D02*
X-11950000Y4750000D01*
G75*
G02*
X-12150000Y4950000I0J200000D01*
G01*
X-12150000Y5450000D01*
G75*
G02*
X-11950000Y5650000I200000J0D01*
G01*
X-11550000Y5650000D01*
G75*
G02*
X-11350000Y5450000I0J-200000D01*
G01*
X-11350000Y4950000D01*
G75*
G02*
X-11550000Y4750000I-200000J0D01*
G01*
G37*
G36*
G01*
X-15050000Y3050000D02*
X-15450000Y3050000D01*
G75*
G02*
X-15650000Y3250000I0J200000D01*
G01*
X-15650000Y3750000D01*
G75*
G02*
X-15450000Y3950000I200000J0D01*
G01*
X-15050000Y3950000D01*
G75*
G02*
X-14850000Y3750000I0J-200000D01*
G01*
X-14850000Y3250000D01*
G75*
G02*
X-15050000Y3050000I-200000J0D01*
G01*
G37*
G36*
G01*
X-15050000Y4750000D02*
X-15450000Y4750000D01*
G75*
G02*
X-15650000Y4950000I0J200000D01*
G01*
X-15650000Y5450000D01*
G75*
G02*
X-15450000Y5650000I200000J0D01*
G01*
X-15050000Y5650000D01*
G75*
G02*
X-14850000Y5450000I0J-200000D01*
G01*
X-14850000Y4950000D01*
G75*
G02*
X-15050000Y4750000I-200000J0D01*
G01*
G37*
G36*
G01*
X-18550000Y3050000D02*
X-18950000Y3050000D01*
G75*
G02*
X-19150000Y3250000I0J200000D01*
G01*
X-19150000Y3750000D01*
G75*
G02*
X-18950000Y3950000I200000J0D01*
G01*
X-18550000Y3950000D01*
G75*
G02*
X-18350000Y3750000I0J-200000D01*
G01*
X-18350000Y3250000D01*
G75*
G02*
X-18550000Y3050000I-200000J0D01*
G01*
G37*
G36*
G01*
X-18550000Y4750000D02*
X-18950000Y4750000D01*
G75*
G02*
X-19150000Y4950000I0J200000D01*
G01*
X-19150000Y5450000D01*
G75*
G02*
X-18950000Y5650000I200000J0D01*
G01*
X-18550000Y5650000D01*
G75*
G02*
X-18350000Y5450000I0J-200000D01*
G01*
X-18350000Y4950000D01*
G75*
G02*
X-18550000Y4750000I-200000J0D01*
G01*
G37*
G36*
G01*
X-8550000Y3050000D02*
X-8950000Y3050000D01*
G75*
G02*
X-9150000Y3250000I0J200000D01*
G01*
X-9150000Y3750000D01*
G75*
G02*
X-8950000Y3950000I200000J0D01*
G01*
X-8550000Y3950000D01*
G75*
G02*
X-8350000Y3750000I0J-200000D01*
G01*
X-8350000Y3250000D01*
G75*
G02*
X-8550000Y3050000I-200000J0D01*
G01*
G37*
G36*
G01*
X-8550000Y4750000D02*
X-8950000Y4750000D01*
G75*
G02*
X-9150000Y4950000I0J200000D01*
G01*
X-9150000Y5450000D01*
G75*
G02*
X-8950000Y5650000I200000J0D01*
G01*
X-8550000Y5650000D01*
G75*
G02*
X-8350000Y5450000I0J-200000D01*
G01*
X-8350000Y4950000D01*
G75*
G02*
X-8550000Y4750000I-200000J0D01*
G01*
G37*
G36*
G01*
X-35800000Y-5300000D02*
X-36200000Y-5300000D01*
G75*
G02*
X-36400000Y-5100000I0J200000D01*
G01*
X-36400000Y-4600000D01*
G75*
G02*
X-36200000Y-4400000I200000J0D01*
G01*
X-35800000Y-4400000D01*
G75*
G02*
X-35600000Y-4600000I0J-200000D01*
G01*
X-35600000Y-5100000D01*
G75*
G02*
X-35800000Y-5300000I-200000J0D01*
G01*
G37*
G36*
G01*
X-35800000Y-3600000D02*
X-36200000Y-3600000D01*
G75*
G02*
X-36400000Y-3400000I0J200000D01*
G01*
X-36400000Y-2900000D01*
G75*
G02*
X-36200000Y-2700000I200000J0D01*
G01*
X-35800000Y-2700000D01*
G75*
G02*
X-35600000Y-2900000I0J-200000D01*
G01*
X-35600000Y-3400000D01*
G75*
G02*
X-35800000Y-3600000I-200000J0D01*
G01*
G37*
G36*
G01*
X-35800000Y-12300000D02*
X-36200000Y-12300000D01*
G75*
G02*
X-36400000Y-12100000I0J200000D01*
G01*
X-36400000Y-11600000D01*
G75*
G02*
X-36200000Y-11400000I200000J0D01*
G01*
X-35800000Y-11400000D01*
G75*
G02*
X-35600000Y-11600000I0J-200000D01*
G01*
X-35600000Y-12100000D01*
G75*
G02*
X-35800000Y-12300000I-200000J0D01*
G01*
G37*
G36*
G01*
X-35800000Y-10600000D02*
X-36200000Y-10600000D01*
G75*
G02*
X-36400000Y-10400000I0J200000D01*
G01*
X-36400000Y-9900000D01*
G75*
G02*
X-36200000Y-9700000I200000J0D01*
G01*
X-35800000Y-9700000D01*
G75*
G02*
X-35600000Y-9900000I0J-200000D01*
G01*
X-35600000Y-10400000D01*
G75*
G02*
X-35800000Y-10600000I-200000J0D01*
G01*
G37*
G36*
G01*
X-35800000Y-19300000D02*
X-36200000Y-19300000D01*
G75*
G02*
X-36400000Y-19100000I0J200000D01*
G01*
X-36400000Y-18600000D01*
G75*
G02*
X-36200000Y-18400000I200000J0D01*
G01*
X-35800000Y-18400000D01*
G75*
G02*
X-35600000Y-18600000I0J-200000D01*
G01*
X-35600000Y-19100000D01*
G75*
G02*
X-35800000Y-19300000I-200000J0D01*
G01*
G37*
G36*
G01*
X-35800000Y-17600000D02*
X-36200000Y-17600000D01*
G75*
G02*
X-36400000Y-17400000I0J200000D01*
G01*
X-36400000Y-16900000D01*
G75*
G02*
X-36200000Y-16700000I200000J0D01*
G01*
X-35800000Y-16700000D01*
G75*
G02*
X-35600000Y-16900000I0J-200000D01*
G01*
X-35600000Y-17400000D01*
G75*
G02*
X-35800000Y-17600000I-200000J0D01*
G01*
G37*
G36*
G01*
X-11550000Y-23950000D02*
X-11950000Y-23950000D01*
G75*
G02*
X-12150000Y-23750000I0J200000D01*
G01*
X-12150000Y-23250000D01*
G75*
G02*
X-11950000Y-23050000I200000J0D01*
G01*
X-11550000Y-23050000D01*
G75*
G02*
X-11350000Y-23250000I0J-200000D01*
G01*
X-11350000Y-23750000D01*
G75*
G02*
X-11550000Y-23950000I-200000J0D01*
G01*
G37*
G36*
G01*
X-11550000Y-22250000D02*
X-11950000Y-22250000D01*
G75*
G02*
X-12150000Y-22050000I0J200000D01*
G01*
X-12150000Y-21550000D01*
G75*
G02*
X-11950000Y-21350000I200000J0D01*
G01*
X-11550000Y-21350000D01*
G75*
G02*
X-11350000Y-21550000I0J-200000D01*
G01*
X-11350000Y-22050000D01*
G75*
G02*
X-11550000Y-22250000I-200000J0D01*
G01*
G37*
G36*
G01*
X-15050000Y-23950000D02*
X-15450000Y-23950000D01*
G75*
G02*
X-15650000Y-23750000I0J200000D01*
G01*
X-15650000Y-23250000D01*
G75*
G02*
X-15450000Y-23050000I200000J0D01*
G01*
X-15050000Y-23050000D01*
G75*
G02*
X-14850000Y-23250000I0J-200000D01*
G01*
X-14850000Y-23750000D01*
G75*
G02*
X-15050000Y-23950000I-200000J0D01*
G01*
G37*
G36*
G01*
X-15050000Y-22250000D02*
X-15450000Y-22250000D01*
G75*
G02*
X-15650000Y-22050000I0J200000D01*
G01*
X-15650000Y-21550000D01*
G75*
G02*
X-15450000Y-21350000I200000J0D01*
G01*
X-15050000Y-21350000D01*
G75*
G02*
X-14850000Y-21550000I0J-200000D01*
G01*
X-14850000Y-22050000D01*
G75*
G02*
X-15050000Y-22250000I-200000J0D01*
G01*
G37*
G36*
G01*
X-18550000Y-23950000D02*
X-18950000Y-23950000D01*
G75*
G02*
X-19150000Y-23750000I0J200000D01*
G01*
X-19150000Y-23250000D01*
G75*
G02*
X-18950000Y-23050000I200000J0D01*
G01*
X-18550000Y-23050000D01*
G75*
G02*
X-18350000Y-23250000I0J-200000D01*
G01*
X-18350000Y-23750000D01*
G75*
G02*
X-18550000Y-23950000I-200000J0D01*
G01*
G37*
G36*
G01*
X-18550000Y-22250000D02*
X-18950000Y-22250000D01*
G75*
G02*
X-19150000Y-22050000I0J200000D01*
G01*
X-19150000Y-21550000D01*
G75*
G02*
X-18950000Y-21350000I200000J0D01*
G01*
X-18550000Y-21350000D01*
G75*
G02*
X-18350000Y-21550000I0J-200000D01*
G01*
X-18350000Y-22050000D01*
G75*
G02*
X-18550000Y-22250000I-200000J0D01*
G01*
G37*
G36*
G01*
X-8550000Y-23950000D02*
X-8950000Y-23950000D01*
G75*
G02*
X-9150000Y-23750000I0J200000D01*
G01*
X-9150000Y-23250000D01*
G75*
G02*
X-8950000Y-23050000I200000J0D01*
G01*
X-8550000Y-23050000D01*
G75*
G02*
X-8350000Y-23250000I0J-200000D01*
G01*
X-8350000Y-23750000D01*
G75*
G02*
X-8550000Y-23950000I-200000J0D01*
G01*
G37*
G36*
G01*
X-8550000Y-22250000D02*
X-8950000Y-22250000D01*
G75*
G02*
X-9150000Y-22050000I0J200000D01*
G01*
X-9150000Y-21550000D01*
G75*
G02*
X-8950000Y-21350000I200000J0D01*
G01*
X-8550000Y-21350000D01*
G75*
G02*
X-8350000Y-21550000I0J-200000D01*
G01*
X-8350000Y-22050000D01*
G75*
G02*
X-8550000Y-22250000I-200000J0D01*
G01*
G37*
G36*
G01*
X35800000Y-21700000D02*
X36200000Y-21700000D01*
G75*
G02*
X36400000Y-21900000I0J-200000D01*
G01*
X36400000Y-22400000D01*
G75*
G02*
X36200000Y-22600000I-200000J0D01*
G01*
X35800000Y-22600000D01*
G75*
G02*
X35600000Y-22400000I0J200000D01*
G01*
X35600000Y-21900000D01*
G75*
G02*
X35800000Y-21700000I200000J0D01*
G01*
G37*
G36*
G01*
X35800000Y-23400000D02*
X36200000Y-23400000D01*
G75*
G02*
X36400000Y-23600000I0J-200000D01*
G01*
X36400000Y-24100000D01*
G75*
G02*
X36200000Y-24300000I-200000J0D01*
G01*
X35800000Y-24300000D01*
G75*
G02*
X35600000Y-24100000I0J200000D01*
G01*
X35600000Y-23600000D01*
G75*
G02*
X35800000Y-23400000I200000J0D01*
G01*
G37*
G36*
G01*
X35800000Y-14700000D02*
X36200000Y-14700000D01*
G75*
G02*
X36400000Y-14900000I0J-200000D01*
G01*
X36400000Y-15400000D01*
G75*
G02*
X36200000Y-15600000I-200000J0D01*
G01*
X35800000Y-15600000D01*
G75*
G02*
X35600000Y-15400000I0J200000D01*
G01*
X35600000Y-14900000D01*
G75*
G02*
X35800000Y-14700000I200000J0D01*
G01*
G37*
G36*
G01*
X35800000Y-16400000D02*
X36200000Y-16400000D01*
G75*
G02*
X36400000Y-16600000I0J-200000D01*
G01*
X36400000Y-17100000D01*
G75*
G02*
X36200000Y-17300000I-200000J0D01*
G01*
X35800000Y-17300000D01*
G75*
G02*
X35600000Y-17100000I0J200000D01*
G01*
X35600000Y-16600000D01*
G75*
G02*
X35800000Y-16400000I200000J0D01*
G01*
G37*
G36*
G01*
X35800000Y-7700000D02*
X36200000Y-7700000D01*
G75*
G02*
X36400000Y-7900000I0J-200000D01*
G01*
X36400000Y-8400000D01*
G75*
G02*
X36200000Y-8600000I-200000J0D01*
G01*
X35800000Y-8600000D01*
G75*
G02*
X35600000Y-8400000I0J200000D01*
G01*
X35600000Y-7900000D01*
G75*
G02*
X35800000Y-7700000I200000J0D01*
G01*
G37*
G36*
G01*
X35800000Y-9400000D02*
X36200000Y-9400000D01*
G75*
G02*
X36400000Y-9600000I0J-200000D01*
G01*
X36400000Y-10100000D01*
G75*
G02*
X36200000Y-10300000I-200000J0D01*
G01*
X35800000Y-10300000D01*
G75*
G02*
X35600000Y-10100000I0J200000D01*
G01*
X35600000Y-9600000D01*
G75*
G02*
X35800000Y-9400000I200000J0D01*
G01*
G37*
G36*
G01*
X11550000Y-3050000D02*
X11950000Y-3050000D01*
G75*
G02*
X12150000Y-3250000I0J-200000D01*
G01*
X12150000Y-3750000D01*
G75*
G02*
X11950000Y-3950000I-200000J0D01*
G01*
X11550000Y-3950000D01*
G75*
G02*
X11350000Y-3750000I0J200000D01*
G01*
X11350000Y-3250000D01*
G75*
G02*
X11550000Y-3050000I200000J0D01*
G01*
G37*
G36*
G01*
X11550000Y-4750000D02*
X11950000Y-4750000D01*
G75*
G02*
X12150000Y-4950000I0J-200000D01*
G01*
X12150000Y-5450000D01*
G75*
G02*
X11950000Y-5650000I-200000J0D01*
G01*
X11550000Y-5650000D01*
G75*
G02*
X11350000Y-5450000I0J200000D01*
G01*
X11350000Y-4950000D01*
G75*
G02*
X11550000Y-4750000I200000J0D01*
G01*
G37*
G36*
G01*
X15050000Y-3050000D02*
X15450000Y-3050000D01*
G75*
G02*
X15650000Y-3250000I0J-200000D01*
G01*
X15650000Y-3750000D01*
G75*
G02*
X15450000Y-3950000I-200000J0D01*
G01*
X15050000Y-3950000D01*
G75*
G02*
X14850000Y-3750000I0J200000D01*
G01*
X14850000Y-3250000D01*
G75*
G02*
X15050000Y-3050000I200000J0D01*
G01*
G37*
G36*
G01*
X15050000Y-4750000D02*
X15450000Y-4750000D01*
G75*
G02*
X15650000Y-4950000I0J-200000D01*
G01*
X15650000Y-5450000D01*
G75*
G02*
X15450000Y-5650000I-200000J0D01*
G01*
X15050000Y-5650000D01*
G75*
G02*
X14850000Y-5450000I0J200000D01*
G01*
X14850000Y-4950000D01*
G75*
G02*
X15050000Y-4750000I200000J0D01*
G01*
G37*
G36*
G01*
X18550000Y-3050000D02*
X18950000Y-3050000D01*
G75*
G02*
X19150000Y-3250000I0J-200000D01*
G01*
X19150000Y-3750000D01*
G75*
G02*
X18950000Y-3950000I-200000J0D01*
G01*
X18550000Y-3950000D01*
G75*
G02*
X18350000Y-3750000I0J200000D01*
G01*
X18350000Y-3250000D01*
G75*
G02*
X18550000Y-3050000I200000J0D01*
G01*
G37*
G36*
G01*
X18550000Y-4750000D02*
X18950000Y-4750000D01*
G75*
G02*
X19150000Y-4950000I0J-200000D01*
G01*
X19150000Y-5450000D01*
G75*
G02*
X18950000Y-5650000I-200000J0D01*
G01*
X18550000Y-5650000D01*
G75*
G02*
X18350000Y-5450000I0J200000D01*
G01*
X18350000Y-4950000D01*
G75*
G02*
X18550000Y-4750000I200000J0D01*
G01*
G37*
G36*
G01*
X8550000Y-3050000D02*
X8950000Y-3050000D01*
G75*
G02*
X9150000Y-3250000I0J-200000D01*
G01*
X9150000Y-3750000D01*
G75*
G02*
X8950000Y-3950000I-200000J0D01*
G01*
X8550000Y-3950000D01*
G75*
G02*
X8350000Y-3750000I0J200000D01*
G01*
X8350000Y-3250000D01*
G75*
G02*
X8550000Y-3050000I200000J0D01*
G01*
G37*
G36*
G01*
X8550000Y-4750000D02*
X8950000Y-4750000D01*
G75*
G02*
X9150000Y-4950000I0J-200000D01*
G01*
X9150000Y-5450000D01*
G75*
G02*
X8950000Y-5650000I-200000J0D01*
G01*
X8550000Y-5650000D01*
G75*
G02*
X8350000Y-5450000I0J200000D01*
G01*
X8350000Y-4950000D01*
G75*
G02*
X8550000Y-4750000I200000J0D01*
G01*
G37*
G36*
G01*
X35800000Y5300000D02*
X36200000Y5300000D01*
G75*
G02*
X36400000Y5100000I0J-200000D01*
G01*
X36400000Y4600000D01*
G75*
G02*
X36200000Y4400000I-200000J0D01*
G01*
X35800000Y4400000D01*
G75*
G02*
X35600000Y4600000I0J200000D01*
G01*
X35600000Y5100000D01*
G75*
G02*
X35800000Y5300000I200000J0D01*
G01*
G37*
G36*
G01*
X35800000Y3600000D02*
X36200000Y3600000D01*
G75*
G02*
X36400000Y3400000I0J-200000D01*
G01*
X36400000Y2900000D01*
G75*
G02*
X36200000Y2700000I-200000J0D01*
G01*
X35800000Y2700000D01*
G75*
G02*
X35600000Y2900000I0J200000D01*
G01*
X35600000Y3400000D01*
G75*
G02*
X35800000Y3600000I200000J0D01*
G01*
G37*
G36*
G01*
X35800000Y12300000D02*
X36200000Y12300000D01*
G75*
G02*
X36400000Y12100000I0J-200000D01*
G01*
X36400000Y11600000D01*
G75*
G02*
X36200000Y11400000I-200000J0D01*
G01*
X35800000Y11400000D01*
G75*
G02*
X35600000Y11600000I0J200000D01*
G01*
X35600000Y12100000D01*
G75*
G02*
X35800000Y12300000I200000J0D01*
G01*
G37*
G36*
G01*
X35800000Y10600000D02*
X36200000Y10600000D01*
G75*
G02*
X36400000Y10400000I0J-200000D01*
G01*
X36400000Y9900000D01*
G75*
G02*
X36200000Y9700000I-200000J0D01*
G01*
X35800000Y9700000D01*
G75*
G02*
X35600000Y9900000I0J200000D01*
G01*
X35600000Y10400000D01*
G75*
G02*
X35800000Y10600000I200000J0D01*
G01*
G37*
G36*
G01*
X35800000Y19300000D02*
X36200000Y19300000D01*
G75*
G02*
X36400000Y19100000I0J-200000D01*
G01*
X36400000Y18600000D01*
G75*
G02*
X36200000Y18400000I-200000J0D01*
G01*
X35800000Y18400000D01*
G75*
G02*
X35600000Y18600000I0J200000D01*
G01*
X35600000Y19100000D01*
G75*
G02*
X35800000Y19300000I200000J0D01*
G01*
G37*
G36*
G01*
X35800000Y17600000D02*
X36200000Y17600000D01*
G75*
G02*
X36400000Y17400000I0J-200000D01*
G01*
X36400000Y16900000D01*
G75*
G02*
X36200000Y16700000I-200000J0D01*
G01*
X35800000Y16700000D01*
G75*
G02*
X35600000Y16900000I0J200000D01*
G01*
X35600000Y17400000D01*
G75*
G02*
X35800000Y17600000I200000J0D01*
G01*
G37*
G36*
G01*
X32050000Y-3050000D02*
X32050000Y-1950000D01*
G75*
G02*
X32300000Y-1700000I250000J0D01*
G01*
X35300000Y-1700000D01*
G75*
G02*
X35550000Y-1950000I0J-250000D01*
G01*
X35550000Y-3050000D01*
G75*
G02*
X35300000Y-3300000I-250000J0D01*
G01*
X32300000Y-3300000D01*
G75*
G02*
X32050000Y-3050000I0J250000D01*
G01*
G37*
G36*
G01*
X37450000Y-3050000D02*
X37450000Y-1950000D01*
G75*
G02*
X37700000Y-1700000I250000J0D01*
G01*
X40700000Y-1700000D01*
G75*
G02*
X40950000Y-1950000I0J-250000D01*
G01*
X40950000Y-3050000D01*
G75*
G02*
X40700000Y-3300000I-250000J0D01*
G01*
X37700000Y-3300000D01*
G75*
G02*
X37450000Y-3050000I0J250000D01*
G01*
G37*
G36*
G01*
X-32050000Y3050000D02*
X-32050000Y1950000D01*
G75*
G02*
X-32300000Y1700000I-250000J0D01*
G01*
X-35300000Y1700000D01*
G75*
G02*
X-35550000Y1950000I0J250000D01*
G01*
X-35550000Y3050000D01*
G75*
G02*
X-35300000Y3300000I250000J0D01*
G01*
X-32300000Y3300000D01*
G75*
G02*
X-32050000Y3050000I0J-250000D01*
G01*
G37*
G36*
G01*
X-37450000Y3050000D02*
X-37450000Y1950000D01*
G75*
G02*
X-37700000Y1700000I-250000J0D01*
G01*
X-40700000Y1700000D01*
G75*
G02*
X-40950000Y1950000I0J250000D01*
G01*
X-40950000Y3050000D01*
G75*
G02*
X-40700000Y3300000I250000J0D01*
G01*
X-37700000Y3300000D01*
G75*
G02*
X-37450000Y3050000I0J-250000D01*
G01*
G37*
G36*
G01*
X1300000Y-5800000D02*
X1300000Y-6200000D01*
G75*
G02*
X1100000Y-6400000I-200000J0D01*
G01*
X600000Y-6400000D01*
G75*
G02*
X400000Y-6200000I0J200000D01*
G01*
X400000Y-5800000D01*
G75*
G02*
X600000Y-5600000I200000J0D01*
G01*
X1100000Y-5600000D01*
G75*
G02*
X1300000Y-5800000I0J-200000D01*
G01*
G37*
G36*
G01*
X-400000Y-5800000D02*
X-400000Y-6200000D01*
G75*
G02*
X-600000Y-6400000I-200000J0D01*
G01*
X-1100000Y-6400000D01*
G75*
G02*
X-1300000Y-6200000I0J200000D01*
G01*
X-1300000Y-5800000D01*
G75*
G02*
X-1100000Y-5600000I200000J0D01*
G01*
X-600000Y-5600000D01*
G75*
G02*
X-400000Y-5800000I0J-200000D01*
G01*
G37*
G36*
G01*
X-1300000Y-14200000D02*
X-1300000Y-13800000D01*
G75*
G02*
X-1100000Y-13600000I200000J0D01*
G01*
X-600000Y-13600000D01*
G75*
G02*
X-400000Y-13800000I0J-200000D01*
G01*
X-400000Y-14200000D01*
G75*
G02*
X-600000Y-14400000I-200000J0D01*
G01*
X-1100000Y-14400000D01*
G75*
G02*
X-1300000Y-14200000I0J200000D01*
G01*
G37*
G36*
G01*
X400000Y-14200000D02*
X400000Y-13800000D01*
G75*
G02*
X600000Y-13600000I200000J0D01*
G01*
X1100000Y-13600000D01*
G75*
G02*
X1300000Y-13800000I0J-200000D01*
G01*
X1300000Y-14200000D01*
G75*
G02*
X1100000Y-14400000I-200000J0D01*
G01*
X600000Y-14400000D01*
G75*
G02*
X400000Y-14200000I0J200000D01*
G01*
G37*
G36*
G01*
X18625000Y19105000D02*
X18625000Y19405000D01*
G75*
G02*
X18775000Y19555000I150000J0D01*
G01*
X20525000Y19555000D01*
G75*
G02*
X20675000Y19405000I0J-150000D01*
G01*
X20675000Y19105000D01*
G75*
G02*
X20525000Y18955000I-150000J0D01*
G01*
X18775000Y18955000D01*
G75*
G02*
X18625000Y19105000I0J150000D01*
G01*
G37*
G36*
G01*
X18625000Y17835000D02*
X18625000Y18135000D01*
G75*
G02*
X18775000Y18285000I150000J0D01*
G01*
X20525000Y18285000D01*
G75*
G02*
X20675000Y18135000I0J-150000D01*
G01*
X20675000Y17835000D01*
G75*
G02*
X20525000Y17685000I-150000J0D01*
G01*
X18775000Y17685000D01*
G75*
G02*
X18625000Y17835000I0J150000D01*
G01*
G37*
G36*
G01*
X18625000Y16565000D02*
X18625000Y16865000D01*
G75*
G02*
X18775000Y17015000I150000J0D01*
G01*
X20525000Y17015000D01*
G75*
G02*
X20675000Y16865000I0J-150000D01*
G01*
X20675000Y16565000D01*
G75*
G02*
X20525000Y16415000I-150000J0D01*
G01*
X18775000Y16415000D01*
G75*
G02*
X18625000Y16565000I0J150000D01*
G01*
G37*
G36*
G01*
X18625000Y15295000D02*
X18625000Y15595000D01*
G75*
G02*
X18775000Y15745000I150000J0D01*
G01*
X20525000Y15745000D01*
G75*
G02*
X20675000Y15595000I0J-150000D01*
G01*
X20675000Y15295000D01*
G75*
G02*
X20525000Y15145000I-150000J0D01*
G01*
X18775000Y15145000D01*
G75*
G02*
X18625000Y15295000I0J150000D01*
G01*
G37*
G36*
G01*
X18625000Y14025000D02*
X18625000Y14325000D01*
G75*
G02*
X18775000Y14475000I150000J0D01*
G01*
X20525000Y14475000D01*
G75*
G02*
X20675000Y14325000I0J-150000D01*
G01*
X20675000Y14025000D01*
G75*
G02*
X20525000Y13875000I-150000J0D01*
G01*
X18775000Y13875000D01*
G75*
G02*
X18625000Y14025000I0J150000D01*
G01*
G37*
G36*
G01*
X18625000Y12755000D02*
X18625000Y13055000D01*
G75*
G02*
X18775000Y13205000I150000J0D01*
G01*
X20525000Y13205000D01*
G75*
G02*
X20675000Y13055000I0J-150000D01*
G01*
X20675000Y12755000D01*
G75*
G02*
X20525000Y12605000I-150000J0D01*
G01*
X18775000Y12605000D01*
G75*
G02*
X18625000Y12755000I0J150000D01*
G01*
G37*
G36*
G01*
X18625000Y11485000D02*
X18625000Y11785000D01*
G75*
G02*
X18775000Y11935000I150000J0D01*
G01*
X20525000Y11935000D01*
G75*
G02*
X20675000Y11785000I0J-150000D01*
G01*
X20675000Y11485000D01*
G75*
G02*
X20525000Y11335000I-150000J0D01*
G01*
X18775000Y11335000D01*
G75*
G02*
X18625000Y11485000I0J150000D01*
G01*
G37*
G36*
G01*
X18625000Y10215000D02*
X18625000Y10515000D01*
G75*
G02*
X18775000Y10665000I150000J0D01*
G01*
X20525000Y10665000D01*
G75*
G02*
X20675000Y10515000I0J-150000D01*
G01*
X20675000Y10215000D01*
G75*
G02*
X20525000Y10065000I-150000J0D01*
G01*
X18775000Y10065000D01*
G75*
G02*
X18625000Y10215000I0J150000D01*
G01*
G37*
G36*
G01*
X18625000Y8945000D02*
X18625000Y9245000D01*
G75*
G02*
X18775000Y9395000I150000J0D01*
G01*
X20525000Y9395000D01*
G75*
G02*
X20675000Y9245000I0J-150000D01*
G01*
X20675000Y8945000D01*
G75*
G02*
X20525000Y8795000I-150000J0D01*
G01*
X18775000Y8795000D01*
G75*
G02*
X18625000Y8945000I0J150000D01*
G01*
G37*
G36*
G01*
X18625000Y7675000D02*
X18625000Y7975000D01*
G75*
G02*
X18775000Y8125000I150000J0D01*
G01*
X20525000Y8125000D01*
G75*
G02*
X20675000Y7975000I0J-150000D01*
G01*
X20675000Y7675000D01*
G75*
G02*
X20525000Y7525000I-150000J0D01*
G01*
X18775000Y7525000D01*
G75*
G02*
X18625000Y7675000I0J150000D01*
G01*
G37*
G36*
G01*
X18625000Y6405000D02*
X18625000Y6705000D01*
G75*
G02*
X18775000Y6855000I150000J0D01*
G01*
X20525000Y6855000D01*
G75*
G02*
X20675000Y6705000I0J-150000D01*
G01*
X20675000Y6405000D01*
G75*
G02*
X20525000Y6255000I-150000J0D01*
G01*
X18775000Y6255000D01*
G75*
G02*
X18625000Y6405000I0J150000D01*
G01*
G37*
G36*
G01*
X18625000Y5135000D02*
X18625000Y5435000D01*
G75*
G02*
X18775000Y5585000I150000J0D01*
G01*
X20525000Y5585000D01*
G75*
G02*
X20675000Y5435000I0J-150000D01*
G01*
X20675000Y5135000D01*
G75*
G02*
X20525000Y4985000I-150000J0D01*
G01*
X18775000Y4985000D01*
G75*
G02*
X18625000Y5135000I0J150000D01*
G01*
G37*
G36*
G01*
X18625000Y3865000D02*
X18625000Y4165000D01*
G75*
G02*
X18775000Y4315000I150000J0D01*
G01*
X20525000Y4315000D01*
G75*
G02*
X20675000Y4165000I0J-150000D01*
G01*
X20675000Y3865000D01*
G75*
G02*
X20525000Y3715000I-150000J0D01*
G01*
X18775000Y3715000D01*
G75*
G02*
X18625000Y3865000I0J150000D01*
G01*
G37*
G36*
G01*
X18625000Y2595000D02*
X18625000Y2895000D01*
G75*
G02*
X18775000Y3045000I150000J0D01*
G01*
X20525000Y3045000D01*
G75*
G02*
X20675000Y2895000I0J-150000D01*
G01*
X20675000Y2595000D01*
G75*
G02*
X20525000Y2445000I-150000J0D01*
G01*
X18775000Y2445000D01*
G75*
G02*
X18625000Y2595000I0J150000D01*
G01*
G37*
G36*
G01*
X9325000Y2595000D02*
X9325000Y2895000D01*
G75*
G02*
X9475000Y3045000I150000J0D01*
G01*
X11225000Y3045000D01*
G75*
G02*
X11375000Y2895000I0J-150000D01*
G01*
X11375000Y2595000D01*
G75*
G02*
X11225000Y2445000I-150000J0D01*
G01*
X9475000Y2445000D01*
G75*
G02*
X9325000Y2595000I0J150000D01*
G01*
G37*
G36*
G01*
X9325000Y3865000D02*
X9325000Y4165000D01*
G75*
G02*
X9475000Y4315000I150000J0D01*
G01*
X11225000Y4315000D01*
G75*
G02*
X11375000Y4165000I0J-150000D01*
G01*
X11375000Y3865000D01*
G75*
G02*
X11225000Y3715000I-150000J0D01*
G01*
X9475000Y3715000D01*
G75*
G02*
X9325000Y3865000I0J150000D01*
G01*
G37*
G36*
G01*
X9325000Y5135000D02*
X9325000Y5435000D01*
G75*
G02*
X9475000Y5585000I150000J0D01*
G01*
X11225000Y5585000D01*
G75*
G02*
X11375000Y5435000I0J-150000D01*
G01*
X11375000Y5135000D01*
G75*
G02*
X11225000Y4985000I-150000J0D01*
G01*
X9475000Y4985000D01*
G75*
G02*
X9325000Y5135000I0J150000D01*
G01*
G37*
G36*
G01*
X9325000Y6405000D02*
X9325000Y6705000D01*
G75*
G02*
X9475000Y6855000I150000J0D01*
G01*
X11225000Y6855000D01*
G75*
G02*
X11375000Y6705000I0J-150000D01*
G01*
X11375000Y6405000D01*
G75*
G02*
X11225000Y6255000I-150000J0D01*
G01*
X9475000Y6255000D01*
G75*
G02*
X9325000Y6405000I0J150000D01*
G01*
G37*
G36*
G01*
X9325000Y7675000D02*
X9325000Y7975000D01*
G75*
G02*
X9475000Y8125000I150000J0D01*
G01*
X11225000Y8125000D01*
G75*
G02*
X11375000Y7975000I0J-150000D01*
G01*
X11375000Y7675000D01*
G75*
G02*
X11225000Y7525000I-150000J0D01*
G01*
X9475000Y7525000D01*
G75*
G02*
X9325000Y7675000I0J150000D01*
G01*
G37*
G36*
G01*
X9325000Y8945000D02*
X9325000Y9245000D01*
G75*
G02*
X9475000Y9395000I150000J0D01*
G01*
X11225000Y9395000D01*
G75*
G02*
X11375000Y9245000I0J-150000D01*
G01*
X11375000Y8945000D01*
G75*
G02*
X11225000Y8795000I-150000J0D01*
G01*
X9475000Y8795000D01*
G75*
G02*
X9325000Y8945000I0J150000D01*
G01*
G37*
G36*
G01*
X9325000Y10215000D02*
X9325000Y10515000D01*
G75*
G02*
X9475000Y10665000I150000J0D01*
G01*
X11225000Y10665000D01*
G75*
G02*
X11375000Y10515000I0J-150000D01*
G01*
X11375000Y10215000D01*
G75*
G02*
X11225000Y10065000I-150000J0D01*
G01*
X9475000Y10065000D01*
G75*
G02*
X9325000Y10215000I0J150000D01*
G01*
G37*
G36*
G01*
X9325000Y11485000D02*
X9325000Y11785000D01*
G75*
G02*
X9475000Y11935000I150000J0D01*
G01*
X11225000Y11935000D01*
G75*
G02*
X11375000Y11785000I0J-150000D01*
G01*
X11375000Y11485000D01*
G75*
G02*
X11225000Y11335000I-150000J0D01*
G01*
X9475000Y11335000D01*
G75*
G02*
X9325000Y11485000I0J150000D01*
G01*
G37*
G36*
G01*
X9325000Y12755000D02*
X9325000Y13055000D01*
G75*
G02*
X9475000Y13205000I150000J0D01*
G01*
X11225000Y13205000D01*
G75*
G02*
X11375000Y13055000I0J-150000D01*
G01*
X11375000Y12755000D01*
G75*
G02*
X11225000Y12605000I-150000J0D01*
G01*
X9475000Y12605000D01*
G75*
G02*
X9325000Y12755000I0J150000D01*
G01*
G37*
G36*
G01*
X9325000Y14025000D02*
X9325000Y14325000D01*
G75*
G02*
X9475000Y14475000I150000J0D01*
G01*
X11225000Y14475000D01*
G75*
G02*
X11375000Y14325000I0J-150000D01*
G01*
X11375000Y14025000D01*
G75*
G02*
X11225000Y13875000I-150000J0D01*
G01*
X9475000Y13875000D01*
G75*
G02*
X9325000Y14025000I0J150000D01*
G01*
G37*
G36*
G01*
X9325000Y15295000D02*
X9325000Y15595000D01*
G75*
G02*
X9475000Y15745000I150000J0D01*
G01*
X11225000Y15745000D01*
G75*
G02*
X11375000Y15595000I0J-150000D01*
G01*
X11375000Y15295000D01*
G75*
G02*
X11225000Y15145000I-150000J0D01*
G01*
X9475000Y15145000D01*
G75*
G02*
X9325000Y15295000I0J150000D01*
G01*
G37*
G36*
G01*
X9325000Y16565000D02*
X9325000Y16865000D01*
G75*
G02*
X9475000Y17015000I150000J0D01*
G01*
X11225000Y17015000D01*
G75*
G02*
X11375000Y16865000I0J-150000D01*
G01*
X11375000Y16565000D01*
G75*
G02*
X11225000Y16415000I-150000J0D01*
G01*
X9475000Y16415000D01*
G75*
G02*
X9325000Y16565000I0J150000D01*
G01*
G37*
G36*
G01*
X9325000Y17835000D02*
X9325000Y18135000D01*
G75*
G02*
X9475000Y18285000I150000J0D01*
G01*
X11225000Y18285000D01*
G75*
G02*
X11375000Y18135000I0J-150000D01*
G01*
X11375000Y17835000D01*
G75*
G02*
X11225000Y17685000I-150000J0D01*
G01*
X9475000Y17685000D01*
G75*
G02*
X9325000Y17835000I0J150000D01*
G01*
G37*
G36*
G01*
X9325000Y19105000D02*
X9325000Y19405000D01*
G75*
G02*
X9475000Y19555000I150000J0D01*
G01*
X11225000Y19555000D01*
G75*
G02*
X11375000Y19405000I0J-150000D01*
G01*
X11375000Y19105000D01*
G75*
G02*
X11225000Y18955000I-150000J0D01*
G01*
X9475000Y18955000D01*
G75*
G02*
X9325000Y19105000I0J150000D01*
G01*
G37*
G36*
G01*
X24200000Y2700000D02*
X23800000Y2700000D01*
G75*
G02*
X23600000Y2900000I0J200000D01*
G01*
X23600000Y3400000D01*
G75*
G02*
X23800000Y3600000I200000J0D01*
G01*
X24200000Y3600000D01*
G75*
G02*
X24400000Y3400000I0J-200000D01*
G01*
X24400000Y2900000D01*
G75*
G02*
X24200000Y2700000I-200000J0D01*
G01*
G37*
G36*
G01*
X24200000Y4400000D02*
X23800000Y4400000D01*
G75*
G02*
X23600000Y4600000I0J200000D01*
G01*
X23600000Y5100000D01*
G75*
G02*
X23800000Y5300000I200000J0D01*
G01*
X24200000Y5300000D01*
G75*
G02*
X24400000Y5100000I0J-200000D01*
G01*
X24400000Y4600000D01*
G75*
G02*
X24200000Y4400000I-200000J0D01*
G01*
G37*
G36*
G01*
X24200000Y9700000D02*
X23800000Y9700000D01*
G75*
G02*
X23600000Y9900000I0J200000D01*
G01*
X23600000Y10400000D01*
G75*
G02*
X23800000Y10600000I200000J0D01*
G01*
X24200000Y10600000D01*
G75*
G02*
X24400000Y10400000I0J-200000D01*
G01*
X24400000Y9900000D01*
G75*
G02*
X24200000Y9700000I-200000J0D01*
G01*
G37*
G36*
G01*
X24200000Y11400000D02*
X23800000Y11400000D01*
G75*
G02*
X23600000Y11600000I0J200000D01*
G01*
X23600000Y12100000D01*
G75*
G02*
X23800000Y12300000I200000J0D01*
G01*
X24200000Y12300000D01*
G75*
G02*
X24400000Y12100000I0J-200000D01*
G01*
X24400000Y11600000D01*
G75*
G02*
X24200000Y11400000I-200000J0D01*
G01*
G37*
G36*
G01*
X24200000Y16700000D02*
X23800000Y16700000D01*
G75*
G02*
X23600000Y16900000I0J200000D01*
G01*
X23600000Y17400000D01*
G75*
G02*
X23800000Y17600000I200000J0D01*
G01*
X24200000Y17600000D01*
G75*
G02*
X24400000Y17400000I0J-200000D01*
G01*
X24400000Y16900000D01*
G75*
G02*
X24200000Y16700000I-200000J0D01*
G01*
G37*
G36*
G01*
X24200000Y18400000D02*
X23800000Y18400000D01*
G75*
G02*
X23600000Y18600000I0J200000D01*
G01*
X23600000Y19100000D01*
G75*
G02*
X23800000Y19300000I200000J0D01*
G01*
X24200000Y19300000D01*
G75*
G02*
X24400000Y19100000I0J-200000D01*
G01*
X24400000Y18600000D01*
G75*
G02*
X24200000Y18400000I-200000J0D01*
G01*
G37*
G36*
G01*
X-5800000Y23700000D02*
X-6200000Y23700000D01*
G75*
G02*
X-6400000Y23900000I0J200000D01*
G01*
X-6400000Y24400000D01*
G75*
G02*
X-6200000Y24600000I200000J0D01*
G01*
X-5800000Y24600000D01*
G75*
G02*
X-5600000Y24400000I0J-200000D01*
G01*
X-5600000Y23900000D01*
G75*
G02*
X-5800000Y23700000I-200000J0D01*
G01*
G37*
G36*
G01*
X-5800000Y25400000D02*
X-6200000Y25400000D01*
G75*
G02*
X-6400000Y25600000I0J200000D01*
G01*
X-6400000Y26100000D01*
G75*
G02*
X-6200000Y26300000I200000J0D01*
G01*
X-5800000Y26300000D01*
G75*
G02*
X-5600000Y26100000I0J-200000D01*
G01*
X-5600000Y25600000D01*
G75*
G02*
X-5800000Y25400000I-200000J0D01*
G01*
G37*
D16*
X30650000Y4000000D03*
D17*
X26980000Y3365000D03*
X26980000Y4635000D03*
X26980000Y5905000D03*
X26980000Y2095000D03*
D18*
X33095000Y2095000D03*
X33095000Y5905000D03*
X33095000Y4635000D03*
X33095000Y3365000D03*
D16*
X30650000Y11000000D03*
D17*
X26980000Y10365000D03*
X26980000Y11635000D03*
X26980000Y12905000D03*
X26980000Y9095000D03*
D18*
X33095000Y9095000D03*
X33095000Y12905000D03*
X33095000Y11635000D03*
X33095000Y10365000D03*
D16*
X30650000Y18000000D03*
D17*
X26980000Y17365000D03*
X26980000Y18635000D03*
X26980000Y19905000D03*
X26980000Y16095000D03*
D18*
X33095000Y16095000D03*
X33095000Y19905000D03*
X33095000Y18635000D03*
X33095000Y17365000D03*
D12*
X6000000Y23000000D03*
D20*
X6000000Y20460000D03*
X6000000Y17920000D03*
X6000000Y15380000D03*
X6000000Y12840000D03*
X6000000Y10300000D03*
D21*
X28000000Y23000000D03*
D22*
X26730000Y23000000D03*
X25460000Y23000000D03*
X24190000Y23000000D03*
X22920000Y23000000D03*
D23*
X13500000Y21750000D03*
X13500000Y25050000D03*
X17000000Y21750000D03*
X17000000Y25050000D03*
X20500000Y21750000D03*
X20500000Y25050000D03*
G36*
G01*
X11550000Y23950000D02*
X11950000Y23950000D01*
G75*
G02*
X12150000Y23750000I0J-200000D01*
G01*
X12150000Y23250000D01*
G75*
G02*
X11950000Y23050000I-200000J0D01*
G01*
X11550000Y23050000D01*
G75*
G02*
X11350000Y23250000I0J200000D01*
G01*
X11350000Y23750000D01*
G75*
G02*
X11550000Y23950000I200000J0D01*
G01*
G37*
G36*
G01*
X11550000Y22250000D02*
X11950000Y22250000D01*
G75*
G02*
X12150000Y22050000I0J-200000D01*
G01*
X12150000Y21550000D01*
G75*
G02*
X11950000Y21350000I-200000J0D01*
G01*
X11550000Y21350000D01*
G75*
G02*
X11350000Y21550000I0J200000D01*
G01*
X11350000Y22050000D01*
G75*
G02*
X11550000Y22250000I200000J0D01*
G01*
G37*
G36*
G01*
X15050000Y23950000D02*
X15450000Y23950000D01*
G75*
G02*
X15650000Y23750000I0J-200000D01*
G01*
X15650000Y23250000D01*
G75*
G02*
X15450000Y23050000I-200000J0D01*
G01*
X15050000Y23050000D01*
G75*
G02*
X14850000Y23250000I0J200000D01*
G01*
X14850000Y23750000D01*
G75*
G02*
X15050000Y23950000I200000J0D01*
G01*
G37*
G36*
G01*
X15050000Y22250000D02*
X15450000Y22250000D01*
G75*
G02*
X15650000Y22050000I0J-200000D01*
G01*
X15650000Y21550000D01*
G75*
G02*
X15450000Y21350000I-200000J0D01*
G01*
X15050000Y21350000D01*
G75*
G02*
X14850000Y21550000I0J200000D01*
G01*
X14850000Y22050000D01*
G75*
G02*
X15050000Y22250000I200000J0D01*
G01*
G37*
G36*
G01*
X18550000Y23950000D02*
X18950000Y23950000D01*
G75*
G02*
X19150000Y23750000I0J-200000D01*
G01*
X19150000Y23250000D01*
G75*
G02*
X18950000Y23050000I-200000J0D01*
G01*
X18550000Y23050000D01*
G75*
G02*
X18350000Y23250000I0J200000D01*
G01*
X18350000Y23750000D01*
G75*
G02*
X18550000Y23950000I200000J0D01*
G01*
G37*
G36*
G01*
X18550000Y22250000D02*
X18950000Y22250000D01*
G75*
G02*
X19150000Y22050000I0J-200000D01*
G01*
X19150000Y21550000D01*
G75*
G02*
X18950000Y21350000I-200000J0D01*
G01*
X18550000Y21350000D01*
G75*
G02*
X18350000Y21550000I0J200000D01*
G01*
X18350000Y22050000D01*
G75*
G02*
X18550000Y22250000I200000J0D01*
G01*
G37*
G36*
G01*
X8550000Y23950000D02*
X8950000Y23950000D01*
G75*
G02*
X9150000Y23750000I0J-200000D01*
G01*
X9150000Y23250000D01*
G75*
G02*
X8950000Y23050000I-200000J0D01*
G01*
X8550000Y23050000D01*
G75*
G02*
X8350000Y23250000I0J200000D01*
G01*
X8350000Y23750000D01*
G75*
G02*
X8550000Y23950000I200000J0D01*
G01*
G37*
G36*
G01*
X8550000Y22250000D02*
X8950000Y22250000D01*
G75*
G02*
X9150000Y22050000I0J-200000D01*
G01*
X9150000Y21550000D01*
G75*
G02*
X8950000Y21350000I-200000J0D01*
G01*
X8550000Y21350000D01*
G75*
G02*
X8350000Y21550000I0J200000D01*
G01*
X8350000Y22050000D01*
G75*
G02*
X8550000Y22250000I200000J0D01*
G01*
G37*
M02*
