G04 #@! TF.GenerationSoftware,KiCad,Pcbnew,(5.1.9-0-10_14)*
G04 #@! TF.CreationDate,2021-04-27T22:18:25+09:00*
G04 #@! TF.ProjectId,BldcDriver,426c6463-4472-4697-9665-722e6b696361,3.2*
G04 #@! TF.SameCoordinates,Original*
G04 #@! TF.FileFunction,Paste,Top*
G04 #@! TF.FilePolarity,Positive*
%FSLAX46Y46*%
G04 Gerber Fmt 4.6, Leading zero omitted, Abs format (unit mm)*
G04 Created by KiCad (PCBNEW (5.1.9-0-10_14)) date 2021-04-27 22:18:25*
%MOMM*%
%LPD*%
G01*
G04 APERTURE LIST*
%ADD10R,1.350000X1.200000*%
G04 APERTURE END LIST*
D10*
X-28500000Y-9050000D03*
X-25900000Y-9050000D03*
X-25900000Y-6950000D03*
X-28500000Y-6950000D03*
G36*
G01*
X-23350000Y-13537500D02*
X-23350000Y-13062500D01*
G75*
G02*
X-23112500Y-12825000I237500J0D01*
G01*
X-22537500Y-12825000D01*
G75*
G02*
X-22300000Y-13062500I0J-237500D01*
G01*
X-22300000Y-13537500D01*
G75*
G02*
X-22537500Y-13775000I-237500J0D01*
G01*
X-23112500Y-13775000D01*
G75*
G02*
X-23350000Y-13537500I0J237500D01*
G01*
G37*
G36*
G01*
X-25100000Y-13537500D02*
X-25100000Y-13062500D01*
G75*
G02*
X-24862500Y-12825000I237500J0D01*
G01*
X-24287500Y-12825000D01*
G75*
G02*
X-24050000Y-13062500I0J-237500D01*
G01*
X-24050000Y-13537500D01*
G75*
G02*
X-24287500Y-13775000I-237500J0D01*
G01*
X-24862500Y-13775000D01*
G75*
G02*
X-25100000Y-13537500I0J237500D01*
G01*
G37*
G36*
G01*
X-29475000Y9737500D02*
X-29475000Y9262500D01*
G75*
G02*
X-29712500Y9025000I-237500J0D01*
G01*
X-30287500Y9025000D01*
G75*
G02*
X-30525000Y9262500I0J237500D01*
G01*
X-30525000Y9737500D01*
G75*
G02*
X-30287500Y9975000I237500J0D01*
G01*
X-29712500Y9975000D01*
G75*
G02*
X-29475000Y9737500I0J-237500D01*
G01*
G37*
G36*
G01*
X-27725000Y9737500D02*
X-27725000Y9262500D01*
G75*
G02*
X-27962500Y9025000I-237500J0D01*
G01*
X-28537500Y9025000D01*
G75*
G02*
X-28775000Y9262500I0J237500D01*
G01*
X-28775000Y9737500D01*
G75*
G02*
X-28537500Y9975000I237500J0D01*
G01*
X-27962500Y9975000D01*
G75*
G02*
X-27725000Y9737500I0J-237500D01*
G01*
G37*
G36*
G01*
X-24050000Y-14562500D02*
X-24050000Y-15037500D01*
G75*
G02*
X-24287500Y-15275000I-237500J0D01*
G01*
X-24862500Y-15275000D01*
G75*
G02*
X-25100000Y-15037500I0J237500D01*
G01*
X-25100000Y-14562500D01*
G75*
G02*
X-24862500Y-14325000I237500J0D01*
G01*
X-24287500Y-14325000D01*
G75*
G02*
X-24050000Y-14562500I0J-237500D01*
G01*
G37*
G36*
G01*
X-22300000Y-14562500D02*
X-22300000Y-15037500D01*
G75*
G02*
X-22537500Y-15275000I-237500J0D01*
G01*
X-23112500Y-15275000D01*
G75*
G02*
X-23350000Y-15037500I0J237500D01*
G01*
X-23350000Y-14562500D01*
G75*
G02*
X-23112500Y-14325000I237500J0D01*
G01*
X-22537500Y-14325000D01*
G75*
G02*
X-22300000Y-14562500I0J-237500D01*
G01*
G37*
G36*
G01*
X-28775000Y7762500D02*
X-28775000Y8237500D01*
G75*
G02*
X-28537500Y8475000I237500J0D01*
G01*
X-27962500Y8475000D01*
G75*
G02*
X-27725000Y8237500I0J-237500D01*
G01*
X-27725000Y7762500D01*
G75*
G02*
X-27962500Y7525000I-237500J0D01*
G01*
X-28537500Y7525000D01*
G75*
G02*
X-28775000Y7762500I0J237500D01*
G01*
G37*
G36*
G01*
X-30525000Y7762500D02*
X-30525000Y8237500D01*
G75*
G02*
X-30287500Y8475000I237500J0D01*
G01*
X-29712500Y8475000D01*
G75*
G02*
X-29475000Y8237500I0J-237500D01*
G01*
X-29475000Y7762500D01*
G75*
G02*
X-29712500Y7525000I-237500J0D01*
G01*
X-30287500Y7525000D01*
G75*
G02*
X-30525000Y7762500I0J237500D01*
G01*
G37*
G36*
G01*
X-24560000Y-8185000D02*
X-24240000Y-8185000D01*
G75*
G02*
X-24080000Y-8345000I0J-160000D01*
G01*
X-24080000Y-9025000D01*
G75*
G02*
X-24240000Y-9185000I-160000J0D01*
G01*
X-24560000Y-9185000D01*
G75*
G02*
X-24720000Y-9025000I0J160000D01*
G01*
X-24720000Y-8345000D01*
G75*
G02*
X-24560000Y-8185000I160000J0D01*
G01*
G37*
G36*
G01*
X-24560000Y-6815000D02*
X-24240000Y-6815000D01*
G75*
G02*
X-24080000Y-6975000I0J-160000D01*
G01*
X-24080000Y-7655000D01*
G75*
G02*
X-24240000Y-7815000I-160000J0D01*
G01*
X-24560000Y-7815000D01*
G75*
G02*
X-24720000Y-7655000I0J160000D01*
G01*
X-24720000Y-6975000D01*
G75*
G02*
X-24560000Y-6815000I160000J0D01*
G01*
G37*
G36*
G01*
X-29840000Y-7815000D02*
X-30160000Y-7815000D01*
G75*
G02*
X-30320000Y-7655000I0J160000D01*
G01*
X-30320000Y-6975000D01*
G75*
G02*
X-30160000Y-6815000I160000J0D01*
G01*
X-29840000Y-6815000D01*
G75*
G02*
X-29680000Y-6975000I0J-160000D01*
G01*
X-29680000Y-7655000D01*
G75*
G02*
X-29840000Y-7815000I-160000J0D01*
G01*
G37*
G36*
G01*
X-29840000Y-9185000D02*
X-30160000Y-9185000D01*
G75*
G02*
X-30320000Y-9025000I0J160000D01*
G01*
X-30320000Y-8345000D01*
G75*
G02*
X-30160000Y-8185000I160000J0D01*
G01*
X-29840000Y-8185000D01*
G75*
G02*
X-29680000Y-8345000I0J-160000D01*
G01*
X-29680000Y-9025000D01*
G75*
G02*
X-29840000Y-9185000I-160000J0D01*
G01*
G37*
G36*
G01*
X-29700000Y-4925000D02*
X-29900000Y-4925000D01*
G75*
G02*
X-30000000Y-4825000I0J100000D01*
G01*
X-30000000Y-3525000D01*
G75*
G02*
X-29900000Y-3425000I100000J0D01*
G01*
X-29700000Y-3425000D01*
G75*
G02*
X-29600000Y-3525000I0J-100000D01*
G01*
X-29600000Y-4825000D01*
G75*
G02*
X-29700000Y-4925000I-100000J0D01*
G01*
G37*
G36*
G01*
X-28900000Y-4925000D02*
X-29100000Y-4925000D01*
G75*
G02*
X-29200000Y-4825000I0J100000D01*
G01*
X-29200000Y-3525000D01*
G75*
G02*
X-29100000Y-3425000I100000J0D01*
G01*
X-28900000Y-3425000D01*
G75*
G02*
X-28800000Y-3525000I0J-100000D01*
G01*
X-28800000Y-4825000D01*
G75*
G02*
X-28900000Y-4925000I-100000J0D01*
G01*
G37*
G36*
G01*
X-28100000Y-4925000D02*
X-28300000Y-4925000D01*
G75*
G02*
X-28400000Y-4825000I0J100000D01*
G01*
X-28400000Y-3525000D01*
G75*
G02*
X-28300000Y-3425000I100000J0D01*
G01*
X-28100000Y-3425000D01*
G75*
G02*
X-28000000Y-3525000I0J-100000D01*
G01*
X-28000000Y-4825000D01*
G75*
G02*
X-28100000Y-4925000I-100000J0D01*
G01*
G37*
G36*
G01*
X-27300000Y-4925000D02*
X-27500000Y-4925000D01*
G75*
G02*
X-27600000Y-4825000I0J100000D01*
G01*
X-27600000Y-3525000D01*
G75*
G02*
X-27500000Y-3425000I100000J0D01*
G01*
X-27300000Y-3425000D01*
G75*
G02*
X-27200000Y-3525000I0J-100000D01*
G01*
X-27200000Y-4825000D01*
G75*
G02*
X-27300000Y-4925000I-100000J0D01*
G01*
G37*
G36*
G01*
X-26500000Y-4925000D02*
X-26700000Y-4925000D01*
G75*
G02*
X-26800000Y-4825000I0J100000D01*
G01*
X-26800000Y-3525000D01*
G75*
G02*
X-26700000Y-3425000I100000J0D01*
G01*
X-26500000Y-3425000D01*
G75*
G02*
X-26400000Y-3525000I0J-100000D01*
G01*
X-26400000Y-4825000D01*
G75*
G02*
X-26500000Y-4925000I-100000J0D01*
G01*
G37*
G36*
G01*
X-25700000Y-4925000D02*
X-25900000Y-4925000D01*
G75*
G02*
X-26000000Y-4825000I0J100000D01*
G01*
X-26000000Y-3525000D01*
G75*
G02*
X-25900000Y-3425000I100000J0D01*
G01*
X-25700000Y-3425000D01*
G75*
G02*
X-25600000Y-3525000I0J-100000D01*
G01*
X-25600000Y-4825000D01*
G75*
G02*
X-25700000Y-4925000I-100000J0D01*
G01*
G37*
G36*
G01*
X-24900000Y-4925000D02*
X-25100000Y-4925000D01*
G75*
G02*
X-25200000Y-4825000I0J100000D01*
G01*
X-25200000Y-3525000D01*
G75*
G02*
X-25100000Y-3425000I100000J0D01*
G01*
X-24900000Y-3425000D01*
G75*
G02*
X-24800000Y-3525000I0J-100000D01*
G01*
X-24800000Y-4825000D01*
G75*
G02*
X-24900000Y-4925000I-100000J0D01*
G01*
G37*
G36*
G01*
X-24100000Y-4925000D02*
X-24300000Y-4925000D01*
G75*
G02*
X-24400000Y-4825000I0J100000D01*
G01*
X-24400000Y-3525000D01*
G75*
G02*
X-24300000Y-3425000I100000J0D01*
G01*
X-24100000Y-3425000D01*
G75*
G02*
X-24000000Y-3525000I0J-100000D01*
G01*
X-24000000Y-4825000D01*
G75*
G02*
X-24100000Y-4925000I-100000J0D01*
G01*
G37*
G36*
G01*
X-22175000Y-3000000D02*
X-23475000Y-3000000D01*
G75*
G02*
X-23575000Y-2900000I0J100000D01*
G01*
X-23575000Y-2700000D01*
G75*
G02*
X-23475000Y-2600000I100000J0D01*
G01*
X-22175000Y-2600000D01*
G75*
G02*
X-22075000Y-2700000I0J-100000D01*
G01*
X-22075000Y-2900000D01*
G75*
G02*
X-22175000Y-3000000I-100000J0D01*
G01*
G37*
G36*
G01*
X-22175000Y-2200000D02*
X-23475000Y-2200000D01*
G75*
G02*
X-23575000Y-2100000I0J100000D01*
G01*
X-23575000Y-1900000D01*
G75*
G02*
X-23475000Y-1800000I100000J0D01*
G01*
X-22175000Y-1800000D01*
G75*
G02*
X-22075000Y-1900000I0J-100000D01*
G01*
X-22075000Y-2100000D01*
G75*
G02*
X-22175000Y-2200000I-100000J0D01*
G01*
G37*
G36*
G01*
X-22175000Y-1400000D02*
X-23475000Y-1400000D01*
G75*
G02*
X-23575000Y-1300000I0J100000D01*
G01*
X-23575000Y-1100000D01*
G75*
G02*
X-23475000Y-1000000I100000J0D01*
G01*
X-22175000Y-1000000D01*
G75*
G02*
X-22075000Y-1100000I0J-100000D01*
G01*
X-22075000Y-1300000D01*
G75*
G02*
X-22175000Y-1400000I-100000J0D01*
G01*
G37*
G36*
G01*
X-22175000Y-600000D02*
X-23475000Y-600000D01*
G75*
G02*
X-23575000Y-500000I0J100000D01*
G01*
X-23575000Y-300000D01*
G75*
G02*
X-23475000Y-200000I100000J0D01*
G01*
X-22175000Y-200000D01*
G75*
G02*
X-22075000Y-300000I0J-100000D01*
G01*
X-22075000Y-500000D01*
G75*
G02*
X-22175000Y-600000I-100000J0D01*
G01*
G37*
G36*
G01*
X-22175000Y200000D02*
X-23475000Y200000D01*
G75*
G02*
X-23575000Y300000I0J100000D01*
G01*
X-23575000Y500000D01*
G75*
G02*
X-23475000Y600000I100000J0D01*
G01*
X-22175000Y600000D01*
G75*
G02*
X-22075000Y500000I0J-100000D01*
G01*
X-22075000Y300000D01*
G75*
G02*
X-22175000Y200000I-100000J0D01*
G01*
G37*
G36*
G01*
X-22175000Y1000000D02*
X-23475000Y1000000D01*
G75*
G02*
X-23575000Y1100000I0J100000D01*
G01*
X-23575000Y1300000D01*
G75*
G02*
X-23475000Y1400000I100000J0D01*
G01*
X-22175000Y1400000D01*
G75*
G02*
X-22075000Y1300000I0J-100000D01*
G01*
X-22075000Y1100000D01*
G75*
G02*
X-22175000Y1000000I-100000J0D01*
G01*
G37*
G36*
G01*
X-22175000Y1800000D02*
X-23475000Y1800000D01*
G75*
G02*
X-23575000Y1900000I0J100000D01*
G01*
X-23575000Y2100000D01*
G75*
G02*
X-23475000Y2200000I100000J0D01*
G01*
X-22175000Y2200000D01*
G75*
G02*
X-22075000Y2100000I0J-100000D01*
G01*
X-22075000Y1900000D01*
G75*
G02*
X-22175000Y1800000I-100000J0D01*
G01*
G37*
G36*
G01*
X-22175000Y2600000D02*
X-23475000Y2600000D01*
G75*
G02*
X-23575000Y2700000I0J100000D01*
G01*
X-23575000Y2900000D01*
G75*
G02*
X-23475000Y3000000I100000J0D01*
G01*
X-22175000Y3000000D01*
G75*
G02*
X-22075000Y2900000I0J-100000D01*
G01*
X-22075000Y2700000D01*
G75*
G02*
X-22175000Y2600000I-100000J0D01*
G01*
G37*
G36*
G01*
X-24100000Y3425000D02*
X-24300000Y3425000D01*
G75*
G02*
X-24400000Y3525000I0J100000D01*
G01*
X-24400000Y4825000D01*
G75*
G02*
X-24300000Y4925000I100000J0D01*
G01*
X-24100000Y4925000D01*
G75*
G02*
X-24000000Y4825000I0J-100000D01*
G01*
X-24000000Y3525000D01*
G75*
G02*
X-24100000Y3425000I-100000J0D01*
G01*
G37*
G36*
G01*
X-24900000Y3425000D02*
X-25100000Y3425000D01*
G75*
G02*
X-25200000Y3525000I0J100000D01*
G01*
X-25200000Y4825000D01*
G75*
G02*
X-25100000Y4925000I100000J0D01*
G01*
X-24900000Y4925000D01*
G75*
G02*
X-24800000Y4825000I0J-100000D01*
G01*
X-24800000Y3525000D01*
G75*
G02*
X-24900000Y3425000I-100000J0D01*
G01*
G37*
G36*
G01*
X-25700000Y3425000D02*
X-25900000Y3425000D01*
G75*
G02*
X-26000000Y3525000I0J100000D01*
G01*
X-26000000Y4825000D01*
G75*
G02*
X-25900000Y4925000I100000J0D01*
G01*
X-25700000Y4925000D01*
G75*
G02*
X-25600000Y4825000I0J-100000D01*
G01*
X-25600000Y3525000D01*
G75*
G02*
X-25700000Y3425000I-100000J0D01*
G01*
G37*
G36*
G01*
X-26500000Y3425000D02*
X-26700000Y3425000D01*
G75*
G02*
X-26800000Y3525000I0J100000D01*
G01*
X-26800000Y4825000D01*
G75*
G02*
X-26700000Y4925000I100000J0D01*
G01*
X-26500000Y4925000D01*
G75*
G02*
X-26400000Y4825000I0J-100000D01*
G01*
X-26400000Y3525000D01*
G75*
G02*
X-26500000Y3425000I-100000J0D01*
G01*
G37*
G36*
G01*
X-27300000Y3425000D02*
X-27500000Y3425000D01*
G75*
G02*
X-27600000Y3525000I0J100000D01*
G01*
X-27600000Y4825000D01*
G75*
G02*
X-27500000Y4925000I100000J0D01*
G01*
X-27300000Y4925000D01*
G75*
G02*
X-27200000Y4825000I0J-100000D01*
G01*
X-27200000Y3525000D01*
G75*
G02*
X-27300000Y3425000I-100000J0D01*
G01*
G37*
G36*
G01*
X-28100000Y3425000D02*
X-28300000Y3425000D01*
G75*
G02*
X-28400000Y3525000I0J100000D01*
G01*
X-28400000Y4825000D01*
G75*
G02*
X-28300000Y4925000I100000J0D01*
G01*
X-28100000Y4925000D01*
G75*
G02*
X-28000000Y4825000I0J-100000D01*
G01*
X-28000000Y3525000D01*
G75*
G02*
X-28100000Y3425000I-100000J0D01*
G01*
G37*
G36*
G01*
X-28900000Y3425000D02*
X-29100000Y3425000D01*
G75*
G02*
X-29200000Y3525000I0J100000D01*
G01*
X-29200000Y4825000D01*
G75*
G02*
X-29100000Y4925000I100000J0D01*
G01*
X-28900000Y4925000D01*
G75*
G02*
X-28800000Y4825000I0J-100000D01*
G01*
X-28800000Y3525000D01*
G75*
G02*
X-28900000Y3425000I-100000J0D01*
G01*
G37*
G36*
G01*
X-29700000Y3425000D02*
X-29900000Y3425000D01*
G75*
G02*
X-30000000Y3525000I0J100000D01*
G01*
X-30000000Y4825000D01*
G75*
G02*
X-29900000Y4925000I100000J0D01*
G01*
X-29700000Y4925000D01*
G75*
G02*
X-29600000Y4825000I0J-100000D01*
G01*
X-29600000Y3525000D01*
G75*
G02*
X-29700000Y3425000I-100000J0D01*
G01*
G37*
G36*
G01*
X-30525000Y2600000D02*
X-31825000Y2600000D01*
G75*
G02*
X-31925000Y2700000I0J100000D01*
G01*
X-31925000Y2900000D01*
G75*
G02*
X-31825000Y3000000I100000J0D01*
G01*
X-30525000Y3000000D01*
G75*
G02*
X-30425000Y2900000I0J-100000D01*
G01*
X-30425000Y2700000D01*
G75*
G02*
X-30525000Y2600000I-100000J0D01*
G01*
G37*
G36*
G01*
X-30525000Y1800000D02*
X-31825000Y1800000D01*
G75*
G02*
X-31925000Y1900000I0J100000D01*
G01*
X-31925000Y2100000D01*
G75*
G02*
X-31825000Y2200000I100000J0D01*
G01*
X-30525000Y2200000D01*
G75*
G02*
X-30425000Y2100000I0J-100000D01*
G01*
X-30425000Y1900000D01*
G75*
G02*
X-30525000Y1800000I-100000J0D01*
G01*
G37*
G36*
G01*
X-30525000Y1000000D02*
X-31825000Y1000000D01*
G75*
G02*
X-31925000Y1100000I0J100000D01*
G01*
X-31925000Y1300000D01*
G75*
G02*
X-31825000Y1400000I100000J0D01*
G01*
X-30525000Y1400000D01*
G75*
G02*
X-30425000Y1300000I0J-100000D01*
G01*
X-30425000Y1100000D01*
G75*
G02*
X-30525000Y1000000I-100000J0D01*
G01*
G37*
G36*
G01*
X-30525000Y200000D02*
X-31825000Y200000D01*
G75*
G02*
X-31925000Y300000I0J100000D01*
G01*
X-31925000Y500000D01*
G75*
G02*
X-31825000Y600000I100000J0D01*
G01*
X-30525000Y600000D01*
G75*
G02*
X-30425000Y500000I0J-100000D01*
G01*
X-30425000Y300000D01*
G75*
G02*
X-30525000Y200000I-100000J0D01*
G01*
G37*
G36*
G01*
X-30525000Y-600000D02*
X-31825000Y-600000D01*
G75*
G02*
X-31925000Y-500000I0J100000D01*
G01*
X-31925000Y-300000D01*
G75*
G02*
X-31825000Y-200000I100000J0D01*
G01*
X-30525000Y-200000D01*
G75*
G02*
X-30425000Y-300000I0J-100000D01*
G01*
X-30425000Y-500000D01*
G75*
G02*
X-30525000Y-600000I-100000J0D01*
G01*
G37*
G36*
G01*
X-30525000Y-1400000D02*
X-31825000Y-1400000D01*
G75*
G02*
X-31925000Y-1300000I0J100000D01*
G01*
X-31925000Y-1100000D01*
G75*
G02*
X-31825000Y-1000000I100000J0D01*
G01*
X-30525000Y-1000000D01*
G75*
G02*
X-30425000Y-1100000I0J-100000D01*
G01*
X-30425000Y-1300000D01*
G75*
G02*
X-30525000Y-1400000I-100000J0D01*
G01*
G37*
G36*
G01*
X-30525000Y-2200000D02*
X-31825000Y-2200000D01*
G75*
G02*
X-31925000Y-2100000I0J100000D01*
G01*
X-31925000Y-1900000D01*
G75*
G02*
X-31825000Y-1800000I100000J0D01*
G01*
X-30525000Y-1800000D01*
G75*
G02*
X-30425000Y-1900000I0J-100000D01*
G01*
X-30425000Y-2100000D01*
G75*
G02*
X-30525000Y-2200000I-100000J0D01*
G01*
G37*
G36*
G01*
X-30525000Y-3000000D02*
X-31825000Y-3000000D01*
G75*
G02*
X-31925000Y-2900000I0J100000D01*
G01*
X-31925000Y-2700000D01*
G75*
G02*
X-31825000Y-2600000I100000J0D01*
G01*
X-30525000Y-2600000D01*
G75*
G02*
X-30425000Y-2700000I0J-100000D01*
G01*
X-30425000Y-2900000D01*
G75*
G02*
X-30525000Y-3000000I-100000J0D01*
G01*
G37*
G36*
G01*
X-35525000Y-4062500D02*
X-35525000Y-4537500D01*
G75*
G02*
X-35762500Y-4775000I-237500J0D01*
G01*
X-36337500Y-4775000D01*
G75*
G02*
X-36575000Y-4537500I0J237500D01*
G01*
X-36575000Y-4062500D01*
G75*
G02*
X-36337500Y-3825000I237500J0D01*
G01*
X-35762500Y-3825000D01*
G75*
G02*
X-35525000Y-4062500I0J-237500D01*
G01*
G37*
G36*
G01*
X-33775000Y-4062500D02*
X-33775000Y-4537500D01*
G75*
G02*
X-34012500Y-4775000I-237500J0D01*
G01*
X-34587500Y-4775000D01*
G75*
G02*
X-34825000Y-4537500I0J237500D01*
G01*
X-34825000Y-4062500D01*
G75*
G02*
X-34587500Y-3825000I237500J0D01*
G01*
X-34012500Y-3825000D01*
G75*
G02*
X-33775000Y-4062500I0J-237500D01*
G01*
G37*
G36*
G01*
X-20775000Y3862500D02*
X-20775000Y4337500D01*
G75*
G02*
X-20537500Y4575000I237500J0D01*
G01*
X-19962500Y4575000D01*
G75*
G02*
X-19725000Y4337500I0J-237500D01*
G01*
X-19725000Y3862500D01*
G75*
G02*
X-19962500Y3625000I-237500J0D01*
G01*
X-20537500Y3625000D01*
G75*
G02*
X-20775000Y3862500I0J237500D01*
G01*
G37*
G36*
G01*
X-22525000Y3862500D02*
X-22525000Y4337500D01*
G75*
G02*
X-22287500Y4575000I237500J0D01*
G01*
X-21712500Y4575000D01*
G75*
G02*
X-21475000Y4337500I0J-237500D01*
G01*
X-21475000Y3862500D01*
G75*
G02*
X-21712500Y3625000I-237500J0D01*
G01*
X-22287500Y3625000D01*
G75*
G02*
X-22525000Y3862500I0J237500D01*
G01*
G37*
G36*
G01*
X-35525000Y-5562500D02*
X-35525000Y-6037500D01*
G75*
G02*
X-35762500Y-6275000I-237500J0D01*
G01*
X-36337500Y-6275000D01*
G75*
G02*
X-36575000Y-6037500I0J237500D01*
G01*
X-36575000Y-5562500D01*
G75*
G02*
X-36337500Y-5325000I237500J0D01*
G01*
X-35762500Y-5325000D01*
G75*
G02*
X-35525000Y-5562500I0J-237500D01*
G01*
G37*
G36*
G01*
X-33775000Y-5562500D02*
X-33775000Y-6037500D01*
G75*
G02*
X-34012500Y-6275000I-237500J0D01*
G01*
X-34587500Y-6275000D01*
G75*
G02*
X-34825000Y-6037500I0J237500D01*
G01*
X-34825000Y-5562500D01*
G75*
G02*
X-34587500Y-5325000I237500J0D01*
G01*
X-34012500Y-5325000D01*
G75*
G02*
X-33775000Y-5562500I0J-237500D01*
G01*
G37*
G36*
G01*
X7075000Y-10225000D02*
X4925000Y-10225000D01*
G75*
G02*
X4675000Y-9975000I0J250000D01*
G01*
X4675000Y-9050000D01*
G75*
G02*
X4925000Y-8800000I250000J0D01*
G01*
X7075000Y-8800000D01*
G75*
G02*
X7325000Y-9050000I0J-250000D01*
G01*
X7325000Y-9975000D01*
G75*
G02*
X7075000Y-10225000I-250000J0D01*
G01*
G37*
G36*
G01*
X7075000Y-13200000D02*
X4925000Y-13200000D01*
G75*
G02*
X4675000Y-12950000I0J250000D01*
G01*
X4675000Y-12025000D01*
G75*
G02*
X4925000Y-11775000I250000J0D01*
G01*
X7075000Y-11775000D01*
G75*
G02*
X7325000Y-12025000I0J-250000D01*
G01*
X7325000Y-12950000D01*
G75*
G02*
X7075000Y-13200000I-250000J0D01*
G01*
G37*
G36*
G01*
X7075000Y775000D02*
X4925000Y775000D01*
G75*
G02*
X4675000Y1025000I0J250000D01*
G01*
X4675000Y1950000D01*
G75*
G02*
X4925000Y2200000I250000J0D01*
G01*
X7075000Y2200000D01*
G75*
G02*
X7325000Y1950000I0J-250000D01*
G01*
X7325000Y1025000D01*
G75*
G02*
X7075000Y775000I-250000J0D01*
G01*
G37*
G36*
G01*
X7075000Y-2200000D02*
X4925000Y-2200000D01*
G75*
G02*
X4675000Y-1950000I0J250000D01*
G01*
X4675000Y-1025000D01*
G75*
G02*
X4925000Y-775000I250000J0D01*
G01*
X7075000Y-775000D01*
G75*
G02*
X7325000Y-1025000I0J-250000D01*
G01*
X7325000Y-1950000D01*
G75*
G02*
X7075000Y-2200000I-250000J0D01*
G01*
G37*
G36*
G01*
X7075000Y11775000D02*
X4925000Y11775000D01*
G75*
G02*
X4675000Y12025000I0J250000D01*
G01*
X4675000Y12950000D01*
G75*
G02*
X4925000Y13200000I250000J0D01*
G01*
X7075000Y13200000D01*
G75*
G02*
X7325000Y12950000I0J-250000D01*
G01*
X7325000Y12025000D01*
G75*
G02*
X7075000Y11775000I-250000J0D01*
G01*
G37*
G36*
G01*
X7075000Y8800000D02*
X4925000Y8800000D01*
G75*
G02*
X4675000Y9050000I0J250000D01*
G01*
X4675000Y9975000D01*
G75*
G02*
X4925000Y10225000I250000J0D01*
G01*
X7075000Y10225000D01*
G75*
G02*
X7325000Y9975000I0J-250000D01*
G01*
X7325000Y9050000D01*
G75*
G02*
X7075000Y8800000I-250000J0D01*
G01*
G37*
M02*
