M48
; DRILL file {KiCad (5.1.10-1-10_14)} date Sunday, August 08, 2021 at 07:50:55 PM
; FORMAT={-:-/ absolute / metric / decimal}
; #@! TF.CreationDate,2021-08-08T19:50:55+09:00
; #@! TF.GenerationSoftware,Kicad,Pcbnew,(5.1.10-1-10_14)
FMAT,2
METRIC
T1C0.305
T2C0.700
T3C0.900
T4C0.950
T5C2.000
T6C4.300
%
G90
G05
T1
X-39.2Y5.0
X-39.2Y0.0
X-34.1Y0.1
X-33.8Y26.3
X-33.7Y-14.5
X-33.5Y-7.6
X-33.4Y12.5
X-33.1Y19.5
X-31.0Y20.0
X-31.0Y13.0
X-31.0Y6.0
X-31.0Y-7.0
X-31.0Y-14.0
X-31.0Y-21.0
X-23.3Y26.0
X-23.0Y-1.0
X-22.2Y7.2
X-22.1Y-20.1
X-21.1Y26.0
X-21.0Y-1.0
X-19.0Y26.0
X-19.0Y-1.0
X-16.2Y17.7
X-16.2Y-9.3
X-16.1Y-10.2
X-16.035Y16.8
X-14.7Y17.7
X-14.7Y-9.3
X-14.0Y16.8
X-14.0Y-10.2
X-12.3Y16.8
X-12.3Y-10.2
X-9.1Y-0.4
X-9.0Y25.1
X-8.9Y-1.9
X-8.8Y6.6
X-8.8Y-20.3
X-8.2Y18.5
X-8.0Y-8.5
X-7.5Y22.0
X-7.5Y-5.0
X-3.861Y1.561
X-3.8Y-0.5
X-3.4Y20.9
X3.0Y-19.2
X3.4Y-13.2
X3.7Y-1.2
X7.5Y5.0
X7.5Y-22.0
X7.9Y9.5
X8.0Y-18.5
X8.8Y20.4
X8.8Y3.4
X8.8Y-7.0
X9.0Y0.9
X9.0Y-25.1
X12.1Y-16.9
X12.2Y10.3
X13.9Y10.3
X13.9Y-16.9
X14.6Y9.5
X14.6Y-17.7
X16.1Y10.3
X16.1Y-16.9
X16.3Y-17.7
X16.5Y9.5
X19.0Y1.0
X19.1Y-26.0
X21.1Y-26.0
X21.6Y1.0
X22.1Y19.8
X22.3Y-6.8
X23.1Y-26.0
X23.6Y0.7
X25.4Y-1.9
X31.0Y21.0
X31.0Y14.0
X31.0Y7.0
X31.0Y-6.0
X31.0Y-13.0
X31.0Y-20.0
X33.3Y14.5
X33.5Y-12.5
X33.8Y-19.4
X34.4Y7.5
X34.4Y0.1
X34.5Y-26.3
X39.2Y0.0
X39.2Y-4.9
T2
X-28.0Y4.0
X-28.0Y-23.0
X-26.73Y4.0
X-26.73Y-23.0
X-25.46Y4.0
X-25.46Y-23.0
X-24.19Y4.0
X-24.19Y-23.0
X-22.92Y4.0
X-22.92Y-23.0
X22.92Y23.0
X22.92Y-4.0
X24.19Y23.0
X24.19Y-4.0
X25.46Y23.0
X25.46Y-4.0
X26.73Y23.0
X26.73Y-4.0
X28.0Y23.0
X28.0Y-4.0
T3
X-6.0Y21.78
X-6.0Y19.24
X-6.0Y16.7
X-6.0Y14.16
X-6.0Y11.62
X-6.0Y9.08
X-6.0Y6.54
X-6.0Y4.0
X-6.0Y-5.22
X-6.0Y-7.76
X-6.0Y-10.3
X-6.0Y-12.84
X-6.0Y-15.38
X-6.0Y-17.92
X-6.0Y-20.46
X-6.0Y-23.0
X0.0Y19.0
X0.0Y15.5
X0.0Y12.0
X0.0Y8.5
X6.0Y23.0
X6.0Y20.46
X6.0Y17.92
X6.0Y15.38
X6.0Y12.84
X6.0Y10.3
X6.0Y7.76
X6.0Y5.22
X6.0Y-4.0
X6.0Y-6.54
X6.0Y-9.08
X6.0Y-11.62
X6.0Y-14.16
X6.0Y-16.7
X6.0Y-19.24
X6.0Y-21.78
T4
X-39.0Y18.5
X-39.0Y16.0
X-39.0Y13.5
X-39.0Y-8.5
X-39.0Y-11.0
X-39.0Y-13.5
X-2.5Y25.0
X-1.27Y-25.0
X0.0Y25.0
X1.23Y-25.0
X2.5Y25.0
X39.0Y13.5
X39.0Y11.0
X39.0Y8.5
X39.0Y-13.5
X39.0Y-16.0
X39.0Y-18.5
T5
X-37.0Y-23.0
X37.0Y23.0
T6
X0.0Y0.0
T0
M30
